<?xml version="1.0" encoding="UTF-8" standalone="no"?>
<!DOCTYPE svg PUBLIC "-//W3C//DTD SVG 1.1//EN" "http://www.w3.org/Graphics/SVG/1.1/DTD/svg11.dtd">
<svg width="100%" height="100%" viewBox="0 0 177 181" version="1.1" xmlns="http://www.w3.org/2000/svg" xmlns:xlink="http://www.w3.org/1999/xlink" xml:space="preserve" xmlns:serif="http://www.serif.com/" style="fill-rule:evenodd;clip-rule:evenodd;stroke-linejoin:round;stroke-miterlimit:2;">
    <g transform="matrix(0.633028,3.17184e-19,-3.17184e-19,-0.630438,-20.2205,181)">
        <path d="M87.449,284.582C87.449,282.621 87.352,282.028 87,281.891C86.617,281.746 86.551,280.672 86.551,274.789C86.551,266.934 86.57,267 84.32,267C83.301,267 82.949,266.887 82.949,266.551C82.949,266.305 82.746,266.102 82.5,266.102C82.254,266.102 82.051,265.965 82.051,265.801C82.051,265.637 81.578,265.5 81,265.5C80.266,265.5 79.949,265.363 79.949,265.051C79.949,264.684 79.449,264.602 77.25,264.602C75.648,264.602 74.551,264.481 74.551,264.301C74.551,264.137 73.875,264 73.051,264C71.918,264 71.551,263.891 71.551,263.551C71.551,263.27 71.266,263.102 70.801,263.102C70.387,263.102 70.051,262.965 70.051,262.801C70.051,262.637 69.711,262.5 69.301,262.5C68.887,262.5 68.551,262.332 68.551,262.121C68.551,261.914 68.211,261.489 67.801,261.18C67.387,260.871 67.051,260.367 67.051,260.059C67.051,259.754 66.914,259.5 66.75,259.5C66.566,259.5 66.449,258.153 66.449,256.051C66.449,253.184 66.375,252.602 66,252.602C65.66,252.602 65.551,252.235 65.551,251.102C65.551,249.699 65.5,249.602 64.801,249.602C64.387,249.602 64.051,249.465 64.051,249.301C64.051,249.137 63.711,249 63.301,249C62.832,249 62.551,248.832 62.551,248.551C62.551,248.239 62.234,248.102 61.5,248.102C60.922,248.102 60.449,247.965 60.449,247.801C60.449,247.637 60.246,247.5 60,247.5C59.754,247.5 59.551,247.356 59.551,247.18C59.551,246.649 58.734,246 58.07,246C57.719,246 57.449,245.805 57.449,245.551C57.449,245.305 57.305,245.102 57.129,245.102C56.715,245.102 55.949,244.336 55.949,243.922C55.949,243.746 55.613,243.602 55.199,243.602C54.789,243.602 54.449,243.465 54.449,243.301C54.449,243.137 54.246,243 54,243C53.754,243 53.551,242.856 53.551,242.68C53.551,242.266 52.785,241.5 52.371,241.5C52.195,241.5 52.051,241.356 52.051,241.18C52.051,240.766 51.285,240 50.871,240C50.695,240 50.551,239.797 50.551,239.551C50.551,239.305 50.414,239.102 50.25,239.102C50.086,239.102 49.949,238.762 49.949,238.352C49.949,237.883 49.781,237.602 49.5,237.602C49.188,237.602 49.051,237.285 49.051,236.551C49.051,235.973 48.914,235.5 48.75,235.5C48.57,235.5 48.449,234.403 48.449,232.801C48.449,231.199 48.57,230.102 48.75,230.102C48.914,230.102 49.051,229.629 49.051,229.051C49.051,228.473 48.914,228 48.75,228C48.566,228 48.449,226.551 48.449,224.25C48.449,221.117 48.375,220.5 48,220.5C47.324,220.5 47.324,209.469 48,209.211C48.297,209.094 48.453,208.613 48.461,207.793C48.469,206.531 48.984,205.5 49.609,205.5C49.797,205.5 49.949,205.164 49.949,204.75C49.949,204.34 50.086,204 50.25,204C50.414,204 50.551,203.664 50.551,203.25C50.551,202.84 50.414,202.5 50.25,202.5C50.086,202.5 49.949,202.297 49.949,202.051C49.949,201.805 49.746,201.602 49.5,201.602C49.254,201.602 49.051,201.465 49.051,201.301C49.051,201.137 48.797,201 48.492,201C48.184,201 47.68,200.664 47.371,200.25C47.062,199.84 46.637,199.5 46.43,199.5C46.219,199.5 46.051,199.356 46.051,199.18C46.051,198.766 45.285,198 44.871,198C44.695,198 44.551,197.856 44.551,197.68C44.551,197.149 43.734,196.5 43.07,196.5C42.719,196.5 42.449,196.305 42.449,196.051C42.449,195.805 42.305,195.602 42.129,195.602C41.715,195.602 40.949,194.836 40.949,194.422C40.949,194.246 40.805,194.102 40.629,194.102C40.215,194.102 39.449,193.336 39.449,192.922C39.449,192.746 39.246,192.602 39,192.602C38.754,192.602 38.551,192.465 38.551,192.301C38.551,192.137 38.297,192 37.992,192C37.684,192 37.18,191.664 36.871,191.25C36.562,190.84 36.137,190.5 35.93,190.5C35.719,190.5 35.551,190.356 35.551,190.18C35.551,189.766 34.785,189 34.371,189C34.195,189 34.051,188.664 34.051,188.25C34.051,187.84 33.914,187.5 33.75,187.5C33.586,187.5 33.449,186.961 33.449,186.301C33.449,185.434 33.324,185.102 33,185.102C32.66,185.102 32.551,184.735 32.551,183.602C32.551,182.778 32.414,182.102 32.25,182.102C31.84,182.102 31.84,166.004 32.25,165.75C32.414,165.649 32.551,164.828 32.551,163.922C32.551,162.742 32.676,162.235 33,162.11C33.273,162.004 33.449,161.547 33.449,160.938C33.449,160.387 33.586,159.852 33.75,159.75C33.914,159.649 34.051,159.102 34.051,158.531C34.051,157.817 34.188,157.5 34.5,157.5C34.781,157.5 34.949,157.219 34.949,156.75C34.949,156.34 35.086,156 35.25,156C35.414,156 35.551,155.524 35.551,154.942C35.551,154.278 35.719,153.817 36,153.711C36.246,153.613 36.449,153.289 36.449,152.989C36.449,152.684 36.586,152.352 36.75,152.25C36.914,152.149 37.051,151.801 37.051,151.473C37.051,151.149 37.254,150.805 37.5,150.711C37.746,150.613 37.949,150.281 37.949,149.969C37.949,149.656 38.086,149.403 38.25,149.403C38.414,149.403 38.551,149.199 38.551,148.949C38.551,148.703 38.754,148.5 39,148.5C39.258,148.5 39.449,148.231 39.449,147.86C39.449,147.508 39.789,146.906 40.199,146.524C40.613,146.141 40.953,145.656 40.961,145.442C40.973,144.903 41.691,144 42.109,144C42.297,144 42.449,143.797 42.449,143.551C42.449,143.305 42.586,143.102 42.75,143.102C42.914,143.102 43.051,142.832 43.051,142.5C43.051,142.168 43.25,141.903 43.5,141.903C43.746,141.903 43.949,141.758 43.949,141.578C43.949,141.164 44.715,140.403 45.129,140.403C45.305,140.403 45.449,140.258 45.449,140.078C45.449,139.664 46.215,138.903 46.629,138.903C46.805,138.903 46.949,138.758 46.949,138.578C46.949,138.051 47.766,137.403 48.43,137.403C48.781,137.403 49.051,137.207 49.051,136.949C49.051,136.703 49.195,136.5 49.371,136.5C49.785,136.5 50.551,135.739 50.551,135.324C50.551,135.145 50.754,135 51,135C51.246,135 51.449,134.867 51.449,134.699C51.449,134.535 51.789,134.403 52.199,134.403C52.668,134.403 52.949,134.231 52.949,133.949C52.949,133.61 53.316,133.5 54.449,133.5C55.273,133.5 55.949,133.367 55.949,133.199C55.949,133.02 57.25,132.903 59.25,132.903C61.25,132.903 62.551,133.02 62.551,133.199C62.551,133.367 63.352,133.5 64.359,133.5C65.691,133.5 66.215,133.621 66.34,133.949C66.438,134.199 66.836,134.403 67.23,134.403C67.625,134.403 67.949,134.535 67.949,134.699C67.949,134.867 68.422,135 69,135C69.734,135 70.051,135.137 70.051,135.449C70.051,135.731 70.332,135.903 70.801,135.903C71.211,135.903 71.551,136.035 71.551,136.199C71.551,136.367 71.754,136.5 72,136.5C72.246,136.5 72.449,136.703 72.449,136.949C72.449,137.231 72.734,137.403 73.199,137.403C73.613,137.403 73.949,137.535 73.949,137.699C73.949,137.867 74.203,138 74.508,138C74.816,138 75.32,138.34 75.629,138.75C75.938,139.164 76.363,139.5 76.57,139.5C76.781,139.5 76.949,139.645 76.949,139.824C76.949,140.239 77.715,141 78.129,141C78.352,141 78.449,137.551 78.449,129.75C78.449,122.449 78.555,118.5 78.75,118.5C78.918,118.5 79.051,117.699 79.051,116.699C79.051,115.301 79.148,114.903 79.5,114.903C79.781,114.903 79.949,114.617 79.949,114.153C79.949,113.739 80.086,113.403 80.25,113.403C80.414,113.403 80.551,113.199 80.551,112.949C80.551,112.703 80.754,112.5 81,112.5C81.246,112.5 81.449,112.367 81.449,112.199C81.449,112.035 81.789,111.903 82.199,111.903C82.668,111.903 82.949,111.731 82.949,111.449C82.949,111.137 83.266,111 84,111C84.578,111 85.051,110.867 85.051,110.699C85.051,110.535 85.254,110.403 85.5,110.403C85.746,110.403 85.949,110.258 85.949,110.078C85.949,109.664 86.715,108.903 87.129,108.903C87.305,108.903 87.449,108.563 87.449,108.153C87.449,107.739 87.586,107.403 87.75,107.403C87.945,107.403 88.051,99.051 88.051,82.949L88.051,58.5L92.551,58.5C95.352,58.5 97.051,58.387 97.051,58.199C97.051,58.035 97.727,57.903 98.551,57.903C99.684,57.903 100.051,57.789 100.051,57.449C100.051,57.172 100.332,57 100.801,57C101.211,57 101.551,56.867 101.551,56.699C101.551,56.535 101.887,56.403 102.301,56.403C102.766,56.403 103.051,56.231 103.051,55.949C103.051,55.672 103.332,55.5 103.801,55.5C104.211,55.5 104.551,55.367 104.551,55.199C104.551,55.035 104.754,54.903 105,54.903C105.246,54.903 105.449,54.699 105.449,54.449C105.449,54.203 105.586,54 105.75,54C105.914,54 106.051,53.727 106.051,53.391C106.051,53.055 106.254,52.703 106.5,52.61C106.828,52.485 106.949,51.965 106.949,50.668C106.949,49.692 107.086,48.903 107.25,48.903C107.973,48.903 107.586,45.172 106.801,44.578C106.387,44.27 106.051,43.766 106.051,43.457C106.051,43.153 105.914,42.903 105.75,42.903C105.586,42.903 105.449,42.711 105.449,42.485C105.449,42.254 105.246,41.989 105,41.891C104.336,41.637 104.336,35.403 105,35.403C105.246,35.403 105.449,35.199 105.449,34.949C105.449,34.703 105.586,34.5 105.75,34.5C105.914,34.5 106.051,34.164 106.051,33.75C106.051,33.34 106.195,33 106.371,33C106.902,33 107.551,32.188 107.551,31.524C107.551,31.172 107.746,30.903 108,30.903C108.246,30.903 108.449,30.699 108.449,30.449C108.449,30.203 108.586,30 108.75,30C108.914,30 109.051,29.75 109.051,29.442C109.051,29.137 109.387,28.633 109.801,28.321C110.211,28.012 110.551,27.59 110.551,27.379C110.551,27.172 110.695,27 110.871,27C111.285,27 112.051,26.239 112.051,25.824C112.051,25.645 112.254,25.5 112.5,25.5C112.754,25.5 112.949,25.231 112.949,24.879C112.949,24.215 113.598,23.403 114.129,23.403C114.305,23.403 114.449,23.199 114.449,22.949C114.449,22.696 114.719,22.5 115.07,22.5C115.734,22.5 116.551,21.852 116.551,21.324C116.551,21.145 116.719,21 116.93,21C117.137,21 117.562,20.664 117.871,20.25C118.18,19.84 118.684,19.5 118.992,19.5C119.297,19.5 119.551,19.367 119.551,19.199C119.551,19.035 119.754,18.903 120,18.903C120.246,18.903 120.449,18.699 120.449,18.449C120.449,18.172 120.734,18 121.199,18C121.613,18 121.949,17.867 121.949,17.699C121.949,17.535 122.289,17.403 122.699,17.403C123.168,17.403 123.449,17.231 123.449,16.949C123.449,16.637 123.766,16.5 124.5,16.5C125.078,16.5 125.551,16.367 125.551,16.199C125.551,16.035 126.227,15.903 127.051,15.903C128.184,15.903 128.551,15.789 128.551,15.449C128.551,15.063 129.582,15 136.051,15C142.516,15 143.551,15.063 143.551,15.449C143.551,15.813 144,15.903 145.801,15.903C147.102,15.903 148.051,16.028 148.051,16.199C148.051,16.367 148.852,16.5 149.859,16.5C151.191,16.5 151.715,16.621 151.84,16.949C151.961,17.266 152.453,17.403 153.48,17.403C154.289,17.403 154.949,17.535 154.949,17.699C154.949,17.867 155.422,18 156,18C156.734,18 157.051,18.137 157.051,18.449C157.051,18.699 157.254,18.903 157.5,18.903C157.746,18.903 157.949,19.035 157.949,19.199C157.949,19.367 158.203,19.5 158.508,19.5C158.816,19.5 159.32,19.84 159.629,20.25C159.941,20.664 160.496,21 160.871,21C161.273,21 161.551,21.184 161.551,21.449C161.551,21.699 161.754,21.903 162,21.903C162.246,21.903 162.449,22.035 162.449,22.199C162.449,22.367 162.703,22.5 163.008,22.5C163.316,22.5 163.82,22.84 164.129,23.25C164.441,23.664 164.996,24 165.371,24C165.773,24 166.051,24.184 166.051,24.449C166.051,24.699 166.254,24.903 166.5,24.903C166.746,24.903 166.949,24.699 166.949,24.449C166.949,24.196 167.219,24 167.57,24C168.234,24 169.051,23.352 169.051,22.824C169.051,22.645 169.254,22.5 169.5,22.5C169.746,22.5 169.949,22.367 169.949,22.199C169.949,22.035 170.289,21.903 170.699,21.903C171.113,21.903 171.449,21.758 171.449,21.578C171.449,21.164 172.215,20.403 172.629,20.403C172.805,20.403 172.949,20.258 172.949,20.078C172.949,19.551 173.766,18.903 174.43,18.903C174.781,18.903 175.051,18.707 175.051,18.449C175.051,18.203 175.195,18 175.371,18C175.785,18 176.551,17.239 176.551,16.824C176.551,16.645 176.719,16.5 176.93,16.5C177.137,16.5 177.562,16.164 177.871,15.75C178.18,15.34 178.684,15 178.992,15C179.297,15 179.551,14.867 179.551,14.699C179.551,14.535 179.754,14.403 180,14.403C180.246,14.403 180.449,14.258 180.449,14.078C180.449,13.664 181.215,12.903 181.629,12.903C181.805,12.903 181.949,12.699 181.949,12.449C181.949,12.184 182.227,12 182.629,12C183.004,12 183.559,11.664 183.871,11.25C184.18,10.84 184.684,10.5 184.992,10.5C185.297,10.5 185.551,10.367 185.551,10.199C185.551,10.035 185.875,9.903 186.27,9.903C186.664,9.903 187.062,9.699 187.16,9.449C187.266,9.168 187.727,9 188.391,9C188.973,9 189.449,8.867 189.449,8.699C189.449,8.52 190.648,8.403 192.449,8.403C194.25,8.403 195.449,8.52 195.449,8.699C195.449,8.867 195.703,9 196.008,9C196.316,9 196.82,9.34 197.129,9.75C197.441,10.164 197.996,10.5 198.371,10.5C198.773,10.5 199.051,10.684 199.051,10.949C199.051,11.321 199.578,11.403 202.02,11.403C204.379,11.403 205.02,11.309 205.16,10.949C205.266,10.668 205.727,10.5 206.391,10.5C206.973,10.5 207.449,10.367 207.449,10.199C207.449,10.035 207.922,9.903 208.5,9.903C209.234,9.903 209.551,9.766 209.551,9.449C209.551,9.125 209.883,9 210.75,9C211.41,9 211.949,8.867 211.949,8.699C211.949,8.52 213.148,8.403 214.949,8.403C216.75,8.403 217.949,8.52 217.949,8.699C217.949,8.867 218.289,9 218.699,9C219.168,9 219.449,9.172 219.449,9.449C219.449,9.707 219.719,9.903 220.07,9.903C220.734,9.903 221.551,10.551 221.551,11.078C221.551,11.258 221.695,11.403 221.871,11.403C222.285,11.403 223.051,12.164 223.051,12.578C223.051,12.758 223.254,12.903 223.5,12.903C223.746,12.903 223.949,13.035 223.949,13.199C223.949,13.367 224.289,13.5 224.699,13.5C225.113,13.5 225.449,13.367 225.449,13.199C225.449,13.035 225.789,12.903 226.199,12.903C226.668,12.903 226.949,12.731 226.949,12.449C226.949,12.078 227.516,12 230.25,12C232.984,12 233.551,12.078 233.551,12.449C233.551,12.778 233.883,12.903 234.75,12.903C235.41,12.903 235.949,13.035 235.949,13.199C235.949,13.367 236.422,13.5 237,13.5C237.824,13.5 238.051,13.379 238.051,12.942C238.051,12.637 238.387,12.133 238.801,11.821C239.215,11.512 239.551,10.953 239.551,10.578C239.551,10.176 239.73,9.903 240,9.903C240.246,9.903 240.449,9.699 240.449,9.449C240.449,9.184 240.727,9 241.129,9C241.504,9 242.059,8.664 242.371,8.25C242.777,7.711 243.215,7.5 243.941,7.5C244.496,7.5 244.949,7.367 244.949,7.199C244.949,7.024 246,6.903 247.5,6.903C249,6.903 250.051,7.024 250.051,7.199C250.051,7.875 252.293,7.52 252.871,6.75C253.18,6.34 253.684,6 253.992,6C254.297,6 254.551,5.867 254.551,5.699C254.551,5.535 254.754,5.403 255,5.403C255.246,5.403 255.449,5.258 255.449,5.078C255.449,4.664 256.215,3.903 256.629,3.903C256.805,3.903 256.949,3.758 256.949,3.578C256.949,3.164 257.715,2.403 258.129,2.403C258.305,2.403 258.449,2.258 258.449,2.078C258.449,1.664 259.215,0.903 259.629,0.903C259.805,0.903 259.949,0.699 259.949,0.449C259.949,0.059 261.266,0 270,0L280.051,0L280.051,30C280.051,56.469 280.102,60 280.5,60C280.746,60 280.949,59.867 280.949,59.699C280.949,59.52 282.148,59.403 283.949,59.403C285.75,59.403 286.949,59.52 286.949,59.699C286.949,59.867 287.75,60 288.75,60C290.148,60 290.551,60.102 290.551,60.449C290.551,60.778 290.883,60.903 291.75,60.903C292.41,60.903 292.949,61.035 292.949,61.199C292.949,61.367 293.422,61.5 294,61.5C294.734,61.5 295.051,61.637 295.051,61.949C295.051,62.231 295.332,62.403 295.801,62.403C296.211,62.403 296.551,62.535 296.551,62.699C296.551,62.867 296.754,63 297,63C297.246,63 297.449,63.203 297.449,63.449C297.449,63.731 297.734,63.903 298.199,63.903C298.613,63.903 298.949,64.035 298.949,64.199C298.949,64.367 299.203,64.5 299.508,64.5C299.816,64.5 300.32,64.84 300.629,65.25C300.938,65.664 301.363,66 301.57,66C301.781,66 301.949,66.145 301.949,66.324C301.949,66.852 302.766,67.5 303.43,67.5C303.781,67.5 304.051,67.696 304.051,67.949C304.051,68.199 304.195,68.403 304.371,68.403C304.902,68.403 305.551,69.215 305.551,69.879C305.551,70.231 305.746,70.5 306,70.5C306.246,70.5 306.449,70.645 306.449,70.824C306.449,71.239 307.215,72 307.629,72C307.805,72 307.949,72.203 307.949,72.449C307.949,72.699 308.086,72.903 308.25,72.903C308.414,72.903 308.551,73.239 308.551,73.653C308.551,74.117 308.719,74.403 309,74.403C309.281,74.403 309.449,74.684 309.449,75.153C309.449,75.563 309.586,75.903 309.75,75.903C309.914,75.903 310.051,76.239 310.051,76.653C310.051,77.117 310.219,77.403 310.5,77.403C310.84,77.403 310.949,77.766 310.949,78.903C310.949,79.727 311.086,80.403 311.25,80.403C311.434,80.403 311.551,81.949 311.551,84.449C311.551,86.949 311.434,88.5 311.25,88.5C311.086,88.5 310.949,88.977 310.949,89.559C310.949,90.227 310.781,90.684 310.5,90.793C310.223,90.899 310.051,91.356 310.051,91.985C310.051,92.543 309.914,93 309.75,93C309.586,93 309.449,93.274 309.449,93.61C309.449,93.946 309.246,94.297 309,94.391C308.754,94.489 308.551,94.696 308.551,94.856C308.551,95.242 307.773,96 307.371,96C307.195,96 307.051,96.285 307.051,96.633C307.051,97.008 306.32,97.977 305.25,99.024C304.262,99.992 303.449,100.957 303.445,101.168C303.441,101.379 303.105,101.867 302.695,102.258C302.285,102.645 301.949,103.086 301.949,103.231C301.949,103.379 301.746,103.5 301.5,103.5C301.254,103.5 301.051,103.645 301.051,103.824C301.051,104.239 300.285,105 299.871,105C299.695,105 299.551,105.289 299.551,105.641C299.551,105.992 299.211,106.594 298.801,106.977C298.242,107.496 298.051,107.977 298.051,108.867C298.051,109.528 297.914,110.149 297.75,110.25C297.578,110.356 297.449,111.953 297.449,114.02C297.449,117.004 297.375,117.602 297,117.602C296.648,117.602 296.551,118.004 296.551,119.438C296.551,121.621 294.699,123.903 292.93,123.903C292.445,123.903 292.051,124.035 292.051,124.199C292.051,124.375 291.109,124.5 289.832,124.5C288.137,124.5 287.574,124.606 287.441,124.949C287.301,125.317 286.59,125.403 283.66,125.403L280.051,125.403L280.051,127.5C280.051,128.699 279.922,129.602 279.75,129.602C279.57,129.602 279.449,130.801 279.449,132.602C279.449,135.067 279.371,135.602 279,135.602C278.66,135.602 278.551,135.969 278.551,137.102C278.551,137.926 278.414,138.602 278.25,138.602C278.086,138.602 277.949,139.141 277.949,139.801C277.949,140.461 277.805,141 277.629,141C277.098,141 276.449,141.817 276.449,142.481C276.449,142.832 276.254,143.102 276,143.102C275.754,143.102 275.551,143.246 275.551,143.422C275.551,143.836 274.785,144.602 274.371,144.602C274.195,144.602 274.051,144.938 274.051,145.352C274.051,145.762 273.914,146.102 273.75,146.102C273.586,146.102 273.449,146.438 273.449,146.852C273.449,147.317 273.281,147.602 273,147.602C272.676,147.602 272.551,147.934 272.551,148.801C272.551,149.461 272.414,150 272.25,150C272.066,150 271.949,151.449 271.949,153.75C271.949,156.051 272.066,157.5 272.25,157.5C272.414,157.5 272.551,157.84 272.551,158.25C272.551,158.664 272.695,159 272.871,159C273.285,159 274.051,159.766 274.051,160.18C274.051,160.356 274.34,160.5 274.691,160.5C275.043,160.5 275.773,160.973 276.32,161.551C276.863,162.129 277.453,162.602 277.629,162.602C277.805,162.602 277.949,162.746 277.949,162.922C277.949,163.336 278.715,164.102 279.129,164.102C279.305,164.102 279.449,164.305 279.449,164.551C279.449,164.797 279.586,165 279.75,165C279.914,165 280.051,165.66 280.051,166.469C280.051,167.496 280.184,167.989 280.5,168.11C280.746,168.203 280.949,168.489 280.949,168.742C280.949,169.41 283.246,171.602 283.949,171.602C284.281,171.602 284.551,171.801 284.551,172.051C284.551,172.332 284.832,172.5 285.301,172.5C285.711,172.5 286.051,172.637 286.051,172.801C286.051,172.965 286.387,173.102 286.801,173.102C287.266,173.102 287.551,173.27 287.551,173.551C287.551,173.832 287.832,174 288.301,174C288.711,174 289.051,174.137 289.051,174.301C289.051,174.465 289.254,174.602 289.5,174.602C289.746,174.602 289.949,174.805 289.949,175.051C289.949,175.297 290.086,175.5 290.25,175.5C290.414,175.5 290.551,176.176 290.551,177C290.551,177.824 290.414,178.5 290.25,178.5C290.086,178.5 289.949,178.754 289.949,179.059C289.949,179.367 289.613,179.871 289.199,180.18C288.789,180.489 288.449,180.914 288.449,181.121C288.449,181.332 288.305,181.5 288.129,181.5C287.715,181.5 286.949,182.266 286.949,182.68C286.949,182.856 286.746,183 286.5,183C286.246,183 286.051,183.27 286.051,183.621C286.051,184.285 285.402,185.102 284.871,185.102C284.266,185.102 284.551,185.899 285.301,186.301C285.711,186.52 286.051,186.883 286.051,187.102C286.051,187.399 286.625,187.5 288.301,187.5C289.602,187.5 290.551,187.629 290.551,187.801C290.551,187.965 290.754,188.102 291,188.102C291.246,188.102 291.449,188.305 291.449,188.551C291.449,188.797 291.586,189 291.75,189C291.918,189 292.051,189.801 292.051,190.801C292.051,191.801 291.918,192.602 291.75,192.602C291.586,192.602 291.449,192.938 291.449,193.352C291.449,193.817 291.281,194.102 291,194.102C290.719,194.102 290.551,194.383 290.551,194.852C290.551,195.262 290.414,195.602 290.25,195.602C290.086,195.602 289.949,196.141 289.949,196.801C289.949,197.668 289.824,198 289.5,198C289.16,198 289.051,198.367 289.051,199.5C289.051,200.324 288.914,201 288.75,201C288.586,201 288.449,201.676 288.449,202.5C288.449,203.633 288.34,204 288,204C287.66,204 287.551,204.367 287.551,205.5C287.551,206.324 287.414,207 287.25,207C287.086,207 286.949,207.473 286.949,208.051C286.949,208.785 286.812,209.102 286.5,209.102C286.184,209.102 286.051,209.418 286.051,210.172C286.051,211.219 285.512,212.102 284.871,212.102C284.695,212.102 284.551,212.438 284.551,212.852C284.551,213.262 284.414,213.602 284.25,213.602C284.086,213.602 283.949,213.805 283.949,214.051C283.949,214.297 283.746,214.5 283.5,214.5C283.254,214.5 283.051,214.637 283.051,214.801C283.051,214.965 282.711,215.102 282.301,215.102C281.832,215.102 281.551,215.27 281.551,215.551C281.551,215.91 281.113,216 279.43,216C277.355,216 276.449,216.36 276.449,217.18C276.449,217.356 276.305,217.5 276.129,217.5C275.715,217.5 274.949,218.266 274.949,218.68C274.949,218.856 274.805,219 274.629,219C274.215,219 273.449,219.766 273.449,220.18C273.449,220.356 273.305,220.5 273.129,220.5C272.715,220.5 271.949,221.266 271.949,221.68C271.949,221.856 271.805,222 271.629,222C271.215,222 270.449,222.766 270.449,223.18C270.449,223.356 270.305,223.5 270.129,223.5C269.715,223.5 268.949,224.266 268.949,224.68C268.949,224.856 268.746,225 268.5,225C268.254,225 268.051,225.137 268.051,225.301C268.051,225.465 267.711,225.602 267.301,225.602C266.887,225.602 266.551,225.746 266.551,225.922C266.551,226.453 265.734,227.102 265.07,227.102C264.719,227.102 264.449,227.297 264.449,227.551C264.449,227.875 264.117,228 263.25,228C262.59,228 262.051,228.137 262.051,228.301C262.051,228.465 261.262,228.602 260.281,228.602C258.988,228.602 258.469,228.723 258.34,229.051C258.246,229.297 257.895,229.5 257.559,229.5C257.223,229.5 256.949,229.637 256.949,229.801C256.949,229.965 256.746,230.102 256.5,230.102C256.254,230.102 256.051,230.305 256.051,230.551C256.051,230.797 255.914,231 255.75,231C255.586,231 255.449,231.274 255.449,231.61C255.449,231.946 255.246,232.297 255,232.391C254.754,232.489 254.551,232.828 254.551,233.153C254.551,233.793 253.891,234.602 253.371,234.602C253.195,234.602 253.051,234.938 253.051,235.352C253.051,235.949 252.898,236.102 252.301,236.102C251.832,236.102 251.551,236.27 251.551,236.551C251.551,236.863 251.234,237 250.5,237C249.922,237 249.449,237.137 249.449,237.301C249.449,237.481 248.352,237.602 246.75,237.602L244.051,237.602L244.051,242.551C244.051,245.653 243.938,247.5 243.75,247.5C243.586,247.5 243.449,247.973 243.449,248.551C243.449,249.285 243.312,249.602 243,249.602C242.684,249.602 242.551,249.918 242.551,250.672C242.551,251.719 242.012,252.602 241.371,252.602C241.195,252.602 241.051,252.938 241.051,253.352C241.051,253.762 240.914,254.102 240.75,254.102C240.586,254.102 240.449,254.305 240.449,254.551C240.449,254.797 240.305,255 240.129,255C239.598,255 238.949,255.817 238.949,256.481C238.949,256.832 238.754,257.102 238.5,257.102C238.254,257.102 238.051,257.246 238.051,257.422C238.051,257.836 237.285,258.602 236.871,258.602C236.695,258.602 236.551,258.746 236.551,258.922C236.551,259.336 235.785,260.102 235.371,260.102C235.195,260.102 235.051,260.246 235.051,260.422C235.051,260.836 234.285,261.602 233.871,261.602C233.695,261.602 233.551,261.746 233.551,261.922C233.551,262.336 232.785,263.102 232.371,263.102C232.195,263.102 232.051,263.246 232.051,263.422C232.051,263.836 231.285,264.602 230.871,264.602C230.695,264.602 230.551,264.746 230.551,264.922C230.551,265.336 229.785,266.102 229.371,266.102C229.195,266.102 229.051,266.305 229.051,266.551C229.051,266.805 228.781,267 228.43,267C227.766,267 226.949,267.649 226.949,268.18C226.949,268.356 226.746,268.5 226.5,268.5C226.254,268.5 226.051,268.637 226.051,268.801C226.051,268.965 225.711,269.102 225.301,269.102C224.887,269.102 224.551,269.246 224.551,269.422C224.551,269.953 223.734,270.602 223.07,270.602C222.719,270.602 222.449,270.797 222.449,271.051C222.449,271.297 222.246,271.5 222,271.5C221.754,271.5 221.551,271.637 221.551,271.801C221.551,271.965 221.211,272.102 220.801,272.102C220.332,272.102 220.051,272.27 220.051,272.551C220.051,272.832 219.766,273 219.301,273C218.887,273 218.551,273.137 218.551,273.301C218.551,273.465 218.211,273.602 217.801,273.602C217.332,273.602 217.051,273.77 217.051,274.051C217.051,274.332 216.766,274.5 216.301,274.5C215.887,274.5 215.551,274.637 215.551,274.801C215.551,274.965 215.078,275.102 214.5,275.102C213.766,275.102 213.449,275.239 213.449,275.551C213.449,275.832 213.168,276 212.699,276C212.289,276 211.949,276.137 211.949,276.301C211.949,276.465 211.41,276.602 210.75,276.602C209.883,276.602 209.551,276.727 209.551,277.051C209.551,277.391 209.184,277.5 208.051,277.5C207.227,277.5 206.551,277.637 206.551,277.801C206.551,277.969 205.75,278.102 204.75,278.102C203.352,278.102 202.949,278.199 202.949,278.551C202.949,278.926 202.367,279 199.5,279C197.398,279 196.051,279.117 196.051,279.301C196.051,279.481 194.75,279.602 192.75,279.602C190.75,279.602 189.449,279.481 189.449,279.301C189.449,279.121 188.148,279 186.141,279C183.477,279 182.797,278.914 182.66,278.551C182.531,278.223 182.012,278.102 180.719,278.102C179.738,278.102 178.949,277.965 178.949,277.801C178.949,277.637 178.273,277.5 177.449,277.5C176.316,277.5 175.949,277.391 175.949,277.051C175.949,276.727 175.617,276.602 174.75,276.602C174.09,276.602 173.551,276.465 173.551,276.301C173.551,276.137 172.938,276 172.191,276C171.258,276 170.777,275.86 170.66,275.551C170.426,274.949 168.574,274.949 168.34,275.551C168.246,275.797 167.895,276 167.559,276C167.223,276 166.949,276.137 166.949,276.301C166.949,276.465 166.613,276.602 166.199,276.602C165.734,276.602 165.449,276.77 165.449,277.051C165.449,277.297 165.305,277.5 165.129,277.5C164.598,277.5 163.949,278.317 163.949,278.981C163.949,279.332 163.754,279.602 163.5,279.602C163.254,279.602 163.051,279.805 163.051,280.051C163.051,280.297 162.914,280.5 162.75,280.5C162.586,280.5 162.449,280.84 162.449,281.25C162.449,281.719 162.281,282 162,282C161.648,282 161.551,282.403 161.551,283.801C161.551,284.801 161.418,285.602 161.25,285.602C161.086,285.602 160.949,285.938 160.949,286.352L160.949,287.102L87.449,287.102L87.449,284.582M157.504,281.926C157.93,279.887 159.785,276.586 161.594,274.649C163.469,272.649 163.645,272 162.398,271.727C160.605,271.328 149.523,267.074 145.703,265.313C144.496,264.758 143.453,264.301 143.387,264.301C143.234,264.301 135.656,260.676 132.898,259.285C128.191,256.906 123.207,254.215 121.281,253.004C120.664,252.617 120.098,252.301 120.02,252.301C119.539,252.301 102.629,241.735 101.375,240.653C101.199,240.5 100.457,240 99.727,239.539C97.695,238.266 83.98,228.457 82.051,226.903C81.801,226.699 80.453,225.645 79.051,224.551C77.648,223.457 76.297,222.403 76.051,222.207C75.801,222.008 74.184,220.746 72.449,219.403C70.719,218.059 69.031,216.707 68.699,216.403C68.371,216.098 67.492,215.379 66.75,214.805C66.008,214.235 65.332,213.692 65.25,213.602C65.168,213.516 63.953,212.504 62.551,211.363C61.148,210.219 59.934,209.207 59.852,209.113C59.766,209.02 58.957,208.336 58.051,207.598C57.141,206.856 56.355,206.149 56.301,206.028C56.113,205.606 55.691,205.797 55.504,206.387C55.402,206.707 54.875,207.246 54.332,207.578C52.516,208.703 52.188,214.168 53.324,224.559C53.559,226.711 53.688,229.649 53.613,231.094C53.387,235.352 54.484,237.344 58.5,239.989C59.656,240.75 61.43,241.985 62.441,242.739C63.457,243.489 64.934,244.285 65.727,244.508C69.164,245.473 70.449,247.707 70.969,253.653C71.383,258.363 72.805,259.801 77.039,259.801C78.578,259.801 82.617,260.688 84,261.328C86.125,262.313 87.797,262.801 89.062,262.805C91.352,262.813 91.562,263.91 91.629,276.301C91.641,278.692 91.793,281.156 91.965,281.778L92.277,282.903L157.301,282.903L157.504,281.926M200.301,274.489C204.621,273.637 206.445,273.223 206.922,272.973C207.207,272.824 207.609,272.699 207.816,272.699C208.156,272.699 211.566,271.512 213,270.895C214.902,270.074 217.07,269.016 218.25,268.328C220.645,266.938 222.598,265.668 222.699,265.43C222.754,265.305 222.992,265.199 223.227,265.199C223.457,265.199 223.648,265.086 223.648,264.946C223.648,264.809 223.906,264.571 224.219,264.422C225.664,263.735 232.352,257.379 234.605,254.551C235.262,253.727 235.934,252.953 236.102,252.832C236.504,252.531 237.094,252.559 227.699,252.469C221.445,252.414 218.535,252.262 216.301,251.879C208.348,250.52 203.355,249.375 197.785,247.629C196.508,247.227 195.219,246.903 194.918,246.903C194.617,246.903 194.242,246.793 194.086,246.664C193.93,246.531 192.988,246.18 192,245.879C191.012,245.578 189.93,245.223 189.602,245.09C189.27,244.957 187.922,244.489 186.602,244.043C185.281,243.598 183.797,243.059 183.301,242.844C182.805,242.633 181.727,242.219 180.898,241.93C180.074,241.641 179.273,241.289 179.113,241.153C178.957,241.012 178.652,240.903 178.438,240.903C178.223,240.903 177.348,240.563 176.492,240.153C175.637,239.739 174.82,239.403 174.676,239.403C174.43,239.403 173.293,238.91 169.5,237.164C168.676,236.785 167.461,236.239 166.801,235.949C160.801,233.332 149.262,227.504 141.328,223.086C140.652,222.707 139.289,221.953 138.301,221.406C137.309,220.863 136.164,220.188 135.75,219.906C135.336,219.629 134.797,219.305 134.551,219.188C134.301,219.071 133.828,218.813 133.492,218.613C131.188,217.231 129.816,216.41 129.301,216.094C128.969,215.891 128.43,215.598 128.102,215.438C127.77,215.278 126.57,214.531 125.43,213.774C124.293,213.02 123.293,212.403 123.207,212.403C123.125,212.403 122.613,212.063 122.074,211.653C121.531,211.239 120.996,210.903 120.887,210.903C120.773,210.903 120.035,210.43 119.25,209.852C118.465,209.274 117.75,208.801 117.668,208.801C116.836,208.801 89.789,189.528 88.648,188.121C88.566,188.02 87.555,187.199 86.398,186.297C85.246,185.395 84.148,184.524 83.961,184.356C83.777,184.188 81.895,182.567 79.781,180.75C77.668,178.938 74.504,176.168 72.75,174.602C70.996,173.035 68.488,170.813 67.18,169.664C63.734,166.645 57.758,160.559 56.078,158.352C55.281,157.305 54.551,156.383 54.453,156.301C53.742,155.688 51,151.317 49.938,149.102C49.211,147.586 48.75,146.305 48.75,145.813C48.75,140.91 41.023,152.02 38.012,161.25C35.887,167.77 35.164,175.953 36.32,180.43C37.66,185.637 37.773,185.836 40.855,188.399C42.145,189.469 43.555,190.684 43.984,191.098C44.418,191.512 45.344,192.324 46.043,192.903C47.617,194.199 48.348,194.821 49.5,195.848C49.996,196.289 51.145,197.258 52.051,197.996C52.957,198.739 53.766,199.418 53.852,199.504C53.934,199.594 55.281,200.742 56.852,202.051C58.418,203.36 59.766,204.508 59.852,204.594C60.078,204.844 69.57,212.676 71.723,214.391C77.703,219.16 80.762,221.559 82.801,223.071C84.121,224.051 85.371,225.012 85.578,225.207C85.785,225.403 87.137,226.41 88.578,227.446C90.02,228.477 91.266,229.41 91.352,229.516C91.434,229.621 91.992,230.035 92.594,230.43C93.836,231.25 103.641,238.067 104.102,238.43C104.266,238.559 105.684,239.465 107.25,240.446C108.816,241.426 110.738,242.672 111.523,243.215C112.305,243.758 113.004,244.199 113.078,244.199C113.152,244.199 114.539,245.028 116.156,246.039C118.969,247.797 125.785,251.699 126.039,251.699C126.105,251.699 126.676,252.028 127.305,252.422C130.602,254.504 143.512,260.664 150.75,263.613C152.977,264.52 155.203,265.43 155.699,265.637C156.195,265.844 157.074,266.18 157.648,266.387C159.223,266.949 159.789,267.168 161.035,267.711C161.66,267.981 162.41,268.199 162.699,268.199C162.992,268.199 163.359,268.309 163.516,268.438C163.672,268.571 164.609,268.922 165.602,269.223C166.59,269.524 167.672,269.879 168,270.012C168.328,270.145 169.41,270.481 170.398,270.758C171.391,271.035 172.539,271.379 172.949,271.524C174.945,272.211 181.445,273.774 185.102,274.446C187.219,274.832 198.387,274.863 200.301,274.489M194.102,269.403C193.605,269.266 192.457,268.938 191.551,268.672C190.641,268.406 189.023,267.946 187.949,267.649C185.758,267.039 185.562,266.571 186.781,264.856C187.578,263.735 188.074,263.891 188.191,265.297C188.336,266.981 190.043,267.543 190.512,266.059C190.617,265.739 191.363,264.348 192.176,262.969C192.984,261.59 193.648,260.324 193.648,260.156C193.648,259.989 193.75,259.805 193.875,259.75C194.359,259.535 195.148,257.598 195.148,256.625C195.148,256.063 195.242,255.602 195.355,255.602C195.57,255.602 197.152,256.09 198.523,256.578C199.398,256.891 199.645,257.403 198.922,257.403C198.422,257.403 197.738,258.321 196.344,260.852C195.797,261.84 195.086,263.125 194.758,263.699C193.402,266.09 192.727,267.621 192.902,267.903C193.227,268.426 194.312,268.223 195.328,267.449C196.746,266.367 198.062,266.668 196.914,267.817C196.73,268 196.426,268.465 196.234,268.848C195.84,269.637 195.395,269.754 194.102,269.403M181.93,265.906C177.762,264.801 177.059,261.422 180.023,256.766C181.953,253.735 183.023,253.051 185.852,253.051C189.523,253.051 191.055,254.102 190.07,255.946C189.305,257.375 188.551,257.449 188.551,256.094C188.551,254.149 186.992,253.531 185.07,254.719C184.055,255.348 181.352,259.082 181.352,259.856C181.352,260.09 181.203,260.43 181.023,260.61C179.121,262.512 181.738,265.949 183.832,264.301C185.312,263.137 185.965,263.477 185.125,264.977C184.297,266.453 184.156,266.496 181.93,265.906M171.785,262.449L170.168,261.828L171.059,260.996C171.547,260.539 172.32,259.442 172.773,258.559C173.23,257.676 173.758,256.68 173.949,256.348C176.215,252.442 176.848,251.051 176.672,250.352C176.445,249.446 176.559,249.438 178.633,250.196C180.605,250.914 181.023,251.274 180.203,251.535C179.574,251.735 178.941,252.653 177.301,255.75C176.777,256.742 175.852,258.449 175.25,259.547C174.645,260.645 174.148,261.891 174.148,262.321C174.148,263.25 173.902,263.262 171.785,262.449M164.102,259.512C163.77,259.356 162.457,258.805 161.18,258.289L158.859,257.352L159.895,256.375C160.461,255.84 161.07,255.074 161.242,254.676C161.414,254.278 161.801,253.547 162.102,253.051C163.918,250.039 165.449,246.821 165.449,246.02C165.449,245.516 165.496,245.102 165.551,245.102C165.957,245.102 169.199,246.598 169.273,246.817C169.324,246.973 169.023,247.254 168.609,247.442C168.191,247.633 167.852,247.93 167.852,248.102C167.852,248.274 167.512,248.949 167.102,249.602C166.121,251.149 166.133,251.699 167.145,251.699C167.879,251.699 168.707,251.141 171.301,248.883C172.328,247.989 172.516,247.961 174.156,248.473C175.465,248.883 175.543,249.258 174.426,249.813C174.027,250.012 172.957,250.789 172.051,251.539C171.145,252.289 170.242,252.903 170.043,252.903C169.426,252.903 169.301,253.469 169.684,254.535C170.773,257.547 167.023,260.887 164.102,259.512M166.195,257.477C168.113,255.563 167.945,252.903 165.91,252.903C165.406,252.903 165.047,253.219 164.621,254.028C164.297,254.645 163.754,255.641 163.418,256.239C162.316,258.188 164.504,259.164 166.195,257.477M154.004,255.317C149.887,253.5 148.051,252.598 148.051,252.395C148.051,251.86 149.645,249.582 149.949,249.688C150.141,249.754 150.301,250.278 150.301,250.856C150.301,253.11 151.797,253.571 152.805,251.625C153.168,250.926 153.992,249.406 154.637,248.25C157.191,243.653 157.398,243.199 157.27,242.504C157.094,241.59 157.895,241.586 159.727,242.492C161.281,243.262 161.559,243.758 160.57,244.008C160.137,244.117 159.609,244.68 159.199,245.465C158.832,246.172 158.008,247.696 157.363,248.852C154.895,253.297 154.617,253.879 154.77,254.281C155.031,254.961 156.414,254.766 157.254,253.926C158.551,252.629 159.18,253.59 158.125,255.266C157.184,256.754 157.25,256.75 154.004,255.317M144.449,251C140.707,249.254 140.582,244.188 144.266,243.469C144.613,243.403 145.777,243.18 146.852,242.981C149.824,242.422 151.176,240.473 149.648,238.942C149.129,238.426 147.246,238.489 146.875,239.035C145.922,240.446 145.039,239.227 145.945,237.758C146.734,236.481 146.949,236.465 149.363,237.563C153.816,239.582 153.047,244.883 148.199,245.535C145.688,245.875 144.492,246.285 144.012,246.977C142.562,249.047 144.855,250.93 146.754,249.223C147.582,248.481 148.164,248.805 147.898,249.856C147.508,251.418 146.242,251.84 144.449,251M136.312,246.832L134.629,245.899L135.461,245.196C135.918,244.813 136.555,243.992 136.879,243.375C137.203,242.758 137.773,241.711 138.148,241.051C140.406,237.063 141.148,235.473 141.148,234.637C141.148,233.508 141.055,233.512 143.094,234.512C144.902,235.403 145.102,235.797 144.074,236.481C143.703,236.731 143.133,237.453 142.805,238.09C142.477,238.731 141.797,239.926 141.293,240.75C139.711,243.348 138.402,246.246 138.504,246.934C138.645,247.899 138.203,247.875 136.312,246.832M208.926,244.649C211.969,240.613 215.484,238.77 220.5,238.567L224.102,238.422L226.504,236.832C230.758,234.016 232.02,233.711 240.602,233.418C248.559,233.149 249.457,232.953 250.508,231.293C250.914,230.645 251.25,230.035 251.25,229.938C251.25,229.602 252.887,227.547 253.941,226.559C255.469,225.121 256.785,224.543 259.5,224.102C263.328,223.481 264.277,222.836 270.301,216.762C274.992,212.031 275.816,211.492 278.637,211.324C280.715,211.196 282.004,209.664 283.031,206.102C283.246,205.36 283.605,204.153 283.836,203.422C284.062,202.692 284.25,201.824 284.25,201.492C284.25,201.164 284.379,200.481 284.539,199.973C284.699,199.465 285.051,198.242 285.32,197.25C285.797,195.496 285.914,195.145 286.613,193.41C287.145,192.094 287.039,191.699 286.156,191.699C284.66,191.699 282.191,190.227 281.391,188.86C279.871,186.27 280.559,183.434 283.629,179.641C285.363,177.496 285.355,177.481 282.621,176.133C279.109,174.406 276.441,171.231 275.949,168.192C275.758,167.024 275.402,166.535 274.051,165.606C268.906,162.051 267.664,159.817 267.637,154.051C267.605,147.684 268.969,144.328 274.23,137.789C275.422,136.313 275.652,135 275.77,129.098L275.875,123.641L274.438,123.442C270.43,122.891 258.059,119.43 253.465,117.574C252.988,117.383 252.328,117.125 252,117C250.277,116.348 248.566,115.66 247.43,115.16C246.73,114.852 246.078,114.602 245.984,114.602C245.891,114.602 245.043,114.25 244.105,113.821C243.168,113.391 241.727,112.77 240.898,112.446C240.074,112.117 238.453,111.406 237.301,110.867C236.145,110.324 233.789,109.223 232.066,108.414C230.344,107.61 227.711,106.313 226.219,105.535C224.723,104.754 220.934,102.817 217.801,101.231C214.664,99.641 211.426,97.973 210.602,97.524C209.773,97.071 207.887,96.055 206.398,95.262C204.914,94.469 203.566,93.715 203.398,93.59C203.234,93.465 202.426,92.989 201.602,92.531C200.773,92.074 199.695,91.453 199.199,91.153C198.703,90.852 198.098,90.512 197.852,90.403C197.602,90.289 197.332,90.117 197.25,90.024C197.168,89.93 196.492,89.543 195.75,89.168C195.008,88.793 193.453,87.949 192.301,87.297C191.145,86.645 189.996,86.016 189.75,85.899C189.504,85.781 188.598,85.242 187.738,84.696C186.883,84.149 186.102,83.699 186.008,83.699C185.914,83.699 184.75,83.028 183.422,82.199C182.09,81.375 180.945,80.699 180.871,80.699C180.801,80.699 179.668,80.028 178.352,79.199C177.035,78.375 175.883,77.699 175.793,77.699C175.668,77.699 171.852,75.395 169.352,73.805C169.102,73.645 168.469,73.301 167.938,73.031C167.41,72.766 166.82,72.356 166.625,72.121C166.434,71.891 166.16,71.699 166.02,71.699C165.875,71.699 163.59,70.352 160.934,68.699C158.281,67.051 156.047,65.699 155.969,65.699C155.891,65.699 155.461,65.446 155.012,65.137C154.031,64.453 141.645,56.824 136.199,53.551C134.055,52.262 130.41,49.965 128.102,48.449C125.789,46.934 123.09,45.25 122.102,44.711C121.109,44.168 120.172,43.61 120.016,43.465C119.277,42.781 116.164,43.481 114.422,44.719C113.172,45.61 112.879,46.43 111.43,53.102C110.789,56.035 108.965,58.461 106.387,59.805C103.273,61.43 102.379,61.805 100.648,62.223C99.578,62.485 97.418,62.867 95.852,63.074L93,63.449L92.852,86.278L92.699,109.102L91.801,110.41C90.152,112.801 87.957,114.766 86.246,115.379C83.504,116.363 83.66,115.336 83.418,133.59L83.203,149.551L84.582,151.949C87.191,156.489 87.066,158.836 83.98,163.051C83.359,163.899 83.309,164.383 83.109,171.367L82.898,178.781L83.75,179.578C84.215,180.016 86.625,181.989 89.102,183.961C91.574,185.934 93.805,187.711 94.059,187.914C94.309,188.113 95.324,188.879 96.309,189.613C97.293,190.348 98.168,191.02 98.25,191.11C99.105,192.035 116.254,203.957 119.598,205.949C119.871,206.117 122.605,207.836 125.672,209.778C128.734,211.715 131.332,213.301 131.445,213.301C131.555,213.301 132.086,213.637 132.629,214.051C133.168,214.465 133.676,214.801 133.758,214.801C133.84,214.801 135.621,215.813 137.711,217.051C139.801,218.289 141.555,219.301 141.605,219.301C141.656,219.301 142.621,219.824 143.746,220.461C148.406,223.098 161.125,229.61 164.871,231.278C165.766,231.676 167.445,232.438 168.602,232.965C172.168,234.594 173.309,235.094 176.102,236.246C177.586,236.86 179.07,237.481 179.398,237.621C182.93,239.16 193.309,242.778 198.148,244.156C207.727,246.887 207.25,246.867 208.926,244.649M127.199,241.942C126.047,241.363 124.773,240.641 124.371,240.328L123.641,239.766L124.418,239.059C124.848,238.668 125.562,237.676 126.012,236.852C126.461,236.028 127.371,234.34 128.035,233.102C128.703,231.863 129.43,230.586 129.648,230.258C129.871,229.934 130.051,229.227 130.051,228.684C130.051,227.387 130.203,227.418 133.332,229.356C137.512,231.942 138.336,234.367 136.367,238.317C134.109,242.856 131.277,243.973 127.199,241.942M132.16,239.742C134.543,237.106 135.703,233.434 134.637,231.891C133.434,230.145 132.629,230.203 131.625,232.117C131.297,232.742 130.766,233.723 130.438,234.301C130.113,234.879 129.402,236.16 128.859,237.153C128.316,238.141 127.742,239.113 127.586,239.309C125.797,241.578 130.133,241.989 132.16,239.742M113.262,233.973C111.77,232.996 111.145,232.199 111.871,232.199C112.477,232.199 113.516,230.766 115.125,227.699C115.863,226.297 116.832,224.504 117.273,223.715C117.719,222.922 118.059,222.047 118.031,221.762C117.906,220.496 118.027,220.43 119.176,221.117C119.793,221.492 121.348,222.391 122.625,223.117C125.223,224.59 125.215,224.574 124.273,226.563C123.441,228.324 122.328,228.653 122.695,227.028C123.375,224.024 120.824,222.446 119.543,225.074C119.203,225.778 118.387,227.297 117.734,228.449C117.078,229.606 116.457,230.754 116.352,231C116.246,231.25 115.969,231.672 115.734,231.946C115.504,232.215 115.305,232.992 115.297,233.672C115.277,235.125 115.059,235.156 113.262,233.973M105.551,229.27C104.832,228.699 104.859,228.274 105.906,223.653C106.781,219.77 106.992,218.563 107.152,216.375C107.34,213.852 107.672,213.653 109.359,215.074L110.398,215.949L109.633,216.246C109.105,216.449 108.734,216.942 108.445,217.817L108.027,219.086L109.062,219.957C110.938,221.524 113.66,220.641 113.141,218.625C112.902,217.699 113.512,217.739 115.191,218.758C116.789,219.727 117.32,220.5 116.387,220.5C115.902,220.5 113.984,222.34 109.586,227.028C106.836,229.953 106.586,230.094 105.551,229.27M169.801,226.918C164.988,226.535 156.488,224.489 152.25,222.684C151.672,222.442 150.93,222.133 150.602,222C149.488,221.551 144.309,219.008 143.102,218.313C141.547,217.422 137.445,214.75 137.25,214.504C137.168,214.403 136.805,214.113 136.441,213.867C134.918,212.828 132.105,210.309 129.301,207.469C125.137,203.258 122.949,200.375 119.039,193.946C117.895,192.067 114.75,185.305 114.75,184.731C114.75,184.504 114.645,184.192 114.512,184.035C114.379,183.879 114.027,182.942 113.727,181.949C113.426,180.961 113.059,179.813 112.914,179.403C112.641,178.617 112.184,176.606 111.766,174.301C111.629,173.559 111.34,172.141 111.121,171.153C110.848,169.922 110.723,166.969 110.723,161.852C110.723,154.367 110.828,153.281 112.078,147.602C112.598,145.235 114.156,139.766 114.43,139.352C114.535,139.188 114.805,138.512 115.023,137.852C119.73,123.719 134.352,108.633 149.551,102.227C156.723,99.203 161.645,97.953 170.523,96.899C176.895,96.145 186.293,97.024 193.199,99.024C196.215,99.899 201.359,101.824 203.52,102.891C203.785,103.02 204.539,103.391 205.199,103.711C207.398,104.781 209.984,106.27 211.426,107.289C212.211,107.844 212.953,108.301 213.078,108.301C213.203,108.301 213.641,108.606 214.055,108.977C214.465,109.348 215.598,110.246 216.574,110.973C223.84,116.387 232.527,127.903 235.945,136.653C236.148,137.172 236.562,138.25 237.453,140.551C238.359,142.895 239.586,147.746 240.492,152.551C241.012,155.324 241.02,168.25 240.5,171.153C240.02,173.836 239.32,177.117 238.898,178.653C238.223,181.117 236.793,185.262 236.527,185.535C236.375,185.692 236.25,186.008 236.25,186.235C236.25,186.813 233.211,192.961 231.77,195.301C231.105,196.375 230.438,197.539 230.281,197.887C230.125,198.235 229.41,199.25 228.699,200.137C227.984,201.024 227,202.285 226.512,202.938C222.859,207.824 214.789,214.785 209.102,217.961C202.836,221.461 197.883,223.469 190.949,225.328C186.043,226.641 175.938,227.403 169.801,226.918M108.723,224.281C110.406,222.574 110.43,222.387 109.098,221.438C108,220.653 107.527,220.989 107.195,222.797C107.047,223.598 106.848,224.621 106.754,225.074C106.504,226.27 106.922,226.106 108.723,224.281M98.953,224.758C98.27,224.481 97.461,224.035 97.156,223.774C96.852,223.512 96.109,223.004 95.508,222.649C93.777,221.613 93.543,221.184 94.469,220.762C94.898,220.567 95.25,220.289 95.25,220.149C95.25,220.004 95.562,219.387 95.949,218.77C96.742,217.5 98.973,213.426 99.824,211.696C100.137,211.063 100.32,210.36 100.234,210.133C99.918,209.305 100.691,209.387 102.293,210.36C104.203,211.512 104.199,211.508 103.121,212.121C102.645,212.391 101.945,213.313 101.453,214.317L100.609,216.047L101.258,216.61C101.613,216.918 102.012,217.211 102.141,217.262C103.656,217.844 104.297,220.965 103.328,223.031C102.367,225.074 101.027,225.606 98.953,224.758M100.789,222.071C101.965,220.297 102.066,219.192 101.148,218.274C100.27,217.391 99.707,217.492 99.125,218.641C98.898,219.086 98.406,219.953 98.031,220.571C96.461,223.149 99.121,224.594 100.789,222.071M90.488,219.297C89.812,218.805 89.117,218.403 88.953,218.403C88.383,218.403 88.648,217.344 89.293,217.047C89.883,216.774 90.871,215.215 92.609,211.801C92.988,211.059 93.367,210.383 93.449,210.301C93.945,209.805 95.199,206.918 95.066,206.574C94.637,205.449 96.082,205.891 97.875,207.43C98.727,208.16 98.719,208.328 97.824,208.735C97.426,208.918 96.895,209.446 96.648,209.906C96.398,210.371 95.91,211.289 95.559,211.949C95.211,212.61 94.527,213.824 94.035,214.653C92.574,217.113 91.91,218.699 92.098,219.293C92.395,220.231 91.785,220.235 90.488,219.297M84.887,215.457C81.391,212.899 81.031,210.239 83.504,205.246C85.746,200.731 88.984,200.082 92.312,203.489C93.332,204.528 93.398,204.696 93.082,205.438C92.211,207.477 91.172,207.735 91.496,205.832C91.754,204.289 90.574,202.942 89.203,203.215C88.297,203.395 86.863,204.5 86.855,205.024C86.852,205.172 86.543,205.711 86.168,206.223C85.508,207.125 85.34,207.442 84.332,209.746C83.312,212.071 84.023,214.199 85.816,214.199C86.367,214.199 86.898,214.067 87,213.903C87.348,213.34 88.352,213.567 88.352,214.199C88.352,214.531 88.246,214.801 88.121,214.801C87.996,214.801 87.758,215.106 87.598,215.477C87.168,216.453 86.242,216.449 84.887,215.457M188.25,216.051C188.25,215.914 188.598,215.617 189.023,215.387C190.625,214.531 191.297,212.754 191.195,209.656L191.102,206.883L194.25,204.516L194.25,188.043L191.793,185.356C190.086,183.492 189.191,182.239 188.867,181.262C188.008,178.676 185.453,178.625 185.102,181.184C184.855,182.973 184.586,183.231 182.844,183.356L181.5,183.449L181.359,204.153L182.871,205.176C185.027,206.637 185.277,207.262 185.051,210.684L184.867,213.52L186.332,214.906C187.766,216.266 188.25,216.555 188.25,216.051M76.57,209.024C75.082,207.699 74.855,207.301 75.578,207.301C76.105,207.301 76.762,206.371 78.453,203.25C81.242,198.098 81.75,197.031 81.75,196.317L81.75,195.574L83.121,196.516C84.676,197.586 85.051,198.239 84.391,198.723C84.141,198.903 83.48,199.797 82.918,200.711C82.359,201.621 81.734,202.633 81.531,202.957C81.328,203.285 80.883,204.09 80.547,204.75C80.207,205.41 79.656,206.41 79.32,206.973C78.984,207.535 78.68,208.469 78.641,209.051C78.551,210.5 78.227,210.496 76.57,209.024M72.16,205.551L71.16,204.715L71.965,204.082C72.41,203.731 73.086,202.863 73.469,202.149C73.848,201.434 74.543,200.145 75.012,199.281C76.191,197.102 75.875,197.074 72.738,199.09C68.555,201.778 68.422,201.856 68.098,201.879C67.648,201.91 65.547,200.012 65.547,199.574C65.551,199.371 65.793,199.199 66.086,199.199C66.598,199.199 67.359,198.063 69.516,194.102C69.922,193.36 70.688,191.969 71.219,191.012C71.75,190.055 72.141,188.989 72.09,188.641C71.953,187.68 72.531,187.692 73.473,188.672L74.316,189.555L73.238,190.633C72.645,191.227 72.074,192.047 71.973,192.457C71.867,192.867 71.68,193.199 71.551,193.199C71.426,193.199 71.238,193.438 71.141,193.727C71.039,194.016 70.703,194.664 70.395,195.168C69.629,196.406 69.332,197.403 69.727,197.403C70.012,197.403 75.676,193.918 76.051,193.512C76.133,193.422 76.57,193.16 77.023,192.926C78.477,192.176 80.133,193.735 79.086,194.867C78.941,195.024 78.379,195.961 77.836,196.949C77.297,197.942 76.609,199.184 76.312,199.715C74.203,203.485 73.598,204.711 73.527,205.36C73.41,206.453 73.266,206.473 72.16,205.551M147.105,201.934C147.406,201.746 147.152,201.496 146.164,201C142.672,199.258 140.656,196.164 140.949,193.004C141.16,190.766 140.906,190.5 139.547,191.535C138.781,192.121 138.191,192.301 137.047,192.301C134.961,192.301 134.91,192.504 136.27,195.602C136.867,196.961 140.098,200.192 141.449,200.774C144.438,202.071 146.293,202.449 147.105,201.934M167.551,201.531C169.836,200.656 171.113,199.719 172.359,198C174.77,194.672 174.547,187.871 171.91,184.426C170.469,182.539 170.293,182.613 170.188,185.153L170.102,187.301L168.75,188.043C168.008,188.449 167.34,188.836 167.266,188.899C167.191,188.965 167.371,189.422 167.66,189.914C168.453,191.254 167.598,192.688 165.801,193.043C165.527,193.098 164.465,193.317 163.441,193.528C161.996,193.828 161.414,193.836 160.805,193.559C159.281,192.863 157.684,193.09 157.492,194.028C157.398,194.481 157.043,195.742 156.699,196.832L156.078,198.813L156.691,199.531C157.027,199.926 157.555,200.567 157.859,200.949C158.855,202.207 164.84,202.563 167.551,201.531M153.109,200.778C153.613,200.492 154.102,199.918 154.203,199.504C154.305,199.09 154.691,198.278 155.066,197.699C156.91,194.856 156.898,192.301 155.035,192.301C154.656,192.301 154.109,192.176 153.82,192.024C153.535,191.871 153.098,191.668 152.852,191.574C152.602,191.481 152.199,191.285 151.949,191.137C151.703,190.992 151.094,190.707 150.602,190.508C150.105,190.309 149.363,189.985 148.949,189.789C148.355,189.504 148.027,189.516 147.371,189.832C146.918,190.055 145.598,190.317 144.441,190.414C142.043,190.613 141.816,190.906 142.156,193.375C142.5,195.867 144.828,198.934 147.078,199.852C150.824,201.383 151.797,201.535 153.109,200.778M62.477,197.387C61.473,196.34 61.461,196.172 62.332,195.418C62.707,195.09 63.414,194.02 63.906,193.039C64.398,192.055 64.867,191.184 64.949,191.102C66.891,189.16 67.793,185.184 66.555,184.035C64.961,182.559 63.992,183.457 61.051,189.153C60.707,189.813 60.176,190.754 59.859,191.25C59.551,191.746 59.285,192.516 59.273,192.957C59.238,194.235 58.84,194.18 57.355,192.696C56.078,191.418 55.828,190.801 56.59,190.801C57.152,190.801 57.59,190.149 59.52,186.449C59.949,185.625 60.402,184.906 60.523,184.852C60.648,184.797 60.75,184.555 60.75,184.321C60.75,182.524 63.953,180.758 65.484,181.707C69.879,184.434 69.816,186.528 65.109,194.828C64.648,195.641 64.238,196.723 64.199,197.227C64.105,198.418 63.516,198.473 62.477,197.387M166.188,191.317C166.723,190.321 166.723,190.266 166.18,189.348C165.57,188.317 165.223,188.168 164.969,188.828C164.641,189.676 163.926,189.625 163.617,188.739C163.355,187.985 163.129,187.856 161.758,187.688C160.195,187.496 158.141,186.891 157.754,186.508C157.641,186.395 157.312,186.301 157.023,186.301C156.734,186.301 156.117,186.106 155.648,185.867C155.184,185.629 154.598,185.356 154.352,185.262C154.102,185.168 153.496,184.832 153,184.508C151.914,183.801 149.035,182.403 148.672,182.403C148.297,182.403 147.75,184.113 147.75,185.281C147.75,186.781 148.293,187.68 149.578,188.293C150.219,188.602 150.746,188.953 150.746,189.074C150.75,189.199 150.953,189.301 151.203,189.301C151.453,189.301 151.891,189.426 152.18,189.578C152.465,189.731 152.902,189.934 153.148,190.028C153.398,190.121 153.801,190.324 154.051,190.477C154.734,190.903 155.594,191.16 156.73,191.278C157.297,191.336 157.945,191.567 158.172,191.793C158.465,192.086 159.594,192.223 162.109,192.27L165.637,192.336L166.188,191.317M156.816,190.449C156.969,189.989 157.871,189.422 158.094,189.645C158.188,189.739 158.18,190.035 158.074,190.309C157.863,190.863 156.633,191 156.816,190.449M52.973,188.574L51.672,187.25L52.445,184C53.828,178.192 53.715,177.949 50.852,180.621C49.777,181.621 48.656,182.66 48.359,182.93C47.855,183.387 47.738,183.328 46.484,181.985C45.039,180.43 44.844,179.852 45.699,179.629C46,179.547 46.52,178.961 46.859,178.317C47.195,177.676 47.734,176.68 48.062,176.102C51.309,170.336 51.723,169.485 51.535,168.989C51.258,168.27 52.23,168.594 53.109,169.512C53.973,170.414 53.977,170.426 53.32,170.594C52.695,170.758 51.605,172.278 50.445,174.602C50.16,175.18 49.668,176.055 49.359,176.551C47.867,178.926 48.816,178.684 51.66,175.961C55.586,172.203 56.152,172.84 54.586,179.25C53.676,182.961 54.02,184.547 55.18,182.016C55.5,181.321 56.223,180.028 56.785,179.145C57.359,178.246 57.895,176.938 58.004,176.172L58.199,174.805L59.773,176.27C61.391,177.77 61.652,178.199 60.945,178.199C60.215,178.199 59.285,179.528 57.383,183.301C57.008,184.043 56.598,184.696 56.477,184.75C56.352,184.805 56.25,185.012 56.25,185.207C56.25,185.403 55.914,186.059 55.5,186.664C55.047,187.332 54.75,188.192 54.75,188.836C54.75,190.207 54.547,190.18 52.973,188.574M155.605,189.379C155.758,188.598 156.75,188.512 156.75,189.278C156.75,189.707 156.559,189.903 156.129,189.903C155.699,189.903 155.539,189.739 155.605,189.379M229.23,188.977C231.23,188.563 231.07,188.77 233.176,183.903C235.977,177.43 238.496,164.266 237.047,163.711C236.273,163.414 207.172,163.52 206.988,163.821C206.879,163.992 206.613,163.996 206.301,163.828C205.43,163.363 178.156,163.461 177.766,163.93C177.543,164.199 177.469,167.969 177.52,175.985L177.602,187.653L178.867,187.742L180.133,187.836L180.215,183.567C180.316,178.363 180.75,177.621 181.641,181.11C182.191,183.254 183.832,183.153 184.23,180.946C184.531,179.289 184.836,178.887 185.977,178.676C188.07,178.281 189.75,179.696 189.75,181.848C189.75,182.153 189.875,182.403 190.023,182.403C190.176,182.403 190.496,182.477 190.738,182.567C191.398,182.821 192.148,181.875 192.148,180.793C192.148,179.453 194.438,176.879 195.227,177.328C195.516,177.496 195.75,177.871 195.75,178.168C195.75,178.461 196.086,178.86 196.5,179.047C197.082,179.313 197.25,179.613 197.25,180.387C197.25,181.426 198.145,182.699 198.879,182.699C199.508,182.699 200.25,181.328 200.25,180.16C200.25,179.418 200.387,179.102 200.699,179.102C201.855,179.102 201.285,183.77 199.949,185.215C198.105,187.215 198.246,187.414 201.676,187.633C203.285,187.735 205.816,188.012 207.301,188.242C210.262,188.703 212.203,188.961 215.398,189.317C218.336,189.641 227.055,189.426 229.23,188.977M200.094,183.59C199.996,183.43 199.336,183.301 198.629,183.301C197.246,183.301 196.648,182.625 196.648,181.051C196.648,179.848 194.75,178.582 194.027,179.301C193.344,179.977 192.75,181.317 192.75,182.168C192.75,182.516 192.539,183.035 192.285,183.317C191.793,183.86 194.395,187.344 195.672,187.852C196.273,188.09 200.41,184.106 200.094,183.59M150.895,187.141C150.637,186.477 151.008,185.84 151.414,186.246C151.609,186.442 151.605,186.731 151.402,187.098C151.113,187.606 151.074,187.61 150.895,187.141M167.594,186.676C169.586,185.758 169.207,184.582 165.98,181.641C165.191,180.926 162.449,180.567 161.711,181.086C160.875,181.672 160.648,181.606 160.648,180.778C160.648,180.242 160.305,179.856 159.297,179.266C157.719,178.34 157.352,178.453 157.352,179.867C157.352,180.586 157.211,180.903 156.898,180.903C156.648,180.903 156.449,180.633 156.449,180.301C156.449,179.766 156.25,179.699 154.609,179.699C152.711,179.699 150.797,178.996 149.562,177.848C149.238,177.547 148.836,177.301 148.664,177.301C148.492,177.301 148.352,177.164 148.352,177C148.352,176.836 148.199,176.699 148.012,176.699C147.773,176.699 147.77,176.813 147.992,177.082C148.168,177.293 148.402,178.164 148.516,179.016C148.719,180.531 149.5,181.801 150.234,181.801C150.539,181.801 152.598,182.703 154.422,183.633C154.707,183.781 155.102,183.903 155.297,183.903C155.492,183.903 155.867,184.078 156.125,184.301C156.648,184.739 159.527,185.699 160.324,185.699C160.602,185.699 160.961,185.832 161.125,185.996C161.285,186.156 161.953,186.344 162.609,186.41C163.266,186.477 164.004,186.606 164.25,186.699C164.707,186.867 165.672,187.102 166.176,187.168C166.328,187.184 166.965,186.965 167.594,186.676M161.973,184.684C161.777,184.176 162.039,183.602 162.469,183.602C162.848,183.602 162.828,184.715 162.449,184.953C162.281,185.055 162.066,184.934 161.973,184.684M156.965,183.715C156.645,183.395 156.707,182.164 157.051,181.949C157.219,181.848 157.426,181.949 157.512,182.176C157.715,182.699 157.25,184 156.965,183.715M169.09,178.774C171.094,177.348 170.691,175.371 168.383,175.289C166.902,175.235 166.512,175.09 165.578,174.239C163.992,172.789 163.852,172.758 162.656,173.571C162.055,173.981 161.16,174.395 160.664,174.492C159.586,174.707 159.215,175.11 158.973,176.313C158.469,178.836 166.32,180.746 169.09,178.774M190.578,178.739C190.414,177.637 190.602,176.699 190.984,176.699C191.332,176.699 191.332,179.317 190.984,179.531C190.836,179.621 190.652,179.266 190.578,178.739M206.473,179.524C206.16,179.211 206.195,177.071 206.516,176.871C206.664,176.781 206.848,176.965 206.934,177.281C207.129,178.031 206.762,179.813 206.473,179.524M213.91,178.727C213.785,178.11 213.781,177.367 213.898,177.078C214.301,176.094 214.789,177.723 214.441,178.871L214.141,179.852L213.91,178.727M229.648,178.219C229.648,177.383 229.785,176.699 229.949,176.699C230.113,176.699 230.25,177.301 230.25,178.031C230.25,178.766 230.113,179.449 229.949,179.551C229.766,179.664 229.648,179.153 229.648,178.219M182.551,177.903C182.551,176.93 182.578,176.903 183.066,177.387C183.551,177.871 183.551,177.93 183.066,178.414C182.578,178.903 182.551,178.871 182.551,177.903M221.551,178.074C221.551,177.571 221.715,177.301 222.02,177.301C222.332,177.301 222.461,177.52 222.395,177.953C222.254,178.914 221.551,179.016 221.551,178.074M198.148,177.918C198.148,177.598 198.27,177.262 198.418,177.172C198.781,176.946 199.449,177.801 199.207,178.188C198.879,178.719 198.148,178.531 198.148,177.918M156.523,176.949C157.824,175.414 157.656,175.199 155.145,175.199C151.789,175.199 149.852,173.785 149.852,171.336C149.852,170.457 149.789,170.403 149.023,170.582C146.789,171.102 146.883,172.656 149.301,175.25C152.203,178.371 154.809,178.981 156.523,176.949M191.754,176.414C191.141,175.375 191.129,175.199 191.672,175.199C192.133,175.199 192.852,176.903 192.488,177.129C192.363,177.203 192.031,176.883 191.754,176.414M204.941,176.844C204.699,176.219 205.238,175.199 205.809,175.199C206.375,175.199 206.363,175.297 205.688,176.41C205.238,177.153 205.09,177.239 204.941,176.844M212.551,176.801C212.551,175.836 212.859,175.199 213.332,175.199C213.895,175.199 213.855,175.485 213.148,176.551C212.613,177.36 212.555,177.387 212.551,176.801M181.395,176.106C181.75,175.082 182.25,174.899 182.25,175.789C182.25,176.113 181.988,176.52 181.664,176.692C181.117,176.985 181.102,176.946 181.395,176.106M189.148,176.574C189.148,175.821 189.504,175.199 189.934,175.199C190.453,175.199 190.453,175.789 189.934,176.477C189.449,177.11 189.148,177.149 189.148,176.574M207.648,176.453C207.031,175.774 207.008,175.199 207.594,175.199C207.84,175.199 208.125,175.543 208.23,175.965C208.48,176.961 208.27,177.141 207.648,176.453M215.176,176.41C214.527,175.653 214.504,175.199 215.109,175.199C215.629,175.199 215.949,175.828 215.801,176.547C215.715,176.953 215.621,176.934 215.176,176.41M228.148,176.574C228.148,175.821 228.504,175.199 228.934,175.199C229.453,175.199 229.453,175.789 228.934,176.477C228.449,177.11 228.148,177.149 228.148,176.574M230.773,176.262C230.133,175.379 230.121,175.199 230.699,175.199C231.262,175.199 231.262,174.625 230.699,173.883C230.121,173.117 230.48,172.61 231.105,173.305C231.578,173.824 231.902,177.012 231.48,176.992C231.383,176.989 231.062,176.656 230.773,176.262M183.555,175.949C183.25,175.293 183.277,175.199 183.777,175.199C184.094,175.199 184.352,175.403 184.352,175.653C184.352,175.899 184.359,176.199 184.371,176.317C184.43,176.875 183.863,176.617 183.555,175.949M197.25,175.949C197.25,175.461 197.418,175.199 197.73,175.199C198.047,175.199 198.152,175.363 198.031,175.676C197.934,175.938 197.852,176.274 197.852,176.426C197.852,176.578 197.715,176.699 197.551,176.699C197.387,176.699 197.25,176.363 197.25,175.949M199.398,175.942C199.102,175.289 199.133,175.199 199.656,175.199C200.043,175.199 200.25,175.403 200.25,175.781C200.25,176.68 199.777,176.766 199.398,175.942M220.602,176.551C220.285,176.239 220.695,175.199 221.137,175.199C221.363,175.199 221.551,175.309 221.551,175.446C221.551,175.863 220.793,176.742 220.602,176.551M222.777,176.153C222.348,175.352 222.363,175.199 222.867,175.199C223.395,175.199 223.762,176.11 223.387,176.485C223.211,176.66 222.984,176.535 222.777,176.153M181.051,174.43C181.051,173.793 181.605,172.801 181.961,172.801C182.473,172.801 182.27,173.852 181.648,174.383C181.129,174.828 181.051,174.836 181.051,174.43M191.988,174.496C191.395,173.848 191.215,173.403 191.41,173.082C191.652,172.696 192.75,173.598 192.75,174.18C192.75,174.731 192.352,174.895 191.988,174.496M196.789,174.406C197.254,173.278 197.312,172.801 196.984,172.801C196.449,172.801 196.598,172.043 197.25,171.449C197.832,170.926 197.852,170.926 197.852,171.531C197.852,171.871 197.68,172.223 197.477,172.309C197.203,172.422 197.234,172.551 197.598,172.781C198.215,173.176 198.016,174.051 197.188,174.571C196.629,174.922 196.586,174.903 196.789,174.406M207.637,174.344C207.301,173.969 207.156,173.52 207.273,173.211C207.449,172.75 207.52,172.766 207.93,173.356C208.621,174.34 208.379,175.164 207.637,174.344M220.051,174.649C220.051,173.86 220.926,172.692 221.125,173.211C221.258,173.551 221.102,173.942 220.688,174.328C220.336,174.656 220.051,174.801 220.051,174.649M183.637,173.867C183.156,173.133 183.16,173.102 183.754,173.102C184.449,173.102 184.883,173.887 184.434,174.336C184.242,174.531 183.965,174.367 183.637,173.867M212.406,174.313C212.098,173.813 213.164,172.696 213.566,173.098C213.781,173.313 213.684,173.602 213.25,174.035C212.809,174.473 212.559,174.555 212.406,174.313M215.121,174.024C214.809,173.68 214.645,173.305 214.758,173.192C215.043,172.906 215.945,173.86 215.801,174.293C215.727,174.516 215.477,174.418 215.121,174.024M136.879,174.02C137.164,173.863 138.816,173.18 140.551,172.504C142.281,171.824 143.969,171.153 144.301,171.008C144.629,170.863 146.316,170.188 148.051,169.508C149.781,168.828 151.469,168.153 151.801,168.008C152.129,167.863 153.805,167.184 155.523,166.496C159.387,164.949 159.75,164.727 159.75,163.879C159.75,162.5 152.207,164.094 150.406,165.852C149.57,166.668 148.301,167.203 145.949,167.723C145.371,167.848 143.551,168.313 141.898,168.754C140.25,169.192 137.723,169.844 136.281,170.203C133.398,170.918 133.125,171.184 133.84,172.594C134.734,174.36 135.547,174.742 136.879,174.02M189.27,173.571C189.371,173.168 189.328,172.762 189.18,172.668C188.777,172.422 189.152,171.301 189.637,171.301C190.145,171.301 190.168,171.66 189.691,172.141C189.414,172.418 189.461,172.59 189.898,172.914C190.422,173.297 190.43,173.367 189.98,173.813C189.293,174.5 189.055,174.418 189.27,173.571M199.43,173.719C199.121,173.223 199.156,173.11 199.66,172.949C200.363,172.727 200.426,172.332 199.801,172.094C199.223,171.871 199.215,171.301 199.789,171.301C200.367,171.301 201.082,172.574 200.594,172.735C200.406,172.801 200.25,173.176 200.25,173.574C200.25,174.449 199.922,174.508 199.43,173.719M204.75,174.059C204.75,173.512 205.578,172.719 205.922,172.934C206.199,173.106 206.16,173.305 205.773,173.731C205.238,174.324 204.75,174.481 204.75,174.059M222.648,173.676C222.133,173.074 222.137,173.059 222.805,173.153C223.184,173.207 223.539,173.489 223.594,173.778C223.73,174.485 223.301,174.438 222.648,173.676M228.148,173.887C228.148,173.66 228.34,173.317 228.574,173.125C229.18,172.621 229.512,173.281 228.941,173.852C228.383,174.41 228.148,174.422 228.148,173.887M170.102,173.617C172.469,172.883 173.105,171.895 172.586,169.762C172.125,167.883 170.207,166.223 168.469,166.192C168.211,166.192 167.203,165.918 166.227,165.594C163.652,164.731 163.395,164.871 164.582,166.481C165.215,167.336 165.277,169.223 164.723,170.86C164.559,171.344 164.828,171.723 166.074,172.735C167.742,174.09 168.23,174.199 170.102,173.617M159.266,173.067C164.152,171.75 165.066,166.199 160.398,166.199C159.73,166.199 159.113,166.317 159.027,166.457C158.941,166.598 158.223,166.946 157.434,167.231C155.93,167.778 154.414,168.426 153.148,169.071C151.633,169.844 151.59,172.121 153.078,172.93C154.066,173.465 157.504,173.543 159.266,173.067M181.051,172.258C181.051,171.703 181.586,171 182.012,171C182.465,171 182.25,171.77 181.648,172.281C181.082,172.766 181.051,172.766 181.051,172.258M184.113,172.188C183.555,171.297 183.996,170.867 184.645,171.668C185.16,172.305 185.188,172.801 184.703,172.801C184.59,172.801 184.32,172.528 184.113,172.188M191.832,172.231C191.574,171.946 191.414,171.555 191.48,171.36C191.668,170.797 192.75,171.52 192.75,172.211C192.75,172.922 192.461,172.93 191.832,172.231M207.645,172.172C207.055,171.481 207.164,171.129 207.887,171.403C208.141,171.5 208.352,171.856 208.352,172.192C208.352,172.949 208.309,172.949 207.645,172.172M219.941,172.571C219.742,172.25 220.559,171 220.969,171C221.121,171 221.25,171.184 221.25,171.403C221.25,171.942 220.156,172.914 219.941,172.571M223.238,172.246C222.652,171.598 222.617,171.301 223.129,171.301C223.605,171.301 224.324,172.418 223.984,172.629C223.844,172.715 223.508,172.543 223.238,172.246M230.91,172.188C230.352,171.289 230.449,170.926 231.148,171.301C231.758,171.625 231.953,172.34 231.512,172.613C231.379,172.696 231.109,172.504 230.91,172.188M204.75,172.043C204.75,171.563 205.547,171.098 205.848,171.399C206.023,171.574 205.242,172.5 204.922,172.5C204.828,172.5 204.75,172.293 204.75,172.043M212.391,172.184C212.25,171.957 212.383,171.645 212.727,171.395C213.445,170.871 213.727,171.453 213.07,172.11C212.723,172.457 212.57,172.477 212.391,172.184M215.176,172.082C214.484,171.559 214.512,171.301 215.25,171.301C215.648,171.301 215.852,171.5 215.852,171.903C215.852,172.602 215.855,172.602 215.176,172.082M228.148,171.938C228.148,171.571 228.34,171.301 228.602,171.301C228.848,171.301 229.051,171.418 229.051,171.563C229.051,171.707 228.848,171.996 228.602,172.199C228.223,172.512 228.148,172.469 228.148,171.938M127.5,171.43C128.488,171.164 129.773,170.836 130.352,170.707C130.926,170.578 132.211,170.239 133.199,169.957C134.191,169.676 135.473,169.336 136.051,169.207C136.629,169.078 137.91,168.739 138.898,168.457C139.891,168.176 141.172,167.836 141.75,167.707C142.859,167.457 145.789,166.66 146.551,166.403C146.797,166.321 147.391,166.164 147.867,166.059C150.391,165.504 147.93,165.239 144.691,165.719C139.379,166.504 137.668,166.742 133.648,167.25C131.586,167.512 129.324,167.856 128.621,168.012C127.918,168.172 126.906,168.301 126.371,168.305C124.66,168.309 123.191,168.66 123.02,169.106C122.598,170.207 124.215,172.344 125.25,172.051C125.496,171.977 126.512,171.699 127.5,171.43M76.645,166.957C80.188,162.668 80.207,161.942 76.801,161.555C72.758,161.09 69.195,159.442 66.176,156.633C65.445,155.953 64.691,155.403 64.492,155.403C64.148,155.403 61.648,158.715 61.648,159.172C61.648,159.805 73.078,170.715 73.496,170.481C73.742,170.344 75.16,168.758 76.645,166.957M199.98,169.981C199.52,169.492 199.414,169.196 199.648,169.051C200.012,168.828 200.824,169.696 200.84,170.324C200.855,170.844 200.75,170.805 199.98,169.981M181.051,169.996C181.051,169.274 181.84,168.481 182.117,168.93C182.23,169.113 182.035,169.547 181.688,169.899C181.109,170.473 181.051,170.485 181.051,169.996M184.102,169.922C183.48,169.489 183.453,168.903 184.059,168.903C184.355,168.903 185.07,170.082 184.883,170.27C184.816,170.336 184.465,170.18 184.102,169.922M191.785,169.875C191.109,169.098 191.445,168.414 192.18,169.078C192.762,169.606 192.953,170.403 192.496,170.403C192.355,170.403 192.039,170.164 191.785,169.875M196.648,169.996C196.648,169.774 196.922,169.348 197.25,169.051C197.996,168.375 198.156,169.235 197.422,169.973C196.887,170.508 196.648,170.516 196.648,169.996M207.656,169.863C207.355,169.531 207.227,169.188 207.371,169.102C207.801,168.832 208.414,169.387 208.305,169.946C208.211,170.422 208.152,170.414 207.656,169.863M220.039,169.817C220.41,169.129 220.918,168.77 221.168,169.02C221.375,169.227 220.379,170.403 219.992,170.403C219.848,170.403 219.871,170.137 220.039,169.817M223.273,170.078C222.695,169.739 222.543,168.781 223.098,168.969C223.543,169.113 224.414,170.403 224.062,170.391C223.918,170.387 223.562,170.246 223.273,170.078M230.926,169.953C230.277,169.219 230.438,168.524 231.148,168.969C231.48,169.176 231.75,169.582 231.75,169.871C231.75,170.504 231.438,170.535 230.926,169.953M189.039,169.863C188.82,169.512 189.676,168.727 189.965,169.016C190.074,169.125 189.953,169.426 189.691,169.688C189.41,169.969 189.148,170.039 189.039,169.863M204.75,169.66C204.75,169.418 205.02,169.078 205.352,168.903C206.043,168.531 206.211,169.117 205.59,169.742C205.102,170.227 204.75,170.196 204.75,169.66M212.25,169.723C212.25,169.516 212.52,169.176 212.852,168.969C213.371,168.645 213.449,168.672 213.449,169.168C213.449,169.481 213.234,169.821 212.977,169.918C212.316,170.172 212.25,170.153 212.25,169.723M214.988,169.699C214.805,169.477 214.734,169.215 214.832,169.117C215.121,168.828 215.852,169.231 215.852,169.684C215.852,170.215 215.422,170.223 214.988,169.699M228.148,169.707C228.148,169.442 228.422,169.078 228.75,168.903C229.078,168.723 229.352,168.699 229.352,168.844C229.352,168.989 229.078,169.352 228.75,169.653C228.219,170.129 228.148,170.137 228.148,169.707M180.922,168.039C180.738,167.742 181.582,166.5 181.969,166.5C182.121,166.5 182.25,166.672 182.25,166.883C182.25,167.371 181.121,168.356 180.922,168.039M184.273,167.711C183.691,167.145 183.602,166.801 184.039,166.801C184.328,166.801 185.086,167.977 184.898,168.137C184.844,168.184 184.562,167.992 184.273,167.711M196.648,167.946C196.648,167.696 196.922,167.25 197.25,166.949C197.742,166.504 197.852,166.489 197.852,166.86C197.852,167.106 197.578,167.551 197.25,167.852C196.758,168.297 196.648,168.313 196.648,167.946M200.008,167.742C199.387,167.278 199.379,166.801 199.988,166.801C200.254,166.801 200.961,167.992 200.793,168.156C200.738,168.215 200.383,168.028 200.008,167.742M220.051,167.828C220.051,167.375 220.727,166.5 221.078,166.5C221.477,166.5 221.203,167.305 220.648,167.781C220.125,168.231 220.051,168.235 220.051,167.828M223.223,167.664C222.906,167.356 222.742,167.008 222.855,166.895C222.973,166.778 223.348,166.965 223.688,167.305C224.031,167.649 224.195,167.996 224.055,168.074C223.914,168.156 223.539,167.973 223.223,167.664M189.148,167.5C189.148,167.149 189.371,166.781 189.645,166.676C190.438,166.371 190.52,166.766 189.809,167.477L189.148,168.133L189.148,167.5M191.91,167.641C191.289,167.02 191.457,166.43 192.148,166.801C192.48,166.977 192.75,167.321 192.75,167.563C192.75,168.094 192.398,168.129 191.91,167.641M204.75,167.613C204.75,167.074 205.586,166.336 205.871,166.621C206.121,166.871 205.598,167.77 205.102,167.934C204.91,167.996 204.75,167.856 204.75,167.613M207.676,167.574C207.148,167.184 206.953,166.496 207.375,166.504C207.895,166.516 208.402,167.055 208.305,167.492C208.219,167.883 208.113,167.899 207.676,167.574M212.25,167.563C212.25,167.321 212.52,166.977 212.852,166.801C213.543,166.43 213.711,167.02 213.09,167.641C212.602,168.129 212.25,168.094 212.25,167.563M215.176,167.582C214.484,167.059 214.512,166.801 215.25,166.801C215.648,166.801 215.852,167 215.852,167.403C215.852,168.102 215.855,168.102 215.176,167.582M228.148,167.403C228.148,167.074 228.207,166.801 228.273,166.801C228.344,166.801 228.613,166.719 228.875,166.617C229.57,166.352 229.469,167.184 228.75,167.633C228.227,167.961 228.148,167.93 228.148,167.403M230.91,167.641C230.289,167.02 230.457,166.43 231.148,166.801C231.48,166.977 231.75,167.321 231.75,167.563C231.75,168.094 231.398,168.129 230.91,167.641M125.812,167.258C127.566,167.012 129.879,166.68 130.949,166.52C132.023,166.36 134.656,166.008 136.801,165.742C138.945,165.477 141.309,165.141 142.051,164.996C142.793,164.856 144.242,164.656 145.273,164.555C148.723,164.219 150.176,163.258 148.934,162.137C148.367,161.621 147.809,161.613 137.77,161.953C131.957,162.149 125.488,162.309 123.398,162.305C118.875,162.301 118.172,162.707 118.551,165.113C118.988,167.906 119.68,168.113 125.812,167.258M173.777,137.926C173.844,119.059 173.797,116.102 173.422,116.102C172.91,116.102 172.848,116.528 172.211,124.352C171.953,127.485 171.613,131.332 171.449,132.903C170.957,137.68 170.539,142.379 170.25,146.375C170.102,148.469 169.84,150.547 169.672,150.992L169.363,151.801L163.473,151.801C154.949,151.801 154.238,151.379 154.41,146.403L154.5,143.852L157.5,143.699L160.5,143.551L160.391,139.051C160.328,136.574 160.195,133.403 160.09,132L159.898,129.449L158.551,129.285C157.102,129.106 155.598,128.43 154.965,127.672C154.387,126.973 153.672,127.09 151.742,128.207C150.785,128.758 148.852,129.824 147.449,130.574C140.328,134.375 138.676,135.285 138.352,135.594C138.215,135.723 138.406,136.723 138.781,137.809L139.461,139.793L138.129,141.02C137.398,141.696 136.652,142.375 136.469,142.524C135.629,143.223 132.043,140.321 130.789,137.93C129.684,135.821 129.188,133.672 128.953,129.985L128.762,126.918L129.574,126.61C130.023,126.442 130.965,126.301 131.672,126.301L132.953,126.301L134.41,129.156C136.016,132.309 136.719,133.156 137.32,132.684C137.527,132.516 139.051,131.672 140.699,130.809C144.293,128.922 144.141,129.125 144.145,126.207C144.152,123.321 144.02,123.067 141.938,121.981C139.457,120.688 138.93,119.992 138.75,117.801L138.602,115.949L136.984,115.86L135.367,115.766L132.387,118.836C129.555,121.754 125.113,127.336 123.82,129.602C123.492,130.18 122.723,131.528 122.109,132.602C119.41,137.332 117.191,143.262 115.988,148.949C115.266,152.371 114.75,156.121 114.75,157.953L114.75,159.903L144.227,159.828L173.699,159.75L173.777,137.926M211.5,156.403C213.055,155.543 216.418,155.352 217.57,156.055C219.488,157.223 220.68,155.379 219.094,153.692C218.547,153.11 218.438,152.629 218.418,150.778C218.395,148.078 217.727,147.063 214.496,144.824C211.098,142.473 207.914,143.942 209.598,147.09C210.141,148.102 210.164,152.617 209.641,154.293C208.969,156.438 209.777,157.352 211.5,156.403M234.723,155.508L236.316,154.715L236.137,153.184C235.863,150.836 235.227,147.676 234.973,147.426C234.852,147.301 234.742,146.852 234.734,146.426C234.715,145.641 233.598,142.649 233.566,143.305C233.559,143.504 233.414,144.016 233.254,144.446L232.953,145.227L232.066,144.215C230.969,142.965 229.254,142.418 226.832,142.551L225,142.653L224.785,139.801C224.395,134.617 224.215,133.469 223.758,133.293C223.039,133.016 222.906,133.426 222.75,136.422L222.602,139.293L220.801,140.281C218.277,141.668 218.25,141.656 218.25,139.219C218.25,138.074 218.129,136.824 217.984,136.442C217.797,135.949 217.875,135.395 218.258,134.547C219.594,131.571 219.852,130.043 219.648,126.278C219.484,123.242 219.523,122.653 219.902,122.508C220.758,122.18 220.406,120.762 219.125,119.375L217.902,118.051L217.324,118.758C217.008,119.149 216.75,119.621 216.75,119.809C216.75,119.996 216.195,120.422 215.512,120.75C214.605,121.192 214.07,121.742 213.508,122.817L212.742,124.285L212.047,123.418C209.262,119.938 205.445,117.602 202.555,117.602L201.75,117.602L201.75,114.235C201.75,109.125 200.785,105.352 199.656,106.047C199.523,106.129 199.32,107.551 199.199,109.207C198.957,112.598 198.953,112.602 196.449,112.942C194.324,113.227 193.824,113.629 194.234,114.703C194.41,115.168 194.469,116.239 194.367,117.11C194.207,118.473 194.281,118.821 194.965,119.828C196.957,122.762 194.344,125.735 191.641,123.61C190.562,122.758 189.73,123.235 189.945,124.578C190.031,125.113 189.891,126.16 189.629,126.903C189.371,127.645 189.156,128.961 189.156,129.824C189.152,130.692 189.062,131.403 188.953,131.403C188.758,131.403 185.527,129.895 185.25,129.672C185.168,129.61 185.031,128.453 184.949,127.106C184.832,125.168 184.699,124.637 184.316,124.567C183.742,124.453 183.488,125.653 183.195,129.863L183,132.676L180.602,132.715L178.199,132.75L178.117,138.93L178.039,145.11L181.418,145.348C187.062,145.746 186.586,145.828 186.695,144.465C186.75,143.817 187.066,142.899 187.398,142.434C187.895,141.739 187.969,141.317 187.805,140.125C187.555,138.328 188.023,137.313 189.992,135.344L191.387,133.949L191.297,131.184C191.164,127.293 191.641,127.071 193.375,130.215C194.371,132.02 195.504,132.528 202.051,134.102C204.734,134.746 207.027,135.426 207.285,135.653C207.441,135.789 207.852,135.903 208.199,135.903C208.547,135.903 208.996,136.071 209.203,136.278C209.434,136.508 210.805,136.707 212.789,136.801L216,136.949L215.969,139.653C215.953,141.137 215.836,142.731 215.707,143.196C215.496,143.957 215.633,144.18 217.156,145.539C219.289,147.442 219.762,148.434 219.672,150.793C219.617,152.18 219.727,152.774 220.109,153.199C220.391,153.512 220.711,154.336 220.824,155.035L221.027,156.301L227.078,156.301C233.023,156.301 233.16,156.285 234.723,155.508M160.59,148.742C160.977,148.352 161.062,147.34 160.77,146.574C160.629,146.219 160.152,146.102 158.816,146.102L157.051,146.102L157.051,147.242C157.051,148.699 157.473,149.102 159,149.102C159.676,149.102 160.391,148.938 160.59,148.742M165.148,148.684C165.148,147.903 164.031,146.813 163.633,147.203C163.02,147.809 163.543,149.102 164.406,149.102C164.84,149.102 165.148,148.926 165.148,148.684M167.793,145.239C167.715,144.594 167.523,144.434 166.727,144.356C165.574,144.246 165.457,144.699 166.383,145.684C167.176,146.531 167.914,146.297 167.793,145.239M197.547,144.793C197.547,144.274 197.348,143.469 197.102,143C196.77,142.36 196.738,141.996 196.98,141.547C197.156,141.215 197.215,140.598 197.109,140.172C197,139.75 197.074,138.496 197.273,137.387C198.066,132.953 195.984,132.215 191.738,135.43C189.57,137.071 188.824,138.434 189.047,140.336C189.215,141.735 189.133,142.184 188.523,143.297C187.43,145.305 188.629,146.477 190.137,144.871C190.543,144.438 190.879,144.352 191.488,144.52C191.934,144.645 192.832,144.711 193.484,144.676C194.293,144.629 194.863,144.781 195.285,145.164C196.586,146.344 197.551,146.188 197.547,144.793M164.852,141.024C164.852,140.871 164.48,140.453 164.023,140.094C163.16,139.41 162.75,139.781 163.164,140.867C163.344,141.34 164.852,141.477 164.852,141.024M168.328,139.047C168.574,138.071 168.004,137.403 166.93,137.403C165.695,137.403 165.555,137.953 166.535,138.918C167.617,139.977 168.086,140.012 168.328,139.047M165.602,134.699C165.832,134.328 163.367,131.356 163.008,131.578C162.707,131.762 162.656,134.508 162.949,134.801C163.266,135.113 165.395,135.035 165.602,134.699M169,131.035C169.379,128.481 169.324,128.41 166.949,128.41C163.984,128.41 163.98,128.383 167.551,132.356C168.59,133.512 168.637,133.473 169,131.035M150.473,125.625C152.148,124.758 153.578,123.848 153.656,123.602C153.73,123.352 153.902,122.946 154.035,122.692C154.164,122.438 154.363,121.817 154.477,121.305C154.793,119.871 155.688,119.102 157.043,119.102C158.527,119.102 159.773,118.633 159.621,118.137C159.555,117.926 159.418,117.379 159.32,116.926L159.141,116.102L152.609,116.102L152.402,117.887C152.152,120.028 151.793,120.485 149.25,121.883L147.301,122.953L147.211,125.078C147.164,126.246 147.191,127.199 147.273,127.199C147.355,127.199 148.793,126.492 150.473,125.625M167.098,125.703C167.281,125.406 164,120.981 162.781,119.879L162.148,119.309L162.148,122.106C162.148,125.68 162.387,126 165.027,126C166.066,126 166.996,125.867 167.098,125.703M169.777,122.625C169.887,122.254 170.055,120.633 170.156,119.028L170.336,116.102L166.992,116.102C163.184,116.102 163.07,116.196 164.695,118.055C165.27,118.711 166.453,120.16 167.32,121.27C169.016,123.434 169.469,123.684 169.777,122.625M186.449,122.637C187.184,121.953 191.852,121.531 191.852,122.149C191.852,122.285 192.289,122.582 192.824,122.809C194.605,123.555 195.156,122.137 193.801,120.301C193.023,119.246 192.758,117.113 193.336,116.535C194.035,115.832 192.355,113.383 190.039,111.735C187.656,110.035 187.176,109.801 186.055,109.801C183.805,109.801 183.289,111.883 184.66,115.403C184.816,115.797 184.781,116.41 184.574,116.957C184.324,117.617 184.324,118.051 184.566,118.582C184.828,119.164 184.777,119.574 184.305,120.625C183.285,122.906 184.719,124.25 186.449,122.637M288.148,120.301C292.188,119.504 292.496,119.246 292.766,116.461C292.871,115.356 293.086,113.168 293.238,111.602C293.824,105.617 295.258,102.699 299.941,97.957C303.785,94.074 304.957,91.793 303,92.02C297.43,92.664 295.734,92.75 291.449,92.617C286.531,92.461 285.098,92.266 280.5,91.133C279.18,90.809 277.629,90.43 277.051,90.293C273.82,89.52 273.246,89.367 272.699,89.129C272.371,88.989 271.289,88.625 270.301,88.324C269.309,88.024 268.371,87.672 268.215,87.539C268.059,87.406 267.629,87.301 267.258,87.301C266.887,87.301 266.504,87.164 266.398,87C266.297,86.836 266.008,86.699 265.754,86.699C265.5,86.699 264.867,86.516 264.344,86.285C263.824,86.059 262.926,85.699 262.352,85.492C261.773,85.281 260.895,84.946 260.398,84.742C259.906,84.539 259.027,84.199 258.449,83.992C257.449,83.629 256.934,83.422 254.324,82.332C253.707,82.071 252.93,81.746 252.602,81.61C246.594,79.117 233.199,72.664 227.699,69.613C226.215,68.789 224.391,67.809 223.648,67.434C222.906,67.059 222.234,66.684 222.148,66.602C222.066,66.52 221.73,66.305 221.398,66.121C218.711,64.656 216.992,63.664 215.652,62.805C214.785,62.254 214.012,61.801 213.93,61.801C213.773,61.801 202.191,54.621 200.875,53.707C200.449,53.41 197.672,51.559 194.699,49.59C189.469,46.125 181.734,40.899 179.512,39.321C178.91,38.899 178.168,38.383 177.859,38.176C176.652,37.367 171.566,33.879 171,33.473C169.355,32.285 158.5,24.918 157.707,24.449C157.43,24.285 157.133,24.071 157.051,23.973C156.66,23.52 153.914,22.102 152.918,21.844C150.465,21.211 143.664,19.942 140.25,19.481C135.539,18.844 127.059,19.746 125.715,21.028C125.559,21.18 125.234,21.301 125,21.301C122.984,21.301 116.105,27.574 112.125,33.039C110.332,35.504 110.336,35.508 113.852,37.004C120.152,39.68 123.773,41.59 128.699,44.848C132.309,47.231 137.438,50.457 138.148,50.793C138.723,51.063 139.488,51.531 144.84,54.871C147.242,56.371 149.352,57.602 149.527,57.602C149.707,57.602 149.852,57.719 149.852,57.867C149.852,58.012 150.086,58.211 150.375,58.309C150.938,58.496 152.004,59.133 152.25,59.43C152.332,59.528 153.008,59.949 153.75,60.36C154.492,60.774 157.262,62.453 159.898,64.094C162.539,65.739 164.902,67.176 165.148,67.289C165.398,67.403 165.801,67.629 166.051,67.793C166.434,68.047 171.609,71.199 172.949,71.996C173.754,72.473 178.16,75.129 179.547,75.973C180.293,76.422 181.102,76.887 181.352,77.004C181.598,77.121 182.504,77.66 183.359,78.207C184.219,78.754 184.992,79.199 185.082,79.199C185.168,79.199 186.121,79.742 187.199,80.403C188.277,81.063 189.293,81.602 189.457,81.602C189.617,81.602 189.75,81.719 189.75,81.867C189.75,82.012 189.984,82.215 190.273,82.317C190.562,82.422 191.477,82.906 192.301,83.391C193.125,83.879 194.07,84.418 194.398,84.586C194.73,84.754 195.539,85.223 196.199,85.629C196.859,86.039 198.008,86.68 198.75,87.063C199.492,87.442 200.145,87.852 200.199,87.977C200.254,88.098 200.418,88.199 200.562,88.199C200.707,88.199 201.945,88.844 203.316,89.625C204.688,90.41 206.348,91.321 207.004,91.653C207.664,91.981 208.266,92.317 208.352,92.403C208.516,92.567 210.352,93.594 211.051,93.91C211.84,94.27 213.25,95.012 214.949,95.965C219.191,98.34 235.246,106.172 240,108.184C241.32,108.742 242.637,109.336 242.926,109.504C243.219,109.672 244.5,110.215 245.777,110.715C247.055,111.211 248.371,111.735 248.699,111.879C250.066,112.473 251.461,113.035 252.449,113.387C253.027,113.594 253.77,113.879 254.102,114.024C255.023,114.426 263.477,117.18 265.5,117.739C266.488,118.012 267.703,118.348 268.199,118.489C269.738,118.926 276.242,120.184 278.102,120.403C279.973,120.625 286.855,120.555 288.148,120.301M159,112.352L159,111.449L150,111.375L141,111.297L139.816,112.352L138.633,113.41L148.816,113.328L159,113.25L159,112.352M166.516,112.727C166.074,112.059 162.738,108.973 161.953,108.512C161.633,108.321 161.551,108.656 161.555,110.16C161.562,113.438 161.527,113.403 164.441,113.403L166.965,113.403L166.516,112.727M173.758,111.977C173.68,111.688 173.621,111.922 173.621,112.5C173.621,113.078 173.68,113.317 173.758,113.028C173.832,112.739 173.832,112.266 173.758,111.977M193.832,112.028C194.031,111.239 193.496,107.141 193.055,106.051C192.922,105.723 192.641,105 192.434,104.449C192.09,103.539 190.809,102.645 190.41,103.039C190.324,103.125 190.48,104.336 190.754,105.727C191.027,107.121 191.25,108.867 191.25,109.61C191.25,111.754 193.398,113.762 193.832,112.028M170.961,107.028C170.777,106.387 164.551,106.211 164.551,106.844C164.551,107.242 169.516,111.969 170.219,112.231C170.723,112.422 171.312,108.266 170.961,107.028M158.852,107.528L158.852,106.453L153.676,106.555C148.875,106.653 148.418,106.711 147.375,107.36C145.535,108.504 145.934,108.602 152.551,108.602L158.852,108.602L158.852,107.528M158.852,103.465C158.852,103.113 156.832,103.125 156.613,103.481C156.418,103.793 157.523,104.031 158.324,103.852C158.613,103.785 158.852,103.613 158.852,103.465M170.996,103.801C172.344,103.289 171.996,100.992 170.551,100.844C169.406,100.727 163.016,101.602 161.926,102.028C161.273,102.278 160.98,103.434 161.449,103.903C161.77,104.219 170.129,104.133 170.996,103.801M230.766,94.215C230.141,94.094 229.332,93.852 228.965,93.676C227.348,92.91 226.086,92.403 225.812,92.403C225.203,92.403 225.137,91.449 225.734,91.293C226.059,91.207 226.582,90.645 226.895,90.043C227.211,89.442 227.734,88.477 228.062,87.903C228.387,87.324 229.102,86.039 229.648,85.051C230.199,84.063 230.906,82.789 231.223,82.227C231.535,81.664 231.73,80.965 231.656,80.672C231.465,79.942 232.109,79.762 233.098,80.274C233.547,80.508 234.062,80.699 234.234,80.699C235.266,80.699 235.66,81.692 234.828,82.203C233.879,82.781 232.648,84.914 232.648,85.981C232.648,86.918 233.504,86.938 234.496,86.028C234.902,85.656 235.766,84.953 236.414,84.465C237.066,83.981 237.691,83.449 237.805,83.281C238.102,82.848 239.988,82.914 240.883,83.391C241.75,83.856 241.891,84.301 241.168,84.301C240.902,84.301 239.836,84.977 238.801,85.801C237.762,86.625 236.781,87.301 236.617,87.301C235.863,87.301 235.555,88.203 235.926,89.336C236.887,92.254 234.117,94.871 230.766,94.215M232.25,92.344C233.09,91.684 233.91,89.328 233.543,88.637C233.094,87.801 231.836,87.09 231.477,87.473C231.039,87.942 229.051,91.719 229.051,92.082C229.051,92.891 231.316,93.074 232.25,92.344M221.672,90.496C221.328,90.305 219.875,89.617 218.449,88.961C215.68,87.692 215.418,87.356 216.594,86.582C217.004,86.317 217.617,85.524 217.961,84.824C218.301,84.121 218.969,82.875 219.441,82.051C221.23,78.93 222.148,76.981 222.148,76.305C222.148,75.555 222.68,75.399 223.578,75.879C223.867,76.031 224.301,76.235 224.551,76.328C224.797,76.422 225.203,76.621 225.449,76.774C225.699,76.926 226.738,77.43 227.766,77.899C229.848,78.852 229.906,78.989 229.02,80.692C228.184,82.293 227.316,82.317 227.535,80.735C227.84,78.551 224.863,77.196 224.02,79.133C223.824,79.582 223.379,80.457 223.027,81.078C222.047,82.813 223.055,83.762 224.852,82.801C225.684,82.356 225.805,82.867 225.164,84.121C224.148,86.117 223.352,86.586 223.352,85.192C223.352,83.918 221.672,83.582 220.973,84.715C220.629,85.27 220.352,85.875 220.352,86.063C220.352,86.246 220.25,86.403 220.125,86.403C220,86.406 219.746,86.739 219.559,87.141C218.977,88.395 221.633,89.664 222.738,88.66C223.465,88.004 224.434,88.176 224.301,88.934C224.012,90.582 222.961,91.207 221.672,90.496M290.414,88.106C290.508,87.723 290.547,86.746 290.492,85.93C290.391,84.278 290.629,84.43 286.199,83.223C285.211,82.953 283.977,82.543 283.453,82.317C282.934,82.086 282.395,81.899 282.254,81.895C282.113,81.891 281.664,81.625 281.25,81.301C279.98,80.309 279.852,80.504 279.648,83.778C279.5,86.207 279.547,86.914 279.871,87.16C280.395,87.551 286.133,88.485 289.719,88.762C290.031,88.785 290.309,88.524 290.414,88.106M276.09,85.742C276.57,85.262 276.617,5.672 276.141,4.781C275.848,4.235 275.449,4.199 269.555,4.199L263.277,4.199L261.391,6.082C257.23,10.223 253.387,12.543 251.312,12.156C246.23,11.215 244.949,11.656 242.742,15.106C240.562,18.512 239.352,18.735 232.68,16.957C230.473,16.367 229.547,16.481 227.863,17.543C225.574,18.989 223.445,18.438 219.965,15.508C215.918,12.094 216.195,12.117 209.348,14.524C202.836,16.809 199.879,16.676 195.391,13.899C192.211,11.93 188.996,13.153 181.801,19.059C180.48,20.141 177.711,22.387 175.648,24.047C173.586,25.711 171.504,27.391 171.016,27.785C169.973,28.629 169.449,28.106 175.5,32.258C177.809,33.844 181.859,36.629 184.5,38.446C209.184,55.446 228.992,67.106 246.602,75.008C247.426,75.379 248.91,76.051 249.898,76.5C250.891,76.953 253.59,78.094 255.898,79.043C258.211,79.989 260.504,80.938 261,81.156C261.496,81.371 263.52,82.09 265.5,82.754C267.48,83.418 270.113,84.328 271.352,84.774C273.234,85.453 274.754,85.918 275.566,86.071C275.656,86.086 275.891,85.938 276.09,85.742M211.051,85.231C210.637,85.098 209.762,84.676 209.102,84.301C208.441,83.922 207.258,83.289 206.477,82.891C204.871,82.078 204.762,81.871 205.727,81.446C206.355,81.168 209.059,76.852 210.457,73.895C210.781,73.203 211.184,72.555 211.348,72.453C211.516,72.348 211.648,71.735 211.648,71.082C211.648,70.434 211.723,69.903 211.816,69.903C212.117,69.903 214.5,71.246 214.602,71.477C214.656,71.598 214.941,71.699 215.238,71.699C215.535,71.699 215.945,71.903 216.148,72.153C216.355,72.399 216.695,72.602 216.906,72.602C217.117,72.602 217.723,73.094 218.254,73.699C220.059,75.758 219.102,78.668 216.297,79.633L215.148,80.028L215.203,81.942C215.289,84.844 213.699,86.106 211.051,85.231M212.562,83.028C214.055,81.223 213.203,78.602 211.125,78.602C210.312,78.602 208.809,82.449 209.379,83.074C210.16,83.942 211.824,83.918 212.562,83.028M198.797,78.582C198.352,78.106 198.273,77.774 198.469,77.156C198.609,76.715 198.938,75.137 199.203,73.653C199.465,72.164 199.801,70.477 199.945,69.903C200.613,67.215 200.879,65.317 200.699,64.496C200.457,63.391 200.625,63.391 202.492,64.489C203.77,65.242 203.898,65.399 203.391,65.578C201.898,66.106 201.059,69.071 202.273,69.508C202.562,69.613 203.191,69.969 203.668,70.301L204.539,70.903L205.543,69.809C206.129,69.172 206.551,68.391 206.551,67.957C206.551,67.539 206.672,67.199 206.824,67.199C207.129,67.199 209.012,68.149 209.25,68.422C209.332,68.516 209.672,68.696 210,68.821C210.578,69.035 210.57,69.067 209.852,69.61C209.438,69.918 208.898,70.356 208.648,70.582C207.684,71.461 200.992,78.664 200.898,78.926C200.719,79.43 199.383,79.211 198.797,78.582M215.359,77.86C216.801,76.766 217.191,74.403 216.086,73.446C215.074,72.567 214.09,72.856 213.34,74.25C212.988,74.906 212.621,75.516 212.523,75.598C210.914,76.985 213.645,79.156 215.359,77.86M193.949,75.801C193.539,75.586 191.75,74.496 189.977,73.379C186.488,71.188 186.367,70.996 187.273,69.164C188.027,67.649 188.699,67.887 188.699,69.668C188.699,72.137 189.926,72.414 191.156,70.223C194.895,63.555 195.742,61.746 195.414,61.133C194.953,60.27 195.844,60.477 197.695,61.66C199.398,62.75 199.77,63.301 198.797,63.301C198.238,63.301 197.68,63.836 197.07,64.949C196.891,65.281 196.297,66.36 195.75,67.352C195.199,68.34 194.418,69.758 194.012,70.5C193.602,71.242 193.141,72.012 192.988,72.211C192.039,73.41 193.699,74.692 194.852,73.649C195.582,72.989 196.535,73.184 196.395,73.961C196.336,74.285 196.203,74.617 196.094,74.699C195.988,74.785 195.754,75.113 195.578,75.434C195.152,76.203 194.848,76.274 193.949,75.801M202.176,73.731C203.742,71.942 203.734,71.961 203.008,71.305C201.527,69.961 200.312,71.363 200.262,74.477C200.242,75.656 200.621,75.508 202.176,73.731M180.086,66.957C174.863,63.52 174.918,63.578 176.066,62.672C176.465,62.363 177.051,61.602 177.379,60.981C177.703,60.36 178.234,59.379 178.562,58.801C178.887,58.223 179.598,56.942 180.137,55.949C180.68,54.961 181.242,54.024 181.387,53.867C181.531,53.711 181.648,53.067 181.648,52.442C181.648,51.145 181.867,51.047 182.852,51.903C183.23,52.231 183.629,52.5 183.738,52.5C184.703,52.5 185.516,54.219 184.617,54.356C183.699,54.496 181.676,58.297 182.133,59.028C182.5,59.613 183.75,59.918 183.75,59.422C183.75,59.246 184.082,59.102 184.488,59.102L185.223,59.102L184.312,60.879C183.191,63.071 182.309,63.567 182.527,61.879C182.82,59.594 180.906,59.989 179.578,62.485L178.5,64.52L179.25,65.106C180.051,65.727 181.492,65.895 181.801,65.403C182.594,64.117 183.352,65.332 182.664,66.785C181.992,68.199 181.977,68.203 180.086,66.957M169.457,59.446C166.25,57.121 166.16,53.25 169.191,48.153C172.371,42.801 179.91,47.012 178.016,53.078C176.156,59.043 172.578,61.703 169.457,59.446M172.816,57.172C174.41,55.367 176.25,51.469 176.25,49.887C176.25,45.797 172.672,46.934 170.281,51.785C169.723,52.922 169.148,54.086 169.008,54.371C167.477,57.469 170.555,59.731 172.816,57.172"/>
    </g>
</svg>
