<?xml version="1.0" encoding="UTF-8" standalone="no"?>
<!DOCTYPE svg PUBLIC "-//W3C//DTD SVG 1.1//EN" "http://www.w3.org/Graphics/SVG/1.1/DTD/svg11.dtd">
<svg width="100%" height="100%" viewBox="0 0 200 53" version="1.1" xmlns="http://www.w3.org/2000/svg" xmlns:xlink="http://www.w3.org/1999/xlink" xml:space="preserve" xmlns:serif="http://www.serif.com/" style="fill-rule:evenodd;clip-rule:evenodd;stroke-linejoin:round;stroke-miterlimit:2;">
    <g transform="matrix(1.15607,0,0,1.15217,0,0)">
        <path d="M17.9,42.4C24.7,41.4 29.4,35.9 30.1,29.9C30.6,30.8 31,32.5 31,34C31,39.3 26.7,42.8 21.4,42.8C19.7,42.8 18.3,42.5 17.9,42.4M33.9,14.4C33.5,14.1 32.3,13.3 31.4,12.7C28.1,10.5 25.6,9.2 25.6,6.8C25.6,5.3 26.8,4.2 28.4,4.2C31.3,4.2 34.7,6.8 34.7,6.8C39.9,10.6 43,16.6 43,23C43,25.5 42.6,27.4 42.3,28.3C42.3,25.4 40.6,18.8 33.9,14.4M6.7,34.7C4.3,31.3 3,27.3 3,23C3,12 11.4,4.2 20.7,3.1C20.5,3.2 18.2,4.7 18.2,8.3C18.2,11.6 20.5,14.5 22.4,17.2C22.9,17.9 23.3,18.6 23.9,19.4C25.4,21.7 27.2,24.7 27.2,28.2C27.2,34.5 22.1,39.4 16,39.4C10.6,39.5 8,36.5 6.7,34.7M0,23C0,35.7 10.3,46 23,46C35.7,46 46,35.7 46,23C46,10.3 35.7,0 23,0C10.3,0 0,10.3 0,23" style="fill-rule:nonzero;"/>
    </g>
    <g transform="matrix(1.15607,0,0,1.15217,0,0)">
        <g>
            <path d="M123.7,32.9C123.7,34.1 123,35.1 121.5,35.1C120,35.1 119.3,34.1 119.3,32.9L119.3,25.5C119.3,23.5 118.3,21.8 116,21.8C114.3,21.8 113.1,22.8 112.2,23.5L112.2,32.9C112.2,34.1 111.5,35.1 110,35.1C108.5,35.1 107.8,34.1 107.8,32.9L107.8,18.7L111.6,18.7L111.9,20.6C112.6,20 114.6,18.2 117.7,18.2C120.5,18.2 123.8,19.8 123.8,24L123.8,32.9L123.7,32.9ZM81.7,30.5C81.7,31.4 82.4,32 83.2,32C84.6,32 85,30.9 86,30.9C86.9,30.9 87.4,31.6 87.4,32.3C87.4,33.8 85.6,35.1 82.4,35.1C78.8,35.1 77.2,33 77.2,30.3L77.2,21.8L74.3,21.8L74.3,18.6L77.2,18.6L77.2,15L81.7,13.8L81.7,18.7L87.6,18.7L86.5,21.9L81.7,21.9L81.7,30.5ZM132.8,30.5C132.8,31.4 133.5,32 134.3,32C135.7,32 136.1,30.9 137.2,30.9C138.1,30.9 138.6,31.6 138.6,32.3C138.6,33.8 136.8,35.1 133.6,35.1C130,35.1 128.4,33 128.4,30.3L128.4,21.8L125.5,21.8L125.5,18.6L128.4,18.6L128.4,15L132.9,13.8L132.9,18.7L138.8,18.7L137.7,21.9L132.9,21.9L132.8,30.5ZM56.8,31.2C56.8,30.2 57.6,29.5 58.5,29.5C60,29.5 61.1,31.6 64.9,31.6C67.2,31.6 68.9,30.6 68.9,28.9C68.9,27.4 67.7,26.5 65.8,25.6C65.2,25.3 64.1,24.8 63.4,24.5C60.8,23.3 58.2,21.6 58.2,18.2C58.2,14.9 61.1,12.1 66.2,12.1C69.9,12.1 72.1,13.1 72.6,13.4L71.5,16.7C70.9,16.4 68.7,15.6 66.4,15.6C64.7,15.6 63,16.4 63,18.1C63,19.7 64.4,20.4 66.2,21.3C66.8,21.6 67.3,21.8 67.9,22.1C70.7,23.4 73.7,24.9 73.7,28.6C73.7,32.6 69.9,35.1 64.9,35.1C60.3,35.1 56.8,33.2 56.8,31.2M166.9,35.1C161.1,35.1 157.7,31.3 157.7,26.7C157.7,21.9 161.2,18.3 166.9,18.3C170.2,18.3 172,19.5 172.3,19.7L171.3,22.6C171,22.4 169.5,21.4 167.3,21.4C164,21.4 162.3,23.8 162.3,26.7C162.3,29.6 164.1,32 167.1,32C169.4,32 170.3,30.5 171.5,30.5C172.4,30.5 173,31.2 173,32C173,33.6 170.2,35.1 166.9,35.1M152.4,30.6C151.2,30.6 150.3,32.1 148.1,32.1C145.8,32.1 144.1,30.3 143.9,28.3L155.3,28.3L155.3,27.3C155.3,22 152.4,18.3 147.4,18.3C142.3,18.3 139.4,21.9 139.4,26.7C139.4,31 142,35.1 148,35.1C151.4,35.1 154,33.6 154,32.1C154,31.3 153.5,30.6 152.4,30.6M147.3,21.4C150,21.4 150.7,23.6 150.7,25.4L143.8,25.4C143.8,23.4 144.8,21.4 147.3,21.4M103.7,30.1L103.7,24.8C103.7,20.9 101.3,18.3 96.1,18.3C92.5,18.3 90,19.6 89.5,19.9L90.8,22.6C91.1,22.5 93.2,21.5 95.2,21.5C98,21.5 99.3,23 99.3,24.5L99.3,24.7L96.5,24.8C92.4,25 88.9,26.3 88.9,30.1C88.9,33.2 91.4,35.2 94.8,35.2C97.7,35.2 99.2,33.7 99.7,33.2C99.8,33.5 100.3,35.2 102.4,35.2C103.4,35.2 104,34.8 104,33.9C104,32.8 103.7,32.2 103.7,30.1M99.2,30.8C98.9,31 97.7,32 96,32C94.4,32 93.4,31 93.4,29.7C93.4,28.2 94.6,27.5 97.1,27.4L99.2,27.3L99.2,30.8Z" style="fill-rule:nonzero;"/>
        </g>
    </g>
</svg>
