<?xml version="1.0" encoding="UTF-8" standalone="no"?>
<!DOCTYPE svg PUBLIC "-//W3C//DTD SVG 1.1//EN" "http://www.w3.org/Graphics/SVG/1.1/DTD/svg11.dtd">
<svg width="100%" height="100%" viewBox="0 0 200 51" version="1.1" xmlns="http://www.w3.org/2000/svg" xmlns:xlink="http://www.w3.org/1999/xlink" xml:space="preserve" xmlns:serif="http://www.serif.com/" style="fill-rule:evenodd;clip-rule:evenodd;stroke-linejoin:round;stroke-miterlimit:2;">
    <g transform="matrix(0.626033,2.66977e-19,-2.66977e-19,-0.623853,2.18253e-17,51)">
        <path d="M107.25,81.75C93.219,67.766 77.398,55.613 63,42.012C59.324,38.535 50.355,27.574 45.309,27.148C43.027,26.957 40.074,29.773 38.25,30.895C32.586,34.383 21.75,44.648 15,44.504C10.223,44.402 3.863,37.863 0,35.25L0,34.5C4.074,36.348 11.156,43.461 15.75,42.348C22.613,40.684 30.984,32.289 36.75,28.191C39.027,26.574 42.727,22.781 45.75,23.109C50.727,23.656 56.684,31.934 60,35.25C71.25,46.5 83.246,57 94.5,68.25C97.949,71.699 106.551,76.867 107.25,81.75M93.75,57C83.039,46.293 71.258,36.484 60,26.352C56.102,22.84 49.391,19.031 48.75,13.5L45.75,13.5L39,20L18,33L39.75,13.5L35.25,13.5L35.25,12.75C55.562,5.5 80.242,4.176 102,0L102,0.75L50.25,11.25L50.25,12C55.574,13.242 58.738,18.695 62.297,22.5C69.387,30.086 76.66,37.66 84,45C87.07,48.07 93.195,52.547 93.75,57M121.5,20.25L120.75,20.25C117.441,7.137 136.801,4.434 140.938,15.004C146.684,29.688 125.852,31.934 124.637,43.5C123.688,52.516 136.789,53.375 138.75,45L139.5,45L139.5,52.5C136.512,52.535 133.469,53.441 130.5,53.141C122.984,52.387 118.656,44.133 122.398,37.504C125,32.898 130.562,29.285 134.246,25.5C136.293,23.398 138.457,21.168 138.195,18C137.25,6.625 121.859,10.012 121.5,20.25M201.75,53.25C200.535,43.004 199.285,32.754 198.098,22.5C197.449,16.902 197.629,11.77 192,9L192,8.25L202.5,8.25C197.438,17.293 202.5,31.824 202.5,42L203.25,42L219,7.5L219.75,7.5L234,42.75L234.75,42.75C235.691,34.805 236.66,26.746 237.016,18.75C237.199,14.59 238.473,11.836 234.75,9L234.75,8.25L247.5,8.25L247.5,9C241.84,10.738 241.992,15.902 241.402,21C240.172,31.625 237.785,42.547 237.75,53.25L237,53.25C230.746,42.555 223.715,28.461 220.5,16.5L219,16.5C216.129,27.207 209.07,44.945 201.75,53.25M298.5,19.5L297.75,19.5C297.75,17.273 297.055,13.582 298.418,11.676C303.547,4.5 317.473,9.992 319.141,17.25C322.18,30.445 303.312,32.574 302.211,43.5C301.387,51.703 312.73,53.402 315.75,46.5L316.5,46.5L316.5,52.5C313.512,52.594 310.48,53.539 307.5,53.043C300.777,51.918 296.363,44.574 299.527,38.25C302.172,32.961 307.988,29.664 311.984,25.5C313.828,23.582 315.652,21.562 315.652,18.75C315.652,6.781 300.633,9.973 298.5,19.5M147,52.5L147,51.75C153.422,49.73 151.5,41.438 151.5,36C151.5,22.027 151.816,8.684 169.5,9.004C173.367,9.074 177.066,10.168 179.953,12.863C186.824,19.293 184.5,31.27 184.5,39.75C184.5,44.609 183.43,50 189,51.75L189,52.5L177.75,52.5L177.75,51.75C183.531,49.219 182.25,42.84 182.25,37.5C182.25,27.395 182.727,10.07 168,10.559C153.547,11.039 155.25,28.379 155.25,38.25C155.25,43.105 153.785,49.438 159,51.75L147,52.5M250.5,52.5L250.5,51.75C256.27,49.938 255,43.984 255,39C255,29.691 252.441,16.969 261.75,11.195C264.535,9.469 267.539,9.02 270.75,9C288.367,8.883 288,23.176 288,36.75C288,41.938 286.082,50.227 292.5,51.75L292.5,52.5L281.25,52.5L281.25,51.75C286.605,49.379 285,42.473 285,37.5C285,27.395 286.668,10.055 271.5,10.559C256.973,11.039 258.75,28.324 258.75,38.25C258.75,43.105 257.285,49.438 262.5,51.75L250.5,52.5M81.75,41.25C80.223,39.695 77.57,37.719 77.883,35.25C78.289,32.023 83.156,29.129 81.719,25.559C79.797,20.773 66.684,19.824 62.254,18.672C58.926,17.812 57.574,14.543 60.031,11.609C61.609,9.727 64.27,11.848 66.016,12.426C71.309,14.188 85.672,20.699 86.188,11.25C86.297,9.254 85.734,7.223 85.5,5.25L93,3.75L93,4.5L90,8.25L93.75,11.25L90,12L93,15L93,18C89.664,18.828 89.871,20.391 92.25,22.5L92.25,24L87,25.5L90,30L84.75,30.75L86.25,36.75L81.75,36L81.75,41.25Z" style="fill-rule:nonzero;"/>
    </g>
</svg>
