<?xml version="1.0" encoding="UTF-8" standalone="no"?>
<!DOCTYPE svg PUBLIC "-//W3C//DTD SVG 1.1//EN" "http://www.w3.org/Graphics/SVG/1.1/DTD/svg11.dtd">
<svg width="100%" height="100%" viewBox="0 0 200 86" version="1.1" xmlns="http://www.w3.org/2000/svg" xmlns:xlink="http://www.w3.org/1999/xlink" xml:space="preserve" xmlns:serif="http://www.serif.com/" style="fill-rule:evenodd;clip-rule:evenodd;stroke-linejoin:round;stroke-miterlimit:2;">
    <g id="path0" transform="matrix(0.499325,0,0,0.499325,-0.0180504,-0.295172)">
        <g id="svgg">
            <path id="path01" serif:id="path0" d="M206.545,2.877C202.68,4.387 197.506,7.571 195.048,9.953C192.59,12.336 189.645,14.297 188.503,14.312C186.149,14.342 170.117,29.427 163.403,37.93L158.95,43.571L145.069,43.253L131.189,42.935L123.809,50.232C106.546,67.301 77.12,85.714 67.105,85.714C25.757,85.714 -17.888,128.255 7.622,143.692C18.063,150.011 51.377,145.631 74.947,134.84C92.297,126.897 89.586,121.177 71.491,127.549C29.028,142.501 8.433,139.455 20.693,120.034C30.095,105.139 62.072,90.186 67.792,98.009C69.639,100.535 70.159,100.571 75.954,98.568C82.267,96.386 85.269,90.945 81.46,88.591C80.473,87.981 85.726,83.802 94.56,78.171C102.671,73 114.717,64.065 121.328,58.314L133.349,47.858L151.652,47.605L169.954,47.352L172.931,51.533C178.793,59.765 181.461,56.858 189.147,33.866C195.675,14.338 197.412,11.786 207.09,7.497L215,3.991L225.988,15.924C232.032,22.487 236.462,28.377 235.833,29.013C232.037,32.847 189.651,58.331 176.786,64.514C164.381,70.475 157.564,75.714 162.211,75.714C165.731,75.714 196.995,58.776 218.571,45.179C236.248,34.04 245.141,29.181 245.427,30.507C247.932,42.156 266.891,43.843 275.069,33.146C276.281,31.561 277.441,32.08 281.141,35.864C287.045,41.904 287.192,41.525 276.786,47.053C271.875,49.661 264.093,55.546 259.493,60.131C254.892,64.717 248.323,70.581 244.894,73.163C239.143,77.493 236.752,81.429 239.872,81.429C241.862,81.429 254.16,71.198 262.143,62.902C266.071,58.819 272.5,53.853 276.429,51.865C280.357,49.878 285.618,46.717 288.119,44.84C294.145,40.319 293.813,40.208 303.08,49.839C307.891,54.839 314.377,59.759 319.113,61.999C323.488,64.069 333.972,70.573 342.412,76.453C356.864,86.52 361.429,88.792 361.429,85.915C361.429,84.223 329.373,62.477 321.292,58.687C314.464,55.484 307.753,49.839 300.997,41.617C297.728,37.638 296.347,36.945 293.021,37.61C289.687,38.277 288.056,37.45 283.495,32.779C277.241,26.374 276.669,26.2 273.183,29.643C265.335,37.395 264.277,37.401 255.422,29.739C248.673,23.898 246.806,22.937 244.553,24.143C242.224,25.389 240.029,23.756 229.308,12.799C215.461,-1.351 216.365,-0.957 206.545,2.877M185.755,30.357C183.519,36.839 180.942,44.186 180.027,46.682L178.364,51.221L172.997,45.968L167.629,40.714L170.454,36.429C173.353,32.031 187.08,18.744 188.838,18.633C189.377,18.599 187.99,23.875 185.755,30.357M235.426,67.077C235.192,67.659 222.66,74.385 207.578,82.024C169.705,101.205 163.929,105.874 170.982,111.611C173.091,113.326 173.276,113.261 172.462,111.09C171.336,108.085 175.648,103.09 183.214,98.636C190.627,94.271 189.939,96.065 182.143,101.429C174.754,106.512 173.733,110.746 179.379,112.893C184.153,114.708 185.692,114.601 182.396,112.684C179.235,110.846 181.519,107.657 189.549,102.695C192.154,101.084 194.286,98.657 194.286,97.3C194.286,95.55 201.134,91.327 217.842,82.773C230.797,76.141 241.405,69.986 241.413,69.095C241.431,67.257 236.078,65.453 235.426,67.077M314.795,86.071C311.877,88.625 305.909,95.214 301.531,100.714L293.571,110.714L259.571,109.286L263.357,104.794C268.128,99.133 268.162,96.025 263.466,94.846C258,93.474 253.493,96.216 248.291,104.076C243.926,110.673 243.174,111.166 236.225,111.983C226.384,113.139 224.286,114.073 224.286,117.296C224.286,120.093 226.196,120.68 233.403,120.099L237.52,119.767L234.211,125.24C228.995,133.868 225.714,137.807 225.714,135.442C225.714,134.294 224.268,132.033 222.5,130.416C219.117,127.323 210,122.277 210,123.498C210,123.891 211.91,125.2 214.243,126.407C231.255,135.204 222.784,143.066 185,153.549C171.643,157.254 158.304,161.111 155.357,162.119C150.619,163.74 147.639,162.838 151.464,160.94C152.27,160.541 152.149,160.367 151.196,160.554C148.855,161.012 148.337,163.127 149.944,165.67C151.36,167.911 157.85,166.622 189.286,157.858C196.357,155.886 203.589,153.885 205.357,153.41C208.47,152.575 208.571,152.868 208.571,162.702C208.571,171.905 208.839,172.857 211.429,172.857C213.824,172.857 214.3,171.875 214.374,166.786L214.463,160.714L217.513,166.786C221.362,174.448 223.696,174.448 227.101,166.786L229.798,160.714L229.899,166.786C229.984,171.871 230.464,172.857 232.857,172.857C235.458,172.857 235.714,171.905 235.714,162.227C235.714,147.445 230.347,145.345 225.118,158.083C222.605,164.206 222.281,164.489 221.181,161.514C220.521,159.731 218.743,156.533 217.23,154.409L214.479,150.545L219.353,147.921C222.033,146.478 224.608,144.092 225.075,142.62C225.881,140.082 226.055,140.104 228.435,143.044C234.099,150.038 275.714,141.668 275.714,133.535C275.714,130.747 273.535,130.875 262.857,134.286C243.532,140.459 239.735,137.93 248.692,124.852L252.706,118.99L267.294,117.986C275.317,117.433 283.775,116.602 286.09,116.139L290.299,115.297L286.457,121.383C277.956,134.85 277.496,145.396 285.39,145.859C294.975,146.421 307.05,143.05 321.074,135.895L326.957,132.894L327.407,136.663C329.059,150.492 363.624,148.931 390.714,133.804C405.35,125.632 403.029,119.101 388.167,126.634C365.362,138.193 341.429,141.719 341.429,133.521C341.429,131.938 343.334,131.429 349.257,131.429C370.585,131.429 385.201,116.424 370.744,109.369C362.186,105.193 344.991,108.795 340.753,115.652C338.322,119.585 301.417,137.143 295.582,137.143C289.776,137.143 302.599,116.503 319.643,98.414C329.413,88.045 330.463,84.934 324.907,82.822C320.121,81.002 320.857,80.765 314.795,86.071M155.88,108.006C155.708,111.118 160.235,116.9 165.079,119.756C168.592,121.827 165.604,124.491 151.22,132.112C130.358,143.166 126.268,134.793 142.092,113.426C144.535,110.129 136.605,107.246 124.904,107.177C109.449,107.086 77.254,132.611 80.886,142.076C83.175,148.04 94.921,147.161 108.127,140.037C120.794,133.205 119.462,133.402 120.448,138.214C122.374,147.613 135.515,148.595 151.967,140.569C163.664,134.863 172.857,128.013 172.857,125.004C172.857,122.96 186.058,126.771 192.143,130.572C196.588,133.348 200,134.33 200,132.833C200,131.078 186.703,124.376 171.881,118.66C159.824,114.01 157.928,112.657 156.748,107.857C156.075,105.118 156.039,105.124 155.88,108.006M124.286,117.021C124.286,120.781 98.389,138.866 96.175,136.652C94.935,135.411 106.31,123.928 112.857,119.811C119.277,115.774 124.286,114.552 124.286,117.021M363.527,117.071C363.988,117.817 362.901,119.216 361.111,120.178C357.467,122.139 346.249,124.512 348.099,122.931C356.088,116.107 361.631,114.002 363.527,117.071M195.714,123.758C195.714,124.215 197.321,125.853 199.286,127.398C205.904,132.604 203.402,137.235 191.071,142.601C184.136,145.619 182.127,148.571 187.01,148.571C190.081,148.571 208.571,140.587 208.571,139.261C208.571,138.789 207.768,138.81 206.786,139.307C205.804,139.805 206.103,139.306 207.45,138.199C209.39,136.606 209.538,135.795 208.165,134.312C206.787,132.825 206.827,132.665 208.357,133.534C210.785,134.915 208.34,129.914 205.388,127.465C202.943,125.436 195.714,122.666 195.714,123.758M348.571,153.571C348.571,154.905 349.921,155.714 352.143,155.714C354.365,155.714 355.714,154.905 355.714,153.571C355.714,152.238 354.365,151.429 352.143,151.429C349.921,151.429 348.571,152.238 348.571,153.571M312.764,155.795C310.178,158.038 309.818,159.005 311.242,159.885C313.851,161.497 312.667,167.728 309.643,168.304C307.719,168.671 307.143,167.809 307.143,164.565C307.143,154.605 287.691,152.612 286.872,162.488C286.562,166.224 285.676,167.976 283.929,168.307C280.953,168.871 280.334,161.666 283.119,158.881C285.956,156.044 283.178,155.176 279.33,157.697C276.802,159.353 275.714,161.345 275.714,164.319C275.714,167.903 275.153,168.571 272.143,168.571C269.134,168.571 268.571,167.902 268.571,164.322C268.571,161.064 267.591,159.566 264.367,157.899C259.852,155.565 257.216,157.097 260.73,160.013C261.9,160.984 262.857,163.59 262.857,165.805C262.857,171.427 264.639,172.115 279.572,172.257L292.716,172.382L293.144,166.548C293.745,158.344 300,156.795 300,164.85C300,171.158 303.856,173.785 309.98,171.65C312.214,170.871 314.444,170.635 314.935,171.126C315.426,171.616 327.342,172.103 341.414,172.206L367.001,172.394L367.429,166.554C367.995,158.829 373.297,157.864 374.019,165.355C374.519,170.538 378.459,173.539 382.911,172.126C385.9,171.177 386.786,168.571 384.119,168.571C383.199,168.571 382.806,167.099 383.189,165.092C383.555,163.179 380.978,168.993 380.154,163.667C378.586,153.523 360,152.914 360,163.007C360,167.001 359.395,168.571 357.857,168.571C356.31,168.571 355.714,166.984 355.714,162.857C355.714,157.714 355.357,157.143 352.143,157.143C348.929,157.143 348.571,157.714 348.571,162.857C348.571,166.984 347.976,168.571 346.429,168.571C344.939,168.571 344.286,167.073 344.286,163.656C344.286,157.726 343.166,156.911 334.847,156.785C327.424,156.673 321.815,160.421 325.714,162.887C327.137,163.786 327.257,164.249 326.071,164.264C325.089,164.276 324.286,165.25 324.286,166.429C324.286,167.619 323.016,168.571 321.429,168.571C319.206,168.571 318.571,167.619 318.571,164.286C318.571,160.952 319.206,160 321.429,160C323,160 324.286,159.357 324.286,158.571C324.286,157.786 323,157.143 321.429,157.143C319.841,157.143 318.571,156.19 318.571,155C318.571,152.067 316.78,152.312 312.764,155.795M242.857,157.483C237.834,160.111 237.004,169.06 241.557,171.497C245.466,173.589 257.051,172.443 258.726,169.798C264.256,161.071 252.878,152.242 242.857,157.483M253.571,164.286C253.571,168.583 246.34,170.436 244.839,166.524C243.305,162.528 245.413,159.776 249.635,160.261C252.761,160.621 253.571,161.45 253.571,164.286M335.714,161.429C332.9,163.247 329.59,163.247 330.714,161.429C331.2,160.643 333.006,160.01 334.727,160.022C337.272,160.04 337.456,160.303 335.714,161.429M337.857,167.143C337.372,167.929 335.367,168.571 333.403,168.571C331.386,168.571 330.216,167.95 330.714,167.143C331.2,166.357 333.204,165.714 335.169,165.714C337.186,165.714 338.356,166.336 337.857,167.143" style="fill:white;"/>
        </g>
    </g>
</svg>
