<?xml version="1.0" encoding="UTF-8" standalone="no"?>
<!DOCTYPE svg PUBLIC "-//W3C//DTD SVG 1.1//EN" "http://www.w3.org/Graphics/SVG/1.1/DTD/svg11.dtd">
<svg width="100%" height="100%" viewBox="0 0 710 161" version="1.1" xmlns="http://www.w3.org/2000/svg" xmlns:xlink="http://www.w3.org/1999/xlink" xml:space="preserve" xmlns:serif="http://www.serif.com/" style="fill-rule:evenodd;clip-rule:evenodd;stroke-linejoin:round;stroke-miterlimit:2;">
    <g transform="matrix(3.7795,0,0,3.7795,265.831,-444.393)">
        <g transform="matrix(0.35278,0,0,-0.35278,-47.796,124.59)">
            <path d="M0,0C1.721,-0.899 3.656,-1.349 5.802,-1.349C7.773,-1.349 9.532,-1.001 11.081,-0.305C12.626,0.392 13.903,1.396 14.91,2.712L10.587,6.57C9.329,4.983 7.851,4.191 6.15,4.191C4.719,4.191 3.567,4.65 2.697,5.569C1.828,6.487 1.393,7.72 1.393,9.268C1.393,10.814 1.828,12.047 2.697,12.966C3.567,13.884 4.719,14.343 6.15,14.343C7.851,14.343 9.329,13.55 10.587,11.964L14.91,15.823C13.903,17.137 12.626,18.143 11.081,18.839C9.532,19.535 7.773,19.883 5.802,19.883C3.656,19.883 1.721,19.434 0,18.534C-1.722,17.635 -3.069,16.378 -4.046,14.764C-5.022,13.149 -5.511,11.317 -5.511,9.268C-5.511,7.217 -5.022,5.385 -4.046,3.771C-3.069,2.156 -1.722,0.899 0,0" style="fill-rule:nonzero;"/>
        </g>
        <rect x="-40.85" y="117.74" width="2.415" height="7.163"/>
        <g transform="matrix(0.35278,0,0,-0.35278,-34.772,124.91)">
            <path d="M0,0L6.845,0L6.845,14.996L12.79,14.996L12.79,20.304L-5.947,20.304L-5.947,14.996L0,14.996L0,0Z" style="fill-rule:nonzero;"/>
        </g>
        <g transform="matrix(0.35278,0,0,-0.35278,-23.619,117.74)">
            <path d="M0,0L-4.176,-7.02L-8.325,0L-15.546,0L-7.89,-12.85L-7.89,-20.304L-1.043,-20.304L-1.043,-12.937L6.613,0L0,0Z" style="fill-rule:nonzero;"/>
        </g>
        <g transform="matrix(0.35278,0,0,-0.35278,-13.499,120.38)">
            <path d="M0,0C0.407,0.764 0.953,1.353 1.64,1.77C2.326,2.186 3.094,2.393 3.946,2.393C4.795,2.393 5.565,2.186 6.252,1.77C6.937,1.353 7.485,0.764 7.89,-0C8.296,-0.764 8.5,-1.658 8.5,-2.683C8.5,-3.708 8.296,-4.602 7.89,-5.366C7.485,-6.13 6.937,-6.72 6.252,-7.136C5.565,-7.551 4.795,-7.759 3.946,-7.759C3.094,-7.759 2.326,-7.551 1.64,-7.136C0.953,-6.72 0.407,-6.13 -0,-5.366C-0.405,-4.602 -0.608,-3.708 -0.608,-2.683C-0.608,-1.658 -0.405,-0.764 -0,0M-1.943,-11.936C-0.203,-12.844 1.76,-13.299 3.946,-13.299C6.13,-13.299 8.093,-12.844 9.834,-11.936C11.574,-11.027 12.937,-9.765 13.923,-8.15C14.91,-6.536 15.403,-4.714 15.403,-2.683C15.403,-0.652 14.91,1.17 13.923,2.784C12.937,4.399 11.574,5.661 9.834,6.57C8.093,7.479 6.13,7.933 3.946,7.933C1.76,7.933 -0.203,7.479 -1.943,6.57C-3.684,5.661 -5.047,4.399 -6.034,2.784C-7.018,1.17 -7.511,-0.652 -7.511,-2.683C-7.511,-4.714 -7.018,-6.536 -6.034,-8.15C-5.047,-9.765 -3.684,-11.027 -1.943,-11.936" style="fill-rule:nonzero;"/>
        </g>
        <g transform="matrix(0.35278,0,0,-0.35278,-3.7455,122.61)">
            <path d="M0,0L8.469,0L8.469,5.163L0,5.163L0,8.644L9.659,8.644L9.659,13.807L-6.845,13.807L-6.845,-6.498L-0,-6.498L0,0Z" style="fill-rule:nonzero;"/>
        </g>
        <g transform="matrix(0.35278,0,0,-0.35278,-56.484,132.9)">
            <path d="M0,35.1L0,-30.94C-2.66,-30.657 -5.477,-30.474 -8.413,-30.474C-17.622,-30.474 -25.792,-32.188 -30.936,-33.59L-30.936,35.1L0,35.1ZM67.482,-13.889L67.482,-36.262C63.306,-37.534 54.697,-39.726 44.959,-39.726C31.31,-39.726 19.877,-35.419 19.768,-35.377C19.646,-35.332 18.882,-35.04 17.589,-34.623L67.482,-13.889ZM8.328,-29.454L8.328,43.427L-39.263,43.427L-39.263,0L-39.259,-45.309L-33.609,-43.151C-33.496,-43.108 -22.063,-38.801 -8.413,-38.801C5.236,-38.801 16.669,-43.108 16.778,-43.15C17.299,-43.349 29.704,-48.054 44.959,-48.054C60.214,-48.054 72.62,-43.349 73.14,-43.15L75.809,-42.124L75.809,-1.411L8.328,-29.454Z" style="fill-rule:nonzero;"/>
        </g>
        <g transform="matrix(0.35278,0,0,-0.35278,-49.51,151.91)">
            <path d="M0,0C-0.521,0.2 -12.926,4.903 -28.18,4.903C-43.436,4.903 -58.51,-0.696 -59.031,-0.896L-59.026,-9.614C-58.913,-9.57 -41.831,-3.423 -28.18,-3.423C-14.531,-3.423 -3.099,-7.731 -2.989,-7.772C-2.469,-7.972 9.937,-12.676 25.192,-12.676C40.447,-12.676 55.521,-7.07 56.042,-6.87L56.042,1.796C55.928,1.753 38.841,-4.349 25.192,-4.349C11.542,-4.349 0.109,-0.042 0,-0" style="fill-rule:nonzero;"/>
        </g>
        <g transform="matrix(0.35278,0,0,-0.35278,-20.366,129.5)">
            <path d="M0,0L-9.239,-3.84L-9.239,-65.761L26.328,-65.761L26.328,-56.521L0,-56.521L0,0Z" style="fill-rule:nonzero;"/>
        </g>
        <g transform="matrix(0.35278,0,0,-0.35278,-6.8914,143.21)">
            <path d="M0,0C0.409,2.044 1.145,4.007 2.371,5.56C4.497,8.423 7.932,9.894 11.61,9.813C15.291,9.894 18.642,8.423 20.768,5.56C21.995,4.007 22.73,2.044 23.139,-0L0,0ZM11.61,18.479C5.151,18.479 -0.981,16.026 -4.988,11.202C-8.667,6.705 -10.057,1.145 -10.221,-4.824C-10.302,-10.547 -8.749,-16.189 -4.988,-20.85C-0.981,-25.674 5.151,-27.882 11.61,-28.126C17.988,-28.372 24.284,-25.837 28.454,-21.013C29.435,-19.869 30.252,-18.642 30.988,-17.334L21.832,-13.409C21.504,-13.982 21.259,-14.553 20.768,-15.208C18.642,-17.987 15.291,-19.458 11.61,-19.458C7.932,-19.458 4.497,-17.987 2.371,-15.208C0.736,-13.082 0,-10.219 -0.327,-7.358L33.196,-7.358C33.278,-6.54 33.36,-5.641 33.36,-4.824C33.36,0.981 31.806,6.705 28.127,11.202C24.121,16.107 18.07,18.479 11.61,18.479" style="fill-rule:nonzero;"/>
        </g>
        <g transform="matrix(0.35278,0,0,-0.35278,10.283,131.93)">
            <path d="M0,0L-9.157,0L-9.157,-41.126C-9.157,-45.706 -8.994,-49.631 -7.276,-52.983C-5.56,-56.254 -2.534,-58.134 1.472,-59.197C4.579,-59.934 9.812,-59.77 13.083,-58.871L13.083,-50.857C10.711,-51.266 8.013,-51.347 5.805,-51.103C3.925,-50.939 2.044,-49.876 1.063,-48.16C0,-46.523 0,-44.071 0,-40.555L0,-22.497L13.083,-22.497L13.083,-14.464L0,-14.464L0,0Z" style="fill-rule:nonzero;"/>
        </g>
        <g transform="matrix(0.35278,0,0,-0.35278,28.834,138.25)">
            <path d="M0,0C-3.516,2.944 -8.504,4.579 -13.083,4.334C-17.252,4.17 -21.832,2.699 -25.266,-0.327L-25.51,-0.571L-25.51,17.907L-33.687,17.907L-33.687,-40.963L-24.447,-40.963L-24.447,-21.667C-24.447,-18.559 -24.366,-15.371 -23.875,-13.082C-23.384,-10.466 -22.158,-8.176 -20.359,-6.703C-18.642,-5.396 -16.599,-4.661 -14.228,-4.577C-11.12,-4.496 -8.504,-5.313 -6.705,-6.95C-3.598,-9.647 -2.943,-14.063 -2.943,-19.05L-2.943,-40.963L6.378,-40.963L6.378,-19.05C6.459,-11.201 5.56,-4.824 0,0" style="fill-rule:nonzero;"/>
        </g>
        <g transform="matrix(0.35278,0,0,-0.35278,44.29,148.63)">
            <path d="M0,0C-2.127,-3.107 -5.724,-4.497 -9.239,-4.497C-12.919,-4.497 -16.108,-3.189 -18.315,-0.653C-20.604,2.044 -21.586,6.297 -21.586,10.547C-21.586,14.881 -20.604,19.052 -18.315,21.832C-16.271,24.366 -13.082,25.592 -9.566,25.592C-5.561,25.592 -2.208,24.284 -0.082,21.177C1.799,18.561 2.616,14.637 2.616,10.547C2.616,6.46 1.88,2.616 -0,-0M-8.177,33.85C-12.756,33.85 -17.171,32.379 -20.522,29.763L-20.522,47.342L-29.762,47.342L-29.762,-11.529L-21.586,-11.529L-21.586,-7.768C-18.07,-11.119 -13.328,-12.755 -7.932,-12.755C-1.962,-12.755 3.679,-10.221 7.358,-5.642C11.038,-1.063 12.346,4.661 12.346,10.547C12.346,16.516 10.793,22.403 7.358,26.818C3.679,31.397 -2.127,33.85 -8.177,33.85" style="fill-rule:nonzero;"/>
        </g>
        <g transform="matrix(0.35278,0,0,-0.35278,58.372,136.72)">
            <path d="M0,0C-3.024,-0.082 -6.132,-0.9 -8.667,-2.779C-10.547,-4.087 -11.937,-5.642 -13,-7.44L-13,-1.145L-21.176,-1.145L-21.176,-45.297L-11.937,-45.297L-11.937,-22.729C-11.937,-18.232 -11.282,-14.472 -8.503,-11.692C-6.785,-9.893 -4.169,-8.748 -0.816,-8.584C2.045,-8.421 4.742,-8.83 6.869,-9.647L6.869,-1.063C4.579,-0.245 2.29,0.163 0,0" style="fill-rule:nonzero;"/>
        </g>
        <rect x="62.505" y="137.124" width="3.259" height="15.576"/>
        <g transform="matrix(0.35278,0,0,-0.35278,78.795,148.86)">
            <path d="M0,0C-2.125,-2.536 -5.396,-3.844 -8.993,-3.844C-12.591,-3.844 -16.188,-2.455 -18.314,0.653C-20.194,3.269 -20.931,7.113 -20.931,11.2C-20.931,15.29 -20.031,19.213 -18.15,21.83C-16.024,24.937 -12.672,26.245 -8.748,26.245C-5.232,26.245 -2.043,25.019 -0,22.484C2.371,19.705 3.353,15.534 3.353,11.2C3.353,6.95 2.371,2.697 -0,0M2.208,30.416C-1.145,33.032 -5.559,34.503 -10.138,34.503C-16.188,34.503 -21.911,32.05 -25.592,27.471C-29.107,23.056 -30.66,17.169 -30.66,11.2C-30.66,5.313 -29.353,-0.41 -25.592,-4.989C-21.993,-9.568 -16.271,-12.102 -10.384,-12.102C-4.986,-12.102 -0.163,-10.384 3.353,-7.115L3.353,-10.876L11.447,-10.876L11.447,47.995L2.208,47.995L2.208,30.416Z" style="fill-rule:nonzero;"/>
        </g>
        <g transform="matrix(0.35278,0,0,-0.35278,95.652,148.86)">
            <path d="M0,0C-2.125,-2.536 -5.396,-3.844 -8.994,-3.844C-12.591,-3.844 -16.188,-2.455 -18.314,0.653C-20.195,3.269 -20.932,7.113 -20.932,11.2C-20.932,15.29 -20.032,19.213 -18.151,21.83C-16.025,24.937 -12.673,26.245 -8.749,26.245C-5.233,26.245 -2.044,25.019 0,22.484C2.371,19.705 3.353,15.534 3.353,11.2C3.353,6.95 2.371,2.697 0,0M3.353,29.434C-0.163,32.624 -4.987,34.503 -10.139,34.503C-16.188,34.503 -21.912,32.05 -25.592,27.471C-29.107,23.056 -30.661,17.169 -30.661,11.2C-30.661,5.313 -29.353,-0.41 -25.592,-4.989C-21.994,-9.568 -16.271,-12.102 -10.384,-12.102C-5.56,-12.102 -1.227,-10.794 2.208,-8.095L2.208,-12.429C2.289,-16.271 1.554,-18.479 -0.98,-20.442C-3.025,-22.076 -6.132,-22.976 -9.157,-22.976C-11.446,-22.976 -14.309,-22.158 -16.107,-20.442C-17.007,-19.705 -17.661,-18.971 -18.233,-17.989L-26.737,-22.076C-25.183,-24.776 -22.648,-26.983 -20.032,-28.373C-17.17,-30.5 -12.919,-31.644 -9.239,-31.644C-5.069,-31.644 -0.654,-30.908 3.762,-28.128C9.076,-24.776 11.447,-19.624 11.447,-12.51L11.447,33.276L3.353,33.276L3.353,29.434Z" style="fill-rule:nonzero;"/>
        </g>
        <g transform="matrix(0.35278,0,0,-0.35278,105.52,143.21)">
            <path d="M0,0C0.409,2.044 1.145,4.007 2.371,5.56C4.497,8.423 7.931,9.894 11.61,9.813C15.29,9.894 18.642,8.423 20.768,5.56C21.994,4.007 22.729,2.044 23.139,-0L0,0ZM33.359,-4.824C33.359,0.981 31.806,6.705 28.127,11.202C24.12,16.107 18.069,18.479 11.61,18.479C5.151,18.479 -0.98,16.026 -4.987,11.202C-8.667,6.705 -10.057,1.145 -10.221,-4.824C-10.303,-10.547 -8.749,-16.189 -4.987,-20.85C-0.98,-25.674 5.151,-27.882 11.61,-28.126C17.987,-28.372 24.283,-25.837 28.453,-21.013C29.435,-19.869 30.252,-18.642 30.988,-17.334L21.831,-13.409C21.504,-13.982 21.259,-14.553 20.768,-15.208C18.642,-17.987 15.29,-19.458 11.61,-19.458C7.931,-19.458 4.497,-17.987 2.371,-15.208C0.735,-13.082 0,-10.219 -0.327,-7.358L33.195,-7.358C33.277,-6.54 33.359,-5.641 33.359,-4.824" style="fill-rule:nonzero;"/>
        </g>
        <g transform="matrix(0.35278,0,0,-0.35278,65.632,131.75)">
            <path d="M0,0C-1.155,1.027 -2.586,1.544 -4.292,1.544C-5.999,1.544 -7.431,1.004 -8.584,-0.075C-9.739,-1.156 -10.315,-2.499 -10.315,-4.104C-10.315,-5.711 -9.739,-7.053 -8.584,-8.131C-7.431,-9.212 -5.999,-9.751 -4.292,-9.751C-2.535,-9.751 -1.092,-9.187 0.037,-8.057C1.166,-6.928 1.731,-5.534 1.731,-3.878C1.731,-2.323 1.153,-1.029 -0,-0" style="fill-rule:nonzero;"/>
        </g>
    </g>
</svg>
