<!-- Created with Inkscape (http://www.inkscape.org/) -->
<svg width="709.11" height="160.43" version="1.1" viewBox="0 0 187.62 42.447" xmlns="http://www.w3.org/2000/svg">
 <g transform="translate(70.335 -117.58)">
  <g transform="matrix(.35278 0 0 -.35278 -47.796 124.59)">
   <path d="m0 0c1.721-0.899 3.656-1.349 5.802-1.349 1.971 0 3.73 0.348 5.279 1.044 1.545 0.697 2.822 1.701 3.829 3.017l-4.323 3.858c-1.258-1.587-2.736-2.379-4.437-2.379-1.431 0-2.583 0.459-3.453 1.378-0.869 0.918-1.304 2.151-1.304 3.699 0 1.546 0.435 2.779 1.304 3.698 0.87 0.918 2.022 1.377 3.453 1.377 1.701 0 3.179-0.793 4.437-2.379l4.323 3.859c-1.007 1.314-2.284 2.32-3.829 3.016-1.549 0.696-3.308 1.044-5.279 1.044-2.146 0-4.081-0.449-5.802-1.349-1.722-0.899-3.069-2.156-4.046-3.77-0.976-1.615-1.465-3.447-1.465-5.496 0-2.051 0.489-3.883 1.465-5.497 0.977-1.615 2.324-2.872 4.046-3.771" fill="#febf40"/>
  </g>
  <path d="m-38.435 117.74h-2.4148v7.1628h2.4148z" fill="#febf40"/>
  <g transform="matrix(.35278 0 0 -.35278 -34.772 124.91)">
   <path d="m0 0h6.845v14.996h5.945v5.308h-18.737v-5.308h5.947z" fill="#febf40"/>
  </g>
  <g transform="matrix(.35278 0 0 -.35278 -23.619 117.74)">
   <path d="m0 0-4.176-7.02-4.149 7.02h-7.221l7.656-12.85v-7.454h6.847v7.367l7.656 12.937z" fill="#febf40"/>
  </g>
  <g transform="matrix(.35278 0 0 -.35278 -13.499 120.38)">
   <path d="m0 0c0.407 0.764 0.953 1.353 1.64 1.77 0.686 0.416 1.454 0.623 2.306 0.623 0.849 0 1.619-0.207 2.306-0.623 0.685-0.417 1.233-1.006 1.638-1.77 0.406-0.764 0.61-1.658 0.61-2.683s-0.204-1.919-0.61-2.683c-0.405-0.764-0.953-1.354-1.638-1.77-0.687-0.415-1.457-0.623-2.306-0.623-0.852 0-1.62 0.208-2.306 0.623-0.687 0.416-1.233 1.006-1.64 1.77-0.405 0.764-0.608 1.658-0.608 2.683s0.203 1.919 0.608 2.683m-1.943-11.936c1.74-0.908 3.703-1.363 5.889-1.363 2.184 0 4.147 0.455 5.888 1.363 1.74 0.909 3.103 2.171 4.089 3.786 0.987 1.614 1.48 3.436 1.48 5.467s-0.493 3.853-1.48 5.467c-0.986 1.615-2.349 2.877-4.089 3.786-1.741 0.909-3.704 1.363-5.888 1.363-2.186 0-4.149-0.454-5.889-1.363-1.741-0.909-3.104-2.171-4.091-3.786-0.984-1.614-1.477-3.436-1.477-5.467s0.493-3.853 1.477-5.467c0.987-1.615 2.35-2.877 4.091-3.786" fill="#febf40"/>
  </g>
  <g transform="matrix(.35278 0 0 -.35278 -3.7455 122.61)">
   <path d="m0 0h8.469v5.163h-8.469v3.481h9.659v5.163h-16.504v-20.305h6.845z" fill="#febf40"/>
  </g>
  <g transform="matrix(.35278 0 0 -.35278 -56.484 132.9)">
   <path d="m0 0v-30.94c-2.66 0.283-5.477 0.466-8.413 0.466-9.209 0-17.379-1.714-22.523-3.116v68.69h30.936zm67.482-13.889v-22.373c-4.176-1.272-12.785-3.464-22.523-3.464-13.649 0-25.082 4.307-25.191 4.349-0.122 0.045-0.886 0.337-2.179 0.754zm-59.154 13.889v43.427h-47.591v-43.427l4e-3 -45.309 5.65 2.158c0.113 0.043 11.546 4.35 25.196 4.35 13.649 0 25.082-4.307 25.191-4.349 0.521-0.199 12.926-4.904 28.181-4.904s27.661 4.705 28.181 4.904l2.669 1.026v40.713l-67.481-28.043z" fill="#00597a"/>
  </g>
  <g transform="matrix(.35278 0 0 -.35278 -49.51 151.91)">
   <path d="m0 0c-0.521 0.2-12.926 4.903-28.18 4.903-15.256 0-30.33-5.599-30.851-5.799l5e-3 -8.718c0.113 0.044 17.195 6.191 30.846 6.191 13.649 0 25.081-4.308 25.191-4.349 0.52-0.2 12.926-4.904 28.181-4.904s30.329 5.606 30.85 5.806v8.666c-0.114-0.043-17.201-6.145-30.85-6.145-13.65 0-25.083 4.307-25.192 4.349" fill="#00597a"/>
  </g>
  <g transform="matrix(.35278 0 0 -.35278 -20.366 129.5)">
   <path d="m0 0-9.239-3.84v-61.921h35.567v9.24h-26.328z" fill="#00597a"/>
  </g>
  <g transform="matrix(.35278 0 0 -.35278 -6.8914 143.21)">
   <path d="m0 0c0.409 2.044 1.145 4.007 2.371 5.56 2.126 2.863 5.561 4.334 9.239 4.253 3.681 0.081 7.032-1.39 9.158-4.253 1.227-1.553 1.962-3.516 2.371-5.56zm11.61 18.479c-6.459 0-12.591-2.453-16.598-7.277-3.679-4.497-5.069-10.057-5.233-16.026-0.081-5.723 1.472-11.365 5.233-16.026 4.007-4.824 10.139-7.032 16.598-7.276 6.378-0.246 12.674 2.289 16.844 7.113 0.981 1.144 1.798 2.371 2.534 3.679l-9.156 3.925c-0.328-0.573-0.573-1.144-1.064-1.799-2.126-2.779-5.477-4.25-9.158-4.25-3.678 0-7.113 1.471-9.239 4.25-1.635 2.126-2.371 4.989-2.698 7.85h33.523c0.082 0.818 0.164 1.717 0.164 2.534 0 5.805-1.554 11.529-5.233 16.026-4.006 4.905-10.057 7.277-16.517 7.277" fill="#00597a"/>
  </g>
  <g transform="matrix(.35278 0 0 -.35278 10.283 131.93)">
   <path d="m0 0h-9.157v-41.126c0-4.58 0.163-8.505 1.881-11.857 1.716-3.271 4.742-5.151 8.748-6.214 3.107-0.737 8.34-0.573 11.611 0.326v8.014c-2.372-0.409-5.07-0.49-7.278-0.246-1.88 0.164-3.761 1.227-4.742 2.943-1.063 1.637-1.063 4.089-1.063 7.605v18.058h13.083v8.033h-13.083z" fill="#00597a"/>
  </g>
  <g transform="matrix(.35278 0 0 -.35278 28.834 138.25)">
   <path d="m0 0c-3.516 2.944-8.504 4.579-13.083 4.334-4.169-0.164-8.749-1.635-12.183-4.661l-0.244-0.244v18.478h-8.177v-58.87h9.24v19.296c0 3.108 0.081 6.296 0.572 8.585 0.491 2.616 1.717 4.906 3.516 6.379 1.717 1.307 3.76 2.042 6.131 2.126 3.108 0.081 5.724-0.736 7.523-2.373 3.107-2.697 3.762-7.113 3.762-12.1v-21.913h9.321v21.913c0.081 7.849-0.818 14.226-6.378 19.05" fill="#00597a"/>
  </g>
  <g transform="matrix(.35278 0 0 -.35278 44.29 148.63)">
   <path d="m0 0c-2.127-3.107-5.724-4.497-9.239-4.497-3.68 0-6.869 1.308-9.076 3.844-2.289 2.697-3.271 6.95-3.271 11.2 0 4.334 0.982 8.505 3.271 11.285 2.044 2.534 5.233 3.76 8.749 3.76 4.005 0 7.358-1.308 9.484-4.415 1.881-2.616 2.698-6.54 2.698-10.63 0-4.087-0.736-7.931-2.616-10.547m-8.177 33.85c-4.579 0-8.994-1.471-12.345-4.087v17.579h-9.24v-58.871h8.176v3.761c3.516-3.351 8.258-4.987 13.654-4.987 5.97 0 11.611 2.534 15.29 7.113 3.68 4.579 4.988 10.303 4.988 16.189 0 5.969-1.553 11.856-4.988 16.271-3.679 4.579-9.485 7.032-15.535 7.032" fill="#00597a"/>
  </g>
  <g transform="matrix(.35278 0 0 -.35278 58.372 136.72)">
   <path d="m0 0c-3.024-0.082-6.132-0.9-8.667-2.779-1.88-1.308-3.27-2.863-4.333-4.661v6.295h-8.176v-44.152h9.239v22.568c0 4.497 0.655 8.257 3.434 11.037 1.718 1.799 4.334 2.944 7.687 3.108 2.861 0.163 5.558-0.246 7.685-1.063v8.584c-2.29 0.818-4.579 1.226-6.869 1.063" fill="#00597a"/>
  </g>
  <path d="m62.505 152.7h3.2593v-15.576h-3.2593z" fill="#00597a"/>
  <g transform="matrix(.35278 0 0 -.35278 78.795 148.86)">
   <path d="m0 0c-2.125-2.536-5.396-3.844-8.993-3.844-3.598 0-7.195 1.389-9.321 4.497-1.88 2.616-2.617 6.46-2.617 10.547 0 4.09 0.9 8.013 2.781 10.63 2.126 3.107 5.478 4.415 9.402 4.415 3.516 0 6.705-1.226 8.748-3.761 2.371-2.779 3.353-6.95 3.353-11.284 0-4.25-0.982-8.503-3.353-11.2m2.208 30.416c-3.353 2.616-7.767 4.087-12.346 4.087-6.05 0-11.773-2.453-15.454-7.032-3.515-4.415-5.068-10.302-5.068-16.271 0-5.887 1.307-11.61 5.068-16.189 3.599-4.579 9.321-7.113 15.208-7.113 5.398 0 10.221 1.718 13.737 4.987v-3.761h8.094v58.871h-9.239z" fill="#00597a"/>
  </g>
  <g transform="matrix(.35278 0 0 -.35278 95.652 148.86)">
   <path d="m0 0c-2.125-2.536-5.396-3.844-8.994-3.844-3.597 0-7.194 1.389-9.32 4.497-1.881 2.616-2.618 6.46-2.618 10.547 0 4.09 0.9 8.013 2.781 10.63 2.126 3.107 5.478 4.415 9.402 4.415 3.516 0 6.705-1.226 8.749-3.761 2.371-2.779 3.353-6.95 3.353-11.284 0-4.25-0.982-8.503-3.353-11.2m3.353 29.434c-3.516 3.19-8.34 5.069-13.492 5.069-6.049 0-11.773-2.453-15.453-7.032-3.515-4.415-5.069-10.302-5.069-16.271 0-5.887 1.308-11.61 5.069-16.189 3.598-4.579 9.321-7.113 15.208-7.113 4.824 0 9.157 1.308 12.592 4.007v-4.334c0.081-3.842-0.654-6.05-3.188-8.013-2.045-1.634-5.152-2.534-8.177-2.534-2.289 0-5.152 0.818-6.95 2.534-0.9 0.737-1.554 1.471-2.126 2.453l-8.504-4.087c1.554-2.7 4.089-4.907 6.705-6.297 2.862-2.127 7.113-3.271 10.793-3.271 4.17 0 8.585 0.736 13.001 3.516 5.314 3.352 7.685 8.504 7.685 15.618v45.786h-8.094z" fill="#00597a"/>
  </g>
  <g transform="matrix(.35278 0 0 -.35278 105.52 143.21)">
   <path d="m0 0c0.409 2.044 1.145 4.007 2.371 5.56 2.126 2.863 5.56 4.334 9.239 4.253 3.68 0.081 7.032-1.39 9.158-4.253 1.226-1.553 1.961-3.516 2.371-5.56zm33.359-4.824c0 5.805-1.553 11.529-5.232 16.026-4.007 4.905-10.058 7.277-16.517 7.277s-12.59-2.453-16.597-7.277c-3.68-4.497-5.07-10.057-5.234-16.026-0.082-5.723 1.472-11.365 5.234-16.026 4.007-4.824 10.138-7.032 16.597-7.276 6.377-0.246 12.673 2.289 16.843 7.113 0.982 1.144 1.799 2.371 2.535 3.679l-9.157 3.925c-0.327-0.573-0.572-1.144-1.063-1.799-2.126-2.779-5.478-4.25-9.158-4.25-3.679 0-7.113 1.471-9.239 4.25-1.636 2.126-2.371 4.989-2.698 7.85h33.522c0.082 0.818 0.164 1.717 0.164 2.534" fill="#00597a"/>
  </g>
  <g transform="matrix(.35278 0 0 -.35278 65.632 131.75)">
   <path d="m0 0c-1.155 1.027-2.586 1.544-4.292 1.544-1.707 0-3.139-0.54-4.292-1.619-1.155-1.081-1.731-2.424-1.731-4.029 0-1.607 0.576-2.949 1.731-4.027 1.153-1.081 2.585-1.62 4.292-1.62 1.757 0 3.2 0.564 4.329 1.694 1.129 1.129 1.694 2.523 1.694 4.179 0 1.555-0.578 2.849-1.731 3.878" fill="#00597a"/>
  </g>
 </g>
</svg>
