<?xml version="1.0" encoding="UTF-8" standalone="no"?>
<!DOCTYPE svg PUBLIC "-//W3C//DTD SVG 1.1//EN" "http://www.w3.org/Graphics/SVG/1.1/DTD/svg11.dtd">
<svg width="100%" height="100%" viewBox="0 0 526 336" version="1.1" xmlns="http://www.w3.org/2000/svg" xmlns:xlink="http://www.w3.org/1999/xlink" xml:space="preserve" xmlns:serif="http://www.serif.com/" style="fill-rule:evenodd;clip-rule:evenodd;stroke-linejoin:round;stroke-miterlimit:2;">
    <g transform="matrix(3.7795,0,0,3.7795,265.831,-444.393)">
        <g transform="matrix(0.394625,0,0,0.394406,-23.226,164.229)">
            <path d="M0,16.365C1.52,17.158 3.228,17.556 5.123,17.556C6.863,17.556 8.417,17.248 9.783,16.634C11.149,16.019 12.276,15.132 13.164,13.97L9.348,10.564C8.237,11.965 6.932,12.664 5.43,12.664C4.167,12.664 3.15,12.259 2.382,11.448C1.614,10.636 1.23,9.549 1.23,8.182C1.23,6.817 1.614,5.728 2.382,4.917C3.15,4.106 4.167,3.701 5.43,3.701C6.932,3.701 8.237,4.401 9.348,5.801L13.164,2.394C12.276,1.234 11.149,0.345 9.783,-0.269C8.417,-0.884 6.863,-1.191 5.123,-1.191C3.228,-1.191 1.52,-0.795 0,0C-1.52,0.794 -2.71,1.904 -3.572,3.329C-4.434,4.755 -4.865,6.372 -4.865,8.182C-4.865,9.992 -4.434,11.61 -3.572,13.035C-2.71,14.461 -1.52,15.571 0,16.365" style="fill-rule:nonzero;"/>
        </g>
        <g transform="matrix(-0.394625,0,0,0.394406,178.619,60.9113)">
            <rect x="488.056" y="261.177" width="6.043" height="17.927"/>
        </g>
        <g transform="matrix(0.394625,0,0,0.394406,-10.3623,163.921)">
            <path d="M0,17.927L6.044,17.927L6.044,4.686L11.293,4.686L11.293,0L-5.25,0L-5.25,4.686L0,4.686L0,17.927Z" style="fill-rule:nonzero;"/>
        </g>
        <g transform="matrix(0.394625,0,0,0.394406,0.653459,170.992)">
            <path d="M0,-17.927L-3.687,-11.729L-7.35,-17.927L-13.726,-17.927L-6.966,-6.582L-6.966,0L-0.921,0L-0.921,-6.505L5.839,-17.927L0,-17.927Z" style="fill-rule:nonzero;"/>
        </g>
        <g transform="matrix(0.394625,0,0,0.394406,10.6486,168.391)">
            <path d="M0,-4.739C0.359,-5.413 0.842,-5.933 1.448,-6.301C2.054,-6.668 2.732,-6.851 3.484,-6.851C4.234,-6.851 4.914,-6.668 5.52,-6.301C6.125,-5.933 6.609,-5.413 6.966,-4.739C7.325,-4.064 7.504,-3.275 7.504,-2.37C7.504,-1.465 7.325,-0.676 6.966,-0.001C6.609,0.674 6.125,1.195 5.52,1.561C4.914,1.928 4.234,2.112 3.484,2.112C2.732,2.112 2.054,1.928 1.448,1.561C0.842,1.195 0.359,0.674 0,-0.001C-0.357,-0.676 -0.537,-1.465 -0.537,-2.37C-0.537,-3.275 -0.357,-4.064 0,-4.739M-1.715,5.8C-0.179,6.602 1.554,7.004 3.484,7.004C5.413,7.004 7.146,6.602 8.683,5.8C10.219,4.997 11.422,3.883 12.293,2.457C13.165,1.032 13.6,-0.577 13.6,-2.37C13.6,-4.163 13.165,-5.772 12.293,-7.197C11.422,-8.623 10.219,-9.737 8.683,-10.54C7.146,-11.343 5.413,-11.743 3.484,-11.743C1.554,-11.743 -0.179,-11.343 -1.715,-10.54C-3.253,-9.737 -4.456,-8.623 -5.327,-7.197C-6.197,-5.772 -6.632,-4.163 -6.632,-2.37C-6.632,-0.577 -6.197,1.032 -5.327,2.457C-4.456,3.883 -3.253,4.997 -1.715,5.8" style="fill-rule:nonzero;"/>
        </g>
        <g transform="matrix(0.394625,0,0,0.394406,20.282,166.184)">
            <path d="M0,6.453L7.478,6.453L7.478,1.894L0,1.894L0,-1.179L8.528,-1.179L8.528,-5.737L-6.043,-5.737L-6.043,12.19L0,12.19L0,6.453Z" style="fill-rule:nonzero;"/>
        </g>
        <g transform="matrix(0.394625,0,0,0.394406,-7.11591,134.314)">
            <path d="M0,-35.076L0,23.233C-2.349,22.983 -4.836,22.821 -7.428,22.821C-15.56,22.821 -22.773,24.335 -27.315,25.573L-27.315,-35.076L0,-35.076ZM59.582,8.178L59.582,27.932C55.895,29.055 48.293,30.991 39.696,30.991C27.644,30.991 17.55,27.187 17.453,27.151C17.346,27.11 16.671,26.853 15.53,26.484L59.582,8.178ZM7.353,21.92L7.353,-42.428L-34.667,-42.428L-34.667,-4.085L-34.663,35.92L-29.675,34.015C-29.575,33.977 -19.48,30.174 -7.428,30.174C4.623,30.174 14.717,33.977 14.814,34.014C15.273,34.189 26.227,38.343 39.696,38.343C53.166,38.343 64.118,34.189 64.578,34.014L66.935,33.107L66.935,-2.84L7.353,21.92Z" style="fill-rule:nonzero;"/>
        </g>
        <g transform="matrix(0.394625,0,0,0.394406,-0.228488,154.173)">
            <path d="M0,-6.863C-0.459,-7.039 -11.413,-11.192 -24.881,-11.192C-38.351,-11.192 -51.661,-6.248 -52.12,-6.071L-52.116,1.626C-52.016,1.587 -36.934,-3.84 -24.881,-3.84C-12.83,-3.84 -2.736,-0.037 -2.639,0C-2.18,0.176 8.773,4.329 22.243,4.329C35.712,4.329 49.021,-0.62 49.481,-0.797L49.481,-8.449C49.381,-8.41 34.294,-3.023 22.243,-3.023C10.191,-3.023 0.097,-6.826 0,-6.863" style="fill-rule:nonzero;"/>
        </g>
        <g transform="matrix(0.394625,0,0,0.394406,-67.116,199.249)">
            <path d="M0,-58.063L-8.157,-54.673L-8.157,0L23.247,0L23.247,-8.158L0,-8.158L0,-58.063Z" style="fill-rule:nonzero;"/>
        </g>
        <g transform="matrix(0.394625,0,0,0.394406,-53.8077,193.326)">
            <path d="M0,-8.734C0.361,-10.539 1.011,-12.273 2.094,-13.644C3.971,-16.171 7.003,-17.47 10.251,-17.398C13.5,-17.47 16.46,-16.171 18.337,-13.644C19.42,-12.273 20.069,-10.539 20.431,-8.734L0,-8.734ZM10.251,-25.05C4.548,-25.05 -0.866,-22.884 -4.404,-18.625C-7.652,-14.654 -8.879,-9.745 -9.024,-4.475C-9.096,0.579 -7.725,5.56 -4.404,9.675C-0.866,13.934 4.548,15.883 10.251,16.099C15.882,16.316 21.441,14.078 25.123,9.819C25.99,8.808 26.711,7.725 27.361,6.571L19.276,3.104C18.987,3.611 18.771,4.115 18.337,4.693C16.46,7.147 13.5,8.447 10.251,8.447C7.003,8.447 3.971,7.147 2.094,4.693C0.649,2.816 0,0.288 -0.289,-2.237L29.31,-2.237C29.382,-2.96 29.455,-3.754 29.455,-4.475C29.455,-9.601 28.083,-14.654 24.834,-18.625C21.297,-22.956 15.955,-25.05 10.251,-25.05" style="fill-rule:nonzero;"/>
        </g>
        <g transform="matrix(0.394625,0,0,0.394406,-36.8454,199.618)">
            <path d="M0,-52.917L-8.085,-52.917L-8.085,-16.605C-8.085,-12.562 -7.941,-9.096 -6.425,-6.136C-4.909,-3.248 -2.238,-1.588 1.3,-0.65C4.043,0 8.663,-0.144 11.551,-0.938L11.551,-8.013C9.458,-7.653 7.075,-7.581 5.125,-7.797C3.465,-7.941 1.805,-8.879 0.938,-10.395C0,-11.84 0,-14.005 0,-17.109L0,-33.054L11.551,-33.054L11.551,-40.146L0,-40.146L0,-52.917Z" style="fill-rule:nonzero;"/>
        </g>
        <g transform="matrix(0.394625,0,0,0.394406,-18.5233,193.012)">
            <path d="M0,-20.357C-3.104,-22.957 -7.508,-24.4 -11.551,-24.184C-15.232,-24.04 -19.275,-22.74 -22.308,-20.069L-22.524,-19.853L-22.524,-36.168L-29.743,-36.168L-29.743,15.811L-21.585,15.811L-21.585,-1.227C-21.585,-3.971 -21.513,-6.785 -21.08,-8.807C-20.646,-11.116 -19.564,-13.138 -17.976,-14.439C-16.459,-15.593 -14.655,-16.242 -12.562,-16.315C-9.818,-16.388 -7.508,-15.666 -5.92,-14.221C-3.176,-11.839 -2.599,-7.94 -2.599,-3.537L-2.599,15.811L5.631,15.811L5.631,-3.537C5.703,-10.468 4.909,-16.098 0,-20.357" style="fill-rule:nonzero;"/>
        </g>
        <g transform="matrix(0.394625,0,0,0.394406,-3.25696,183.189)">
            <path d="M0,30.538C-1.877,33.282 -5.054,34.509 -8.158,34.509C-11.406,34.509 -14.222,33.354 -16.171,31.115C-18.192,28.733 -19.059,24.978 -19.059,21.225C-19.059,17.399 -18.192,13.716 -16.171,11.262C-14.366,9.024 -11.551,7.942 -8.446,7.942C-4.91,7.942 -1.95,9.097 -0.072,11.84C1.588,14.15 2.311,17.615 2.311,21.225C2.311,24.834 1.66,28.228 0,30.538M-7.219,0.65C-11.262,0.65 -15.161,1.95 -18.12,4.259L-18.12,-11.262L-26.278,-11.262L-26.278,40.717L-19.059,40.717L-19.059,37.396C-15.955,40.355 -11.768,41.8 -7.003,41.8C-1.732,41.8 3.248,39.562 6.498,35.519C9.746,31.476 10.901,26.423 10.901,21.225C10.901,15.955 9.529,10.758 6.498,6.859C3.248,2.816 -1.877,0.65 -7.219,0.65" style="fill-rule:nonzero;"/>
        </g>
        <g transform="matrix(0.394625,0,0,0.394406,10.651,199.192)">
            <path d="M0,-39.851C-2.671,-39.779 -5.414,-39.057 -7.652,-37.397C-9.313,-36.242 -10.54,-34.87 -11.478,-33.282L-11.478,-38.84L-18.697,-38.84L-18.697,0.144L-10.54,0.144L-10.54,-19.782C-10.54,-23.753 -9.962,-27.074 -7.507,-29.528C-5.991,-31.117 -3.682,-32.127 -0.722,-32.271C1.805,-32.415 4.187,-32.055 6.064,-31.333L6.064,-38.913C4.043,-39.635 2.021,-39.995 0,-39.851" style="fill-rule:nonzero;"/>
        </g>
        <g transform="matrix(0.394625,0,0,0.394406,-208.964,109.12)">
            <rect x="566.86" y="189.533" width="8.158" height="38.984"/>
        </g>
        <g transform="matrix(0.394625,0,0,0.394406,30.823,182.962)">
            <path d="M0,31.691C-1.876,33.93 -4.765,35.085 -7.941,35.085C-11.117,35.085 -14.293,33.858 -16.171,31.114C-17.831,28.804 -18.481,25.41 -18.481,21.801C-18.481,18.191 -17.687,14.727 -16.027,12.417C-14.149,9.673 -11.189,8.518 -7.725,8.518C-4.621,8.518 -1.805,9.601 0,11.838C2.093,14.293 2.96,17.975 2.96,21.801C2.96,25.555 2.093,29.309 0,31.691M1.949,4.836C-1.011,2.526 -4.909,1.227 -8.952,1.227C-14.293,1.227 -19.347,3.393 -22.596,7.435C-25.701,11.334 -27.072,16.532 -27.072,21.801C-27.072,26.999 -25.917,32.053 -22.596,36.096C-19.419,40.139 -14.366,42.376 -9.168,42.376C-4.403,42.376 -0.145,40.859 2.96,37.973L2.96,41.294L10.107,41.294L10.107,-10.685L1.949,-10.685L1.949,4.836Z" style="fill-rule:nonzero;"/>
        </g>
        <g transform="matrix(0.394625,0,0,0.394406,47.471,194.465)">
            <path d="M0,2.525C-1.876,4.764 -4.764,5.919 -7.94,5.919C-11.117,5.919 -14.293,4.692 -16.17,1.948C-17.831,-0.362 -18.481,-3.756 -18.481,-7.365C-18.481,-10.975 -17.687,-14.439 -16.026,-16.749C-14.149,-19.493 -11.189,-20.648 -7.725,-20.648C-4.62,-20.648 -1.804,-19.565 0,-17.328C2.094,-14.873 2.96,-11.191 2.96,-7.365C2.96,-3.611 2.094,0.143 0,2.525M2.96,-23.464C-0.144,-26.28 -4.403,-27.939 -8.951,-27.939C-14.293,-27.939 -19.347,-25.773 -22.596,-21.731C-25.7,-17.832 -27.071,-12.634 -27.071,-7.365C-27.071,-2.167 -25.917,2.887 -22.596,6.93C-19.419,10.973 -14.366,13.21 -9.167,13.21C-4.909,13.21 -1.083,12.055 1.949,9.672L1.949,13.499C2.021,16.891 1.372,18.84 -0.866,20.573C-2.671,22.017 -5.414,22.811 -8.085,22.811C-10.106,22.811 -12.633,22.089 -14.221,20.573C-15.016,19.923 -15.593,19.275 -16.099,18.408L-23.607,22.017C-22.235,24.4 -19.997,26.35 -17.687,27.576C-15.16,29.454 -11.406,30.464 -8.158,30.464C-4.475,30.464 -0.577,29.814 3.321,27.36C8.014,24.4 10.107,19.851 10.107,13.571L10.107,-26.856L2.96,-26.856L2.96,-23.464Z" style="fill-rule:nonzero;"/>
        </g>
        <g transform="matrix(0.394625,0,0,0.394406,57.2131,193.326)">
            <path d="M0,-8.734C0.361,-10.539 1.011,-12.273 2.093,-13.644C3.971,-16.171 7.003,-17.47 10.251,-17.398C13.5,-17.47 16.459,-16.171 18.337,-13.644C19.419,-12.273 20.069,-10.539 20.43,-8.734L0,-8.734ZM29.455,-4.475C29.455,-9.601 28.083,-14.654 24.834,-18.625C21.297,-22.956 15.954,-25.05 10.251,-25.05C4.548,-25.05 -0.866,-22.884 -4.403,-18.625C-7.653,-14.654 -8.879,-9.745 -9.024,-4.475C-9.097,0.579 -7.725,5.56 -4.403,9.675C-0.866,13.934 4.548,15.883 10.251,16.099C15.882,16.316 21.441,14.078 25.123,9.819C25.989,8.808 26.711,7.725 27.36,6.571L19.275,3.104C18.986,3.611 18.77,4.115 18.337,4.693C16.459,7.147 13.5,8.447 10.251,8.447C7.003,8.447 3.971,7.147 2.093,4.693C0.649,2.816 0,0.288 -0.289,-2.237L29.31,-2.237C29.382,-2.96 29.455,-3.754 29.455,-4.475" style="fill-rule:nonzero;"/>
        </g>
        <g transform="matrix(0.394625,0,0,0.394406,17.8215,181.429)">
            <path d="M0,-7.245C-1.02,-8.153 -2.283,-8.609 -3.79,-8.609C-5.297,-8.609 -6.56,-8.132 -7.579,-7.179C-8.599,-6.225 -9.107,-5.039 -9.107,-3.622C-9.107,-2.203 -8.599,-1.018 -7.579,-0.066C-6.56,0.888 -5.297,1.364 -3.79,1.364C-2.238,1.364 -0.964,0.866 0.033,-0.132C1.03,-1.128 1.529,-2.359 1.529,-3.821C1.529,-5.194 1.019,-6.336 0,-7.245" style="fill-rule:nonzero;"/>
        </g>
    </g>
</svg>
