<?xml version="1.0" encoding="UTF-8" standalone="no"?>
<!DOCTYPE svg PUBLIC "-//W3C//DTD SVG 1.1//EN" "http://www.w3.org/Graphics/SVG/1.1/DTD/svg11.dtd">
<svg width="100%" height="100%" viewBox="0 0 200 83" version="1.1" xmlns="http://www.w3.org/2000/svg" xmlns:xlink="http://www.w3.org/1999/xlink" xml:space="preserve" xmlns:serif="http://www.serif.com/" style="fill-rule:evenodd;clip-rule:evenodd;stroke-linejoin:round;stroke-miterlimit:2;">
    <g id="svgg" transform="matrix(0.550004,0,0,0.549304,-9.99042,-6.56411)">
        <path id="path0" d="M52.495,13.031C41.544,15.845 36.885,23.269 38.418,35.467C39.112,40.99 46.104,50.735 53.278,56.177C57.051,59.039 57.289,60.47 54.965,66.32C49.082,81.13 53.469,94.887 64.933,97.582C66.702,97.997 67.733,98.521 67.733,99.004C67.733,100.483 66.258,103.228 64.046,105.867C62.816,107.333 60.58,110.573 59.077,113.067C52.087,124.66 49.077,127.651 37.6,134.409C24.621,142.052 18.742,148.766 18.258,156.498C18.041,159.97 18.125,160.363 19.335,161.488C24.745,166.521 34.852,159.215 46.107,142.133C52.349,132.661 56.172,128.226 58.576,127.669C59.359,127.488 62.04,126.239 64.533,124.893C67.027,123.548 71.227,121.389 73.867,120.095C76.507,118.802 79.747,116.972 81.067,116.029C82.387,115.086 85.147,113.408 87.2,112.3C89.253,111.193 92.493,109.024 94.4,107.482C99.704,103.191 100.227,103.009 99.882,105.577C98.72,114.243 106.819,114.989 118.577,107.298C124.933,103.14 127.467,102.978 127.467,106.728C127.467,111.945 134.392,112.199 144.068,107.339C150.971,103.871 150.97,103.871 152.565,106.451C154.551,109.665 156.085,110.133 164.616,110.133L172.165,110.133L181.982,105.2C187.382,102.487 192.085,100.267 192.433,100.267C194.736,100.267 191.028,104.762 185.574,108.584C176.882,114.675 174.934,119.879 179.81,123.983C183.397,127.001 197.131,122.26 204.815,115.352C209.229,111.383 207.907,111.719 198.933,116.848C191.143,121.299 183.467,123.126 183.467,120.527C183.467,118.656 195.758,106.109 203.295,100.285C206.029,98.173 213.787,91.48 220.533,85.412C243.69,64.584 238.788,66.963 258.745,66.871C274.4,66.799 275.733,66.685 275.733,65.419C275.733,64.918 272.562,64.816 261.947,64.979C243.381,65.264 242.955,64.999 250.45,57.833C254.579,53.886 254.974,53.34 254.432,52.326C253.184,49.994 251.375,50.848 245.913,56.35C239.342,62.969 237.067,64.095 229.616,64.417C224.802,64.625 202.77,63.215 202.219,62.664C202.096,62.54 204.184,59.795 206.861,56.563C209.538,53.332 214.042,47.863 216.872,44.41C219.701,40.958 222.89,37.173 223.958,36C232.091,27.065 222.007,25.751 211.733,34.407C210.12,35.766 206.52,38.584 203.733,40.668C197.299,45.481 188.804,53.756 181.171,62.647C177.887,66.471 174.403,70.32 173.43,71.2C172.456,72.08 170.445,73.88 168.961,75.2C167.273,76.701 163.945,81.097 160.079,86.933C151.047,100.569 143.329,107.2 136.49,107.2C132.058,107.2 132.518,105.64 138.831,99.264C143.617,94.432 147.733,89.214 147.733,87.98C147.733,87.79 145.814,86.734 143.469,85.634C132.949,80.697 122.725,83.117 109.557,93.662C98.628,102.414 79.633,114.093 76.244,114.145C75.816,114.152 74.027,114.866 72.267,115.733C70.507,116.6 68.859,117.315 68.605,117.321C68.351,117.328 66.999,118.173 65.6,119.2C59.957,123.342 60.213,120.508 66.106,113.6C67.482,111.987 69.884,108.803 71.443,106.525C75.775,100.197 78.7,98.145 83.405,98.136C88.111,98.127 91.733,95.362 91.733,91.778C91.733,87.392 86.749,87.317 77.703,91.565C66.401,96.874 62.016,96.076 59.587,88.267C57.702,82.204 58.05,75.441 60.527,70.01C63.522,63.439 65.996,63.003 74.929,67.469C90.526,75.266 126.539,74.94 142.564,66.857C157.868,59.136 162.834,51.398 158.085,42.672C153.762,34.73 144.77,31.601 124.8,31.089C105.241,30.587 92.277,33.75 77.832,42.549C73.515,45.179 71.825,46.467 64.559,52.667C58.975,57.432 55.61,56.492 50.063,48.618C48.274,46.078 46.1,43.25 45.232,42.333C43.134,40.118 42.188,34.63 43.078,29.844C45.412,17.292 54.935,11.449 68.8,14.061C77.554,15.71 88,22.746 88,26.994C88,28.748 89.485,30.933 90.677,30.933C92.45,30.933 88.31,22.802 84.926,19.636C77.972,13.131 63.544,10.193 52.495,13.031M132.912,34.193C162.01,37.339 162.5,52.585 133.872,64.061C113.835,72.093 77.023,70.387 68.221,61.018C65.393,58.007 71.86,51.127 82.414,45.919C105.89,34.333 114.885,32.244 132.912,34.193M220.031,36.133C215.901,47.159 164.071,99.716 160.676,96.321C158.896,94.54 216.316,35.2 219.818,35.2C220.132,35.2 220.226,35.613 220.031,36.133M229.467,66.194C231.447,66.507 233.058,66.921 233.048,67.115C232.955,68.817 204.745,88.785 190.097,97.518C181.266,102.782 167.614,107.738 161.98,107.726C153.092,107.707 153.774,104.265 164.008,97.489C172.293,92.005 191.731,74.829 197.233,68.133L199.533,65.333L212.7,65.479C219.942,65.56 227.487,65.881 229.467,66.194M241.024,85.467C240.033,88.535 239.895,101.867 240.854,101.867C242.077,101.867 242.667,98.808 242.667,92.455C242.667,90.885 242.907,89.6 243.2,89.6C243.493,89.6 243.733,89.869 243.733,90.197C243.733,90.525 244.633,93.285 245.733,96.33C248.512,104.02 249.09,103.941 252.267,95.429C255,88.105 255.372,88.344 255.436,97.467C255.467,101.85 255.472,101.867 256.864,101.867L258.261,101.867L257.916,96.133C257.293,85.792 257.19,85.333 255.475,85.333C254.065,85.333 249.588,94.168 249.598,96.933C249.603,98.34 248.587,97.51 247.964,95.6C245.295,87.408 244.215,85.333 242.62,85.333C241.766,85.333 241.047,85.393 241.024,85.467M269.867,91.217C269.867,99.527 270.729,101.28 275.235,102.125C280.851,103.179 283.2,100.05 283.2,91.518L283.2,85.333L280.533,85.333L280.533,91.695C280.533,98.662 279.766,100.267 276.437,100.267C273.424,100.267 272.533,98.264 272.533,91.491L272.533,85.333L269.867,85.333L269.867,91.217M296.345,86.641C293.531,89.249 294.613,92.373 298.953,94.166C305.484,96.865 302.971,102.282 296.355,99.767C295.265,99.353 294.994,99.444 294.77,100.3C294.03,103.132 302.798,102.964 304.798,100.107C306.768,97.295 305.306,94.48 300.745,92.306C295.249,89.685 297.858,85.552 303.614,87.761C304.099,87.948 304.498,87.66 304.671,86.998C305.244,84.805 298.632,84.522 296.345,86.641M316.8,93.6L316.8,101.867L321.867,101.867C326.015,101.867 326.933,101.722 326.933,101.067C326.933,100.432 326.163,100.267 323.2,100.267L319.467,100.267L319.467,94.4L322.933,94.4C326.044,94.4 326.4,94.291 326.4,93.333C326.4,92.376 326.044,92.267 322.933,92.267L319.467,92.267L319.467,87.467L323.2,87.467C326.578,87.467 326.933,87.365 326.933,86.4C326.933,85.408 326.578,85.333 321.867,85.333L316.8,85.333L316.8,93.6M338.133,91.342C338.133,100.105 340.097,102.874 345.771,102.115C350.495,101.482 351.467,99.661 351.467,91.442L351.467,85.333L348.8,85.333L348.8,91.695C348.8,98.662 348.033,100.267 344.704,100.267C341.691,100.267 340.8,98.264 340.8,91.491L340.8,85.333L338.133,85.333L338.133,91.342M364.053,90.8C363.86,93.807 363.562,97.527 363.39,99.067C363.083,101.81 363.105,101.867 364.472,101.867C365.822,101.867 365.868,101.759 365.919,98.533C365.948,96.7 366.128,93.88 366.319,92.267L366.667,89.333L367.953,92.8C368.66,94.707 369.703,97.54 370.269,99.097C371.913,103.613 372.972,102.934 375.708,95.605C376.939,92.307 378.077,89.479 378.237,89.319C378.397,89.159 378.7,91.917 378.91,95.447C379.292,101.837 379.3,101.867 380.627,101.867C381.864,101.867 381.939,101.722 381.671,99.867C381.512,98.767 381.228,95.047 381.039,91.6L380.695,85.333L379.128,85.333C377.405,85.333 376.895,86.207 373.892,94.31L372.443,98.221L370.088,91.778C367.766,85.424 367.711,85.336 366.069,85.335L364.404,85.333L364.053,90.8M140.8,87.545C140.8,89.875 134.066,95.426 125.333,100.294C122.547,101.847 118.487,104.31 116.312,105.768C112.741,108.161 107.733,109.81 107.733,108.592C107.733,106.637 113.735,99.58 118.365,96.091C126.623,89.868 140.8,84.468 140.8,87.545M87.355,93.402C87.625,94.824 85.968,96 83.695,96C81.169,96 80.924,95.009 83.038,93.347C84.677,92.057 87.107,92.088 87.355,93.402M216.645,105.667C215.386,106.29 213.226,107.864 211.845,109.165L209.333,111.531L213.661,109.344C217.936,107.183 221.259,104.533 219.693,104.534C219.275,104.534 217.903,105.044 216.645,105.667M241.604,114.928C241.236,115.372 241.057,116.489 241.199,117.457C241.351,118.495 241.183,119.406 240.78,119.728C238.534,121.527 240.654,125.894 243.342,125.006C243.997,124.789 245.474,124.643 246.623,124.681C248.514,124.744 248.634,124.672 247.883,123.921C247.163,123.201 247.15,122.904 247.79,121.679C248.195,120.902 248.528,119.967 248.53,119.6C248.536,118.433 247.459,118.883 246.933,120.267C246.315,121.893 245.806,121.947 244.892,120.482C244.304,119.54 244.325,119.219 245.03,118.44C246.026,117.34 246.116,115.662 245.227,114.773C244.342,113.888 242.398,113.972 241.604,114.928M265.537,119.45C263.814,124.226 263.709,124.8 264.561,124.8C265.188,124.8 265.636,124.251 265.867,123.2C266.185,121.75 266.416,121.6 268.337,121.6C270.211,121.6 270.52,121.784 271.013,123.2C271.556,124.756 273.101,125.47 273.033,124.133C273.014,123.767 272.208,121.427 271.242,118.933C268.747,112.495 268.022,112.561 265.537,119.45M281.956,114.489C281.153,115.291 281.563,124.8 282.4,124.8C282.978,124.8 283.2,124.207 283.2,122.667C283.2,119.206 286.308,119.724 287.215,123.336C287.769,125.544 289.256,125.288 288.781,123.067C288.577,122.113 288.165,121.029 287.865,120.657C287.48,120.179 287.576,119.697 288.193,119.015C290.702,116.242 284.617,111.827 281.956,114.489M299.259,115.499C294.804,119.248 298.444,126.194 304.29,125.098C306.873,124.613 306.59,123.733 303.852,123.733C301.147,123.733 299.457,122.695 298.964,120.73C298.156,117.513 301.092,114.698 304.537,115.387C305.733,115.627 306.133,115.509 306.133,114.92C306.133,113.471 301.173,113.888 299.259,115.499M314.667,119.467C314.667,123.852 314.809,124.8 315.467,124.8C316.059,124.8 316.267,124.178 316.267,122.4L316.267,120L321.6,120L321.6,122.4C321.6,124.178 321.807,124.8 322.4,124.8C323.058,124.8 323.2,123.852 323.2,119.467C323.2,115.081 323.058,114.133 322.4,114.133C321.814,114.133 321.6,114.741 321.6,116.4L321.599,118.667L316.533,118.635L316.369,116.384C316.001,111.335 314.667,113.752 314.667,119.467M332.8,119.467C332.8,123.852 332.942,124.8 333.6,124.8C334.258,124.8 334.4,123.852 334.4,119.467C334.4,115.081 334.258,114.133 333.6,114.133C332.942,114.133 332.8,115.081 332.8,119.467M342.639,115.112C346.137,126.135 347.214,126.945 349.696,120.421C350.621,117.989 351.553,115.556 351.767,115.013C352.069,114.246 351.941,114.067 351.195,114.213C350.592,114.33 349.889,115.393 349.308,117.067C348.799,118.533 348.088,120.453 347.728,121.333L347.074,122.933L345.625,118.667C344.33,114.849 341.478,111.456 342.639,115.112M360,119.467L360,124.8L363.2,124.8C364.978,124.8 366.4,124.563 366.4,124.267C366.4,123.973 365.32,123.733 364,123.733C361.613,123.733 361.6,123.723 361.6,121.867C361.6,120.044 361.651,120 363.733,120C364.907,120 365.867,119.76 365.867,119.467C365.867,119.173 364.907,118.933 363.733,118.933C361.651,118.933 361.6,118.889 361.6,117.067C361.6,115.21 361.613,115.2 364,115.2C365.32,115.2 366.4,114.96 366.4,114.667C366.4,114.37 364.978,114.133 363.2,114.133L360,114.133L360,119.467M375.796,115.131C374.268,116.819 374.882,118.519 377.453,119.714C381.275,121.489 381.153,123.954 377.258,123.644C374.602,123.433 373.977,124.505 376.441,125.046C381.659,126.193 383.759,121.002 378.917,118.926C375.362,117.402 376.138,114.516 379.893,115.293C380.354,115.389 380.806,115.227 380.898,114.933C381.241,113.848 376.802,114.019 375.796,115.131M244.61,116.007C244.922,116.82 243.972,118.4 243.171,118.4C242.573,118.4 241.991,116.396 242.397,115.738C242.898,114.927 244.259,115.092 244.61,116.007M286.827,115.84C288.419,117.433 286.233,120.131 284.034,119.287C283.202,118.967 282.854,116.257 283.556,115.556C284.135,114.976 286.137,115.15 286.827,115.84M269.843,119.867C269.857,120.256 269.207,120.533 268.283,120.533C267.247,120.533 266.781,120.303 266.934,119.867C267.063,119.5 267.445,118.48 267.783,117.6L268.397,116L269.108,117.6C269.499,118.48 269.829,119.5 269.843,119.867M243.954,121.552C245.409,123.071 245.418,123.117 244.359,123.684C242.406,124.729 240.666,123.169 241.357,120.992C241.785,119.645 242.216,119.738 243.954,121.552M45.862,133.733C45.849,134.749 42.461,139.842 39.386,143.467C37.52,145.667 34.675,149.11 33.064,151.118C30.214,154.669 25.323,158.834 24.715,158.226C24.046,157.557 25.782,150.475 27.325,147.58C30.227,142.134 45.903,130.425 45.862,133.733M73.417,147.307C71.06,155.203 71.053,155.32 72.903,155.102C74.017,154.971 74.438,154.545 74.784,153.2C75.479,150.5 79.096,150.593 80,153.333C80.517,154.9 80.866,155.2 82.175,155.2C84.105,155.2 84.138,155.678 81.663,147.722L79.593,141.067L77.484,140.907L75.374,140.747L73.417,147.307M90.133,148L90.133,155.2L91.705,155.2C93.223,155.2 93.283,155.104 93.439,152.442C93.651,148.803 94.369,148.724 96.306,152.126C97.651,154.489 98.176,154.96 99.619,155.1C101.769,155.31 101.77,155.321 99.2,150.996C96.742,146.859 96.739,146.838 98.16,145.067C98.749,144.333 99.72,143.073 100.318,142.267L101.406,140.8L99.508,140.8C97.792,140.8 97.419,141.089 95.605,143.827L93.6,146.854L93.44,143.827C93.284,140.867 93.245,140.8 91.707,140.8L90.133,140.8L90.133,148M110.657,141.467C110.169,142.809 106.667,154.589 106.667,154.89C106.667,156.254 109.767,155.007 110.207,153.467C110.974,150.776 114.787,150.566 115.535,153.173C115.947,154.608 116.308,154.933 117.487,154.933C119.385,154.933 119.396,155.114 117.028,147.444L114.977,140.8L112.938,140.8C111.792,140.8 110.794,141.092 110.657,141.467M125.565,141.498C125.418,141.881 125.366,145.061 125.449,148.564L125.6,154.933L127.067,155.102L128.533,155.271L128.533,140.8L127.183,140.8C126.441,140.8 125.713,141.114 125.565,141.498M136.776,142.109C134.257,144.628 135.251,147.34 139.316,149.038C143.044,150.596 142.328,152.736 138.179,152.44C136.152,152.295 135.721,152.431 135.558,153.269C135.066,155.784 141.084,156.065 143.508,153.641C146.097,151.052 145.085,148.332 140.817,146.408C137.826,145.059 138.095,143.788 141.416,143.573C143.31,143.45 143.951,143.177 144.153,142.407C144.706,140.291 138.832,140.053 136.776,142.109M153.06,146.267C152.151,149.273 151.181,152.429 150.904,153.28C150.627,154.13 150.4,154.91 150.4,155.013C150.4,156.313 153.64,154.928 154.016,153.467C154.709,150.775 158.521,150.562 159.265,153.173C159.686,154.65 160.051,154.961 161.531,155.104C163.162,155.262 163.266,155.181 162.899,154.037C161.843,150.739 158.933,141.172 158.933,140.998C158.933,140.889 157.984,140.8 156.823,140.8L154.712,140.8L153.06,146.267M169.919,143.067C169.765,144.313 169.491,147.571 169.31,150.306L168.98,155.279L172,154.933L172.267,149.6L172.533,144.267L173.89,149.333C175.902,156.845 177.294,156.885 179.504,149.493L181.067,144.267L181.333,149.6L181.6,154.933L183.067,155.102C184.765,155.297 184.787,155.114 184.183,146L183.839,140.8L179.75,140.8L178.299,145.649L176.847,150.498L175.549,145.649L174.252,140.8L172.225,140.8C170.24,140.8 170.193,140.847 169.919,143.067M191.467,148L191.467,155.2L194.667,155.2L194.667,140.8L191.467,140.8L191.467,148M200.533,142.133C200.533,143.302 200.764,143.467 202.4,143.467L204.267,143.467L204.267,155.2L207.467,155.2L207.467,143.467L209.333,143.467C210.969,143.467 211.2,143.302 211.2,142.133L211.2,140.8L200.533,140.8L200.533,142.133M219.94,141.323C217.106,142.468 215.37,147.142 216.504,150.577C218.508,156.649 227.234,156.705 229.226,150.658C231.313,144.326 225.922,138.906 219.94,141.323M236.267,148.035L236.267,155.271L237.733,155.102C239.124,154.942 239.208,154.772 239.361,151.839L239.522,148.744L242.027,148.905L244.533,149.067L244.694,152.166C244.851,155.185 244.892,155.261 246.294,155.099L247.733,154.933L247.733,141.067L246.296,140.901C244.915,140.741 244.852,140.844 244.696,143.504L244.533,146.274L242,146.337L239.466,146.4L239.466,143.6C239.467,140.844 239.441,140.8 237.867,140.8L236.267,140.8L236.267,148.035M254.933,148.035L254.933,155.271L256.4,155.102C257.735,154.948 257.891,154.698 258.133,152.308C258.487,148.827 259.14,148.79 261.086,152.143C262.442,154.48 262.983,154.96 264.419,155.1C266.603,155.313 266.577,155.142 263.76,150.707L261.413,147.015L266.251,140.729L264.208,140.898C262.413,141.046 261.92,141.418 260.149,143.958L258.133,146.849L258.133,143.824C258.133,140.82 258.123,140.8 256.533,140.8L254.933,140.8L254.933,148.035M275.58,141.171C275.215,141.79 271.467,154.192 271.467,154.778C271.467,156.218 274.427,154.842 274.917,153.175C275.682,150.574 279.428,150.781 280.193,153.467C280.603,154.902 280.949,155.2 282.21,155.2C284.174,155.2 284.15,154.829 281.685,147.2L279.704,141.067L277.768,140.904C276.703,140.815 275.719,140.935 275.58,141.171M290.251,147.867L290.4,154.933L291.733,154.933C293.059,154.933 293.067,154.907 293.067,149.999C293.067,147.286 293.106,145.066 293.154,145.066C293.202,145.066 294.47,147.347 295.973,150.133C298.478,154.78 298.835,155.2 300.285,155.2L301.867,155.2L301.867,140.8L300.533,140.8C299.209,140.8 299.2,140.833 299.2,145.645L299.2,150.491L297.001,146.312C294.154,140.901 294.061,140.8 291.919,140.8L290.102,140.8L290.251,147.867M312.369,141.171C312.003,141.766 308.267,154.152 308.267,154.77C308.267,156.218 311.191,154.846 311.668,153.173C312.411,150.566 316.226,150.776 316.993,153.467C317.403,154.902 317.749,155.2 319.01,155.2C320.938,155.2 320.935,155.157 318.515,147.467L316.501,141.067L314.566,140.904C313.503,140.815 312.514,140.935 312.369,141.171M328.407,141.635C325.351,143.293 324.151,149.82 326.382,152.656C329.524,156.65 335.954,155.776 337.94,151.084C340.732,144.488 334.512,138.322 328.407,141.635M345.426,142.338C345.257,143.184 344.965,144.487 344.777,145.234C344.136,147.79 346.441,146.334 347.653,143.418L348.741,140.8L347.237,140.8C346.006,140.8 345.677,141.079 345.426,142.338M354.922,141.438C354.762,141.855 354.699,145.061 354.782,148.564L354.933,154.933L356.4,155.102C357.825,155.266 357.867,155.196 357.867,152.638L357.867,150.005L360.379,149.722C364.453,149.263 366.253,145.38 363.798,142.347C362.551,140.807 355.443,140.08 354.922,141.438M371.463,147.067C370.402,150.513 369.412,153.753 369.264,154.267C369.05,155.01 369.325,155.2 370.615,155.2C371.997,155.2 372.302,154.944 372.682,153.467C373.376,150.775 377.188,150.562 377.932,153.173C378.355,154.657 378.715,154.96 380.222,155.106C381.531,155.232 381.941,155.089 381.749,154.573C381.605,154.184 380.573,150.927 379.456,147.333L377.425,140.8L373.393,140.8L371.463,147.067M224.802,144.133C227.551,146.498 226.259,152.533 223.004,152.533C219.48,152.533 218.084,146.697 221.008,144.182C222.8,142.641 223.063,142.637 224.802,144.133M333.026,143.545C336.742,145.238 335.65,152.533 331.681,152.533C328.516,152.533 327.252,146.833 329.842,144.242C331.358,142.727 331.272,142.746 333.026,143.545M360.568,143.485C362.703,144.628 361.338,147.733 358.702,147.733C358.089,147.733 357.867,147.189 357.867,145.689C357.867,142.877 358.487,142.371 360.568,143.485M114.092,148.4C114.121,149.051 113.73,149.333 112.8,149.333C111.275,149.333 111.233,149.118 112.106,145.703L112.746,143.2L113.399,145.333C113.758,146.507 114.07,147.887 114.092,148.4M78.248,146.253C78.921,148.775 78.765,149.333 77.391,149.333C75.955,149.333 75.84,148.979 76.433,146.388C77.113,143.416 77.483,143.389 78.248,146.253M157.661,146.677C158.351,149.016 158.206,149.333 156.444,149.333C154.999,149.333 155.023,149.444 155.802,146.349C156.48,143.655 156.784,143.709 157.661,146.677M278.893,148.4C278.921,149.051 278.53,149.333 277.6,149.333C276.075,149.333 275.901,148.408 276.892,145.565L277.518,143.771L278.185,145.619C278.552,146.635 278.87,147.887 278.893,148.4M315.693,148.4C315.722,149.062 315.326,149.333 314.332,149.333C312.94,149.333 312.732,146.37 313.982,144.347C314.342,143.764 315.623,146.799 315.693,148.4M376.613,148C376.758,148.824 376.467,149.105 375.333,149.235C373.644,149.43 373.67,149.522 374.496,146.24L375.125,143.741L375.776,145.337C376.134,146.215 376.51,147.413 376.613,148" style="fill:white;"/>
    </g>
</svg>
