<?xml version="1.0" encoding="UTF-8" standalone="no"?>
<!DOCTYPE svg PUBLIC "-//W3C//DTD SVG 1.1//EN" "http://www.w3.org/Graphics/SVG/1.1/DTD/svg11.dtd">
<svg width="100%" height="100%" viewBox="0 0 200 56" version="1.1" xmlns="http://www.w3.org/2000/svg" xmlns:xlink="http://www.w3.org/1999/xlink" xml:space="preserve" xmlns:serif="http://www.serif.com/" style="fill-rule:evenodd;clip-rule:evenodd;stroke-linejoin:round;stroke-miterlimit:2;">
    <g transform="matrix(0.333326,0,0,0.332736,-6.82874,-78.4451)">
        <path d="M581.124,376.2C572.595,382.265 561.07,386.1 547.5,386.1C517.3,386.1 509.8,366.7 508.5,355.5C497.1,371.2 487.4,391.6 475.1,388C464.6,384.9 468.6,364.8 475.6,349C461.9,366.7 436.9,395.7 419.3,384.7C409.7,378.7 408.8,359.8 411.3,338.7C397.1,347.6 382.8,362.3 381.5,379.5C381.1,384.4 383.6,385.3 377.9,385.9C363.3,387.4 371.9,358.8 373.1,345.7C366.2,357.9 347.8,383.3 327.2,385.2C312.6,386.5 306.4,379.2 305.2,369.6C298.3,370.9 290.7,372.1 283.5,373C280.4,376.6 276.6,379.6 272.3,381.7C260.2,387.7 248.2,386.5 242.8,383.2C234.9,378.3 237.4,373.7 243.5,371.7C238.7,349.9 247.8,300.1 247.3,291.9C246.9,285.8 246.2,283.7 250.7,284.4C264.9,286.6 260.4,297.9 259.1,304.5C255.9,320.2 253.7,337.1 252.6,351C256.2,337.1 264.9,320.5 282.1,324.8C296.9,328.6 297.8,350.8 287.7,367.2C294.1,366.3 299.8,365.4 304.8,364.3C305.4,354.7 309.8,344.3 315.6,338.2C327.4,325.8 342.2,323.3 347.4,331.6C352.8,340.4 345.4,354.8 323.9,364.3C322.1,365.1 320,365.9 317.7,366.6C318,375.6 323.2,381.4 335.1,375.6C351.7,367.5 362.6,348.3 371.2,336.2C374.9,331.1 378.6,329.5 381.7,330.4C383.1,330.8 386.7,332 386.6,337.3C386.5,342.3 384.4,349.8 383,356.5C390.9,341.9 401.6,330.8 413.2,324.1C415.7,309.5 419.1,295.1 421.8,283.9C423.3,277.9 421.4,275.7 425.9,276.4C439.9,278.6 434.5,289.9 432.7,296.5C430.7,303.7 428.9,311 427.3,318.3C427.8,318.2 428.2,318.1 428.7,318C448.4,313.8 460.9,322.9 463.2,328.8C464.7,332.8 464.2,333 460.6,331.3C453.3,327.8 440.3,325.8 424.7,331.8C420.8,354.2 420.3,373.1 426.5,377.8C439.6,387.8 471,341.6 477.2,334C484.3,325.3 493,317.6 500.2,317.6C510.6,317.6 512.5,328.6 510.4,333.7C508.3,338.8 506.6,330.7 502,331.5C492,333.3 483.3,357.8 481.1,368.3C479.3,376.6 482.7,377.5 490.2,367.8C499,356.5 505.2,343.1 512.1,342.3C522,341.2 520.8,349.5 521.5,355.2C522.6,363.8 528.4,381.2 550.7,381.2C556.917,381.2 562.729,379.296 567.81,376.2L581.124,376.2ZM567.81,376.2L566.1,376.2L566.1,321.8L620.5,321.8L620.5,376.2L581.124,376.2C591.827,368.589 597.812,357.465 597.2,346C596.5,332.4 584.5,330.2 582.8,334.1C582.2,335.5 587.3,335 587.3,344.6C587.3,355.678 579.484,369.086 567.81,376.2ZM259.7,380.8C263.3,380.3 266.7,378 269.8,374.7C264.1,375.2 259.3,375.6 256.2,375.7C256.1,376.5 256.1,377.3 256.1,378C256.1,379.2 255.6,380.1 254.8,380.8C256.1,381.1 257.7,381.1 259.7,380.8ZM274,368.8C282.4,355.2 285.8,334.8 279.3,332.5C268,328.6 258.9,352.8 256.6,370.3C262.7,369.9 268.5,369.3 274,368.8ZM329.5,339.3C323.8,344.6 319.9,352.6 318.6,360C334.8,352.5 343.3,338.8 341.3,334.9C340.3,333.1 336.7,332.6 329.5,339.3ZM244.2,396C244.6,396.7 242.8,399 239.4,399.2C232,400 224.3,394.9 220.9,390.3C205.2,369.3 211.5,319.8 213.9,305.2C204.3,322.7 187.5,336.6 170.5,347.1C172,361.5 174.2,374.6 177,384.3C184.2,386.5 191.7,389.8 189,395.6C186.9,400 183.5,403.2 176.4,399.1C168.1,394.3 134.6,378.5 123.2,373.1C116.8,370.1 112.4,367.3 112.5,363.9C112.6,360.8 116.7,358.1 123.3,356.4C129.4,354.8 142.4,350.6 156.8,343.6C154.1,314.9 154.5,290.5 155.7,275.9C142.4,301.8 109.4,362.8 81,391.2C70.7,401.5 42.5,413.4 23.2,392.6C18.9,387.9 20.2,383.3 23.7,386.3C28,390 49.6,402.2 73.4,378.6C120.1,332.3 149.3,263.5 155.6,250.9C162,238.2 169.8,233.2 177.1,237C184,240.5 178.4,237.4 173.7,254.4C168.2,274.5 167.3,307.3 169.5,336.9C190.7,324.4 211.8,305.8 217.3,280C218.6,274 216.3,271.8 220.8,272.5C235,274.7 230.5,286 229.2,292.6C222.3,327.3 219.8,350.5 224,374.1C226.3,387.2 234,395.1 239.8,396C241.8,396.3 243.9,395.3 244.2,396ZM162.4,380.4C160.8,374.2 159.3,365.9 157.9,354.3C147.8,359.6 138.2,363.6 130.7,366.4C144.4,373.4 155,377.7 162.4,380.4Z" style="fill:white;"/>
    </g>
</svg>
