<?xml version="1.0" encoding="UTF-8" standalone="no"?>
<!DOCTYPE svg PUBLIC "-//W3C//DTD SVG 1.1//EN" "http://www.w3.org/Graphics/SVG/1.1/DTD/svg11.dtd">
<svg width="100%" height="100%" viewBox="0 0 300 97" version="1.1" xmlns="http://www.w3.org/2000/svg" xmlns:xlink="http://www.w3.org/1999/xlink" xml:space="preserve" xmlns:serif="http://www.serif.com/" style="fill-rule:evenodd;clip-rule:evenodd;stroke-linejoin:round;stroke-miterlimit:2;">
    <g transform="matrix(0.778104,0,0,0.781891,-0.0473671,0.0270246)">
        <g id="svgg">
            <g>
                <path id="path1" d="M17.484,0.303C17.498,0.472 17.416,0.592 17.302,0.57C17.188,0.548 17.098,0.666 17.101,0.831C17.104,0.997 17.053,1.328 16.989,1.568C16.785,2.324 16.708,2.856 16.712,3.484C16.714,3.902 16.667,4.017 16.562,3.85C16.45,3.669 16.41,3.714 16.41,4.024C16.411,4.491 16.33,4.878 16.178,5.139C16.122,5.235 16.068,5.617 16.057,5.987C16.046,6.358 15.967,6.75 15.882,6.858C15.73,7.052 15.697,7.266 15.67,8.232C15.662,8.495 15.588,8.711 15.505,8.711C15.422,8.711 15.346,8.926 15.337,9.19C15.3,10.173 15.253,10.425 15.119,10.343C14.931,10.226 14.948,10.412 15.164,10.815C15.303,11.074 15.286,11.178 15.094,11.252C14.751,11.383 14.613,12.004 14.835,12.419C14.966,12.664 14.963,12.726 14.826,12.641C14.72,12.576 14.628,12.586 14.621,12.664C14.613,12.741 14.57,12.962 14.524,13.153C14.378,13.759 14.268,14.364 14.253,14.634C14.245,14.778 14.172,14.98 14.092,15.083C14.011,15.186 13.978,15.44 14.018,15.649C14.059,15.857 14.024,16.028 13.943,16.028C13.861,16.028 13.815,16.224 13.842,16.463C13.868,16.703 13.819,16.899 13.734,16.899C13.648,16.899 13.596,17.166 13.618,17.493C13.64,17.819 13.555,18.21 13.43,18.362C13.304,18.513 13.246,18.753 13.3,18.895C13.355,19.037 13.323,19.2 13.23,19.257C13.137,19.315 13.108,19.438 13.165,19.532C13.223,19.625 13.196,19.796 13.106,19.912C12.877,20.204 12.694,21.254 12.872,21.254C12.952,21.254 12.981,21.449 12.935,21.688C12.889,21.93 12.772,22.072 12.671,22.009C12.563,21.943 12.542,21.982 12.619,22.106C12.69,22.221 12.658,22.423 12.548,22.556C12.438,22.689 12.336,23.15 12.322,23.581C12.308,24.013 12.254,24.34 12.202,24.308C12.113,24.253 12.085,24.394 11.978,25.436C11.954,25.675 11.855,25.929 11.76,25.999C11.655,26.076 11.68,26.128 11.824,26.13C12.003,26.132 12.015,26.191 11.871,26.364C11.766,26.491 11.644,26.785 11.602,27.017C11.559,27.249 11.512,27.439 11.498,27.439C11.44,27.439 11.324,28.168 11.297,28.702C11.281,29.014 11.212,29.268 11.143,29.268C11.075,29.268 11.012,29.445 11.004,29.66C10.983,30.206 10.904,30.534 10.726,30.82C10.621,30.987 10.637,31.025 10.774,30.94C10.885,30.872 10.976,30.899 10.976,31C10.976,31.102 10.893,31.185 10.791,31.185C10.69,31.185 10.655,31.263 10.714,31.359C10.774,31.455 10.734,31.533 10.626,31.533C10.509,31.533 10.474,31.674 10.54,31.882C10.601,32.073 10.575,32.23 10.483,32.23C10.391,32.23 10.307,32.426 10.297,32.666C10.287,32.905 10.27,33.297 10.26,33.537C10.25,33.776 10.182,33.972 10.108,33.972C9.987,33.972 9.928,34.359 9.914,35.235C9.911,35.403 9.835,35.54 9.745,35.54C9.655,35.54 9.582,35.976 9.582,36.509C9.582,37.041 9.512,37.434 9.426,37.38C9.34,37.327 9.282,37.563 9.299,37.905C9.315,38.246 9.228,38.608 9.106,38.709C8.828,38.94 8.81,39.44 9.086,39.269C9.224,39.184 9.239,39.222 9.135,39.389C9.051,39.524 8.958,39.788 8.929,39.975C8.9,40.162 8.812,40.358 8.733,40.411C8.583,40.51 8.528,40.869 8.538,41.694C8.542,41.983 8.471,42.14 8.367,42.076C8.267,42.014 8.191,42.141 8.192,42.368C8.195,43.118 8.141,43.466 7.994,43.654C7.914,43.757 7.884,44.028 7.928,44.256C7.972,44.484 7.889,44.851 7.744,45.072C7.539,45.386 7.524,45.554 7.678,45.842C7.817,46.101 7.818,46.175 7.683,46.091C7.578,46.026 7.481,46.055 7.47,46.157C7.44,46.411 7.396,46.553 7.24,46.908C7.166,47.075 7.147,47.321 7.198,47.453C7.248,47.585 7.198,47.792 7.086,47.914C6.926,48.087 6.938,48.103 7.143,47.989C7.366,47.864 7.37,47.885 7.171,48.13C7.043,48.288 6.997,48.511 7.068,48.626C7.149,48.757 7.123,48.789 6.997,48.711C6.858,48.625 6.814,48.764 6.853,49.163C6.884,49.48 6.833,49.838 6.74,49.96C6.563,50.192 6.443,50.776 6.39,51.655C6.373,51.943 6.296,52.275 6.218,52.395C6.056,52.645 5.909,53.208 5.841,53.833C5.815,54.072 5.775,54.307 5.751,54.355C5.727,54.403 5.715,54.496 5.725,54.562C5.734,54.628 5.629,55 5.492,55.389C5.304,55.92 5.294,56.098 5.452,56.1C5.597,56.102 5.59,56.149 5.428,56.251C5.299,56.333 5.185,56.685 5.175,57.033C5.165,57.381 5.111,57.666 5.055,57.666C4.958,57.666 4.852,58.32 4.81,59.173C4.799,59.38 4.732,59.512 4.66,59.468C4.588,59.423 4.53,59.788 4.53,60.279C4.53,60.791 4.46,61.127 4.366,61.069C4.276,61.014 4.205,61.107 4.208,61.277C4.211,61.446 4.161,61.781 4.097,62.021C4.032,62.26 3.954,62.613 3.922,62.805C3.89,62.997 3.812,63.389 3.749,63.676C3.686,63.963 3.6,64.434 3.559,64.721C3.518,65.009 3.436,65.361 3.377,65.505C3.245,65.827 3.098,66.706 3.107,67.117C3.111,67.284 3.051,67.422 2.973,67.422C2.895,67.422 2.821,67.598 2.809,67.814C2.78,68.343 2.667,69.077 2.616,69.077C2.592,69.077 2.544,69.273 2.509,69.512C2.422,70.097 2.3,70.645 2.256,70.645C2.176,70.645 2.077,71.563 2.08,72.264C2.082,72.71 2.015,72.97 1.913,72.907C1.755,72.81 1.664,73.054 1.728,73.407C1.742,73.489 1.668,73.66 1.562,73.788C1.421,73.957 1.422,74.117 1.563,74.382C1.718,74.671 1.703,74.765 1.489,74.847C1.342,74.903 1.267,75.023 1.323,75.113C1.378,75.203 1.332,75.387 1.22,75.523C1.107,75.658 1.066,75.851 1.128,75.951C1.19,76.051 1.18,76.23 1.106,76.35C1.032,76.47 0.995,76.792 1.023,77.067C1.06,77.416 1.014,77.527 0.869,77.438C0.711,77.34 0.711,77.402 0.871,77.7C1.009,77.959 1.015,78.051 0.888,77.972C0.783,77.907 0.687,77.937 0.675,78.038C0.648,78.266 0.608,78.411 0.479,78.746C0.423,78.889 0.371,79.144 0.363,79.312C0.328,80.04 0.293,80.237 0.17,80.401C0.098,80.497 0.05,81.657 0.063,82.979L0.087,85.383L16.026,85.37C29.224,85.359 32.006,85.316 32.202,85.12C32.332,84.99 32.541,84.423 32.664,83.861C32.788,83.299 33.127,81.742 33.418,80.401C33.975,77.825 35.105,72.732 36.678,65.709C37.2,63.378 37.679,61.387 37.742,61.286C37.818,61.162 38.687,61.132 40.372,61.195C60.971,61.966 76.952,55.344 82.945,43.554C83.805,41.863 83.974,42.011 83.601,44.125C83.452,44.969 83.371,47.426 83.355,51.582C83.343,54.991 83.268,57.885 83.19,58.011C83.091,58.172 83.114,58.201 83.267,58.106C83.434,58.003 83.468,58.134 83.408,58.654C83.365,59.03 83.408,59.53 83.505,59.765C83.602,60 83.693,60.57 83.706,61.032C83.72,61.494 83.829,61.932 83.948,62.006C84.067,62.08 84.151,62.211 84.135,62.298C84.049,62.752 84.163,63.077 84.364,62.956C84.491,62.88 84.473,62.962 84.321,63.153C84.171,63.341 84.152,63.426 84.276,63.351C84.424,63.263 84.492,63.349 84.491,63.623C84.489,64.346 84.55,64.634 84.708,64.634C84.794,64.634 84.813,64.716 84.751,64.816C84.69,64.916 84.717,65.092 84.813,65.208C84.996,65.428 85.017,65.506 85.017,65.951C85.017,66.1 85.092,66.177 85.183,66.121C85.273,66.064 85.317,66.177 85.28,66.37C85.243,66.563 85.334,66.842 85.482,66.99C85.631,67.139 85.763,67.453 85.777,67.689C85.79,67.925 85.873,68.118 85.961,68.118C86.049,68.118 86.073,68.166 86.015,68.224C85.957,68.282 86.104,68.509 86.341,68.729C86.792,69.147 87.042,69.861 86.737,69.861C86.64,69.861 86.683,69.983 86.833,70.133C86.983,70.283 87.184,70.357 87.281,70.297C87.377,70.237 87.456,70.311 87.456,70.46C87.456,70.856 87.388,70.999 87.226,70.945C87.147,70.919 87.134,70.981 87.198,71.084C87.279,71.215 87.388,71.209 87.563,71.064C87.701,70.95 87.868,70.911 87.935,70.978C88.001,71.044 87.941,71.171 87.8,71.259C87.586,71.392 87.61,71.466 87.946,71.702C88.261,71.924 88.325,72.09 88.242,72.468C88.144,72.912 88.172,72.945 88.58,72.867C88.909,72.804 89.024,72.855 89.024,73.066C89.024,73.367 89.366,74.06 89.599,74.232C89.676,74.288 89.7,74.543 89.654,74.798C89.608,75.053 89.648,75.261 89.743,75.261C89.838,75.261 89.859,75.353 89.79,75.465C89.704,75.604 89.761,75.632 89.97,75.552C90.188,75.468 90.302,75.535 90.367,75.783C90.418,75.975 90.533,76.132 90.623,76.132C90.713,76.132 90.739,76.054 90.679,75.958C90.37,75.457 90.967,76.007 93.066,78.156C95.738,80.89 98.475,83.021 101.098,84.41L102.905,85.366L142.698,85.363C164.584,85.362 182.576,85.303 182.68,85.233C182.784,85.162 184.411,83.066 186.297,80.575C188.183,78.084 189.924,75.791 190.166,75.479L190.607,74.913L205.141,74.913C218.805,74.913 219.684,74.931 219.833,75.218C220.129,75.783 219.985,81.733 219.664,82.23C218.86,83.476 219.69,86.332 220.63,85.552C220.788,85.421 242.036,85.353 292.613,85.323L364.371,85.279L364.603,84.582C364.73,84.199 366.323,77.927 368.141,70.645C369.96,63.362 374.656,44.557 378.578,28.854C382.499,13.151 385.665,0.235 385.613,0.152C385.56,0.066 346.9,0 296.406,0C202.825,-0 206.794,-0.029 206.794,0.666C206.794,0.758 206.677,0.879 206.533,0.934C206.389,0.989 206.272,1.198 206.272,1.399C206.272,1.599 206.201,1.719 206.114,1.665C206.027,1.611 205.997,1.726 206.048,1.919C206.118,2.189 206.074,2.245 205.857,2.162C205.668,2.089 205.575,2.147 205.575,2.339C205.575,2.496 205.457,2.669 205.314,2.724C205.17,2.78 205.052,2.973 205.052,3.155C205.052,3.336 204.935,3.484 204.791,3.484C204.647,3.484 204.53,3.559 204.53,3.65C204.53,3.74 204.331,4.029 204.088,4.292C203.845,4.554 203.683,4.864 203.727,4.98C203.772,5.097 203.651,5.233 203.459,5.283C203.267,5.334 203.068,5.537 203.016,5.736C202.964,5.935 202.852,6.098 202.767,6.098C202.682,6.098 202.613,6.179 202.613,6.279C202.613,6.469 202.396,6.764 201.854,7.312C201.676,7.492 201.583,7.723 201.647,7.826C201.711,7.931 201.637,8.014 201.479,8.014C201.281,8.014 201.227,8.113 201.3,8.342C201.367,8.551 201.305,8.708 201.129,8.775C200.94,8.848 200.894,8.813 200.983,8.665C201.068,8.522 201.013,8.53 200.817,8.689C200.655,8.82 200.523,9.036 200.523,9.168C200.523,9.3 200.439,9.408 200.337,9.408C200.234,9.408 200.197,9.554 200.255,9.735C200.321,9.945 200.26,10.101 200.083,10.169C199.904,10.238 199.851,10.205 199.931,10.076C200.007,9.953 199.977,9.924 199.853,10.001C199.742,10.069 199.652,10.238 199.652,10.376C199.652,10.514 199.573,10.627 199.477,10.627C199.382,10.627 199.303,10.706 199.303,10.801C199.303,10.897 199.166,11.119 198.998,11.295C198.831,11.471 198.576,11.796 198.432,12.016C198.288,12.237 197.994,12.634 197.779,12.898C197.563,13.162 197.387,13.508 197.387,13.668C197.387,13.829 197.304,13.907 197.201,13.843C197.098,13.78 196.972,13.892 196.919,14.094C196.867,14.295 196.746,14.46 196.651,14.46C196.556,14.46 196.524,14.578 196.579,14.721C196.634,14.865 196.603,14.983 196.51,14.983C196.417,14.983 196.34,15.12 196.339,15.287C196.337,15.517 196.3,15.536 196.191,15.364C196.043,15.13 195.47,15.791 195.47,16.196C195.47,16.295 195.39,16.376 195.292,16.376C195.194,16.376 195.039,16.572 194.948,16.812C194.857,17.051 194.692,17.247 194.582,17.247C194.436,17.247 194.434,17.309 194.574,17.478C194.714,17.646 194.71,17.764 194.56,17.914C194.297,18.177 194.018,18.18 194.18,17.917C194.257,17.793 194.228,17.763 194.104,17.841C193.993,17.909 193.902,18.078 193.902,18.216C193.902,18.354 193.824,18.467 193.728,18.467C193.632,18.467 193.554,18.551 193.554,18.655C193.554,18.758 193.319,19.077 193.031,19.365C192.744,19.652 192.509,20.043 192.509,20.233C192.509,20.423 192.435,20.533 192.345,20.477C192.176,20.373 191.115,21.784 191.115,22.113C191.115,22.216 191.056,22.3 190.984,22.3C190.912,22.3 190.624,22.587 190.344,22.939C190.063,23.29 189.925,23.521 190.037,23.452C190.17,23.37 190.204,23.42 190.137,23.596C190.08,23.744 189.963,23.822 189.877,23.769C189.791,23.716 189.721,23.839 189.721,24.042C189.721,24.259 189.645,24.364 189.535,24.296C189.433,24.233 189.306,24.345 189.254,24.547C189.201,24.748 189.089,24.913 189.004,24.913C188.919,24.913 188.85,25 188.85,25.106C188.85,25.212 188.65,25.456 188.405,25.648C188.161,25.84 187.999,26.037 188.047,26.084C188.094,26.131 187.941,26.376 187.707,26.628C187.474,26.881 187.282,27.177 187.282,27.288C187.282,27.398 187.164,27.534 187.019,27.59C186.875,27.645 186.774,27.752 186.796,27.826C186.818,27.901 186.584,28.234 186.275,28.567C185.967,28.899 185.714,29.272 185.714,29.394C185.714,29.517 185.636,29.617 185.54,29.617C185.444,29.617 185.366,29.726 185.366,29.859C185.366,29.993 185.248,30.147 185.105,30.202C184.961,30.258 184.843,30.457 184.843,30.646C184.843,30.835 184.753,31.046 184.642,31.114C184.509,31.196 184.489,31.161 184.582,31.01C184.675,30.86 184.655,30.824 184.522,30.907C184.411,30.975 184.321,31.144 184.321,31.282C184.321,31.42 184.251,31.533 184.165,31.533C184.08,31.533 183.96,31.732 183.899,31.976C183.838,32.219 183.712,32.371 183.619,32.314C183.526,32.256 183.449,32.332 183.449,32.481C183.449,32.63 183.371,32.753 183.275,32.753C183.179,32.753 183.101,32.873 183.101,33.019C183.101,33.166 182.983,33.331 182.84,33.386C182.696,33.442 182.578,33.588 182.578,33.711C182.578,33.834 182.461,33.98 182.317,34.035C182.173,34.09 182.056,34.247 182.056,34.384C182.056,34.52 181.938,34.677 181.794,34.732C181.651,34.787 181.533,34.944 181.533,35.08C181.533,35.217 181.416,35.374 181.272,35.429C181.128,35.484 181.01,35.649 181.01,35.796C181.01,35.943 180.932,36.063 180.836,36.063C180.74,36.063 180.662,36.22 180.662,36.411C180.662,36.605 180.546,36.76 180.401,36.76C180.257,36.76 180.139,36.869 180.139,37.002C180.139,37.136 180.016,37.292 179.866,37.35C179.677,37.423 179.629,37.57 179.712,37.83C179.808,38.132 179.774,38.184 179.544,38.096C179.343,38.019 179.208,38.115 179.093,38.418C179.002,38.656 178.848,38.85 178.75,38.85C178.652,38.85 178.571,38.959 178.571,39.093C178.571,39.226 178.454,39.381 178.31,39.436C178.166,39.491 178.049,39.667 178.049,39.826C178.049,39.985 177.872,40.269 177.657,40.457C177.441,40.644 177.261,40.927 177.257,41.087C177.252,41.246 177.159,41.358 177.05,41.336C176.94,41.314 176.801,41.451 176.741,41.641C176.681,41.831 176.558,41.986 176.469,41.986C176.38,41.986 176.307,42.147 176.307,42.345C176.307,42.555 176.229,42.656 176.121,42.589C176.018,42.525 175.892,42.638 175.839,42.84C175.786,43.041 175.674,43.206 175.589,43.206C175.505,43.206 175.436,43.323 175.436,43.467C175.436,43.611 175.353,43.728 175.251,43.728C175.15,43.728 175.122,43.819 175.191,43.929C175.266,44.051 175.239,44.083 175.123,44.012C174.935,43.895 174.453,44.553 174.529,44.822C174.55,44.896 174.45,45.003 174.306,45.058C174.162,45.113 174.086,45.226 174.137,45.309C174.188,45.391 174.07,45.559 173.874,45.681C173.679,45.803 173.519,45.973 173.519,46.059C173.519,46.145 173.382,46.328 173.214,46.466C173.047,46.603 173.007,46.666 173.127,46.605C173.5,46.417 173.371,46.621 172.648,47.366C172.265,47.761 171.951,48.162 171.951,48.258C171.951,48.354 171.87,48.432 171.772,48.432C171.673,48.432 171.54,48.569 171.476,48.737C171.413,48.905 171.278,49.132 171.177,49.241C170.657,49.806 170.122,50.548 170.122,50.706C170.122,50.804 170.004,50.958 169.861,51.049C169.717,51.14 169.658,51.215 169.73,51.217C169.801,51.218 169.582,51.514 169.242,51.873C168.85,52.288 168.655,52.642 168.707,52.845C168.763,53.059 168.714,53.134 168.557,53.074C168.415,53.02 168.283,53.15 168.218,53.409C168.16,53.642 168.006,53.833 167.876,53.833C167.739,53.833 167.639,54.018 167.639,54.271C167.639,54.512 167.417,55.03 167.145,55.423C166.873,55.815 166.569,56.278 166.47,56.451C166.263,56.811 163.551,60.538 160.704,64.373C159.638,65.81 158.626,67.202 158.456,67.465C157.634,68.743 157.642,68.686 159.349,61.063C160.057,57.901 160.992,53.706 161.428,51.742C161.928,49.485 162.349,47.99 162.57,47.68C162.894,47.225 162.907,46.657 162.592,46.709C162.517,46.721 162.398,46.721 162.326,46.71C161.519,46.576 130.563,46.725 130.517,46.862C130.485,46.959 130.382,47.038 130.289,47.038C130.195,47.038 130.175,46.948 130.243,46.837C130.32,46.713 130.291,46.683 130.166,46.76C130.056,46.829 129.965,47.032 129.965,47.213C129.965,47.393 129.886,47.589 129.79,47.649C129.694,47.708 129.612,48.085 129.609,48.487C129.606,48.888 129.562,49.647 129.512,50.174C129.462,50.701 129.404,51.564 129.384,52.091C129.363,52.618 129.3,53.127 129.244,53.223C129.188,53.319 129.15,53.762 129.161,54.208C129.172,54.654 129.112,54.976 129.028,54.924C128.942,54.871 128.915,55.263 128.967,55.812C129.019,56.352 128.995,56.794 128.916,56.794C128.836,56.794 128.799,57.146 128.834,57.575C128.869,58.004 128.823,58.402 128.732,58.458C128.64,58.514 128.614,58.639 128.674,58.735C128.744,58.849 128.137,58.891 126.934,58.856C125.918,58.826 125.087,58.735 125.087,58.653C125.087,58.571 124.772,58.541 124.387,58.585C124.001,58.63 123.646,58.601 123.597,58.522C123.548,58.442 123.397,58.42 123.261,58.473C123.125,58.525 122.911,58.504 122.787,58.426C122.663,58.348 122.366,58.257 122.129,58.225C121.891,58.192 121.637,58.073 121.565,57.959C121.493,57.845 121.432,57.831 121.429,57.927C121.426,58.023 121.356,57.995 121.274,57.865C121.157,57.68 121.044,57.673 120.749,57.83C119.966,58.249 117.438,56.268 116.56,54.549C114.727,50.956 114.792,43.95 116.728,36.378C118.545,29.27 122.481,24.76 128.52,22.868L130.052,22.388L148.728,22.3C161.556,22.24 167.462,22.155 167.589,22.028C167.797,21.82 168.123,20.695 169.332,16.028C169.791,14.255 170.882,10.045 171.756,6.673C172.63,3.3 173.345,0.418 173.345,0.269C173.345,-0.032 121.37,-0.153 121.184,0.148C121.135,0.226 120.771,0.303 120.375,0.319C119.979,0.334 119.584,0.391 119.497,0.445C119.359,0.53 119.185,0.579 118.38,0.756C118.284,0.777 118.127,0.836 118.031,0.888C117.936,0.941 117.63,0.997 117.352,1.014C117.074,1.032 116.75,1.126 116.631,1.225C116.512,1.324 116.118,1.443 115.757,1.489C115.395,1.535 114.994,1.66 114.867,1.766C114.739,1.872 114.634,1.908 114.634,1.846C114.634,1.784 114.409,1.85 114.134,1.992C113.858,2.134 113.584,2.202 113.524,2.142C113.464,2.082 113.415,2.137 113.415,2.265C113.415,2.393 113.363,2.446 113.3,2.382C113.237,2.319 113.08,2.355 112.952,2.462C112.823,2.569 112.718,2.604 112.718,2.541C112.718,2.478 112.541,2.524 112.326,2.642C112.11,2.761 111.824,2.876 111.69,2.898C111.556,2.92 111.384,3.039 111.307,3.163C111.231,3.286 111.112,3.33 111.043,3.261C110.973,3.191 110.734,3.254 110.51,3.401C110.287,3.547 110.105,3.62 110.105,3.563C110.105,3.506 109.981,3.583 109.829,3.735C109.678,3.886 109.482,3.966 109.394,3.911C109.306,3.857 109.233,3.9 109.233,4.007C109.233,4.114 109.161,4.157 109.073,4.103C108.985,4.048 108.799,4.118 108.658,4.258C108.518,4.398 108.355,4.464 108.296,4.405C108.237,4.346 108.188,4.393 108.188,4.511C108.188,4.628 108.11,4.676 108.014,4.617C107.918,4.558 107.84,4.597 107.84,4.704C107.84,4.811 107.761,4.85 107.666,4.791C107.57,4.732 107.491,4.766 107.491,4.868C107.491,4.969 107.432,5.037 107.361,5.018C107.139,4.959 106.446,5.242 106.446,5.391C106.446,5.469 106.191,5.636 105.88,5.762C105.568,5.888 105.274,6.034 105.226,6.088C105.179,6.141 104.76,6.381 104.295,6.62C103.831,6.86 103.259,7.232 103.023,7.448C102.788,7.663 102.521,7.84 102.43,7.84C102.339,7.84 102.265,7.918 102.265,8.014C102.265,8.11 102.147,8.188 102.003,8.188C101.86,8.188 101.742,8.268 101.742,8.367C101.742,8.465 101.544,8.62 101.302,8.712C101.06,8.805 100.817,8.999 100.761,9.144C100.705,9.289 100.569,9.408 100.459,9.408C100.348,9.408 100.16,9.564 100.04,9.756C99.921,9.948 99.72,10.105 99.593,10.105C99.342,10.105 98.556,10.867 98.68,10.991C98.722,11.033 98.351,11.345 97.854,11.683C97.357,12.022 96.948,12.413 96.943,12.552C96.939,12.691 96.842,12.786 96.729,12.762C96.615,12.739 96.387,12.935 96.222,13.198C96.056,13.461 95.584,13.981 95.173,14.355C94.762,14.728 94.425,15.121 94.425,15.227C94.425,15.334 94.262,15.523 94.062,15.648C93.862,15.773 93.739,15.98 93.789,16.108C93.84,16.243 93.731,16.381 93.529,16.433C93.337,16.484 93.137,16.687 93.085,16.886C93.033,17.085 92.921,17.247 92.837,17.247C92.752,17.247 92.683,17.404 92.683,17.596C92.683,17.787 92.624,17.925 92.552,17.901C92.48,17.877 92.409,17.928 92.394,18.016C92.378,18.103 92.241,18.244 92.089,18.329C91.936,18.414 91.812,18.591 91.812,18.722C91.812,18.853 91.727,18.989 91.624,19.023C91.52,19.058 91.378,19.358 91.307,19.691C91.219,20.108 91.088,20.289 90.886,20.272C90.538,20.243 90.51,20.403 90.81,20.711C90.986,20.892 90.96,20.924 90.679,20.877C90.39,20.829 90.337,20.906 90.368,21.332C90.393,21.664 90.016,22.645 89.297,24.119C88.687,25.37 87.967,26.864 87.697,27.439L87.205,28.484L87.091,25.523C86.777,17.414 83.07,9.777 77.443,5.645C76.674,5.081 76.367,4.75 76.438,4.565C76.508,4.381 76.472,4.341 76.32,4.434C75.89,4.7 75.232,4.18 75.583,3.852C75.749,3.698 75.85,3.59 75.807,3.613C75.764,3.637 75.604,3.558 75.452,3.439C75.206,3.248 75.202,3.258 75.413,3.528C75.667,3.851 75.508,3.928 75.108,3.675C74.976,3.592 74.925,3.431 74.995,3.318C75.088,3.169 74.953,3.145 74.495,3.231C73.883,3.346 73.628,3.13 74.06,2.863C74.195,2.78 74.182,2.699 74.017,2.595C73.864,2.498 73.706,2.545 73.571,2.725C73.271,3.127 72.828,2.904 72.938,2.406C73.003,2.113 72.981,2.068 72.858,2.242C72.72,2.437 72.654,2.421 72.5,2.155C72.395,1.976 72.307,1.908 72.302,2.003C72.298,2.099 72.218,2.06 72.125,1.916C71.983,1.695 71.956,1.704 71.954,1.973C71.952,2.181 71.846,2.27 71.646,2.232C71.479,2.199 71.341,2.083 71.341,1.972C71.341,1.667 71.115,1.503 70.598,1.434C70.34,1.399 70.088,1.312 70.038,1.239C69.954,1.116 68.708,0.726 68.118,0.639C67.975,0.617 67.779,0.554 67.683,0.499C67.587,0.443 67.206,0.388 66.835,0.377C66.465,0.366 66.067,0.279 65.951,0.182C65.518,-0.177 17.455,-0.057 17.484,0.303M302.047,4.499C302.383,4.712 302.042,5.043 300.135,6.35C297.692,8.026 296.497,9.505 295.225,12.433C294.234,14.712 294.57,14.683 288.066,13.047C280.074,11.037 278.781,11.425 272.153,17.817C266.309,23.452 265.384,23.767 258.537,22.453C253.855,21.554 252.988,21.822 249.049,25.384C247.239,27.02 247.089,26.868 248.476,24.804C254.186,16.306 267.599,9.092 283.387,6.027C289.25,4.889 301.129,3.916 302.047,4.499M310.105,4.719C329.705,6.395 347.715,14.484 354.458,24.641C355.377,26.024 355.105,26.013 353.424,24.597C350.692,22.296 349.928,22.064 345.383,22.155C341.847,22.225 341.402,21.987 338.8,18.641C336.951,16.263 334.494,16.414 327.661,19.323C321.869,21.789 318.026,22.389 315.904,21.161C313.053,19.51 308.757,15.36 308.034,13.558C307.359,11.876 305.662,8.575 304.378,6.446C303.44,4.89 303.347,4.618 303.702,4.464C303.967,4.349 307.366,4.485 310.105,4.719M80.885,7.389C81.098,7.607 81.299,7.716 81.332,7.631C81.366,7.546 81.522,7.576 81.681,7.697C81.839,7.817 81.794,7.72 81.581,7.48C81.369,7.24 81.038,7.032 80.846,7.017C80.511,6.992 80.512,7.006 80.885,7.389M300.748,8.057C301.069,8.561 301.671,9.599 302.086,10.366C302.5,11.132 302.991,11.976 303.175,12.241C303.571,12.807 305.377,16.614 305.825,17.826C306.178,18.779 306.523,19.009 306.884,18.532C307.117,18.225 307.132,18.235 307.137,18.697C307.144,19.335 307.729,19.284 307.801,18.639C308.02,16.691 308.722,17.14 309.24,19.56C309.885,22.573 309.796,25.316 308.969,27.981C308.2,30.455 308.29,30.477 310.976,28.461C315.558,25.023 319.463,24.739 328.049,27.22C330.68,27.98 330.716,28.786 328.291,32.62C327.762,33.457 327.378,34.221 327.438,34.318C327.51,34.435 332.674,34.495 342.759,34.495C355.844,34.495 358.001,34.53 358.181,34.748C358.399,35.01 358.343,35.271 355.655,46.429C354.508,51.192 354.619,51.021 353.035,50.452C352.372,50.214 347.596,48.572 342.422,46.803C337.247,45.034 330.478,42.717 327.379,41.654C321.09,39.497 321.334,39.548 320.38,40.18C319.191,40.966 318.151,39.911 330.575,50.518C336.324,55.427 341.583,59.925 342.262,60.514C342.941,61.103 344.96,62.829 346.748,64.35C350.034,67.144 350.317,67.47 349.608,67.66C348.778,67.883 326.59,67.776 326.139,67.548C325.865,67.409 325.27,66.539 324.501,65.155C323.165,62.747 321.633,59.996 319.072,55.401C318.138,53.724 317.102,51.862 316.771,51.263C316.041,49.941 315.961,49.935 314.494,51.102C312.853,52.407 311.83,52.951 310.61,53.166C309.23,53.409 309.238,53.118 310.464,58.2C311.051,60.637 311.759,63.571 312.036,64.721C312.651,67.276 312.661,67.524 312.152,67.66C311.306,67.887 292.068,67.781 291.749,67.548C291.466,67.341 291.55,66.889 293.022,60.732C293.89,57.106 294.599,54.003 294.599,53.838C294.599,53.579 294.347,53.522 292.814,53.429C290.98,53.317 289.77,53.017 287.824,52.19C286.421,51.594 287.142,50.759 281.266,59.799C278.218,64.489 276.209,67.416 275.946,67.55C275.497,67.778 253.304,67.88 252.474,67.658C251.756,67.466 252.079,67.188 260.976,60.355C265.814,56.639 273.184,50.98 277.352,47.78C286.591,40.686 287.322,40.1 287.241,39.858C287.206,39.753 286.475,39.299 285.618,38.849C284.761,38.4 283.83,37.907 283.551,37.754C283.117,37.517 282.964,37.51 282.506,37.704C278.118,39.57 266.204,44.619 263.676,45.685C261.855,46.453 258.092,48.045 255.314,49.223C248.568,52.084 248.793,51.999 248.57,51.775C248.466,51.672 247.998,49.878 247.528,47.788C247.059,45.699 246.523,43.323 246.338,42.509C246.153,41.694 245.691,39.658 245.311,37.985C244.811,35.783 244.671,34.88 244.805,34.718C244.954,34.539 248.402,34.495 262.135,34.495C276.595,34.495 279.294,34.457 279.372,34.253C279.424,34.117 278.893,33.28 278.16,32.342C275.575,29.035 273.428,25.292 273.229,23.745C273.146,23.104 274.151,22.141 276.06,21.031C277.039,20.462 284.065,20.566 286.476,21.186C288.468,21.698 290.795,22.997 289.721,22.997C289.625,22.997 289.547,23.075 289.547,23.171C289.547,23.267 289.27,23.607 288.932,23.926C288.383,24.443 288.229,25.082 288.651,25.089C289.43,25.101 293.64,30.339 294.951,32.927C295.71,34.426 297.189,36.676 297.806,37.27C299.074,38.492 298.829,37.326 297.274,34.74C294.679,30.426 293.17,26.719 293.188,24.707C293.244,18.331 294.703,13.028 297.402,9.387C299.137,7.047 299.907,6.741 300.748,8.057M83.624,10.139C83.624,10.236 83.732,10.275 83.864,10.224C83.996,10.173 84.192,10.204 84.299,10.292C84.437,10.405 84.443,10.391 84.322,10.246C84.101,9.98 83.624,9.907 83.624,10.139M50.548,21.783C54.43,22.17 56.738,23.359 57.64,25.436C58.034,26.344 58.052,29.063 57.667,29.528C57.548,29.671 57.488,29.935 57.535,30.114C57.582,30.292 57.542,30.578 57.446,30.748C57.322,30.97 57.329,31.024 57.469,30.937C57.58,30.868 57.666,30.925 57.666,31.069C57.666,31.208 57.547,31.367 57.403,31.423C57.258,31.478 57.15,31.584 57.162,31.659C57.174,31.733 57.165,31.853 57.142,31.925C57.118,31.997 57.083,32.115 57.062,32.186C56.964,32.535 56.753,33.04 56.607,33.275C56.518,33.419 56.369,33.713 56.276,33.929C56.182,34.144 56.026,34.321 55.928,34.321C55.829,34.321 55.749,34.423 55.749,34.549C55.749,34.85 54.953,35.55 54.151,35.955C53.746,36.159 53.545,36.366 53.603,36.519C53.654,36.651 53.609,36.76 53.503,36.76C53.397,36.76 53.309,36.662 53.307,36.542C53.306,36.397 53.248,36.411 53.136,36.585C53.043,36.729 52.966,36.782 52.964,36.703C52.963,36.625 52.762,36.717 52.517,36.909C52.273,37.102 51.909,37.227 51.708,37.189C51.508,37.15 51.257,37.173 51.151,37.239C50.863,37.419 50.5,37.482 49.869,37.463C49.558,37.453 49.303,37.513 49.303,37.595C49.303,37.677 48.359,37.763 47.204,37.785C45.948,37.81 44.825,37.925 44.409,38.072C43.692,38.325 38.232,38.247 38.068,37.981C37.996,37.865 40.367,26.923 41.447,22.387L41.572,21.864L43.826,21.769M56.441,26.836C56.206,26.985 56.328,27.08 56.677,27.02C56.756,27.006 56.773,27.072 56.715,27.166C56.657,27.26 56.481,27.288 56.325,27.228C56.135,27.155 56.082,27.186 56.166,27.322C56.398,27.698 56.956,27.566 56.877,27.154C56.784,26.67 56.746,26.643 56.441,26.836M215.563,32.622C216.641,37.053 217.406,42.316 217.03,42.714C216.759,43 216.634,43.63 216.879,43.48C217.126,43.326 217.428,43.957 217.455,44.685C217.468,45.021 217.539,45.296 217.612,45.296C217.686,45.296 217.751,45.512 217.757,45.775C217.768,46.308 217.878,47.125 217.939,47.125C217.961,47.125 218.008,47.467 218.044,47.885C218.079,48.303 218.188,48.741 218.285,48.858C218.382,48.976 218.476,49.434 218.492,49.877C218.509,50.32 218.573,50.652 218.634,50.614C218.696,50.576 218.756,50.716 218.768,50.926C218.842,52.17 218.879,52.42 218.981,52.357C219.043,52.319 219.104,52.459 219.117,52.668C219.19,53.91 219.228,54.162 219.327,54.101C219.388,54.063 219.442,54.282 219.447,54.586C219.46,55.356 219.569,55.814 219.774,55.964C219.869,56.035 217.439,56.095 214.373,56.099C210.632,56.104 208.569,56.173 208.101,56.311C207.252,56.56 198.084,56.709 198.084,56.473C198.084,56.386 198.685,55.463 199.42,54.421C202.052,50.689 208.795,41.169 210.017,39.46C210.702,38.502 212.034,36.62 212.977,35.279C215.339,31.918 215.381,31.875 215.563,32.622M294.599,39.873C294.167,39.989 292.336,42.508 292.335,42.988C292.335,43.132 292.617,43.206 293.168,43.206C293.626,43.206 294.429,43.324 294.953,43.469C296.921,44.013 296.977,44.011 297.184,43.356C297.512,42.321 297.797,40.655 297.692,40.383C297.506,39.899 295.645,39.592 294.599,39.873M306.703,41.644C306.553,41.887 306.769,43.105 307.025,43.453C307.203,43.696 307.369,43.707 308.275,43.537C309.067,43.389 309.672,43.393 310.767,43.554C312.361,43.789 312.513,43.747 312.24,43.148C312.088,42.814 311.793,42.684 310.603,42.427C309.805,42.255 308.727,41.967 308.207,41.788C307.126,41.416 306.86,41.391 306.703,41.644M82.009,58.001C81.952,58.218 81.996,58.308 82.134,58.255C82.25,58.21 82.346,58.059 82.346,57.919C82.346,57.551 82.111,57.608 82.009,58.001M80.448,59.511C80.506,59.814 80.579,59.891 80.669,59.744C80.817,59.505 80.702,59.059 80.493,59.059C80.421,59.059 80.401,59.262 80.448,59.511M305.656,72.547C306.629,72.954 306.848,73.609 306.852,76.132C306.857,79.247 306.281,80.111 304.325,79.923C302.756,79.772 301.776,78.091 303.068,77.767C303.537,77.649 303.61,77.437 303.232,77.292C302.379,76.965 302.119,73.834 302.875,72.994C303.521,72.276 304.594,72.104 305.656,72.547M310.631,72.563C311.5,73.012 311.8,74.042 311.161,74.384C310.647,74.659 310.192,74.601 309.843,74.216C309.407,73.734 309.2,73.781 309.265,74.347C309.314,74.771 309.384,74.82 309.874,74.773C311.829,74.586 312.453,78.76 310.612,79.712C308.388,80.862 307.054,79.322 307.168,75.735C307.264,72.713 308.583,71.504 310.631,72.563M315.76,72.838C315.983,73.069 316.216,73.426 316.277,73.631C316.529,74.479 315.09,74.938 314.559,74.18C314.249,73.738 313.858,73.953 313.971,74.502C314.022,74.749 314.171,74.815 314.602,74.781C316.277,74.648 317.174,78.027 315.822,79.379C314.876,80.325 312.877,80.069 312.285,78.926C311.962,78.301 311.913,74.402 312.218,73.529C312.651,72.286 314.818,71.863 315.76,72.838M288.263,72.936C288.406,73.506 288.167,73.915 287.614,74.046C287.034,74.183 287.002,75.147 287.574,75.228C288.513,75.362 288.545,76.484 287.62,76.807C287.153,76.97 287.092,77.064 287.14,77.555C287.221,78.379 288.167,78.621 288.77,77.971C288.997,77.726 289.303,77.526 289.452,77.526C289.845,77.526 289.791,77.384 289.111,76.632C288.441,75.89 288.423,75.815 288.684,74.874C289.015,73.682 290.644,73.266 291.914,74.051L292.492,74.409L292.857,73.693C293.601,72.235 295.709,73.267 295.15,74.815C294.565,76.432 295.019,79.359 295.732,78.571C296.306,77.937 297.213,78.22 297.213,79.032C297.213,79.599 296.945,79.697 295.304,79.733C293.576,79.771 293.305,79.661 293.023,78.808L292.813,78.171L292.597,78.676C292.06,79.937 290.366,80.333 289.198,79.469L288.645,79.061L288.389,79.426C288.006,79.973 285.476,79.974 285.184,79.427C284.96,79.009 285.015,73.048 285.245,72.692C285.562,72.203 288.131,72.411 288.263,72.936M301.811,72.749C302.02,73.294 301.928,79.361 301.707,79.582C301.428,79.862 300.439,79.848 300.201,79.562C300.092,79.43 299.99,78.377 299.962,77.081L299.913,74.83L299.434,74.601C298.694,74.247 298.828,73.787 299.869,73.101C300.861,72.448 301.641,72.307 301.811,72.749M304.437,74.081C304.281,74.487 304.416,75.697 304.617,75.697C304.854,75.697 304.945,74.213 304.721,73.989C304.597,73.866 304.508,73.895 304.437,74.081M292.288,75.436C292.124,75.627 291.832,75.784 291.639,75.784C291.162,75.784 291.2,76.037 291.74,76.462C291.989,76.657 292.331,77.091 292.503,77.427L292.813,78.037L292.921,77.389C293.222,75.564 292.936,74.679 292.288,75.436M309.233,77.439C309.233,78.446 309.476,78.735 309.634,77.918C309.746,77.341 309.598,76.481 309.386,76.481C309.302,76.481 309.233,76.912 309.233,77.439M314.007,76.724C313.858,77.112 314.007,78.314 314.199,78.269C314.442,78.211 314.53,76.481 314.289,76.481C314.186,76.481 314.059,76.59 314.007,76.724M304.105,77.508C304.052,77.594 304.159,77.849 304.343,78.074C304.645,78.444 304.689,78.455 304.797,78.179C305.024,77.595 304.416,77.005 304.105,77.508M92.509,79.154C92.509,79.283 92.679,79.538 92.887,79.72C93.095,79.903 93.203,79.946 93.126,79.815C93.042,79.672 93.08,79.52 93.222,79.433C93.351,79.353 93.402,79.233 93.335,79.166C93.269,79.099 93.093,79.145 92.944,79.268C92.717,79.457 92.692,79.447 92.785,79.206C92.846,79.047 92.809,78.92 92.702,78.92C92.595,78.92 92.509,79.025 92.509,79.154"/>
                <g transform="matrix(2.66112,0,0,2.66112,-65.0763,-282.739)">
                    <path d="M24.562,143.168L27.046,143.168C27.718,143.168 28.235,143.221 28.596,143.326C28.957,143.432 29.229,143.584 29.41,143.783C29.592,143.983 29.715,144.224 29.78,144.507C29.844,144.79 29.876,145.229 29.876,145.823L29.876,146.649C29.876,147.254 29.814,147.696 29.689,147.973C29.564,148.25 29.334,148.463 29,148.612C28.666,148.76 28.23,148.834 27.691,148.834L27.029,148.834L27.029,152.655L24.562,152.655L24.562,143.168ZM27.029,144.791L27.029,147.205C27.099,147.209 27.16,147.211 27.21,147.211C27.437,147.211 27.594,147.156 27.682,147.044C27.77,146.933 27.814,146.701 27.814,146.35L27.814,145.571C27.814,145.246 27.763,145.035 27.661,144.938C27.56,144.84 27.349,144.791 27.029,144.791Z" style="fill-rule:nonzero;"/>
                    <path d="M36.222,148.723C36.222,149.676 36.2,150.351 36.155,150.747C36.11,151.144 35.969,151.506 35.733,151.834C35.496,152.162 35.177,152.414 34.775,152.59C34.372,152.766 33.904,152.854 33.368,152.854C32.861,152.854 32.405,152.771 32,152.605C31.596,152.439 31.271,152.19 31.025,151.858C30.779,151.526 30.632,151.164 30.585,150.774C30.538,150.383 30.515,149.7 30.515,148.723L30.515,147.1C30.515,146.147 30.537,145.472 30.582,145.075C30.627,144.679 30.768,144.317 31.004,143.989C31.241,143.66 31.56,143.408 31.962,143.233C32.365,143.057 32.833,142.969 33.368,142.969C33.876,142.969 34.332,143.052 34.737,143.218C35.141,143.384 35.466,143.633 35.712,143.965C35.958,144.297 36.105,144.658 36.152,145.049C36.199,145.44 36.222,146.123 36.222,147.1L36.222,148.723ZM33.755,145.606C33.755,145.164 33.731,144.882 33.682,144.759C33.633,144.636 33.533,144.575 33.38,144.575C33.251,144.575 33.153,144.624 33.084,144.724C33.016,144.824 32.982,145.117 32.982,145.606L32.982,150.035C32.982,150.586 33.004,150.926 33.049,151.055C33.094,151.184 33.199,151.248 33.363,151.248C33.531,151.248 33.638,151.174 33.685,151.026C33.732,150.877 33.755,150.524 33.755,149.965L33.755,145.606Z" style="fill-rule:nonzero;"/>
                    <path d="M42.111,143.168L42.111,145.067L40.646,145.067L40.646,152.655L38.179,152.655L38.179,145.067L36.72,145.067L36.72,143.168L42.111,143.168Z" style="fill-rule:nonzero;"/>
                    <path d="M46.452,143.168L47.865,152.655L45.339,152.655L45.216,150.95L44.331,150.95L44.185,152.655L41.63,152.655L42.884,143.168L46.452,143.168ZM45.146,149.268C45.021,148.194 44.896,146.867 44.771,145.289C44.521,147.102 44.365,148.428 44.302,149.268L45.146,149.268Z" style="fill-rule:nonzero;"/>
                    <path d="M52.593,143.168L52.593,145.067L51.128,145.067L51.128,152.655L48.661,152.655L48.661,145.067L47.202,145.067L47.202,143.168L52.593,143.168Z" style="fill-rule:nonzero;"/>
                    <path d="M58.792,148.723C58.792,149.676 58.77,150.351 58.725,150.747C58.68,151.144 58.539,151.506 58.303,151.834C58.067,152.162 57.747,152.414 57.345,152.59C56.943,152.766 56.474,152.854 55.939,152.854C55.431,152.854 54.975,152.771 54.571,152.605C54.166,152.439 53.841,152.19 53.595,151.858C53.349,151.526 53.202,151.164 53.156,150.774C53.109,150.383 53.085,149.7 53.085,148.723L53.085,147.1C53.085,146.147 53.108,145.472 53.153,145.075C53.198,144.679 53.338,144.317 53.575,143.989C53.811,143.66 54.13,143.408 54.533,143.233C54.935,143.057 55.404,142.969 55.939,142.969C56.447,142.969 56.903,143.052 57.307,143.218C57.711,143.384 58.036,143.633 58.283,143.965C58.529,144.297 58.675,144.658 58.722,145.049C58.769,145.44 58.792,146.123 58.792,147.1L58.792,148.723ZM56.326,145.606C56.326,145.164 56.301,144.882 56.252,144.759C56.203,144.636 56.103,144.575 55.951,144.575C55.822,144.575 55.723,144.624 55.655,144.724C55.586,144.824 55.552,145.117 55.552,145.606L55.552,150.035C55.552,150.586 55.575,150.926 55.619,151.055C55.664,151.184 55.769,151.248 55.933,151.248C56.101,151.248 56.208,151.174 56.255,151.026C56.302,150.877 56.326,150.524 56.326,149.965L56.326,145.606Z" style="fill-rule:nonzero;"/>
                    <path d="M67.488,146.66L65.021,146.66L65.021,145.799C65.021,145.256 64.997,144.916 64.951,144.78C64.904,144.643 64.792,144.575 64.617,144.575C64.464,144.575 64.361,144.633 64.306,144.75C64.251,144.867 64.224,145.168 64.224,145.653L64.224,150.205C64.224,150.631 64.251,150.911 64.306,151.046C64.361,151.181 64.47,151.248 64.634,151.248C64.814,151.248 64.936,151.172 65,151.02C65.065,150.867 65.097,150.571 65.097,150.129L65.097,149.004L64.599,149.004L64.599,147.563L67.488,147.563L67.488,152.655L65.935,152.655L65.706,151.975C65.538,152.268 65.327,152.488 65.071,152.634C64.815,152.781 64.513,152.854 64.165,152.854C63.751,152.854 63.364,152.753 63.002,152.552C62.641,152.351 62.367,152.102 62.179,151.805C61.992,151.508 61.874,151.197 61.827,150.87C61.781,150.544 61.757,150.055 61.757,149.403L61.757,146.584C61.757,145.678 61.806,145.02 61.904,144.61C62.001,144.2 62.282,143.824 62.744,143.482C63.207,143.14 63.806,142.969 64.54,142.969C65.263,142.969 65.863,143.117 66.339,143.414C66.816,143.711 67.126,144.064 67.271,144.472C67.415,144.88 67.488,145.473 67.488,146.25L67.488,146.66Z" style="fill-rule:nonzero;"/>
                    <path d="M68.443,143.168L70.189,143.168C71.353,143.168 72.141,143.213 72.553,143.303C72.965,143.393 73.301,143.622 73.561,143.992C73.821,144.361 73.951,144.95 73.951,145.758C73.951,146.496 73.859,146.992 73.675,147.246C73.492,147.5 73.13,147.653 72.591,147.703C73.079,147.825 73.408,147.987 73.576,148.19C73.743,148.393 73.848,148.579 73.889,148.749C73.93,148.919 73.951,149.387 73.951,150.153L73.951,152.655L71.66,152.655L71.66,149.502C71.66,148.994 71.619,148.68 71.539,148.559C71.459,148.438 71.249,148.377 70.91,148.377L70.91,152.655L68.443,152.655L68.443,143.168ZM70.91,144.791L70.91,146.901C71.187,146.901 71.381,146.863 71.493,146.786C71.604,146.71 71.66,146.463 71.66,146.045L71.66,145.524C71.66,145.223 71.606,145.026 71.498,144.932C71.391,144.838 71.195,144.791 70.91,144.791Z" style="fill-rule:nonzero;"/>
                    <path d="M80.542,148.723C80.542,149.676 80.52,150.351 80.475,150.747C80.43,151.144 80.289,151.506 80.053,151.834C79.817,152.162 79.497,152.414 79.095,152.59C78.693,152.766 78.224,152.854 77.689,152.854C77.181,152.854 76.725,152.771 76.321,152.605C75.916,152.439 75.591,152.19 75.345,151.858C75.099,151.526 74.952,151.164 74.906,150.774C74.859,150.383 74.835,149.7 74.835,148.723L74.835,147.1C74.835,146.147 74.858,145.472 74.903,145.075C74.948,144.679 75.088,144.317 75.325,143.989C75.561,143.66 75.88,143.408 76.283,143.233C76.685,143.057 77.154,142.969 77.689,142.969C78.197,142.969 78.653,143.052 79.057,143.218C79.461,143.384 79.786,143.633 80.033,143.965C80.279,144.297 80.425,144.658 80.472,145.049C80.519,145.44 80.542,146.123 80.542,147.1L80.542,148.723ZM78.076,145.606C78.076,145.164 78.051,144.882 78.002,144.759C77.953,144.636 77.853,144.575 77.701,144.575C77.572,144.575 77.473,144.624 77.405,144.724C77.336,144.824 77.302,145.117 77.302,145.606L77.302,150.035C77.302,150.586 77.325,150.926 77.369,151.055C77.414,151.184 77.519,151.248 77.683,151.248C77.851,151.248 77.958,151.174 78.005,151.026C78.052,150.877 78.076,150.524 78.076,149.965L78.076,145.606Z" style="fill-rule:nonzero;"/>
                    <path d="M90.743,143.168L89.648,152.655L86.566,152.655C86.285,151.198 86.036,149.541 85.822,147.686C85.724,148.479 85.495,150.135 85.136,152.655L82.072,152.655L80.97,143.168L83.367,143.168L83.618,146.479L83.876,149.672C83.966,148.02 84.193,145.852 84.556,143.168L87.122,143.168C87.158,143.446 87.247,144.489 87.392,146.297L87.661,149.901C87.798,147.608 88.027,145.364 88.347,143.168L90.743,143.168Z" style="fill-rule:nonzero;"/>
                    <path d="M91.236,143.168L95.349,143.168L95.349,145.067L93.702,145.067L93.702,146.866L95.243,146.866L95.243,148.67L93.702,148.67L93.702,150.756L95.513,150.756L95.513,152.655L91.236,152.655L91.236,143.168Z" style="fill-rule:nonzero;"/>
                    <path d="M96.222,143.168L97.968,143.168C99.132,143.168 99.92,143.213 100.332,143.303C100.744,143.393 101.08,143.622 101.34,143.992C101.6,144.361 101.73,144.95 101.73,145.758C101.73,146.496 101.638,146.992 101.454,147.246C101.271,147.5 100.91,147.653 100.37,147.703C100.859,147.825 101.187,147.987 101.355,148.19C101.523,148.393 101.627,148.579 101.668,148.749C101.709,148.919 101.73,149.387 101.73,150.153L101.73,152.655L99.439,152.655L99.439,149.502C99.439,148.994 99.399,148.68 99.319,148.559C99.239,148.438 99.029,148.377 98.689,148.377L98.689,152.655L96.222,152.655L96.222,143.168ZM98.689,144.791L98.689,146.901C98.966,146.901 99.16,146.863 99.272,146.786C99.383,146.71 99.439,146.463 99.439,146.045L99.439,145.524C99.439,145.223 99.385,145.026 99.278,144.932C99.17,144.838 98.974,144.791 98.689,144.791Z" style="fill-rule:nonzero;"/>
                    <path d="M107.911,146.039L105.62,146.039L105.62,145.336C105.62,145.008 105.591,144.799 105.533,144.709C105.474,144.619 105.376,144.575 105.24,144.575C105.091,144.575 104.979,144.635 104.903,144.756C104.827,144.877 104.788,145.061 104.788,145.307C104.788,145.623 104.831,145.862 104.917,146.022C104.999,146.182 105.232,146.375 105.615,146.602C106.712,147.254 107.404,147.789 107.689,148.207C107.974,148.625 108.117,149.299 108.117,150.229C108.117,150.905 108.037,151.403 107.879,151.723C107.721,152.043 107.415,152.312 106.962,152.529C106.509,152.745 105.982,152.854 105.38,152.854C104.72,152.854 104.157,152.729 103.69,152.479C103.223,152.229 102.917,151.91 102.773,151.524C102.628,151.137 102.556,150.588 102.556,149.877L102.556,149.256L104.847,149.256L104.847,150.41C104.847,150.766 104.879,150.994 104.944,151.096C105.008,151.198 105.122,151.248 105.286,151.248C105.451,151.248 105.573,151.184 105.653,151.055C105.733,150.926 105.773,150.735 105.773,150.481C105.773,149.922 105.697,149.557 105.544,149.385C105.388,149.213 105.003,148.926 104.39,148.524C103.777,148.117 103.37,147.823 103.171,147.639C102.972,147.455 102.807,147.201 102.676,146.877C102.545,146.553 102.48,146.139 102.48,145.635C102.48,144.908 102.573,144.377 102.758,144.041C102.944,143.705 103.243,143.443 103.658,143.253C104.072,143.064 104.572,142.969 105.158,142.969C105.798,142.969 106.344,143.073 106.795,143.28C107.246,143.487 107.545,143.747 107.692,144.062C107.838,144.376 107.911,144.91 107.911,145.664L107.911,146.039Z" style="fill-rule:nonzero;"/>
                    <path d="M116.642,148.723C116.642,149.676 116.619,150.351 116.575,150.747C116.53,151.144 116.389,151.506 116.153,151.834C115.916,152.162 115.597,152.414 115.195,152.59C114.792,152.766 114.324,152.854 113.788,152.854C113.281,152.854 112.825,152.771 112.42,152.605C112.016,152.439 111.691,152.19 111.445,151.858C111.199,151.526 111.052,151.164 111.005,150.774C110.958,150.383 110.935,149.7 110.935,148.723L110.935,147.1C110.935,146.147 110.957,145.472 111.002,145.075C111.047,144.679 111.188,144.317 111.424,143.989C111.66,143.66 111.98,143.408 112.382,143.233C112.785,143.057 113.253,142.969 113.788,142.969C114.296,142.969 114.752,143.052 115.157,143.218C115.561,143.384 115.886,143.633 116.132,143.965C116.378,144.297 116.525,144.658 116.572,145.049C116.618,145.44 116.642,146.123 116.642,147.1L116.642,148.723ZM114.175,145.606C114.175,145.164 114.151,144.882 114.102,144.759C114.053,144.636 113.952,144.575 113.8,144.575C113.671,144.575 113.573,144.624 113.504,144.724C113.436,144.824 113.402,145.117 113.402,145.606L113.402,150.035C113.402,150.586 113.424,150.926 113.469,151.055C113.514,151.184 113.618,151.248 113.783,151.248C113.951,151.248 114.058,151.174 114.105,151.026C114.152,150.877 114.175,150.524 114.175,149.965L114.175,145.606Z" style="fill-rule:nonzero;"/>
                    <path d="M117.562,143.168L121.74,143.168L121.74,145.067L120.029,145.067L120.029,146.866L121.552,146.866L121.552,148.67L120.029,148.67L120.029,152.655L117.562,152.655L117.562,143.168Z" style="fill-rule:nonzero;"/>
                    <path d="M128.712,143.168L130.124,152.655L127.599,152.655L127.476,150.95L126.591,150.95L126.445,152.655L123.89,152.655L125.144,143.168L128.712,143.168ZM127.406,149.268C127.281,148.194 127.156,146.867 127.031,145.289C126.781,147.102 126.624,148.428 126.562,149.268L127.406,149.268Z" style="fill-rule:nonzero;"/>
                    <path d="M133.013,143.168L133.013,150.756L134.513,150.756L134.513,152.655L130.546,152.655L130.546,143.168L133.013,143.168Z" style="fill-rule:nonzero;"/>
                    <path d="M135.111,143.168L137.572,143.168C138.349,143.168 138.938,143.229 139.338,143.35C139.739,143.471 140.062,143.716 140.308,144.085C140.554,144.454 140.677,145.049 140.677,145.869C140.677,146.424 140.59,146.811 140.416,147.03C140.243,147.248 139.9,147.416 139.388,147.533C139.958,147.662 140.345,147.876 140.548,148.175C140.751,148.474 140.853,148.932 140.853,149.549L140.853,150.428C140.853,151.069 140.78,151.543 140.633,151.852C140.487,152.16 140.253,152.371 139.933,152.485C139.613,152.598 138.956,152.655 137.964,152.655L135.111,152.655L135.111,143.168ZM137.577,144.791L137.577,146.901C137.683,146.897 137.765,146.895 137.824,146.895C138.066,146.895 138.22,146.835 138.286,146.716C138.353,146.597 138.386,146.256 138.386,145.694C138.386,145.397 138.359,145.189 138.304,145.07C138.249,144.95 138.178,144.875 138.09,144.844C138.002,144.813 137.831,144.795 137.577,144.791ZM137.577,148.377L137.577,151.032C137.925,151.02 138.147,150.965 138.243,150.867C138.338,150.77 138.386,150.53 138.386,150.147L138.386,149.262C138.386,148.856 138.343,148.61 138.257,148.524C138.171,148.438 137.945,148.389 137.577,148.377Z" style="fill-rule:nonzero;"/>
                    <path d="M141.738,143.168L145.851,143.168L145.851,145.067L144.204,145.067L144.204,146.866L145.745,146.866L145.745,148.67L144.204,148.67L144.204,150.756L146.015,150.756L146.015,152.655L141.738,152.655L141.738,143.168Z" style="fill-rule:nonzero;"/>
                    <path d="M146.724,143.168L148.47,143.168C149.634,143.168 150.422,143.213 150.834,143.303C151.246,143.393 151.582,143.622 151.842,143.992C152.102,144.361 152.232,144.95 152.232,145.758C152.232,146.496 152.14,146.992 151.956,147.246C151.773,147.5 151.411,147.653 150.872,147.703C151.361,147.825 151.689,147.987 151.857,148.19C152.025,148.393 152.129,148.579 152.17,148.749C152.211,148.919 152.232,149.387 152.232,150.153L152.232,152.655L149.941,152.655L149.941,149.502C149.941,148.994 149.901,148.68 149.821,148.559C149.741,148.438 149.531,148.377 149.191,148.377L149.191,152.655L146.724,152.655L146.724,143.168ZM149.191,144.791L149.191,146.901C149.468,146.901 149.662,146.863 149.774,146.786C149.885,146.71 149.941,146.463 149.941,146.045L149.941,145.524C149.941,145.223 149.887,145.026 149.78,144.932C149.672,144.838 149.476,144.791 149.191,144.791Z" style="fill-rule:nonzero;"/>
                    <path d="M158.156,143.168L158.156,145.067L156.691,145.067L156.691,152.655L154.224,152.655L154.224,145.067L152.765,145.067L152.765,143.168L158.156,143.168Z" style="fill-rule:nonzero;"/>
                    <path d="M162.497,143.168L163.91,152.655L161.384,152.655L161.261,150.95L160.376,150.95L160.23,152.655L157.675,152.655L158.929,143.168L162.497,143.168ZM161.191,149.268C161.066,148.194 160.941,146.867 160.816,145.289C160.566,147.102 160.41,148.428 160.347,149.268L161.191,149.268Z" style="fill-rule:nonzero;"/>
                </g>
            </g>
        </g>
    </g>
</svg>
