<?xml version="1.0" encoding="UTF-8" standalone="no"?>
<!DOCTYPE svg PUBLIC "-//W3C//DTD SVG 1.1//EN" "http://www.w3.org/Graphics/SVG/1.1/DTD/svg11.dtd">
<svg width="100%" height="100%" viewBox="0 0 400 115" version="1.1" xmlns="http://www.w3.org/2000/svg" xmlns:xlink="http://www.w3.org/1999/xlink" xml:space="preserve" xmlns:serif="http://www.serif.com/" style="fill-rule:evenodd;clip-rule:evenodd;stroke-linejoin:round;stroke-miterlimit:2;">
    <g id="svgg">
        <path id="path0" d="M100.5,67.667C100.605,67.667 100.667,68.778 100.667,70.667C100.667,72.556 100.605,73.667 100.5,73.667C100.405,73.667 100.333,74.167 100.333,74.833C100.333,75.475 100.269,76 100.191,76C100.112,76 99.997,76.615 99.934,77.366C99.871,78.117 99.758,78.811 99.681,78.908C99.604,79.004 99.5,79.308 99.448,79.583C99.249,80.637 99.116,81.091 98.938,81.314C98.838,81.441 98.748,81.629 98.739,81.731C98.694,82.248 98.441,83 98.313,83C98.232,83 98.167,83.115 98.167,83.255C98.167,83.581 97.045,85.953 96.826,86.088C96.736,86.144 96.699,86.251 96.745,86.326C96.792,86.401 96.718,86.555 96.581,86.668C96.445,86.781 96.333,86.968 96.333,87.083C96.333,87.198 96.221,87.386 96.083,87.5C95.946,87.614 95.833,87.848 95.833,88.02C95.833,88.193 95.767,88.333 95.687,88.333C95.606,88.333 95.447,88.558 95.333,88.833C95.219,89.108 95.069,89.333 95,89.333C94.931,89.333 94.781,89.558 94.667,89.833C94.553,90.108 94.399,90.333 94.324,90.333C94.25,90.333 94.145,90.465 94.091,90.625C94.037,90.785 93.695,91.242 93.33,91.639C92.965,92.037 92.667,92.424 92.667,92.5C92.667,92.752 88.001,97.333 87.744,97.333C87.693,97.333 87.477,97.502 87.263,97.708C86.663,98.289 86.176,98.667 86.03,98.667C85.956,98.667 85.751,98.798 85.573,98.958C85.395,99.119 85.044,99.356 84.792,99.486C84.54,99.617 84.333,99.785 84.333,99.861C84.333,99.938 84.221,100 84.083,100C83.946,100 83.833,100.075 83.833,100.167C83.833,100.258 83.697,100.333 83.531,100.333C83.365,100.333 83.084,100.465 82.906,100.627C82.546,100.954 79.849,102.337 79.575,102.335C79.303,102.333 78.503,102.735 78.501,102.875C78.501,102.944 78.275,103 78,103C77.725,103 77.5,103.075 77.5,103.167C77.5,103.258 77.354,103.333 77.177,103.333C76.999,103.333 76.807,103.408 76.75,103.5C76.693,103.592 76.389,103.667 76.073,103.667C75.758,103.667 75.5,103.742 75.5,103.833C75.5,103.925 75.279,104 75.01,104C74.74,104 74.473,104.075 74.417,104.167C74.36,104.258 74.068,104.333 73.768,104.333C73.468,104.333 73.166,104.39 73.097,104.458C72.947,104.608 72.879,104.619 71.907,104.646C71.489,104.657 71.186,104.729 71.233,104.806C71.281,104.883 70.854,104.962 70.285,104.983C69.716,105.003 69.179,105.09 69.092,105.176C69.005,105.263 68.465,105.333 67.893,105.333C67.321,105.333 66.804,105.413 66.743,105.511C66.646,105.668 64.722,105.684 63.667,105.583C63.85,105.606 64.112,105.634 64.25,105.646C64.387,105.657 64.5,105.723 64.499,105.792C64.498,105.986 63.034,106.023 62.915,105.831C62.973,105.924 62.867,106 62.677,106C62.462,106 62.345,105.902 62.346,105.724C62.313,105.776 62.278,105.841 62.24,105.917C62.105,106.192 62.031,106.285 62.076,106.124C62.149,105.859 62.122,105.855 61.787,106.074C61.583,106.206 61.082,106.31 60.673,106.304C60.263,106.298 59.902,106.377 59.868,106.48C59.83,106.594 59.356,106.667 58.653,106.667C57.995,106.667 57.5,106.738 57.5,106.833C57.5,106.929 57,107 56.333,107C55.667,107 55.167,107.071 55.167,107.167C55.167,107.262 54.667,107.333 54,107.333C53.333,107.333 52.833,107.405 52.833,107.5C52.833,107.595 52.333,107.667 51.667,107.667C51,107.667 50.5,107.738 50.5,107.833C50.5,107.928 50.003,108 49.343,108C48.707,108 48.14,108.075 48.083,108.167C48.027,108.258 47.502,108.333 46.917,108.333C46.332,108.333 45.807,108.408 45.75,108.5C45.693,108.592 45.168,108.667 44.583,108.667C43.998,108.667 43.473,108.742 43.417,108.833C43.36,108.925 42.831,109 42.24,109C41.636,109 41.167,109.073 41.167,109.167C41.167,109.262 40.667,109.333 40,109.333C39.333,109.333 38.833,109.405 38.833,109.5C38.833,109.595 38.333,109.667 37.667,109.667C37,109.667 36.5,109.738 36.5,109.833C36.5,109.929 36,110 35.333,110C34.667,110 34.167,110.071 34.167,110.167C34.167,110.262 33.667,110.333 33,110.333C32.333,110.333 31.833,110.405 31.833,110.5C31.833,110.595 31.333,110.667 30.667,110.667C30,110.667 29.5,110.738 29.5,110.833C29.5,110.929 29,111 28.333,111C27.667,111 27.167,111.071 27.167,111.167C27.167,111.262 26.667,111.333 26,111.333C25.333,111.333 24.833,111.405 24.833,111.5C24.833,111.595 24.333,111.667 23.667,111.667C23,111.667 22.5,111.738 22.5,111.833C22.5,111.929 22,112 21.333,112C20.667,112 20.167,112.071 20.167,112.167C20.167,112.262 19.667,112.333 19,112.333C18.333,112.333 17.833,112.405 17.833,112.5C17.833,112.595 17.333,112.667 16.667,112.667C16,112.667 15.5,112.738 15.5,112.833C15.5,112.929 15,113 14.333,113C13.667,113 13.167,113.071 13.167,113.167C13.167,113.262 12.667,113.333 12,113.333C11.333,113.333 10.833,113.405 10.833,113.5C10.833,113.595 10.333,113.667 9.667,113.667C9,113.667 8.5,113.738 8.5,113.833C8.5,113.929 8,114 7.333,114C6.667,114 6.167,114.071 6.167,114.167C6.167,114.262 5.671,114.333 5.014,114.333C4.38,114.333 3.836,114.398 3.806,114.476C3.775,114.555 2.904,114.671 1.87,114.735L-0.01,114.852L0.037,76.731C0.074,46.416 0.126,38.597 0.292,38.542C0.421,38.499 0.5,38.16 0.5,37.653C0.5,37.202 0.575,36.833 0.667,36.833C0.758,36.833 0.833,36.533 0.833,36.167C0.833,35.8 0.908,35.5 1,35.5C1.092,35.5 1.167,35.275 1.167,35C1.167,34.725 1.242,34.5 1.333,34.5C1.425,34.5 1.5,34.275 1.5,34C1.5,33.725 1.575,33.5 1.667,33.5C1.758,33.5 1.833,33.275 1.833,33C1.833,32.725 1.908,32.5 2,32.5C2.092,32.5 2.167,32.275 2.167,32C2.167,31.725 2.242,31.5 2.333,31.5C2.425,31.5 2.5,31.35 2.5,31.167C2.5,30.983 2.575,30.833 2.667,30.833C2.758,30.833 2.833,30.683 2.833,30.5C2.833,30.317 2.908,30.167 3,30.167C3.092,30.167 3.167,30.017 3.167,29.833C3.167,29.65 3.242,29.5 3.333,29.5C3.425,29.5 3.5,29.35 3.5,29.167C3.5,28.983 3.575,28.833 3.667,28.833C3.758,28.833 3.833,28.683 3.833,28.5C3.833,28.317 3.908,28.167 4,28.167C4.092,28.167 4.167,28.017 4.167,27.833C4.167,27.65 4.242,27.5 4.333,27.5C4.425,27.5 4.5,27.35 4.5,27.167C4.5,26.983 4.575,26.833 4.667,26.833C4.758,26.833 4.833,26.7 4.833,26.537C4.833,26.374 4.983,26.132 5.167,26C5.35,25.868 5.5,25.643 5.5,25.5C5.5,25.357 5.65,25.132 5.833,25C6.017,24.868 6.167,24.656 6.167,24.53C6.167,24.404 6.392,24.09 6.667,23.833C6.942,23.576 7.167,23.279 7.167,23.172C7.167,23.066 7.542,22.613 8,22.167C8.458,21.72 8.833,21.274 8.833,21.175C8.833,20.94 11.273,18.5 11.508,18.5C11.607,18.5 12.054,18.125 12.5,17.667C12.946,17.208 13.399,16.833 13.506,16.833C13.612,16.833 13.91,16.608 14.167,16.333C14.424,16.058 14.737,15.833 14.863,15.833C14.99,15.833 15.201,15.683 15.333,15.5C15.465,15.317 15.69,15.167 15.833,15.167C15.976,15.167 16.201,15.017 16.333,14.833C16.465,14.65 16.707,14.5 16.87,14.5C17.033,14.5 17.167,14.425 17.167,14.333C17.167,14.242 17.317,14.167 17.5,14.167C17.683,14.167 17.833,14.103 17.833,14.024C17.833,13.835 20.502,12.497 20.875,12.499C21.035,12.499 21.167,12.425 21.167,12.333C21.167,12.242 21.317,12.167 21.5,12.167C21.683,12.167 21.833,12.092 21.833,12C21.833,11.908 21.979,11.833 22.157,11.833C22.335,11.833 22.527,11.758 22.583,11.667C22.64,11.575 22.869,11.5 23.093,11.5C23.317,11.5 23.5,11.425 23.5,11.333C23.5,11.242 23.725,11.167 24,11.167C24.275,11.167 24.5,11.092 24.5,11C24.5,10.908 24.8,10.833 25.167,10.833C25.533,10.833 25.833,10.758 25.833,10.667C25.833,10.575 26.058,10.5 26.333,10.5C26.608,10.5 26.833,10.425 26.833,10.333C26.833,10.242 27.208,10.167 27.667,10.167C28.125,10.167 28.5,10.092 28.5,10C28.5,9.907 28.944,9.833 29.5,9.833C30.056,9.833 30.5,9.759 30.5,9.667C30.5,9.571 31,9.5 31.667,9.5C32.333,9.5 32.833,9.429 32.833,9.333C32.833,9.238 33.333,9.167 34,9.167C34.667,9.167 35.167,9.095 35.167,9C35.167,8.905 35.667,8.833 36.333,8.833C37,8.833 37.5,8.762 37.5,8.667C37.5,8.571 38,8.5 38.667,8.5C39.333,8.5 39.833,8.429 39.833,8.333C39.833,8.238 40.333,8.167 41,8.167C41.667,8.167 42.167,8.095 42.167,8C42.167,7.905 42.667,7.833 43.333,7.833C44,7.833 44.5,7.762 44.5,7.667C44.5,7.571 45,7.5 45.667,7.5C46.333,7.5 46.833,7.429 46.833,7.333C46.833,7.238 47.333,7.167 48,7.167C48.667,7.167 49.167,7.095 49.167,7C49.167,6.905 49.667,6.833 50.333,6.833C51,6.833 51.5,6.762 51.5,6.667C51.5,6.571 52,6.5 52.667,6.5C53.333,6.5 53.833,6.429 53.833,6.333C53.833,6.238 54.333,6.167 55,6.167C55.667,6.167 56.167,6.095 56.167,6C56.167,5.905 56.667,5.833 57.333,5.833C58,5.833 58.5,5.762 58.5,5.667C58.5,5.571 59,5.5 59.667,5.5C60.333,5.5 60.833,5.429 60.833,5.333C60.833,5.238 61.333,5.167 62,5.167C62.667,5.167 63.167,5.095 63.167,5C63.167,4.905 63.667,4.833 64.333,4.833C65,4.833 65.5,4.762 65.5,4.667C65.5,4.571 66,4.5 66.667,4.5C67.333,4.5 67.833,4.429 67.833,4.333C67.833,4.238 68.333,4.167 69,4.167C69.667,4.167 70.167,4.095 70.167,4C70.167,3.905 70.667,3.833 71.333,3.833C72,3.833 72.5,3.762 72.5,3.667C72.5,3.571 73,3.5 73.667,3.5C74.333,3.5 74.833,3.429 74.833,3.333C74.833,3.238 75.333,3.167 76,3.167C76.667,3.167 77.167,3.095 77.167,3C77.167,2.905 77.667,2.833 78.333,2.833C79,2.833 79.5,2.762 79.5,2.667C79.5,2.571 80,2.5 80.667,2.5C81.333,2.5 81.833,2.429 81.833,2.333C81.833,2.238 82.333,2.167 83,2.167C83.667,2.167 84.167,2.095 84.167,2C84.167,1.905 84.667,1.833 85.333,1.833C86,1.833 86.5,1.762 86.5,1.667C86.5,1.571 87,1.5 87.667,1.5C88.333,1.5 88.833,1.429 88.833,1.333C88.833,1.238 89.333,1.167 90,1.167C90.667,1.167 91.167,1.095 91.167,1C91.167,0.905 91.667,0.833 92.333,0.833C93,0.833 93.5,0.762 93.5,0.667C93.5,0.571 94,0.5 94.667,0.5C95.308,0.5 95.833,0.428 95.833,0.341C95.833,0.253 96.377,0.155 97.042,0.124C97.706,0.092 98.794,0.051 99.458,0.033L100.667,0L100.667,33.833C100.667,56.278 100.611,67.667 100.5,67.667ZM62.436,105.607C62.439,105.613 62.441,105.619 62.444,105.626C62.461,105.669 62.487,105.704 62.515,105.728C62.502,105.704 62.494,105.673 62.492,105.635C62.49,105.585 62.469,105.578 62.436,105.607ZM63.321,105.541C63.209,105.523 63.12,105.502 63.063,105.48C62.996,105.454 62.948,105.428 62.921,105.407C62.837,105.451 62.879,105.488 63.042,105.508C63.116,105.516 63.216,105.528 63.321,105.541ZM63.07,104.538C63.144,103.062 63.167,99.314 63.167,91.333C63.167,99.268 63.144,103.029 63.07,104.538ZM57.542,34.995C58.206,34.9 59.339,34.754 60.06,34.671C60.395,34.632 60.711,34.586 60.959,34.543C60.599,34.567 60.3,34.595 60.083,34.627C59.35,34.735 58.206,34.9 57.542,34.995ZM73.362,35.262C74.275,35.487 75.199,35.748 76.083,36.033C76.734,36.242 77.052,36.35 77.458,36.508C76.469,36.091 74.972,35.642 73.362,35.262ZM78.702,37.017C79.241,37.245 79.717,37.455 80.151,37.658C79.688,37.44 79.202,37.225 78.702,37.017Z"/>
        <path id="path2" d="M192.111,14.944C191.924,15.132 191.979,34.167 192.167,34.167C192.277,34.167 192.333,41.639 192.333,56.25L192.333,78.333L205.667,78.333L205.667,57.583C205.667,43.861 205.723,36.833 205.833,36.833C205.925,36.833 206,37.133 206,37.5C206,37.867 206.075,38.167 206.167,38.167C206.258,38.167 206.333,38.467 206.333,38.833C206.333,39.2 206.408,39.5 206.5,39.5C206.592,39.5 206.667,39.8 206.667,40.167C206.667,40.533 206.742,40.833 206.833,40.833C206.925,40.833 207,41.133 207,41.5C207,41.867 207.075,42.167 207.167,42.167C207.258,42.167 207.333,42.467 207.333,42.833C207.333,43.2 207.408,43.5 207.5,43.5C207.592,43.5 207.667,43.8 207.667,44.167C207.667,44.533 207.742,44.833 207.833,44.833C207.925,44.833 208,45.091 208,45.407C208,45.722 208.075,46.027 208.167,46.083C208.258,46.14 208.333,46.44 208.333,46.75C208.333,47.06 208.408,47.36 208.5,47.417C208.592,47.473 208.667,47.773 208.667,48.083C208.667,48.393 208.742,48.693 208.833,48.75C208.925,48.807 209,49.107 209,49.417C209,49.727 209.075,50.027 209.167,50.083C209.258,50.14 209.333,50.44 209.333,50.75C209.333,51.06 209.408,51.36 209.5,51.417C209.592,51.473 209.667,51.773 209.667,52.083C209.667,52.393 209.742,52.693 209.833,52.75C209.925,52.807 210,53.107 210,53.417C210,53.727 210.075,54.027 210.167,54.083C210.258,54.14 210.333,54.444 210.333,54.76C210.333,55.075 210.408,55.333 210.5,55.333C210.592,55.333 210.667,55.633 210.667,56C210.667,56.367 210.742,56.667 210.833,56.667C210.925,56.667 211,56.967 211,57.333C211,57.7 211.075,58 211.167,58C211.258,58 211.333,58.3 211.333,58.667C211.333,59.033 211.408,59.333 211.5,59.333C211.592,59.333 211.667,59.633 211.667,60C211.667,60.367 211.742,60.667 211.833,60.667C211.925,60.667 212,60.967 212,61.333C212,61.7 212.075,62 212.167,62C212.258,62 212.333,62.3 212.333,62.667C212.333,63.033 212.408,63.333 212.5,63.333C212.592,63.333 212.667,63.633 212.667,64C212.667,64.367 212.742,64.667 212.833,64.667C212.925,64.667 213,64.967 213,65.333C213,65.7 213.075,66 213.167,66C213.258,66 213.333,66.3 213.333,66.667C213.333,67.033 213.408,67.333 213.5,67.333C213.592,67.333 213.667,67.633 213.667,68C213.667,68.367 213.742,68.667 213.833,68.667C213.925,68.667 214,68.967 214,69.333C214,69.7 214.075,70 214.167,70C214.258,70 214.333,70.225 214.333,70.5C214.333,70.775 214.408,71 214.5,71C214.592,71 214.667,71.3 214.667,71.667C214.667,72.033 214.742,72.333 214.833,72.333C214.925,72.333 215,72.633 215,73C215,73.367 215.075,73.667 215.167,73.667C215.258,73.667 215.333,73.967 215.333,74.333C215.333,74.7 215.408,75 215.5,75C215.592,75 215.667,75.3 215.667,75.667C215.667,76.033 215.742,76.333 215.833,76.333C215.925,76.333 216,76.633 216,77C216,77.367 216.075,77.667 216.167,77.667C216.258,77.667 216.333,77.817 216.333,78C216.333,78.328 216.444,78.333 223.667,78.333L231,78.333L231,77.833C231,77.558 231.075,77.333 231.167,77.333C231.258,77.333 231.333,77.033 231.333,76.667C231.333,76.3 231.408,76 231.5,76C231.592,76 231.667,75.7 231.667,75.333C231.667,74.967 231.742,74.667 231.833,74.667C231.925,74.667 232,74.367 232,74C232,73.633 232.075,73.333 232.167,73.333C232.258,73.333 232.333,73.033 232.333,72.667C232.333,72.3 232.408,72 232.5,72C232.592,72 232.667,71.7 232.667,71.333C232.667,70.967 232.742,70.667 232.833,70.667C232.925,70.667 233,70.367 233,70C233,69.633 233.075,69.333 233.167,69.333C233.258,69.333 233.333,69.033 233.333,68.667C233.333,68.3 233.408,68 233.5,68C233.592,68 233.667,67.7 233.667,67.333C233.667,66.967 233.742,66.667 233.833,66.667C233.925,66.667 234,66.367 234,66C234,65.633 234.075,65.333 234.167,65.333C234.258,65.333 234.333,65.033 234.333,64.667C234.333,64.3 234.408,64 234.5,64C234.592,64 234.667,63.7 234.667,63.333C234.667,62.967 234.742,62.667 234.833,62.667C234.925,62.667 235,62.367 235,62C235,61.633 235.075,61.333 235.167,61.333C235.258,61.333 235.333,61.033 235.333,60.667C235.333,60.3 235.408,60 235.5,60C235.592,60 235.667,59.7 235.667,59.333C235.667,58.967 235.742,58.667 235.833,58.667C235.925,58.667 236,58.367 236,58C236,57.633 236.075,57.333 236.167,57.333C236.258,57.333 236.333,57.075 236.333,56.76C236.333,56.444 236.408,56.14 236.5,56.083C236.592,56.027 236.667,55.727 236.667,55.417C236.667,55.107 236.742,54.807 236.833,54.75C236.925,54.693 237,54.393 237,54.083C237,53.773 237.075,53.473 237.167,53.417C237.258,53.36 237.333,53.06 237.333,52.75C237.333,52.44 237.408,52.14 237.5,52.083C237.592,52.027 237.667,51.727 237.667,51.417C237.667,51.107 237.742,50.807 237.833,50.75C237.925,50.693 238,50.393 238,50.083C238,49.773 238.075,49.473 238.167,49.417C238.258,49.36 238.333,49.06 238.333,48.75C238.333,48.44 238.408,48.14 238.5,48.083C238.592,48.027 238.667,47.727 238.667,47.417C238.667,47.107 238.742,46.807 238.833,46.75C238.925,46.693 239,46.393 239,46.083C239,45.773 239.075,45.473 239.167,45.417C239.258,45.36 239.333,45.06 239.333,44.75C239.333,44.44 239.408,44.14 239.5,44.083C239.592,44.027 239.667,43.727 239.667,43.417C239.667,43.107 239.742,42.807 239.833,42.75C239.925,42.693 240,42.393 240,42.083C240,41.773 240.075,41.473 240.167,41.417C240.258,41.36 240.333,41.06 240.333,40.75C240.333,40.44 240.408,40.14 240.5,40.083C240.592,40.027 240.667,39.727 240.667,39.417C240.667,39.107 240.742,38.807 240.833,38.75C240.925,38.693 241,38.441 241,38.19C241,37.692 241.342,36.837 241.542,36.835C241.61,36.834 241.667,44.446 241.667,53.75C241.667,64.917 241.723,70.667 241.833,70.667C241.94,70.667 242,72.056 242,74.5L242,78.333L254.333,78.333L254.333,14.833L234.333,14.833L234.333,15.5C234.333,15.867 234.258,16.167 234.167,16.167C234.075,16.167 234,16.467 234,16.833C234,17.2 233.925,17.5 233.833,17.5C233.742,17.5 233.667,17.8 233.667,18.167C233.667,18.533 233.592,18.833 233.5,18.833C233.408,18.833 233.333,19.058 233.333,19.333C233.333,19.608 233.258,19.833 233.167,19.833C233.075,19.833 233,20.133 233,20.5C233,20.867 232.925,21.167 232.833,21.167C232.742,21.167 232.667,21.467 232.667,21.833C232.667,22.2 232.592,22.5 232.5,22.5C232.408,22.5 232.333,22.725 232.333,23C232.333,23.275 232.258,23.5 232.167,23.5C232.075,23.5 232,23.8 232,24.167C232,24.533 231.925,24.833 231.833,24.833C231.742,24.833 231.667,25.133 231.667,25.5C231.667,25.867 231.592,26.167 231.5,26.167C231.408,26.167 231.333,26.392 231.333,26.667C231.333,26.942 231.258,27.167 231.167,27.167C231.075,27.167 231,27.467 231,27.833C231,28.2 230.925,28.5 230.833,28.5C230.742,28.5 230.667,28.8 230.667,29.167C230.667,29.533 230.592,29.833 230.5,29.833C230.408,29.833 230.333,30.133 230.333,30.5C230.333,30.867 230.258,31.167 230.167,31.167C230.075,31.167 230,31.392 230,31.667C230,31.942 229.925,32.167 229.833,32.167C229.742,32.167 229.667,32.467 229.667,32.833C229.667,33.2 229.592,33.5 229.5,33.5C229.408,33.5 229.333,33.8 229.333,34.167C229.333,34.533 229.258,34.833 229.167,34.833C229.075,34.833 229,35.058 229,35.333C229,35.608 228.925,35.833 228.833,35.833C228.742,35.833 228.667,36.133 228.667,36.5C228.667,36.867 228.592,37.167 228.5,37.167C228.408,37.167 228.333,37.467 228.333,37.833C228.333,38.2 228.258,38.5 228.167,38.5C228.075,38.5 228,38.8 228,39.167C228,39.533 227.925,39.833 227.833,39.833C227.742,39.833 227.667,40.058 227.667,40.333C227.667,40.608 227.592,40.833 227.5,40.833C227.408,40.833 227.333,41.133 227.333,41.5C227.333,41.867 227.258,42.167 227.167,42.167C227.075,42.167 227,42.467 227,42.833C227,43.2 226.925,43.5 226.833,43.5C226.742,43.5 226.667,43.725 226.667,44C226.667,44.275 226.592,44.5 226.5,44.5C226.408,44.5 226.333,44.8 226.333,45.167C226.333,45.533 226.258,45.833 226.167,45.833C226.075,45.833 226,46.133 226,46.5C226,46.867 225.925,47.167 225.833,47.167C225.742,47.167 225.667,47.392 225.667,47.667C225.667,47.942 225.592,48.167 225.5,48.167C225.408,48.167 225.333,48.467 225.333,48.833C225.333,49.2 225.258,49.5 225.167,49.5C225.075,49.5 225,49.8 225,50.167C225,50.533 224.925,50.833 224.833,50.833C224.742,50.833 224.667,51.133 224.667,51.5C224.667,51.867 224.592,52.167 224.5,52.167C224.408,52.167 224.333,52.392 224.333,52.667C224.333,52.942 224.258,53.167 224.167,53.167C224.075,53.167 224,53.467 224,53.833C224,54.2 223.925,54.5 223.833,54.5C223.742,54.5 223.667,54.8 223.667,55.167C223.667,55.533 223.624,55.833 223.571,55.833C223.293,55.833 223,55.285 223,54.762C223,54.435 222.925,54.167 222.833,54.167C222.742,54.167 222.667,53.942 222.667,53.667C222.667,53.392 222.592,53.167 222.5,53.167C222.408,53.167 222.333,52.867 222.333,52.5C222.333,52.133 222.258,51.833 222.167,51.833C222.075,51.833 222,51.533 222,51.167C222,50.8 221.925,50.5 221.833,50.5C221.742,50.5 221.667,50.2 221.667,49.833C221.667,49.467 221.592,49.167 221.5,49.167C221.408,49.167 221.333,48.867 221.333,48.5C221.333,48.133 221.258,47.833 221.167,47.833C221.075,47.833 221,47.533 221,47.167C221,46.8 220.925,46.5 220.833,46.5C220.742,46.5 220.667,46.275 220.667,46C220.667,45.725 220.592,45.5 220.5,45.5C220.408,45.5 220.333,45.2 220.333,44.833C220.333,44.467 220.258,44.167 220.167,44.167C220.075,44.167 220,43.867 220,43.5C220,43.133 219.925,42.833 219.833,42.833C219.742,42.833 219.667,42.533 219.667,42.167C219.667,41.8 219.592,41.5 219.5,41.5C219.408,41.5 219.333,41.2 219.333,40.833C219.333,40.467 219.258,40.167 219.167,40.167C219.075,40.167 219,39.867 219,39.5C219,39.133 218.925,38.833 218.833,38.833C218.742,38.833 218.667,38.608 218.667,38.333C218.667,38.058 218.592,37.833 218.5,37.833C218.408,37.833 218.333,37.533 218.333,37.167C218.333,36.8 218.258,36.5 218.167,36.5C218.075,36.5 218,36.2 218,35.833C218,35.467 217.925,35.167 217.833,35.167C217.742,35.167 217.667,34.867 217.667,34.5C217.667,34.133 217.592,33.833 217.5,33.833C217.408,33.833 217.333,33.533 217.333,33.167C217.333,32.8 217.258,32.5 217.167,32.5C217.075,32.5 217,32.275 217,32C217,31.725 216.925,31.5 216.833,31.5C216.742,31.5 216.667,31.2 216.667,30.833C216.667,30.467 216.592,30.167 216.5,30.167C216.408,30.167 216.333,29.867 216.333,29.5C216.333,29.133 216.258,28.833 216.167,28.833C216.075,28.833 216,28.533 216,28.167C216,27.8 215.925,27.5 215.833,27.5C215.742,27.5 215.667,27.2 215.667,26.833C215.667,26.467 215.592,26.167 215.5,26.167C215.408,26.167 215.333,25.867 215.333,25.5C215.333,25.133 215.258,24.833 215.167,24.833C215.075,24.833 215,24.608 215,24.333C215,24.058 214.925,23.833 214.833,23.833C214.742,23.833 214.667,23.533 214.667,23.167C214.667,22.8 214.592,22.5 214.5,22.5C214.408,22.5 214.333,22.2 214.333,21.833C214.333,21.467 214.258,21.167 214.167,21.167C214.075,21.167 214,20.867 214,20.5C214,20.133 213.925,19.833 213.833,19.833C213.742,19.833 213.667,19.533 213.667,19.167C213.667,18.8 213.592,18.5 213.5,18.5C213.408,18.5 213.333,18.2 213.333,17.833C213.333,17.467 213.258,17.167 213.167,17.167C213.075,17.167 213,16.942 213,16.667C213,16.392 212.925,16.167 212.833,16.167C212.742,16.167 212.667,15.867 212.667,15.5L212.667,14.833L202.444,14.833C196.822,14.833 192.172,14.883 192.111,14.944M147.333,15.333C147.333,15.425 146.958,15.5 146.5,15.5C146.042,15.5 145.667,15.575 145.667,15.667C145.667,15.758 145.367,15.833 145,15.833C144.633,15.833 144.333,15.908 144.333,16C144.333,16.092 144.108,16.167 143.833,16.167C143.558,16.167 143.333,16.242 143.333,16.333C143.333,16.425 143.104,16.5 142.823,16.5C142.526,16.5 142.357,16.569 142.417,16.667C142.473,16.758 142.405,16.833 142.265,16.833C142.125,16.833 141.743,16.983 141.417,17.167C141.09,17.35 140.709,17.5 140.568,17.5C140.428,17.5 140.36,17.575 140.417,17.667C140.473,17.758 140.403,17.833 140.26,17.833C140.117,17.833 140,17.908 140,18C140,18.092 139.902,18.167 139.781,18.167C139.661,18.167 139.402,18.317 139.205,18.5C139.008,18.683 138.727,18.833 138.58,18.833C138.434,18.833 138.36,18.908 138.417,19C138.473,19.092 138.437,19.167 138.337,19.167C138.111,19.167 134.77,22.544 134.698,22.845C134.669,22.965 134.519,23.179 134.365,23.323C134.21,23.466 134.059,23.696 134.029,23.833C133.999,23.971 133.906,24.108 133.821,24.139C133.736,24.169 133.667,24.322 133.667,24.477C133.667,24.633 133.521,24.865 133.342,24.994C133.164,25.122 133.052,25.283 133.094,25.35C133.136,25.418 133.075,25.573 132.96,25.695C132.844,25.817 132.724,26.104 132.692,26.333C132.661,26.563 132.567,26.775 132.484,26.806C132.401,26.836 132.333,27.005 132.333,27.181C132.333,27.356 132.274,27.5 132.201,27.5C132.128,27.5 132.05,27.781 132.027,28.125C132.004,28.469 131.914,28.775 131.826,28.806C131.738,28.836 131.667,29.155 131.667,29.514C131.667,29.873 131.592,30.167 131.5,30.167C131.405,30.167 131.333,30.667 131.333,31.333C131.333,32 131.262,32.5 131.167,32.5C131.067,32.5 131,33.136 131,34.073C131,34.943 131.075,35.693 131.167,35.75C131.258,35.807 131.333,36.332 131.333,36.917C131.333,37.502 131.408,38.027 131.5,38.083C131.592,38.14 131.667,38.44 131.667,38.75C131.667,39.06 131.742,39.36 131.833,39.417C131.925,39.473 132,39.738 132,40.005C132,40.272 132.15,40.757 132.333,41.083C132.517,41.41 132.667,41.787 132.667,41.922C132.667,42.056 132.742,42.167 132.833,42.167C132.925,42.167 133,42.317 133,42.5C133,42.683 133.075,42.833 133.167,42.833C133.258,42.833 133.333,42.983 133.333,43.167C133.333,43.35 133.391,43.5 133.461,43.5C133.531,43.5 133.713,43.781 133.865,44.125C134.018,44.469 134.336,44.953 134.571,45.201C134.807,45.449 135,45.713 135,45.787C135,46.067 138.454,49.303 139.335,49.848C139.84,50.161 140.402,50.511 140.585,50.626C140.767,50.741 141.254,50.995 141.667,51.191C142.079,51.386 142.705,51.686 143.057,51.856C143.41,52.027 143.837,52.167 144.006,52.167C144.175,52.167 144.36,52.242 144.417,52.333C144.473,52.425 144.773,52.5 145.083,52.5C145.393,52.5 145.693,52.575 145.75,52.667C145.807,52.758 146.257,52.833 146.75,52.833C147.243,52.833 147.693,52.908 147.75,53C147.816,53.107 150.665,53.167 155.75,53.167C160.835,53.167 163.684,53.226 163.75,53.333C163.807,53.425 163.99,53.5 164.157,53.5C165.081,53.5 167.021,55.024 167.513,56.137C167.642,56.428 167.805,56.667 167.874,56.667C167.943,56.667 168,56.817 168,57C168,57.183 168.075,57.333 168.167,57.333C168.258,57.333 168.333,57.633 168.333,58C168.333,58.367 168.408,58.667 168.5,58.667C168.592,58.667 168.667,58.887 168.667,59.157C168.667,59.426 168.592,59.693 168.5,59.75C168.408,59.807 168.333,60.107 168.333,60.417C168.333,60.727 168.258,61.027 168.167,61.083C168.075,61.14 168,61.332 168,61.51C168,61.688 167.925,61.833 167.833,61.833C167.742,61.833 167.667,61.932 167.667,62.052C167.667,62.172 167.517,62.431 167.333,62.628C167.15,62.825 167,63.03 167,63.084C167,63.258 166.263,63.91 165.792,64.153C165.54,64.283 165.333,64.452 165.333,64.528C165.333,64.604 165.183,64.667 165,64.667C164.817,64.667 164.667,64.742 164.667,64.833C164.667,64.925 164.474,65 164.239,65C164.004,65 163.673,65.074 163.504,65.164C163.311,65.268 157.284,65.345 147.14,65.373L131.083,65.417L131.04,71.875L130.996,78.333L148.165,78.333C159.499,78.333 165.333,78.277 165.333,78.167C165.333,78.075 165.708,78 166.167,78C166.625,78 167,77.925 167,77.833C167,77.742 167.3,77.667 167.667,77.667C168.033,77.667 168.333,77.592 168.333,77.5C168.333,77.408 168.483,77.333 168.667,77.333C168.85,77.333 169,77.258 169,77.167C169,77.075 169.225,77 169.5,77C169.775,77 170,76.925 170,76.833C170,76.742 170.15,76.667 170.333,76.667C170.517,76.667 170.667,76.592 170.667,76.5C170.667,76.408 170.817,76.333 171,76.333C171.183,76.333 171.333,76.258 171.333,76.167C171.333,76.075 171.483,76 171.667,76C171.85,76 172,75.925 172,75.833C172,75.742 172.133,75.667 172.297,75.667C172.46,75.667 172.701,75.517 172.833,75.333C172.965,75.15 173.175,75 173.3,75C173.424,75 173.814,74.7 174.167,74.333C174.519,73.967 174.89,73.667 174.991,73.667C175.231,73.667 176.667,72.231 176.667,71.991C176.667,71.89 176.967,71.519 177.333,71.167C177.7,70.814 178,70.424 178,70.3C178,70.175 178.15,69.965 178.333,69.833C178.517,69.701 178.667,69.46 178.667,69.297C178.667,69.133 178.742,69 178.833,69C178.925,69 179,68.85 179,68.667C179,68.483 179.075,68.333 179.167,68.333C179.258,68.333 179.333,68.183 179.333,68C179.333,67.817 179.408,67.667 179.5,67.667C179.592,67.667 179.667,67.517 179.667,67.333C179.667,67.15 179.742,67 179.833,67C179.925,67 180,66.775 180,66.5C180,66.225 180.075,66 180.167,66C180.258,66 180.333,65.85 180.333,65.667C180.333,65.483 180.408,65.333 180.5,65.333C180.592,65.333 180.667,65.033 180.667,64.667C180.667,64.3 180.742,64 180.833,64C180.925,64 181,63.625 181,63.167C181,62.708 181.075,62.333 181.167,62.333C181.271,62.333 181.333,61.25 181.333,59.417C181.333,57.583 181.271,56.5 181.167,56.5C181.075,56.5 181,56.125 181,55.667C181,55.208 180.925,54.833 180.833,54.833C180.742,54.833 180.667,54.533 180.667,54.167C180.667,53.8 180.592,53.5 180.5,53.5C180.408,53.5 180.333,53.275 180.333,53C180.333,52.725 180.258,52.5 180.167,52.5C180.075,52.5 180,52.35 180,52.167C180,51.983 179.925,51.833 179.833,51.833C179.742,51.833 179.667,51.608 179.667,51.333C179.667,51.058 179.592,50.833 179.5,50.833C179.408,50.833 179.333,50.7 179.333,50.537C179.333,50.374 179.183,50.132 179,50C178.817,49.868 178.667,49.626 178.667,49.463C178.667,49.3 178.592,49.167 178.5,49.167C178.408,49.167 178.333,49.047 178.333,48.9C178.333,48.754 178.108,48.424 177.833,48.167C177.558,47.91 177.333,47.616 177.333,47.514C177.333,47.272 174.561,44.5 174.319,44.5C174.217,44.5 173.924,44.275 173.667,44C173.41,43.725 173.096,43.5 172.97,43.5C172.844,43.5 172.632,43.35 172.5,43.167C172.368,42.983 172.126,42.833 171.963,42.833C171.8,42.833 171.667,42.758 171.667,42.667C171.667,42.575 171.517,42.5 171.333,42.5C171.15,42.5 171,42.425 171,42.333C171,42.242 170.85,42.167 170.667,42.167C170.483,42.167 170.333,42.092 170.333,42C170.333,41.908 170.183,41.833 170,41.833C169.817,41.833 169.667,41.758 169.667,41.667C169.667,41.575 169.442,41.5 169.167,41.5C168.892,41.5 168.667,41.425 168.667,41.333C168.667,41.242 168.442,41.167 168.167,41.167C167.892,41.167 167.667,41.092 167.667,41C167.667,40.908 167.292,40.833 166.833,40.833C166.375,40.833 166,40.758 166,40.667C166,40.558 163.278,40.5 158.167,40.5C153.056,40.5 150.333,40.442 150.333,40.333C150.333,40.242 149.958,40.167 149.5,40.167C149.042,40.167 148.667,40.092 148.667,40C148.667,39.908 148.442,39.833 148.167,39.833C147.892,39.833 147.667,39.758 147.667,39.667C147.667,39.575 147.553,39.5 147.414,39.5C147.084,39.5 145,37.416 145,37.086C145,36.947 144.925,36.833 144.833,36.833C144.742,36.833 144.667,36.683 144.667,36.5C144.667,36.317 144.592,36.167 144.5,36.167C144.408,36.167 144.333,35.792 144.333,35.333C144.333,34.875 144.258,34.5 144.167,34.5C144.075,34.5 144,34.35 144,34.167C144,33.983 144.075,33.833 144.167,33.833C144.258,33.833 144.333,33.533 144.333,33.167C144.333,32.8 144.408,32.5 144.5,32.5C144.592,32.5 144.667,32.292 144.667,32.037C144.667,31.765 144.804,31.474 145,31.333C145.183,31.201 145.333,30.995 145.333,30.875C145.333,30.572 146.769,29.167 147.079,29.167C147.219,29.167 147.333,29.092 147.333,29C147.333,28.908 147.483,28.833 147.667,28.833C147.85,28.833 148,28.758 148,28.667C148,28.575 148.225,28.5 148.5,28.5C148.775,28.5 149,28.425 149,28.333C149,28.223 154.5,28.167 165.167,28.167L181.333,28.167L181.333,15.167L164.333,15.167C153.111,15.167 147.333,15.223 147.333,15.333M265.333,22C265.333,26.444 265.392,28.833 265.5,28.833C265.731,28.833 265.731,76.607 265.5,76.75C265.408,76.807 265.333,77.186 265.333,77.593L265.333,78.333L278.333,78.333L278.333,54.833L287.938,54.833L288.167,55.417C288.293,55.737 288.457,56 288.531,56C288.606,56 288.667,56.112 288.667,56.25C288.667,56.387 288.742,56.5 288.833,56.5C288.925,56.5 289,56.65 289,56.833C289,57.017 289.075,57.167 289.167,57.167C289.258,57.167 289.333,57.263 289.333,57.38C289.333,57.497 289.483,57.701 289.667,57.833C289.85,57.965 290,58.207 290,58.37C290,58.533 290.075,58.667 290.167,58.667C290.258,58.667 290.333,58.817 290.333,59C290.333,59.183 290.408,59.333 290.5,59.333C290.592,59.333 290.667,59.467 290.667,59.63C290.667,59.793 290.817,60.035 291,60.167C291.183,60.299 291.333,60.54 291.333,60.703C291.333,60.867 291.408,61 291.5,61C291.592,61 291.667,61.133 291.667,61.297C291.667,61.46 291.817,61.701 292,61.833C292.183,61.965 292.333,62.207 292.333,62.37C292.333,62.533 292.408,62.667 292.5,62.667C292.592,62.667 292.667,62.8 292.667,62.963C292.667,63.126 292.817,63.368 293,63.5C293.183,63.632 293.333,63.874 293.333,64.037C293.333,64.2 293.408,64.333 293.5,64.333C293.592,64.333 293.667,64.483 293.667,64.667C293.667,64.85 293.742,65 293.833,65C293.925,65 294,65.133 294,65.297C294,65.46 294.15,65.701 294.333,65.833C294.517,65.965 294.667,66.207 294.667,66.37C294.667,66.533 294.742,66.667 294.833,66.667C294.925,66.667 295,66.8 295,66.963C295,67.126 295.15,67.368 295.333,67.5C295.517,67.632 295.667,67.874 295.667,68.037C295.667,68.2 295.742,68.333 295.833,68.333C295.925,68.333 296,68.483 296,68.667C296,68.85 296.075,69 296.167,69C296.258,69 296.333,69.133 296.333,69.297C296.333,69.46 296.483,69.701 296.667,69.833C296.85,69.965 297,70.207 297,70.37C297,70.533 297.075,70.667 297.167,70.667C297.258,70.667 297.333,70.8 297.333,70.963C297.333,71.126 297.483,71.368 297.667,71.5C297.85,71.632 298,71.874 298,72.037C298,72.2 298.075,72.333 298.167,72.333C298.258,72.333 298.333,72.483 298.333,72.667C298.333,72.85 298.408,73 298.5,73C298.592,73 298.667,73.133 298.667,73.297C298.667,73.46 298.817,73.701 299,73.833C299.183,73.965 299.333,74.207 299.333,74.37C299.333,74.533 299.408,74.667 299.5,74.667C299.592,74.667 299.667,74.8 299.667,74.963C299.667,75.126 299.817,75.368 300,75.5C300.183,75.632 300.333,75.874 300.333,76.037C300.333,76.2 300.408,76.333 300.5,76.333C300.592,76.333 300.667,76.483 300.667,76.667C300.667,76.85 300.742,77 300.833,77C300.925,77 301,77.116 301,77.258C301,77.399 301.184,77.699 301.409,77.924L301.818,78.333L315.5,78.333L315.5,77.833C315.5,77.558 315.425,77.333 315.333,77.333C315.242,77.333 315.167,77.183 315.167,77C315.167,76.817 315.092,76.667 315,76.667C314.908,76.667 314.833,76.517 314.833,76.333C314.833,76.15 314.758,76 314.667,76C314.575,76 314.5,75.867 314.5,75.703C314.5,75.54 314.35,75.299 314.167,75.167C313.983,75.035 313.833,74.793 313.833,74.63C313.833,74.467 313.758,74.333 313.667,74.333C313.575,74.333 313.5,74.2 313.5,74.037C313.5,73.874 313.35,73.632 313.167,73.5C312.983,73.368 312.833,73.126 312.833,72.963C312.833,72.8 312.758,72.667 312.667,72.667C312.575,72.667 312.5,72.533 312.5,72.37C312.5,72.207 312.35,71.965 312.167,71.833C311.983,71.701 311.833,71.46 311.833,71.297C311.833,71.133 311.758,71 311.667,71C311.575,71 311.5,70.85 311.5,70.667C311.5,70.483 311.425,70.333 311.333,70.333C311.242,70.333 311.167,70.235 311.167,70.115C311.167,69.995 311.035,69.751 310.875,69.573C310.714,69.395 310.404,68.896 310.184,68.463C309.965,68.03 309.722,67.716 309.643,67.765C309.564,67.813 309.5,67.703 309.5,67.52C309.5,67.336 309.425,67.14 309.333,67.083C309.242,67.027 309.167,66.83 309.167,66.647C309.167,66.464 309.092,66.36 309,66.417C308.908,66.473 308.833,66.377 308.833,66.202C308.833,66.028 308.683,65.749 308.5,65.583C308.317,65.417 308.167,65.143 308.167,64.974C308.167,64.805 308.092,64.667 308,64.667C307.908,64.667 307.833,64.589 307.833,64.493C307.833,64.398 307.683,64.158 307.5,63.962C307.317,63.765 307.167,63.468 307.167,63.302C307.167,63.136 307.092,63 307,63C306.908,63 306.833,62.922 306.833,62.826C306.833,62.731 306.683,62.492 306.5,62.295C306.317,62.098 306.167,61.801 306.167,61.635C306.167,61.469 306.106,61.333 306.031,61.333C305.957,61.333 305.793,61.071 305.667,60.75C305.541,60.429 305.377,60.167 305.302,60.167C305.228,60.167 305.167,60.05 305.167,59.907C305.167,59.764 305.092,59.693 305,59.75C304.908,59.807 304.833,59.699 304.833,59.51C304.833,59.321 304.758,59.167 304.667,59.167C304.575,59.167 304.5,59.033 304.5,58.87C304.5,58.707 304.35,58.465 304.167,58.333C303.983,58.201 303.833,57.96 303.833,57.797C303.833,57.633 303.758,57.5 303.667,57.5C303.575,57.5 303.5,57.35 303.5,57.167C303.5,56.983 303.425,56.833 303.333,56.833C303.242,56.833 303.167,56.7 303.167,56.537C303.167,56.374 303.017,56.132 302.833,56C302.65,55.868 302.5,55.626 302.5,55.463C302.5,55.3 302.425,55.167 302.333,55.167C302.242,55.167 302.167,55.033 302.167,54.87C302.167,54.707 302.017,54.465 301.833,54.333C301.65,54.201 301.5,53.96 301.5,53.797C301.5,53.633 301.425,53.5 301.333,53.5C301.086,53.5 301.132,53.011 301.405,52.738C301.536,52.607 301.761,52.5 301.905,52.5C302.049,52.5 302.167,52.425 302.167,52.333C302.167,52.242 302.306,52.167 302.477,52.167C302.857,52.167 304.833,51.165 304.833,50.972C304.833,50.896 304.983,50.833 305.167,50.833C305.35,50.833 305.5,50.758 305.5,50.667C305.5,50.575 305.598,50.5 305.719,50.5C305.839,50.5 306.098,50.35 306.295,50.167C306.492,49.983 306.72,49.833 306.802,49.833C306.884,49.833 307.186,49.608 307.474,49.333C307.762,49.058 308.067,48.833 308.153,48.833C308.37,48.833 311.833,45.39 311.833,45.174C311.833,45.077 312.058,44.762 312.333,44.474C312.608,44.186 312.833,43.849 312.833,43.725C312.833,43.601 312.908,43.5 313,43.5C313.092,43.5 313.167,43.35 313.167,43.167C313.167,42.983 313.242,42.833 313.333,42.833C313.425,42.833 313.5,42.683 313.5,42.5C313.5,42.317 313.575,42.167 313.667,42.167C313.758,42.167 313.833,42.017 313.833,41.833C313.833,41.65 313.908,41.5 314,41.5C314.092,41.5 314.167,41.35 314.167,41.167C314.167,40.983 314.242,40.833 314.333,40.833C314.425,40.833 314.5,40.608 314.5,40.333C314.5,40.058 314.575,39.833 314.667,39.833C314.758,39.833 314.833,39.533 314.833,39.167C314.833,38.8 314.908,38.5 315,38.5C315.099,38.5 315.167,37.889 315.167,37C315.167,36.111 315.235,35.5 315.333,35.5C315.425,35.5 315.5,35.2 315.5,34.833C315.5,34.467 315.425,34.167 315.333,34.167C315.235,34.167 315.167,33.556 315.167,32.667C315.167,31.778 315.099,31.167 315,31.167C314.908,31.167 314.833,30.867 314.833,30.5C314.833,30.133 314.758,29.833 314.667,29.833C314.575,29.833 314.5,29.608 314.5,29.333C314.5,29.058 314.425,28.833 314.333,28.833C314.242,28.833 314.167,28.608 314.167,28.333C314.167,28.058 314.092,27.833 314,27.833C313.908,27.833 313.833,27.683 313.833,27.5C313.833,27.317 313.758,27.167 313.667,27.167C313.575,27.167 313.5,27.017 313.5,26.833C313.5,26.65 313.425,26.5 313.333,26.5C313.242,26.5 313.167,26.367 313.167,26.203C313.167,26.04 313.017,25.799 312.833,25.667C312.65,25.535 312.5,25.293 312.5,25.13C312.5,24.967 312.425,24.833 312.333,24.833C312.242,24.833 312.167,24.715 312.167,24.57C312.167,24.426 311.867,24.019 311.5,23.667C311.133,23.314 310.833,22.944 310.833,22.844C310.833,22.604 308.393,20.167 308.153,20.167C308.051,20.167 307.757,19.942 307.5,19.667C307.243,19.392 306.93,19.167 306.803,19.167C306.677,19.167 306.465,19.017 306.333,18.833C306.201,18.65 305.976,18.5 305.833,18.5C305.69,18.5 305.465,18.35 305.333,18.167C305.201,17.983 304.96,17.833 304.797,17.833C304.633,17.833 304.5,17.758 304.5,17.667C304.5,17.575 304.35,17.5 304.167,17.5C303.983,17.5 303.833,17.425 303.833,17.333C303.833,17.242 303.683,17.167 303.5,17.167C303.317,17.167 303.167,17.092 303.167,17C303.167,16.908 303.017,16.833 302.833,16.833C302.65,16.833 302.5,16.758 302.5,16.667C302.5,16.575 302.275,16.5 302,16.5C301.725,16.5 301.5,16.425 301.5,16.333C301.5,16.242 301.275,16.167 301,16.167C300.725,16.167 300.5,16.092 300.5,16C300.5,15.908 300.275,15.833 300,15.833C299.725,15.833 299.5,15.758 299.5,15.667C299.5,15.575 299.087,15.5 298.583,15.5C298.079,15.5 297.667,15.425 297.667,15.333C297.667,15.223 292.167,15.167 281.5,15.167L265.333,15.167L265.333,22M322.874,46.708L322.917,78.25L329.375,78.294L335.833,78.337L335.833,15.167L322.831,15.167L322.874,46.708M346.833,46.75L346.833,78.333L361.833,78.333C371.722,78.333 376.833,78.277 376.833,78.167C376.833,78.074 377.278,78 377.833,78C378.389,78 378.833,77.926 378.833,77.833C378.833,77.742 379.133,77.667 379.5,77.667C379.867,77.667 380.167,77.592 380.167,77.5C380.167,77.408 380.467,77.333 380.833,77.333C381.2,77.333 381.5,77.258 381.5,77.167C381.5,77.075 381.725,77 382,77C382.275,77 382.5,76.925 382.5,76.833C382.5,76.742 382.65,76.667 382.833,76.667C383.017,76.667 383.167,76.592 383.167,76.5C383.167,76.408 383.392,76.333 383.667,76.333C383.942,76.333 384.167,76.258 384.167,76.167C384.167,76.075 384.317,76 384.5,76C384.683,76 384.833,75.925 384.833,75.833C384.833,75.742 384.983,75.667 385.167,75.667C385.35,75.667 385.5,75.592 385.5,75.5C385.5,75.408 385.65,75.333 385.833,75.333C386.017,75.333 386.167,75.258 386.167,75.167C386.167,75.075 386.3,75 386.463,75C386.626,75 386.868,74.85 387,74.667C387.132,74.483 387.374,74.333 387.537,74.333C387.7,74.333 387.833,74.258 387.833,74.167C387.833,74.075 387.953,74 388.1,74C388.246,74 388.576,73.775 388.833,73.5C389.09,73.225 389.388,73 389.494,73C389.601,73 390.054,72.625 390.5,72.167C390.946,71.708 391.394,71.333 391.495,71.333C391.733,71.333 392.833,70.233 392.833,69.995C392.833,69.894 393.208,69.446 393.667,69C394.125,68.554 394.5,68.101 394.5,67.994C394.5,67.888 394.725,67.59 395,67.333C395.275,67.076 395.5,66.763 395.5,66.637C395.5,66.51 395.65,66.299 395.833,66.167C396.017,66.035 396.167,65.793 396.167,65.63C396.167,65.467 396.242,65.333 396.333,65.333C396.425,65.333 396.5,65.183 396.5,65C396.5,64.817 396.575,64.667 396.667,64.667C396.758,64.667 396.833,64.517 396.833,64.333C396.833,64.15 396.908,64 397,64C397.092,64 397.167,63.85 397.167,63.667C397.167,63.483 397.242,63.333 397.333,63.333C397.425,63.333 397.5,63.183 397.5,63C397.5,62.817 397.575,62.667 397.667,62.667C397.758,62.667 397.833,62.517 397.833,62.333C397.833,62.15 397.908,62 398,62C398.092,62 398.167,61.775 398.167,61.5C398.167,61.225 398.242,61 398.333,61C398.425,61 398.5,60.775 398.5,60.5C398.5,60.225 398.575,60 398.667,60C398.758,60 398.833,59.775 398.833,59.5C398.833,59.225 398.908,59 399,59C399.092,59 399.167,58.7 399.167,58.333C399.167,57.967 399.242,57.667 399.333,57.667C399.425,57.667 399.5,57.259 399.5,56.76C399.5,56.261 399.575,55.807 399.667,55.75C399.774,55.683 399.833,52.498 399.833,46.74C399.833,40.913 399.776,37.833 399.667,37.833C399.574,37.833 399.5,37.389 399.5,36.833C399.5,36.278 399.426,35.833 399.333,35.833C399.242,35.833 399.167,35.533 399.167,35.167C399.167,34.8 399.092,34.5 399,34.5C398.908,34.5 398.833,34.275 398.833,34C398.833,33.725 398.758,33.5 398.667,33.5C398.575,33.5 398.5,33.275 398.5,33C398.5,32.725 398.425,32.5 398.333,32.5C398.242,32.5 398.167,32.275 398.167,32C398.167,31.725 398.092,31.5 398,31.5C397.908,31.5 397.833,31.35 397.833,31.167C397.833,30.983 397.758,30.833 397.667,30.833C397.575,30.833 397.5,30.683 397.5,30.5C397.5,30.317 397.425,30.167 397.333,30.167C397.242,30.167 397.167,30.017 397.167,29.833C397.167,29.65 397.092,29.5 397,29.5C396.908,29.5 396.833,29.35 396.833,29.167C396.833,28.983 396.758,28.833 396.667,28.833C396.575,28.833 396.5,28.683 396.5,28.5C396.5,28.317 396.425,28.167 396.333,28.167C396.242,28.167 396.167,28.033 396.167,27.87C396.167,27.707 396.017,27.465 395.833,27.333C395.65,27.201 395.5,26.976 395.5,26.833C395.5,26.69 395.35,26.465 395.167,26.333C394.983,26.201 394.833,25.992 394.833,25.869C394.833,25.746 394.458,25.28 394,24.833C393.542,24.387 393.167,23.94 393.167,23.841C393.167,23.603 391.395,21.833 391.157,21.833C391.056,21.833 390.686,21.533 390.333,21.167C389.981,20.8 389.605,20.5 389.497,20.5C389.389,20.5 389.09,20.275 388.833,20C388.576,19.725 388.263,19.5 388.137,19.5C388.01,19.5 387.799,19.35 387.667,19.167C387.535,18.983 387.293,18.833 387.13,18.833C386.967,18.833 386.833,18.758 386.833,18.667C386.833,18.575 386.683,18.5 386.5,18.5C386.317,18.5 386.167,18.425 386.167,18.333C386.167,18.242 386.017,18.167 385.833,18.167C385.65,18.167 385.5,18.092 385.5,18C385.5,17.908 385.35,17.833 385.167,17.833C384.983,17.833 384.833,17.758 384.833,17.667C384.833,17.575 384.683,17.5 384.5,17.5C384.317,17.5 384.167,17.425 384.167,17.333C384.167,17.242 384.017,17.167 383.833,17.167C383.65,17.167 383.5,17.092 383.5,17C383.5,16.908 383.275,16.833 383,16.833C382.725,16.833 382.5,16.758 382.5,16.667C382.5,16.575 382.275,16.5 382,16.5C381.725,16.5 381.5,16.425 381.5,16.333C381.5,16.242 381.275,16.167 381,16.167C380.725,16.167 380.5,16.092 380.5,16C380.5,15.908 380.125,15.833 379.667,15.833C379.208,15.833 378.833,15.758 378.833,15.667C378.833,15.575 378.458,15.5 378,15.5C377.542,15.5 377.167,15.425 377.167,15.333C377.167,15.223 372,15.167 362,15.167L346.833,15.167L346.833,46.75M294.333,27C294.333,27.093 294.778,27.167 295.333,27.167C295.889,27.167 296.333,27.241 296.333,27.333C296.333,27.425 296.558,27.5 296.833,27.5C297.108,27.5 297.333,27.575 297.333,27.667C297.333,27.758 297.467,27.833 297.63,27.833C297.793,27.833 298.035,27.983 298.167,28.167C298.299,28.35 298.508,28.5 298.632,28.5C298.943,28.5 301,30.594 301,30.91C301,31.051 301.066,31.167 301.146,31.167C301.227,31.167 301.383,31.41 301.494,31.708C301.604,32.006 301.756,32.368 301.83,32.512C302.749,34.285 302.045,38.805 300.664,40.002C300.482,40.16 300.333,40.379 300.333,40.49C300.333,40.746 299.916,41.167 299.662,41.167C299.555,41.167 299.257,41.392 299,41.667C298.743,41.942 298.413,42.167 298.266,42.167C298.12,42.167 298,42.242 298,42.333C298,42.425 297.85,42.5 297.667,42.5C297.483,42.5 297.333,42.575 297.333,42.667C297.333,42.758 297.183,42.833 297,42.833C296.817,42.833 296.667,42.908 296.667,43C296.667,43.092 296.367,43.167 296,43.167C295.633,43.167 295.333,43.242 295.333,43.333C295.333,43.442 292.389,43.5 286.833,43.5L278.333,43.5L278.333,26.833L286.333,26.833C291.556,26.833 294.333,26.891 294.333,27M371.25,27C371.307,27.092 371.761,27.167 372.26,27.167C372.759,27.167 373.167,27.242 373.167,27.333C373.167,27.425 373.392,27.5 373.667,27.5C373.942,27.5 374.167,27.575 374.167,27.667C374.167,27.758 374.392,27.833 374.667,27.833C374.942,27.833 375.167,27.908 375.167,28C375.167,28.092 375.269,28.167 375.393,28.167C375.667,28.167 377.727,29.199 377.806,29.375C377.836,29.444 377.968,29.5 378.099,29.5C378.229,29.5 378.572,29.725 378.86,30C379.147,30.275 379.448,30.5 379.527,30.5C379.716,30.5 382.5,33.284 382.5,33.473C382.5,33.552 382.725,33.853 383,34.14C383.275,34.428 383.5,34.771 383.5,34.901C383.5,35.032 383.556,35.164 383.625,35.194C383.805,35.274 384.5,36.655 384.5,36.932C384.5,37.061 384.575,37.167 384.667,37.167C384.758,37.167 384.833,37.317 384.833,37.5C384.833,37.683 384.908,37.833 385,37.833C385.092,37.833 385.167,38.058 385.167,38.333C385.167,38.608 385.242,38.833 385.333,38.833C385.425,38.833 385.5,39.091 385.5,39.407C385.5,39.722 385.575,40.027 385.667,40.083C385.758,40.14 385.833,40.557 385.833,41.01C385.833,41.463 385.908,41.833 386,41.833C386.108,41.833 386.167,43.722 386.167,47.167C386.167,50.611 386.108,52.5 386,52.5C385.908,52.5 385.833,52.875 385.833,53.333C385.833,53.792 385.758,54.167 385.667,54.167C385.575,54.167 385.5,54.467 385.5,54.833C385.5,55.2 385.425,55.5 385.333,55.5C385.242,55.5 385.167,55.725 385.167,56C385.167,56.275 385.092,56.5 385,56.5C384.908,56.5 384.833,56.65 384.833,56.833C384.833,57.017 384.758,57.167 384.667,57.167C384.575,57.167 384.5,57.317 384.5,57.5C384.5,57.683 384.425,57.833 384.333,57.833C384.242,57.833 384.167,57.983 384.167,58.167C384.167,58.35 384.092,58.5 384,58.5C383.908,58.5 383.833,58.598 383.833,58.719C383.833,58.839 383.683,59.098 383.5,59.295C383.317,59.492 383.167,59.72 383.167,59.802C383.167,59.884 382.942,60.186 382.667,60.474C382.392,60.762 382.167,61.062 382.167,61.14C382.167,61.382 379.978,63.498 379.723,63.503C379.646,63.504 379.333,63.726 379.026,63.996C378.72,64.266 378.333,64.53 378.167,64.583C378,64.636 377.82,64.794 377.767,64.934C377.713,65.073 377.593,65.141 377.5,65.083C377.407,65.026 377.288,65.091 377.235,65.229C377.182,65.366 377.033,65.438 376.904,65.389C376.775,65.339 376.623,65.419 376.567,65.565C376.511,65.712 376.393,65.787 376.305,65.733C376.218,65.678 376.019,65.749 375.864,65.888C375.71,66.028 375.508,66.144 375.417,66.145C375.075,66.149 373.822,66.551 373.74,66.682C373.694,66.757 373.545,66.776 373.409,66.724C373.273,66.672 373.059,66.716 372.932,66.821C372.805,66.926 372.281,67.017 371.767,67.023C371.254,67.029 370.833,67.102 370.833,67.184C370.833,67.269 368.398,67.333 365.167,67.333L359.5,67.333L359.5,26.833L365.323,26.833C369.026,26.833 371.185,26.894 371.25,27M134.333,88.5C134.333,88.592 134.108,88.667 133.833,88.667C133.558,88.667 133.333,88.742 133.333,88.833C133.333,88.925 133.24,89 133.125,89C132.802,89.001 132,89.757 132,90.061C132,90.211 131.925,90.333 131.833,90.333C131.734,90.333 131.667,90.975 131.667,91.924C131.667,93.53 131.997,94.333 132.659,94.333C132.755,94.333 132.833,94.408 132.833,94.5C132.833,94.592 133.021,94.667 133.25,94.667C133.479,94.667 133.667,94.742 133.667,94.833C133.667,94.925 133.892,95 134.167,95C134.442,95 134.667,95.075 134.667,95.167C134.667,95.258 134.892,95.333 135.167,95.333C135.442,95.333 135.667,95.408 135.667,95.5C135.667,95.592 135.86,95.667 136.095,95.667C136.642,95.667 137,96.025 137,96.571C137,96.934 136.925,97 136.514,97C136.247,97 135.984,97.094 135.931,97.208C135.853,97.375 135.814,97.375 135.736,97.208C135.683,97.094 135.345,97 134.986,97C134.627,97 134.333,96.925 134.333,96.833C134.333,96.742 134.183,96.667 134,96.667C133.817,96.667 133.667,96.592 133.667,96.5C133.667,96.408 133.517,96.333 133.333,96.333C133.15,96.333 133,96.258 133,96.167C133,95.914 132.175,95.968 131.905,96.238C131.774,96.369 131.667,96.542 131.667,96.622C131.667,96.872 131.256,97.664 131.125,97.665C130.912,97.668 130.988,98.178 131.238,98.429C131.369,98.56 131.594,98.667 131.738,98.667C131.882,98.667 132,98.742 132,98.833C132,98.925 132.15,99 132.333,99C132.517,99 132.667,99.075 132.667,99.167C132.667,99.258 132.929,99.333 133.25,99.333C133.571,99.333 133.833,99.408 133.833,99.5C133.833,99.601 134.583,99.667 135.75,99.667C136.917,99.667 137.667,99.601 137.667,99.5C137.667,99.408 137.856,99.333 138.088,99.333C138.364,99.333 138.765,99.077 139.254,98.588L140,97.842L140,96.254C140,95.307 139.933,94.667 139.833,94.667C139.742,94.667 139.667,94.552 139.667,94.411C139.667,94.271 139.535,94.108 139.375,94.048C139.215,93.988 138.962,93.803 138.814,93.637C138.666,93.47 138.347,93.333 138.105,93.333C137.864,93.333 137.667,93.258 137.667,93.167C137.667,93.075 137.442,93 137.167,93C136.892,93 136.667,92.925 136.667,92.833C136.667,92.742 136.446,92.667 136.177,92.667C135.907,92.667 135.64,92.592 135.583,92.5C135.527,92.408 135.316,92.333 135.115,92.332C134.619,92.33 134.245,91.564 134.578,91.231C134.85,90.96 137,90.903 137,91.167C137,91.258 137.15,91.333 137.333,91.333C137.517,91.333 137.667,91.408 137.667,91.5C137.667,91.592 137.784,91.667 137.927,91.667C138.069,91.667 138.14,91.742 138.083,91.833C138.027,91.925 138.101,92 138.248,92C138.589,92 139.333,91.262 139.333,90.924C139.333,90.783 139.408,90.667 139.5,90.667C139.592,90.667 139.667,90.367 139.667,90C139.667,89.444 139.611,89.333 139.333,89.333C139.15,89.333 139,89.258 139,89.167C139,89.075 138.85,89 138.667,89C138.483,89 138.333,88.925 138.333,88.833C138.333,88.742 138.108,88.667 137.833,88.667C137.558,88.667 137.333,88.592 137.333,88.5C137.333,88.401 136.722,88.333 135.833,88.333C134.944,88.333 134.333,88.401 134.333,88.5M140.07,88.559C140.022,88.683 140.005,89.265 140.033,89.851L140.083,90.917L141.706,90.964L143.328,91.012L143.372,95.298L143.417,99.583L144.708,99.632L146,99.681L146,91L149.333,91L149.333,88.333L144.745,88.333C141.037,88.333 140.14,88.377 140.07,88.559M156,94L156,99.667L158.667,99.667L158.667,96.833C158.667,95.056 158.729,94 158.833,94C158.925,94 159,94.15 159,94.333C159,94.517 159.075,94.667 159.167,94.667C159.258,94.667 159.333,94.817 159.333,95C159.333,95.183 159.408,95.333 159.5,95.333C159.592,95.333 159.667,95.483 159.667,95.667C159.667,95.85 159.742,96 159.833,96C159.925,96 160,96.15 160,96.333C160,96.517 160.075,96.667 160.167,96.667C160.258,96.667 160.333,96.817 160.333,97C160.333,97.183 160.408,97.333 160.5,97.333C160.592,97.333 160.667,97.483 160.667,97.667C160.667,97.963 160.778,98 161.667,98C162.556,98 162.667,97.963 162.667,97.667C162.667,97.483 162.742,97.333 162.833,97.333C162.925,97.333 163,97.2 163,97.037C163,96.874 163.15,96.632 163.333,96.5C163.517,96.368 163.667,96.126 163.667,95.963C163.667,95.8 163.742,95.667 163.833,95.667C163.925,95.667 164,95.517 164,95.333C164,95.15 164.075,95 164.167,95C164.258,95 164.333,94.85 164.333,94.667C164.333,94.483 164.408,94.333 164.5,94.333C164.604,94.333 164.667,95.333 164.667,97L164.667,99.667L167.333,99.667L167.333,88.333L164.499,88.333L164.21,89C164.051,89.367 163.864,89.667 163.794,89.667C163.724,89.667 163.667,89.817 163.667,90C163.667,90.183 163.592,90.333 163.5,90.333C163.408,90.333 163.333,90.431 163.333,90.55C163.333,90.857 162.941,91.664 162.792,91.665C162.723,91.666 162.667,91.817 162.667,92C162.667,92.183 162.592,92.333 162.5,92.333C162.408,92.333 162.333,92.483 162.333,92.667C162.333,92.85 162.258,93 162.167,93C162.075,93 162,93.15 162,93.333C162,93.517 161.957,93.667 161.905,93.667C161.709,93.667 161.333,93.181 161.333,92.929C161.333,92.785 161.258,92.667 161.167,92.667C161.075,92.667 161,92.517 161,92.333C161,92.15 160.925,92 160.833,92C160.742,92 160.667,91.85 160.667,91.667C160.667,91.483 160.592,91.333 160.5,91.333C160.408,91.333 160.333,91.2 160.333,91.037C160.333,90.874 160.183,90.632 160,90.5C159.817,90.368 159.667,90.126 159.667,89.963C159.667,89.8 159.592,89.667 159.5,89.667C159.408,89.667 159.333,89.517 159.333,89.333C159.333,89.15 159.258,89 159.167,89C159.075,89 159,88.85 159,88.667C159,88.358 158.889,88.333 157.5,88.333L156,88.333L156,94M171.667,88.667C171.667,88.85 171.592,89 171.5,89C171.408,89 171.333,89.221 171.333,89.49C171.333,89.76 171.258,90.027 171.167,90.083C171.075,90.14 171,90.369 171,90.593C171,90.817 170.925,91 170.833,91C170.742,91 170.667,91.146 170.667,91.323C170.667,91.501 170.592,91.693 170.5,91.75C170.408,91.807 170.333,92.036 170.333,92.26C170.333,92.484 170.258,92.667 170.167,92.667C170.075,92.667 170,92.892 170,93.167C170,93.442 169.925,93.667 169.833,93.667C169.742,93.667 169.667,93.812 169.667,93.99C169.667,94.168 169.592,94.36 169.5,94.417C169.408,94.473 169.333,94.703 169.333,94.927C169.333,95.15 169.258,95.333 169.167,95.333C169.075,95.333 169,95.554 169,95.823C169,96.093 168.925,96.36 168.833,96.417C168.742,96.473 168.667,96.703 168.667,96.927C168.667,97.15 168.592,97.333 168.5,97.333C168.408,97.333 168.333,97.483 168.333,97.667C168.333,97.85 168.258,98 168.167,98C168.075,98 168,98.375 168,98.833L168,99.667L169.333,99.667C170.556,99.667 170.667,99.639 170.667,99.333C170.667,99.15 170.742,99 170.833,99C170.925,99 171,98.775 171,98.5C171,98.225 171.075,98 171.167,98C171.258,98 171.333,97.775 171.333,97.5L171.333,97L172.929,97C174.672,97 175,97.143 175,97.905C175,98.14 175.075,98.333 175.167,98.333C175.258,98.333 175.333,98.526 175.333,98.762C175.333,99.485 175.681,99.667 177.071,99.667L178.333,99.667L178.333,99.167C178.333,98.892 178.258,98.667 178.167,98.667C178.075,98.667 178,98.442 178,98.167C178,97.892 177.925,97.667 177.833,97.667C177.742,97.667 177.667,97.442 177.667,97.167C177.667,96.892 177.592,96.667 177.5,96.667C177.408,96.667 177.333,96.442 177.333,96.167C177.333,95.892 177.258,95.667 177.167,95.667C177.075,95.667 177,95.517 177,95.333C177,95.15 176.925,95 176.833,95C176.742,95 176.667,94.775 176.667,94.5C176.667,94.225 176.592,94 176.5,94C176.408,94 176.333,93.775 176.333,93.5C176.333,93.225 176.258,93 176.167,93C176.075,93 176,92.85 176,92.667C176,92.483 175.925,92.333 175.833,92.333C175.742,92.333 175.667,92.108 175.667,91.833C175.667,91.558 175.592,91.333 175.5,91.333C175.408,91.333 175.333,91.108 175.333,90.833C175.333,90.558 175.258,90.333 175.167,90.333C175.075,90.333 175,90.108 175,89.833C175,89.558 174.925,89.333 174.833,89.333C174.742,89.333 174.667,89.215 174.667,89.071C174.667,88.52 174.226,88.333 172.929,88.333C171.778,88.333 171.667,88.363 171.667,88.667M178.778,88.444C178.717,88.506 178.667,91.056 178.667,94.111L178.667,99.667L181.667,99.667L181.667,96L182.333,96C182.861,96 183,96.062 183,96.297C183,96.46 183.15,96.701 183.333,96.833C183.517,96.965 183.667,97.207 183.667,97.37C183.667,97.533 183.742,97.667 183.833,97.667C183.925,97.667 184,97.8 184,97.963C184,98.126 184.15,98.368 184.333,98.5C184.517,98.632 184.667,98.842 184.667,98.965C184.667,99.497 185.128,99.667 186.571,99.667L188,99.667L188,99.203C188,98.931 187.862,98.641 187.667,98.5C187.483,98.368 187.333,98.126 187.333,97.963C187.333,97.8 187.258,97.667 187.167,97.667C187.075,97.667 187,97.533 187,97.37C187,97.207 186.85,96.965 186.667,96.833C186.483,96.701 186.333,96.46 186.333,96.297C186.333,96.133 186.258,96 186.167,96C185.831,96 186.013,95.455 186.5,95C186.775,94.743 187,94.413 187,94.266C187,94.12 187.075,94 187.167,94C187.267,94 187.333,93.333 187.333,92.333C187.333,91.333 187.267,90.667 187.167,90.667C187.075,90.667 187,90.552 187,90.412C187,89.983 185.558,88.667 185.088,88.667C184.856,88.667 184.667,88.592 184.667,88.5C184.667,88.313 178.963,88.259 178.778,88.444M187,88.833C187,89.108 187.075,89.333 187.167,89.333C187.258,89.333 187.333,89.467 187.333,89.63C187.333,89.793 187.483,90.035 187.667,90.167C187.85,90.299 188,90.54 188,90.703C188,90.867 188.075,91 188.167,91C188.258,91 188.333,91.15 188.333,91.333C188.333,91.517 188.408,91.667 188.5,91.667C188.592,91.667 188.667,91.817 188.667,92C188.667,92.183 188.742,92.333 188.833,92.333C188.925,92.333 189,92.467 189,92.63C189,92.793 189.15,93.035 189.333,93.167C189.517,93.299 189.667,93.54 189.667,93.703C189.667,93.867 189.742,94 189.833,94C189.925,94 190,94.15 190,94.333C190,94.517 190.075,94.667 190.167,94.667C190.258,94.667 190.333,94.8 190.333,94.963C190.333,95.126 190.483,95.368 190.667,95.5C190.968,95.717 191,95.931 191,97.703L191,99.667L193.667,99.667L193.667,97.537C193.667,95.598 193.697,95.385 194,95.167C194.183,95.035 194.333,94.793 194.333,94.63C194.333,94.467 194.408,94.333 194.5,94.333C194.592,94.333 194.667,94.183 194.667,94C194.667,93.817 194.742,93.667 194.833,93.667C194.925,93.667 195,93.533 195,93.37C195,93.207 195.15,92.965 195.333,92.833C195.517,92.701 195.667,92.46 195.667,92.297C195.667,92.133 195.742,92 195.833,92C195.925,92 196,91.85 196,91.667C196,91.483 196.075,91.333 196.167,91.333C196.258,91.333 196.333,91.183 196.333,91C196.333,90.817 196.408,90.667 196.5,90.667C196.592,90.667 196.667,90.533 196.667,90.37C196.667,90.207 196.817,89.965 197,89.833C197.232,89.666 197.333,89.402 197.333,88.963L197.333,88.333L195.833,88.333C194.444,88.333 194.333,88.358 194.333,88.667C194.333,88.85 194.258,89 194.167,89C194.075,89 194,89.15 194,89.333C194,89.517 193.925,89.667 193.833,89.667C193.742,89.667 193.667,89.764 193.667,89.883C193.667,90.19 193.275,90.997 193.125,90.999C193.056,90.999 193,91.15 193,91.333C193,91.517 192.925,91.667 192.833,91.667C192.742,91.667 192.667,91.785 192.667,91.929C192.667,92.181 192.291,92.667 192.095,92.667C192.043,92.667 192,92.517 192,92.333C192,92.15 191.925,92 191.833,92C191.742,92 191.667,91.85 191.667,91.667C191.667,91.483 191.592,91.333 191.5,91.333C191.408,91.333 191.333,91.183 191.333,91C191.333,90.817 191.258,90.667 191.167,90.667C191.075,90.667 191,90.517 191,90.333C191,90.15 190.925,90 190.833,90C190.742,90 190.667,89.85 190.667,89.667C190.667,89.483 190.592,89.333 190.5,89.333C190.408,89.333 190.333,89.215 190.333,89.071C190.333,88.502 189.899,88.333 188.429,88.333L187,88.333L187,88.833M201,94L201,99.667L203.667,99.667L203.667,96L204.262,96C204.892,96 205.333,96.304 205.333,96.738C205.333,96.882 205.408,97 205.5,97C205.592,97 205.667,97.133 205.667,97.297C205.667,97.46 205.817,97.701 206,97.833C206.183,97.965 206.333,98.19 206.333,98.333C206.333,98.476 206.483,98.701 206.667,98.833C206.85,98.965 207,99.207 207,99.37C207,99.632 207.173,99.667 208.5,99.667L210,99.667L210,99.167C210,98.892 209.925,98.667 209.833,98.667C209.742,98.667 209.667,98.533 209.667,98.37C209.667,98.207 209.517,97.965 209.333,97.833C209.15,97.701 209,97.46 209,97.297C209,97.133 208.925,97 208.833,97C208.742,97 208.667,96.867 208.667,96.703C208.667,96.54 208.517,96.299 208.333,96.167C207.851,95.819 207.917,95.554 208.667,94.833C209.106,94.411 209.333,94.047 209.333,93.763C209.333,93.527 209.408,93.333 209.5,93.333C209.593,93.333 209.667,92.889 209.667,92.333C209.667,91.778 209.593,91.333 209.5,91.333C209.408,91.333 209.333,91.108 209.333,90.833C209.333,90.558 209.258,90.333 209.167,90.333C209.075,90.333 209,90.217 209,90.076C209,89.742 208.258,89 207.924,89C207.783,89 207.667,88.925 207.667,88.833C207.667,88.742 207.442,88.667 207.167,88.667C206.892,88.667 206.667,88.592 206.667,88.5C206.667,88.395 205.611,88.333 203.833,88.333L201,88.333L201,94M210.667,94L210.667,99.667L213.333,99.667L213.333,88.333L210.667,88.333L210.667,94M214,89.167C214,89.625 214.075,90 214.167,90C214.258,90 214.333,90.15 214.333,90.333C214.333,90.517 214.408,90.667 214.5,90.667C214.592,90.667 214.667,90.892 214.667,91.167C214.667,91.442 214.742,91.667 214.833,91.667C214.925,91.667 215,91.817 215,92C215,92.183 215.075,92.333 215.167,92.333C215.258,92.333 215.333,92.558 215.333,92.833C215.333,93.108 215.408,93.333 215.5,93.333C215.592,93.333 215.667,93.558 215.667,93.833C215.667,94.108 215.742,94.333 215.833,94.333C215.925,94.333 216,94.483 216,94.667C216,94.85 216.075,95 216.167,95C216.258,95 216.333,95.225 216.333,95.5C216.333,95.775 216.408,96 216.5,96C216.592,96 216.667,96.225 216.667,96.5C216.667,96.775 216.742,97 216.833,97C216.925,97 217,97.15 217,97.333C217,97.517 217.075,97.667 217.167,97.667C217.258,97.667 217.333,97.892 217.333,98.167C217.333,98.442 217.408,98.667 217.5,98.667C217.592,98.667 217.667,98.785 217.667,98.929C217.667,99.48 218.107,99.667 219.405,99.667L220.667,99.667L220.667,99.167C220.667,98.892 220.742,98.667 220.833,98.667C220.925,98.667 221,98.517 221,98.333C221,98.15 221.075,98 221.167,98C221.258,98 221.333,97.775 221.333,97.5C221.333,97.225 221.408,97 221.5,97C221.592,97 221.667,96.775 221.667,96.5C221.667,96.225 221.742,96 221.833,96C221.925,96 222,95.85 222,95.667C222,95.483 222.075,95.333 222.167,95.333C222.258,95.333 222.333,95.108 222.333,94.833C222.333,94.558 222.408,94.333 222.5,94.333C222.592,94.333 222.667,94.183 222.667,94C222.667,93.817 222.742,93.667 222.833,93.667C222.925,93.667 223,93.442 223,93.167C223,92.892 223.075,92.667 223.167,92.667C223.258,92.667 223.333,92.442 223.333,92.167C223.333,91.892 223.408,91.667 223.5,91.667C223.592,91.667 223.667,91.517 223.667,91.333C223.667,91.15 223.742,91 223.833,91C223.925,91 224,90.775 224,90.5C224,90.225 224.075,90 224.167,90C224.258,90 224.333,89.781 224.333,89.514C224.333,89.247 224.422,88.998 224.53,88.962C224.64,88.926 224.679,88.772 224.619,88.615C224.44,88.151 221.667,88.199 221.667,88.667C221.667,88.85 221.592,89 221.5,89C221.408,89 221.333,89.225 221.333,89.5C221.333,89.775 221.258,90 221.167,90C221.075,90 221,90.225 221,90.5C221,90.775 220.925,91 220.833,91C220.742,91 220.667,91.225 220.667,91.5C220.667,91.775 220.592,92 220.5,92C220.408,92 220.333,92.15 220.333,92.333C220.333,92.517 220.258,92.667 220.167,92.667C220.075,92.667 220,92.892 220,93.167C220,93.442 219.925,93.667 219.833,93.667C219.742,93.667 219.667,93.892 219.667,94.167C219.667,94.442 219.592,94.667 219.5,94.667C219.408,94.667 219.333,94.817 219.333,95C219.333,95.183 219.258,95.333 219.167,95.333C219.075,95.333 219,95.183 219,95C219,94.817 218.925,94.667 218.833,94.667C218.742,94.667 218.667,94.442 218.667,94.167C218.667,93.892 218.592,93.667 218.5,93.667C218.408,93.667 218.333,93.442 218.333,93.167C218.333,92.892 218.258,92.667 218.167,92.667C218.075,92.667 218,92.442 218,92.167C218,91.892 217.925,91.667 217.833,91.667C217.742,91.667 217.667,91.442 217.667,91.167C217.667,90.892 217.592,90.667 217.5,90.667C217.408,90.667 217.333,90.484 217.333,90.26C217.333,90.036 217.258,89.807 217.167,89.75C217.075,89.693 216.998,89.483 216.995,89.282C216.984,88.522 216.642,88.333 215.273,88.333L214,88.333L214,89.167M225,94L225,99.667L233,99.667L233,97.333L227.667,97.333L227.667,95L232,95L232,92.667L227.667,92.667L227.667,91L232.667,91L232.667,88.333L225,88.333L225,94M234,94L234,99.667L236.667,99.667L236.667,96L237.262,96C237.892,96 238.333,96.304 238.333,96.738C238.333,96.882 238.408,97 238.5,97C238.592,97 238.667,97.133 238.667,97.297C238.667,97.46 238.817,97.701 239,97.833C239.183,97.965 239.333,98.207 239.333,98.37C239.333,98.533 239.408,98.667 239.5,98.667C239.592,98.667 239.667,98.785 239.667,98.929C239.667,99.498 240.101,99.667 241.571,99.667L243,99.667L243,99.167C243,98.892 242.925,98.667 242.833,98.667C242.742,98.667 242.667,98.568 242.667,98.448C242.667,98.328 242.517,98.069 242.333,97.872C242.15,97.675 242,97.398 242,97.257C242,97.116 241.925,97 241.833,97C241.742,97 241.667,96.902 241.667,96.781C241.667,96.661 241.517,96.402 241.333,96.205C240.887,95.726 240.911,95.55 241.5,95C241.775,94.743 242,94.413 242,94.266C242,94.12 242.075,94 242.167,94C242.258,94 242.333,93.7 242.333,93.333C242.333,92.967 242.408,92.667 242.5,92.667C242.592,92.667 242.667,92.442 242.667,92.167C242.667,91.892 242.592,91.667 242.5,91.667C242.408,91.667 242.333,91.418 242.333,91.115C242.333,90.811 242.198,90.417 242.033,90.24C241.868,90.062 241.683,89.785 241.622,89.625C241.561,89.465 241.412,89.333 241.292,89.333C241.172,89.333 240.965,89.183 240.833,89C240.692,88.804 240.402,88.667 240.13,88.667C239.875,88.667 239.667,88.592 239.667,88.5C239.667,88.395 238.611,88.333 236.833,88.333L234,88.333L234,94M247.333,94L247.333,99.667L250,99.667L250,88.333L247.333,88.333L247.333,94M251.333,94L251.333,99.667L254.333,99.667L254.333,96L255,96C255.528,96 255.667,96.062 255.667,96.297C255.667,96.46 255.817,96.701 256,96.833C256.183,96.965 256.333,97.207 256.333,97.37C256.333,97.533 256.408,97.667 256.5,97.667C256.592,97.667 256.667,97.8 256.667,97.963C256.667,98.126 256.817,98.368 257,98.5C257.183,98.632 257.333,98.842 257.333,98.965C257.333,99.497 257.795,99.667 259.238,99.667L260.667,99.667L260.667,99.203C260.667,98.931 260.529,98.641 260.333,98.5C260.15,98.368 260,98.126 260,97.963C260,97.8 259.925,97.667 259.833,97.667C259.742,97.667 259.667,97.568 259.667,97.448C259.667,97.328 259.517,97.069 259.333,96.872C259.15,96.675 259,96.398 259,96.257C259,96.116 258.925,96 258.833,96C258.498,96 258.68,95.455 259.167,95C259.442,94.743 259.667,94.413 259.667,94.266C259.667,94.12 259.742,94 259.833,94C259.933,94 260,93.333 260,92.333C260,91.333 259.933,90.667 259.833,90.667C259.742,90.667 259.667,90.547 259.667,90.4C259.667,89.995 258.177,88.667 257.723,88.667C257.509,88.667 257.333,88.592 257.333,88.5C257.333,88.395 256.222,88.333 254.333,88.333L251.333,88.333L251.333,94M261.333,94L261.333,99.667L264,99.667L264,96L264.591,96C265.223,96 266,96.593 266,97.076C266,97.217 266.075,97.333 266.167,97.333C266.258,97.333 266.333,97.467 266.333,97.63C266.333,97.793 266.483,98.035 266.667,98.167C266.85,98.299 267,98.54 267,98.703C267,98.867 267.075,99 267.167,99C267.258,99 267.333,99.15 267.333,99.333C267.333,99.642 267.444,99.667 268.833,99.667L270.333,99.667L270.333,99.115C270.333,98.793 270.194,98.414 270,98.205C269.817,98.008 269.667,97.732 269.667,97.59C269.667,97.449 269.592,97.333 269.5,97.333C269.408,97.333 269.333,97.235 269.333,97.115C269.333,96.995 269.202,96.747 269.042,96.565C268.711,96.189 268.283,95.48 268.363,95.442C268.861,95.204 269.113,94.992 269.248,94.695C269.338,94.496 269.47,94.333 269.54,94.333C269.609,94.333 269.667,94.183 269.667,94C269.667,93.817 269.742,93.667 269.833,93.667C269.93,93.667 270,93.142 270,92.427C270,91.744 269.925,91.14 269.833,91.083C269.742,91.027 269.667,90.835 269.667,90.657C269.667,90.479 269.592,90.333 269.5,90.333C269.408,90.333 269.333,90.217 269.333,90.076C269.333,89.742 268.591,89 268.258,89C268.116,89 268,88.925 268,88.833C268,88.742 267.854,88.667 267.677,88.667C267.499,88.667 267.307,88.592 267.25,88.5C267.188,88.399 265.998,88.333 264.24,88.333L261.333,88.333L261.333,94M271,93.994L271,99.667L274.004,99.667L273.961,94.042L273.917,88.417L272.458,88.369L271,88.32L271,93.994M278.667,88.5C278.667,88.592 278.519,88.667 278.338,88.667C277.603,88.667 275.667,90.173 275.667,90.744C275.667,90.885 275.592,91 275.5,91C275.408,91 275.333,91.15 275.333,91.333C275.333,91.517 275.258,91.667 275.167,91.667C275.075,91.667 275,91.892 275,92.167C275,92.442 274.925,92.667 274.833,92.667C274.736,92.667 274.667,93.222 274.667,94C274.667,94.778 274.736,95.333 274.833,95.333C274.925,95.333 275,95.558 275,95.833C275,96.108 275.075,96.333 275.167,96.333C275.258,96.333 275.333,96.522 275.333,96.754C275.333,97.225 276.977,99 277.413,99C277.553,99 277.667,99.075 277.667,99.167C277.667,99.258 277.817,99.333 278,99.333C278.183,99.333 278.333,99.408 278.333,99.5C278.333,99.6 279,99.667 280,99.667C281,99.667 281.667,99.6 281.667,99.5C281.667,99.408 281.817,99.333 282,99.333C282.183,99.333 282.333,99.258 282.333,99.167C282.333,99.075 282.408,99 282.5,99C282.592,99 282.667,99.152 282.667,99.338C282.667,99.664 282.752,99.674 285.292,99.629L287.917,99.583L287.969,99.125C287.998,98.873 288.092,98.667 288.178,98.667C288.263,98.667 288.333,98.442 288.333,98.167C288.333,97.892 288.408,97.667 288.5,97.667C288.592,97.667 288.667,97.517 288.667,97.333C288.667,97.022 288.778,97 290.333,97C291.889,97 292,97.022 292,97.333C292,97.517 292.075,97.667 292.167,97.667C292.258,97.667 292.333,97.892 292.333,98.167C292.333,98.442 292.408,98.667 292.5,98.667C292.592,98.667 292.667,98.892 292.667,99.167L292.667,99.667L294.089,99.667C295.747,99.667 295.863,99.557 295.345,98.485C295.155,98.092 295,97.639 295,97.479C295,97.318 294.925,97.14 294.833,97.083C294.742,97.027 294.667,96.837 294.667,96.662C294.667,96.487 294.517,96.076 294.333,95.75C294.15,95.424 294,95.013 294,94.838C294,94.663 293.925,94.473 293.833,94.417C293.742,94.36 293.667,94.135 293.667,93.917C293.667,93.698 293.592,93.473 293.5,93.417C293.408,93.36 293.333,93.202 293.333,93.065C293.333,92.929 293.183,92.507 293,92.127C292.817,91.748 292.667,91.306 292.667,91.145C292.667,90.984 292.592,90.807 292.5,90.75C292.408,90.693 292.333,90.5 292.333,90.321C292.333,90.142 292.27,89.865 292.194,89.706C292.117,89.547 291.946,89.192 291.813,88.917C291.3,87.853 288.688,88.165 288.672,89.292C288.669,89.498 288.592,89.667 288.5,89.667C288.408,89.667 288.333,89.892 288.333,90.167C288.333,90.442 288.258,90.667 288.167,90.667C288.075,90.667 288,90.892 288,91.167C288,91.442 287.925,91.667 287.833,91.667C287.742,91.667 287.667,91.817 287.667,92C287.667,92.183 287.592,92.333 287.5,92.333C287.408,92.333 287.333,92.558 287.333,92.833C287.333,93.108 287.258,93.333 287.167,93.333C287.075,93.333 287,93.558 287,93.833C287,94.108 286.925,94.333 286.833,94.333C286.742,94.333 286.667,94.479 286.667,94.657C286.667,94.835 286.592,95.027 286.5,95.083C286.408,95.14 286.333,95.369 286.333,95.593C286.333,95.817 286.258,96 286.167,96C286.075,96 286,96.225 286,96.5C286,96.775 285.925,97 285.833,97C285.742,97 285.667,97.146 285.667,97.323C285.667,97.501 285.592,97.693 285.5,97.75C285.408,97.807 285.333,98.036 285.333,98.26C285.333,98.484 285.258,98.667 285.167,98.667C285.063,98.667 285,97.722 285,96.167L285,93.667L280.667,93.667L280.667,95.667L281.667,95.667C282.217,95.667 282.667,95.708 282.667,95.758C282.667,95.96 281.831,96.667 281.591,96.667C281.449,96.667 281.333,96.742 281.333,96.833C281.333,96.925 281.183,97 281,97C280.817,97 280.667,97.075 280.667,97.167C280.667,97.258 280.521,97.333 280.343,97.333C280.165,97.333 279.973,97.258 279.917,97.167C279.86,97.075 279.661,97 279.473,97C279.121,97 278.246,96.197 277.863,95.522C277.601,95.058 277.57,92.782 277.826,92.697C277.921,92.665 278,92.529 278,92.395C278,91.742 279.246,91 280.344,91C281.116,91 281.25,91.06 281.833,91.667C282.793,92.665 284.667,92.136 284.667,90.866C284.667,90.482 283.266,89 282.904,89C282.773,89 282.667,88.925 282.667,88.833C282.667,88.742 282.446,88.667 282.177,88.667C281.907,88.667 281.64,88.592 281.583,88.5C281.527,88.408 280.847,88.333 280.073,88.333C279.247,88.333 278.667,88.402 278.667,88.5M294.333,89.667L294.333,91L297.667,91L297.667,99.667L300.167,99.667L300.167,91L303.5,91L303.5,88.333L294.333,88.333L294.333,89.667M304.282,88.44C304.224,88.498 304.176,91.048 304.176,94.106L304.176,99.667L306.833,99.667L306.833,88.333L305.611,88.333C304.939,88.333 304.341,88.381 304.282,88.44M312,88.5C312,88.592 311.827,88.667 311.617,88.667C311.177,88.667 310.337,89.022 310.335,89.208C310.334,89.277 310.213,89.333 310.067,89.333C309.754,89.333 308.896,90.206 308.747,90.675C308.691,90.854 308.586,91 308.516,91C308.319,91 307.96,91.854 307.915,92.428C307.893,92.71 307.815,93.122 307.743,93.345C307.547,93.946 307.548,94.529 307.744,94.604C307.839,94.64 307.911,94.988 307.904,95.377C307.897,95.784 308.02,96.295 308.194,96.583C308.36,96.858 308.563,97.233 308.646,97.417C308.938,98.065 310.55,99.333 311.081,99.333C311.22,99.333 311.333,99.408 311.333,99.5C311.333,99.601 312.028,99.667 313.083,99.667C314.139,99.667 314.833,99.601 314.833,99.5C314.833,99.408 315.042,99.333 315.297,99.333C315.569,99.333 315.859,99.196 316,99C316.132,98.817 316.34,98.667 316.461,98.667C316.765,98.667 317.5,97.906 317.5,97.591C317.5,97.449 317.575,97.333 317.667,97.333C317.758,97.333 317.833,97.183 317.833,97C317.833,96.817 317.908,96.667 318,96.667C318.092,96.667 318.167,96.517 318.167,96.333C318.167,96.15 318.242,96 318.333,96C318.435,96 318.5,95.222 318.5,94C318.5,92.778 318.435,92 318.333,92C318.242,92 318.167,91.85 318.167,91.667C318.167,91.483 318.092,91.333 318,91.333C317.908,91.333 317.833,91.219 317.833,91.08C317.833,90.75 316.084,89 315.754,89C315.614,89 315.5,88.925 315.5,88.833C315.5,88.742 315.275,88.667 315,88.667C314.725,88.667 314.5,88.592 314.5,88.5C314.5,88.404 313.972,88.333 313.25,88.333C312.528,88.333 312,88.404 312,88.5M319.619,88.436C319.563,88.493 319.511,91.043 319.504,94.103L319.492,99.667L322.167,99.667L322.167,93.793L322.833,94.48C323.2,94.858 323.5,95.223 323.501,95.292C323.501,95.361 323.726,95.656 324.001,95.949C324.275,96.242 324.5,96.552 324.5,96.638C324.5,96.723 324.8,97.102 325.167,97.48C325.533,97.858 325.833,98.227 325.833,98.301C325.833,98.954 326.997,99.667 328.064,99.667L329.167,99.667L329.167,88.319L326.583,88.417L326.538,91.375C326.513,93.002 326.451,94.333 326.401,94.333C326.251,94.333 325.833,93.869 325.833,93.703C325.833,93.619 325.608,93.314 325.333,93.026C325.058,92.738 324.833,92.421 324.833,92.322C324.833,92.222 324.533,91.852 324.167,91.5C323.8,91.148 323.5,90.773 323.5,90.667C323.5,90.561 323.2,90.186 322.833,89.833C322.467,89.481 322.167,89.107 322.167,89.001C322.167,88.461 320.062,87.994 319.619,88.436M334.278,88.444C334.217,88.506 334.167,91.056 334.167,94.111L334.167,99.667L337.167,99.667C339.056,99.667 340.167,99.605 340.167,99.5C340.167,99.408 340.392,99.333 340.667,99.333C340.942,99.333 341.167,99.258 341.167,99.167C341.167,99.075 341.281,99 341.421,99C341.752,99 343.167,97.585 343.167,97.254C343.167,97.114 343.242,97 343.333,97C343.425,97 343.5,96.85 343.5,96.667C343.5,96.483 343.575,96.333 343.667,96.333C343.77,96.333 343.833,95.444 343.833,94C343.833,92.556 343.77,91.667 343.667,91.667C343.575,91.667 343.5,91.517 343.5,91.333C343.5,91.15 343.425,91 343.333,91C343.242,91 343.167,90.886 343.167,90.746C343.167,90.415 341.752,89 341.421,89C341.281,89 341.167,88.925 341.167,88.833C341.167,88.742 340.792,88.667 340.333,88.667C339.875,88.667 339.5,88.592 339.5,88.5C339.5,88.313 334.462,88.26 334.278,88.444M344.833,94L344.833,99.667L347.5,99.667L347.5,88.333L344.833,88.333L344.833,94M351.5,88.5C351.5,88.592 351.275,88.667 351,88.667C350.725,88.667 350.5,88.742 350.5,88.833C350.5,88.925 350.422,89 350.326,89C350.072,89 349.409,89.704 349.1,90.301C348.799,90.884 348.718,93.333 349,93.333C349.092,93.333 349.167,93.477 349.167,93.653C349.167,93.847 349.362,94.059 349.667,94.193C349.942,94.315 350.167,94.471 350.167,94.541C350.167,94.61 350.317,94.667 350.5,94.667C350.683,94.667 350.833,94.742 350.833,94.833C350.833,94.925 351.058,95 351.333,95C351.608,95 351.833,95.075 351.833,95.167C351.833,95.258 352.058,95.333 352.333,95.333C352.608,95.333 352.833,95.408 352.833,95.5C352.833,95.592 353.024,95.667 353.258,95.667C353.852,95.667 354.6,96.429 354.328,96.757C354.217,96.891 353.963,97 353.763,97C353.563,97 353.301,97.094 353.179,97.208C353.002,97.375 352.943,97.375 352.882,97.208C352.839,97.09 352.523,97 352.153,97C351.794,97 351.5,96.925 351.5,96.833C351.5,96.742 351.35,96.667 351.167,96.667C350.983,96.667 350.833,96.592 350.833,96.5C350.833,96.408 350.683,96.333 350.5,96.333C350.317,96.333 350.167,96.258 350.167,96.167C350.167,95.608 349.215,96.038 348.867,96.754C348.457,97.598 348.373,98.667 348.717,98.667C349.023,98.667 349.83,99.059 349.832,99.208C349.833,99.277 350.133,99.333 350.5,99.333C350.867,99.333 351.167,99.408 351.167,99.5C351.167,99.602 351.944,99.667 353.167,99.667C354.389,99.667 355.167,99.602 355.167,99.5C355.167,99.408 355.317,99.333 355.5,99.333C355.683,99.333 355.833,99.258 355.833,99.167C355.833,99.075 355.951,99 356.095,99C356.432,99 356.833,98.599 356.833,98.262C356.833,98.118 356.908,98 357,98C357.092,98 357.167,97.7 357.167,97.333C357.167,96.967 357.242,96.667 357.333,96.667C357.425,96.667 357.5,96.442 357.5,96.167C357.5,95.892 357.425,95.667 357.333,95.667C357.242,95.667 357.167,95.401 357.167,95.076C357.167,94.444 356.573,93.667 356.091,93.667C355.949,93.667 355.833,93.592 355.833,93.5C355.833,93.408 355.683,93.333 355.5,93.333C355.317,93.333 355.167,93.258 355.167,93.167C355.167,93.075 354.867,93 354.5,93C354.133,93 353.833,92.925 353.833,92.833C353.833,92.742 353.608,92.667 353.333,92.667C353.058,92.667 352.833,92.592 352.833,92.5C352.833,92.408 352.715,92.333 352.571,92.333C352.178,92.333 351.833,91.911 351.833,91.429C351.833,91.009 351.858,91 353,91C353.667,91 354.167,91.071 354.167,91.167C354.167,91.258 354.317,91.333 354.5,91.333C354.683,91.333 354.833,91.408 354.833,91.5C354.833,91.592 354.983,91.667 355.167,91.667C355.35,91.667 355.5,91.742 355.5,91.833C355.5,91.925 355.65,92 355.833,92C356.056,92 356.167,91.889 356.167,91.667C356.167,91.483 356.242,91.333 356.333,91.333C356.425,91.333 356.5,91.183 356.5,91C356.5,90.817 356.575,90.667 356.667,90.667C356.758,90.667 356.833,90.367 356.833,90C356.833,89.444 356.778,89.333 356.5,89.333C356.317,89.333 356.167,89.258 356.167,89.167C356.167,89.075 356.017,89 355.833,89C355.65,89 355.5,88.925 355.5,88.833C355.5,88.742 355.275,88.667 355,88.667C354.725,88.667 354.5,88.592 354.5,88.5C354.5,88.401 353.889,88.333 353,88.333C352.111,88.333 351.5,88.401 351.5,88.5M357.278,88.444C357.217,88.506 357.167,89.106 357.167,89.778L357.167,91L360.833,91L360.833,99.667L363.5,99.667L363.5,91L366.833,91L366.833,88.333L362.111,88.333C359.514,88.333 357.339,88.383 357.278,88.444M367.5,94L367.5,99.667L370.167,99.667L370.167,96L370.762,96C371.392,96 371.833,96.304 371.833,96.738C371.833,96.882 371.908,97 372,97C372.092,97 372.167,97.133 372.167,97.297C372.167,97.46 372.317,97.701 372.5,97.833C372.683,97.965 372.833,98.207 372.833,98.37C372.833,98.533 372.908,98.667 373,98.667C373.092,98.667 373.167,98.785 373.167,98.929C373.167,99.498 373.601,99.667 375.071,99.667L376.5,99.667L376.5,99.167C376.5,98.892 376.425,98.667 376.333,98.667C376.242,98.667 376.167,98.533 376.167,98.37C376.167,98.207 376.017,97.965 375.833,97.833C375.65,97.701 375.5,97.46 375.5,97.297C375.5,97.133 375.425,97 375.333,97C375.242,97 375.167,96.867 375.167,96.703C375.167,96.54 375.017,96.299 374.833,96.167C374.351,95.819 374.417,95.554 375.167,94.833C375.701,94.32 375.833,94.074 375.833,93.596C375.833,93.268 375.908,93 376,93C376.092,93 376.167,92.7 376.167,92.333C376.167,91.967 376.092,91.667 376,91.667C375.908,91.667 375.833,91.383 375.833,91.037C375.833,90.598 375.732,90.334 375.5,90.167C375.317,90.035 375.167,89.825 375.167,89.701C375.167,89.396 374.75,89 374.429,89C374.285,89 374.167,88.925 374.167,88.833C374.167,88.742 373.942,88.667 373.667,88.667C373.392,88.667 373.167,88.592 373.167,88.5C373.167,88.395 372.111,88.333 370.333,88.333L367.5,88.333L367.5,94M377.167,94L377.167,99.667L379.833,99.667L379.833,88.333L377.167,88.333L377.167,94M384.833,88.5C384.833,88.592 384.608,88.667 384.333,88.667C384.058,88.667 383.833,88.742 383.833,88.833C383.833,88.925 383.719,89 383.58,89C383.25,89 381.5,90.75 381.5,91.08C381.5,91.219 381.425,91.333 381.333,91.333C381.242,91.333 381.167,91.558 381.167,91.833C381.167,92.108 381.092,92.333 381,92.333C380.9,92.333 380.833,93 380.833,94C380.833,95 380.9,95.667 381,95.667C381.092,95.667 381.167,95.892 381.167,96.167C381.167,96.442 381.242,96.667 381.333,96.667C381.425,96.667 381.5,96.781 381.5,96.92C381.5,97.25 383.25,99 383.58,99C383.719,99 383.833,99.075 383.833,99.167C383.833,99.258 383.983,99.333 384.167,99.333C384.35,99.333 384.5,99.408 384.5,99.5C384.5,99.601 385.222,99.667 386.333,99.667C387.444,99.667 388.167,99.601 388.167,99.5C388.167,99.408 388.317,99.333 388.5,99.333C388.683,99.333 388.833,99.258 388.833,99.167C388.833,99.075 388.948,99 389.088,99C389.619,99 390.833,97.553 390.833,96.921C390.833,96.444 390.77,96.333 390.5,96.333C390.317,96.333 390.167,96.258 390.167,96.167C390.167,96.075 390.017,96 389.833,96C389.65,96 389.5,95.925 389.5,95.833C389.5,95.404 388.607,95.701 388,96.333C387.648,96.7 387.219,97 387.046,97C386.874,97 386.634,97.094 386.512,97.208C386.336,97.375 386.276,97.375 386.215,97.208C386.173,97.094 385.956,97 385.732,97C385.171,97 383.833,95.652 383.833,95.088C383.833,94.856 383.758,94.667 383.667,94.667C383.575,94.667 383.5,94.367 383.5,94C383.5,93.633 383.575,93.333 383.667,93.333C383.758,93.333 383.833,93.144 383.833,92.912C383.833,92.061 385.172,91 386.246,91C386.752,91 387.167,91.075 387.167,91.167C387.167,91.258 387.287,91.333 387.433,91.333C387.58,91.333 387.91,91.558 388.167,91.833C388.619,92.317 389.5,92.537 389.5,92.167C389.5,92.075 389.62,92 389.766,92C389.913,92 390.243,91.775 390.5,91.5C390.956,91.012 391.004,91 392.567,91L394.167,91L394.167,99.667L396.833,99.667L396.833,91L400,91L400,88.333L390.833,88.333L390.833,89.5C390.833,90.167 390.762,90.667 390.667,90.667C390.575,90.667 390.5,90.552 390.5,90.411C390.5,90.079 389.421,89 389.089,89C388.948,89 388.833,88.925 388.833,88.833C388.833,88.742 388.608,88.667 388.333,88.667C388.058,88.667 387.833,88.592 387.833,88.5C387.833,88.401 387.222,88.333 386.333,88.333C385.444,88.333 384.833,88.401 384.833,88.5M184.258,91.409C185.3,92.452 184.493,93.667 182.758,93.667L181.667,93.667L181.667,91L182.758,91C183.694,91 183.907,91.058 184.258,91.409M206.258,91.409C207.3,92.452 206.493,93.667 204.758,93.667L203.667,93.667L203.667,91L204.758,91C205.694,91 205.907,91.058 206.258,91.409M239.258,91.409C240.3,92.452 239.493,93.667 237.758,93.667L236.667,93.667L236.667,91L237.758,91C238.694,91 238.907,91.058 239.258,91.409M256.924,91.409C257.967,92.452 257.16,93.667 255.424,93.667L254.333,93.667L254.333,91L255.424,91C256.36,91 256.573,91.058 256.924,91.409M266.667,91.272C266.667,91.422 266.835,91.694 267.042,91.878C267.296,92.104 267.35,92.236 267.208,92.286C267.094,92.327 267,92.491 267,92.65C267,93.265 266.241,93.667 265.082,93.667L264,93.667L264,91L265.333,91C266.456,91 266.667,91.043 266.667,91.272M314.733,91.708C315.977,92.985 316.238,94.204 315.526,95.41C315.326,95.749 315.202,96.088 315.249,96.165C315.296,96.242 315.11,96.404 314.834,96.526C314.559,96.648 314.333,96.805 314.333,96.874C314.333,96.943 314.188,97 314.01,97C313.832,97 313.64,97.075 313.583,97.167C313.527,97.258 313.335,97.333 313.157,97.333C312.979,97.333 312.833,97.258 312.833,97.167C312.833,97.075 312.643,97 312.411,97C311.942,97 310.833,96.009 310.833,95.589C310.833,95.448 310.758,95.333 310.667,95.333C310.571,95.333 310.5,94.833 310.5,94.167C310.5,93.5 310.571,93 310.667,93C310.758,93 310.833,92.85 310.833,92.667C310.833,92.483 310.908,92.333 311,92.333C311.092,92.333 311.167,92.215 311.167,92.071C311.167,91.735 311.568,91.333 311.905,91.333C312.049,91.333 312.167,91.258 312.167,91.167C312.167,90.61 314.052,91.008 314.733,91.708M339.5,91.167C339.5,91.258 339.622,91.333 339.772,91.333C340.069,91.333 340.703,91.973 340.589,92.158C340.55,92.221 340.664,92.378 340.842,92.506C341.231,92.786 341.312,94.917 340.958,95.535C340.669,96.04 340.05,96.667 339.841,96.667C339.745,96.667 339.667,96.742 339.667,96.833C339.667,96.925 339.329,97 338.917,97C338.504,97 338.167,97.075 338.167,97.167C338.167,97.258 337.942,97.333 337.667,97.333L337.167,97.333L337.167,91L338.333,91C339,91 339.5,91.071 339.5,91.167M372.803,91.418C373.758,92.516 372.967,93.667 371.258,93.667L370.167,93.667L370.167,91L371.303,91C372.309,91 372.482,91.048 372.803,91.418M173.333,92.833C173.333,93.108 173.408,93.333 173.5,93.333C173.592,93.333 173.667,93.558 173.667,93.833C173.667,94.108 173.742,94.333 173.833,94.333C173.925,94.333 174,94.483 174,94.667C174,94.956 173.889,95 173.167,95C172.352,95 172.333,94.989 172.333,94.5C172.333,94.225 172.408,94 172.5,94C172.592,94 172.667,93.775 172.667,93.5C172.667,93.225 172.742,93 172.833,93C172.925,93 173,92.85 173,92.667C173,92.483 173.075,92.333 173.167,92.333C173.258,92.333 173.333,92.558 173.333,92.833M290.667,93.167C290.667,93.442 290.742,93.667 290.833,93.667C290.925,93.667 291,93.892 291,94.167C291,94.442 291.075,94.667 291.167,94.667C291.258,94.667 291.333,94.742 291.333,94.833C291.333,94.926 290.889,95 290.333,95C289.778,95 289.333,94.926 289.333,94.833C289.333,94.742 289.408,94.667 289.5,94.667C289.592,94.667 289.667,94.442 289.667,94.167C289.667,93.892 289.742,93.667 289.833,93.667C289.925,93.667 290,93.442 290,93.167C290,92.778 290.074,92.667 290.333,92.667C290.593,92.667 290.667,92.778 290.667,93.167M149,98.167L149,99.667L151.333,99.667L151.333,96.667L149,96.667L149,98.167"/>
    </g>
</svg>
