<?xml version="1.0" encoding="UTF-8" standalone="no"?>
<!DOCTYPE svg PUBLIC "-//W3C//DTD SVG 1.1//EN" "http://www.w3.org/Graphics/SVG/1.1/DTD/svg11.dtd">
<svg width="100%" height="100%" viewBox="0 0 209 108" version="1.1" xmlns="http://www.w3.org/2000/svg" xmlns:xlink="http://www.w3.org/1999/xlink" xml:space="preserve" xmlns:serif="http://www.serif.com/" style="fill-rule:evenodd;clip-rule:evenodd;stroke-linejoin:round;stroke-miterlimit:2;">
    <g id="svgg" transform="matrix(0.522317,0,0,0.525002,0.0908831,-24.4593)">
        <path id="path0" d="M140.231,47.124C140.1,47.468 140.05,69.125 140.121,95.25L140.25,142.75L300.068,143.25L325.424,209.75L333.25,209.75L345.25,176.387L357.25,143.023L374,142.887L390.75,142.75L390.75,46.75L265.61,46.624C165.76,46.523 140.421,46.625 140.231,47.124M393,47.553C393,47.799 393.211,48 393.468,48C393.726,48 394.027,48.731 394.138,49.625L394.34,51.25L394.42,49.625C394.464,48.731 394.725,48 395,48C396.103,48 395.414,47.245 394.25,47.178C393.562,47.138 393,47.307 393,47.553M396,49C396,49.825 396.238,50.5 396.53,50.5C396.821,50.5 396.904,50.25 396.715,49.944C396.526,49.638 396.655,49.214 397,49C397.345,48.786 397.474,48.362 397.285,48.056C396.644,47.02 396,47.493 396,49M398.646,48.375C398.468,48.856 398.088,49.407 397.801,49.598C397.514,49.789 397.458,50.125 397.677,50.344C397.896,50.563 398.32,50.304 398.62,49.768C399.159,48.804 399.168,48.804 399.547,49.772C399.85,50.547 399.937,50.412 399.965,49.125C400.002,47.39 399.181,46.924 398.646,48.375M381,94.75L381,133L365.311,133C353.358,133 349.505,133.149 349.127,133.625C348.855,133.969 344.385,147.019 339.194,162.626C334.003,178.233 329.559,190.936 329.318,190.856C329.077,190.776 324.238,177.781 318.565,161.98L308.25,133.25L149.75,132.75L149.621,95.25C149.55,74.625 149.599,57.469 149.73,57.125C149.92,56.627 173.532,56.5 265.484,56.5L381,56.5L381,94.75M11.93,161.753C5.319,163.877 0.933,171.911 2.471,179.083C3.578,184.247 5.678,186.093 13.806,189.043C21.996,192.016 23.614,193.479 22.569,196.967C21.099,201.875 14.545,202.332 8.646,197.939C5.402,195.523 6.001,195.332 2.667,199.841L-0.174,203.682L2.038,205.607C12.304,214.541 29.488,211.999 33.291,200.984C36.78,190.88 33.472,185.019 21.75,180.538C14.424,177.737 14,177.436 14,175.033C14,170.572 20.165,168.991 25.023,172.206C27.66,173.951 27.542,174.008 30.199,169.702C32.941,165.259 32.962,165.322 27.898,162.988C23.555,160.986 16.109,160.41 11.93,161.753M94.817,161.793C73.395,166.978 69.75,198.03 89.4,207.949C107.541,217.107 128.5,205.342 128.5,186C128.5,168.804 112.717,157.461 94.817,161.793M40,166.733L40,171.465L45.125,171.608L50.25,171.75L50.357,190.75L50.463,209.75L55.982,209.891L61.5,210.033L61.5,171.5L72,171.5L72,162L40,162L40,166.733M139,185.958L139,210L150,210L150,201.25C150,196.438 150.184,192.5 150.408,192.5C150.632,192.5 153.501,196.437 156.783,201.249L162.75,209.998L169.428,209.999C175.103,210 176.065,209.889 175.825,209.264C175.669,208.859 172.498,204.481 168.776,199.535L162.011,190.542L164.13,189.6C174.912,184.809 174.763,168.332 163.894,163.452C161.415,162.34 160.555,162.255 150.125,162.091L139,161.917L139,185.958M177,162.544C177,162.843 180.713,168.591 185.25,175.317L193.5,187.547L193.5,210.033L199.125,209.891L204.75,209.75L204.885,198.603L205.019,187.456L213.04,175.441C217.451,168.832 221.183,163.105 221.334,162.713C221.562,162.118 220.532,162 215.134,162L208.661,162L204.105,169C201.6,172.85 199.37,175.997 199.15,175.993C198.93,175.989 196.725,172.84 194.25,168.994L189.75,162.001L183.375,162.001C179.114,162 177,162.18 177,162.544M229.5,186L229.5,210L240.479,210L240.615,199.875L240.75,189.75L259.25,189.75L259.385,199.875L259.521,210L270.5,210L270.5,162L259.5,162L259.5,180L240.5,180L240.5,162L229.5,162L229.5,186M285,186L285,210.033L290.625,209.891L296.25,209.75L296.25,162.25L290.625,162.109L285,161.967L285,186M362.5,186L362.5,210L389.5,210L389.5,200.525L381.625,200.388L373.75,200.25L373.75,190.25L381.394,190.112L389.037,189.974L388.894,185.362L388.75,180.75L373.75,180.25L373.75,171.75L381.625,171.612L389.5,171.475L389.5,162L362.5,162L362.5,186M157.201,171.697C163.912,174.502 160.538,183.5 152.775,183.5L150,183.5L150,171L152.766,171C154.287,171 156.283,171.314 157.201,171.697M107.633,172.288C120.137,176.548 119.744,196.139 107.081,199.821C97.491,202.608 88.727,196.8 88.114,187.25C87.394,176.043 97.014,168.669 107.633,172.288M272,222.819C271.313,223.287 269.393,224.846 267.734,226.282L264.717,228.894L252.734,231.479C237.965,234.665 239.038,234.335 238.457,235.862C237.78,237.644 237.133,237.712 249.45,234.718C255.599,233.223 260.827,232 261.068,232C261.308,232 260.247,233.664 258.709,235.697C255.595,239.813 252.45,241.597 239.558,246.558C234.075,248.668 231.287,250.953 232.597,252.264C232.993,252.66 239.686,249.935 247.36,246.253L253.97,243.082L253.708,245.166C252.594,254.017 263.37,253.23 278.11,243.384C284.494,239.119 284.781,238.486 278.767,241.934C265.569,249.502 256,251.208 256,245.995C256,244.795 257.947,240.5 258.491,240.5C259.467,240.5 266.97,235.108 270.175,232.103L273.75,228.75L285.684,225.75C300.079,222.131 300.049,221.709 285.608,224.695C275.231,226.84 274.975,226.868 275.328,225.822C276.464,222.458 274.771,220.931 272,222.819M273.998,224.375C273.991,225.327 271.599,227.489 270.25,227.761C268.757,228.063 268.76,228.055 270.939,226.032C273.033,224.089 274.003,223.563 273.998,224.375M51.5,227.25C51.5,228.241 51.72,228.531 52.375,228.405C52.856,228.312 53.25,227.792 53.25,227.25C53.25,226.708 52.856,226.188 52.375,226.095C51.72,225.969 51.5,226.259 51.5,227.25M67.5,227.25C67.5,228.028 67.783,228.5 68.25,228.5C68.717,228.5 69,228.028 69,227.25C69,226.472 68.717,226 68.25,226C67.783,226 67.5,226.472 67.5,227.25M195.682,226.748C195.524,227.159 195.48,228.397 195.586,229.498C195.691,230.599 195.749,231.5 195.715,231.5C195.681,231.5 194.942,231.145 194.072,230.711C190.261,228.81 186.758,231.811 187.11,236.677C187.436,241.193 190.94,243.405 194.634,241.428C195.435,240.999 195.75,240.999 195.893,241.428C195.998,241.743 196.402,242 196.792,242C197.373,242 197.5,240.569 197.5,234C197.5,227.149 197.39,226 196.734,226C196.313,226 195.839,226.337 195.682,226.748M206.72,226.648C205.981,228.573 206.762,241.74 207.625,241.905C208.169,242.01 208.5,241.765 208.5,241.258C208.5,240.516 208.599,240.513 209.611,241.222C213.975,244.278 219.065,238.713 216.819,233.339C215.594,230.406 211.527,229.239 209.125,231.13C208.641,231.512 208.5,230.989 208.5,228.811C208.5,226.078 207.435,224.784 206.72,226.648M383.24,227.435C377.859,229.879 378.987,235.299 385.237,237.032C389.3,238.159 390.496,239.05 389.521,240.225C388.751,241.152 384.921,241.269 382.537,240.438C380.752,239.816 380.283,240.097 379.82,242.067C379.45,243.638 381.891,244.5 386.711,244.5C396.604,244.5 398.525,235.521 389.063,233.513C385.621,232.783 384.521,231.93 385.5,230.75C386.226,229.875 389.301,229.759 391.328,230.529C392.842,231.105 394,230.21 394,228.464C394,226.593 386.642,225.89 383.24,227.435M45,228.75C45,230.167 44.81,230.5 44,230.5C43.444,230.5 43,230.833 43,231.25C43,231.667 43.444,232 44,232C44.919,232 45.001,232.336 45.008,236.125C45.016,240.879 45.223,241.37 47.4,241.805C48.798,242.085 49,241.991 49,241.063C49,240.333 48.686,240 48,240C47.083,240 47,239.667 47,236C47,232.333 47.083,232 48,232C48.556,232 49,231.667 49,231.25C49,230.833 48.556,230.5 48,230.5C47.19,230.5 47,230.167 47,228.75C47,227.333 46.81,227 46,227C45.19,227 45,227.333 45,228.75M73,228.75C73,230.167 72.81,230.5 72,230.5C71.45,230.5 71,230.811 71,231.192C71,231.572 71.45,232.001 72,232.145C72.902,232.381 73,232.827 73,236.714C73,241.262 73.914,242.716 76.218,241.831C77.382,241.385 77.165,240.538 75.75,240C74.57,239.551 74.5,239.316 74.5,235.762C74.5,232.083 74.527,232 75.75,232C76.528,232 77,231.717 77,231.25C77,230.783 76.528,230.5 75.75,230.5C74.655,230.5 74.5,230.283 74.5,228.75C74.5,227.528 74.274,227 73.75,227C73.226,227 73,227.528 73,228.75M169.5,228.75C169.5,230.167 169.31,230.5 168.5,230.5C167.944,230.5 167.5,230.833 167.5,231.25C167.5,231.667 167.944,232 168.5,232C169.426,232 169.5,232.333 169.5,236.482C169.5,241.275 169.89,242 172.467,242C173.945,242 173.863,240.121 172.375,239.91C171.323,239.76 171.25,239.508 171.25,236C171.25,232.492 171.323,232.24 172.375,232.09C172.994,232.002 173.5,231.624 173.5,231.25C173.5,230.876 172.994,230.498 172.375,230.41C171.513,230.287 171.213,229.87 171.093,228.625C170.871,226.322 169.5,226.43 169.5,228.75M295.192,227.721C294.492,229.546 295.193,230.246 297.88,230.401L300.5,230.552L300.5,244.5L305,244.5L305,230.5L307.417,230.5C310.298,230.5 310.39,230.431 310.107,228.503L309.887,227L302.678,227C296.861,227 295.415,227.139 295.192,227.721M317.113,235.625L317.25,244.25L329,244.532L329,241L322,241L322,237L328,237L328,233.5L322,233.5L322,230.5L329,230.5L329,227L316.976,227L317.113,235.625M338,235.723L338,244.5L350,244.5L350,241.044L346.457,240.897L342.913,240.75L342.832,234L342.75,227.25L340.375,227.098L338,226.945L338,235.723M356.474,227.375C356.266,230.434 356.667,241.377 357.01,242.019C358.171,244.188 365.209,245.262 368.701,243.803C371.677,242.559 372,241.588 372,233.889L372,227L367,227L367,233.4C367,240.411 366.787,241 364.25,241C361.713,241 361.5,240.411 361.5,233.4L361.5,227L359,227C357.625,227 356.489,227.169 356.474,227.375M398.031,227.29C398.227,228.321 397.961,228.59 397.295,228.037C396.754,227.589 396.502,227.592 396.217,228.053C395.992,228.417 396.056,228.524 396.38,228.324C396.674,228.142 397.01,228.276 397.126,228.622C397.292,229.114 397.517,229.101 398.169,228.564C398.809,228.035 399,228.023 399,228.509C399,228.856 398.606,229.458 398.125,229.847C397.335,230.486 397.36,230.502 398.375,230.01C399.687,229.374 399.822,228.39 398.722,227.477C398.294,227.121 397.983,227.038 398.031,227.29M5.142,230.346C1.516,231.063 0.101,237.678 2.962,240.538C5.694,243.271 11.422,241.817 11.484,238.375C11.509,237.025 10.308,237.337 9.079,239C6.032,243.121 1.318,237.338 4.278,233.111C5.313,231.634 8.221,231.567 9.116,233C9.816,234.121 11.5,234.359 11.5,233.337C11.5,231.554 7.811,229.819 5.142,230.346M17.75,230.604C17.2,230.919 16.476,231.531 16.141,231.964C15.609,232.65 15.53,232.607 15.516,231.625C15.505,230.833 15.2,230.5 14.484,230.5C13.032,230.5 13.17,241.627 14.625,241.906C15.386,242.051 15.5,241.649 15.5,238.819C15.5,234.64 16.107,233.085 17.997,232.426C18.957,232.091 19.5,231.559 19.5,230.951C19.5,229.863 19.159,229.796 17.75,230.604M23.16,230.787C17.906,233.444 19.806,242 25.65,242C27.933,242 31.101,239.401 30.073,238.373C29.651,237.951 29.147,238.151 28.101,239.153C26.354,240.827 24.819,240.864 23.227,239.273C20.947,236.993 21.496,236.5 26.315,236.5L30.631,236.5L30.331,234.652C29.752,231.081 26.279,229.209 23.16,230.787M34.7,230.69C33.285,231.328 32.5,232.345 32.5,233.541C32.5,234.411 33.966,233.998 34.515,232.973C35.379,231.357 39.25,231.756 39.25,233.46C39.25,234.532 38.905,234.749 36.25,235.345C32.988,236.079 32,236.944 32,239.067C32,241.608 35.907,242.96 38.335,241.259C39.269,240.605 39.465,240.605 40.008,241.259C40.807,242.222 42.5,242.216 42.5,241.25C42.5,240.838 42.275,240.5 42,240.5C41.707,240.5 41.5,238.776 41.5,236.327C41.5,230.749 39.059,228.725 34.7,230.69M98.657,230.732C93.17,233.118 95.061,242 101.056,242C103.935,242 107.284,238.461 105.172,237.651C104.657,237.453 104.222,237.583 104.092,237.973C103.23,240.561 100.149,241.232 98.536,239.183C96.306,236.347 97.751,232 100.923,232C101.71,232 102.749,232.446 103.25,233C104.222,234.074 105.5,234.339 105.5,233.467C105.5,230.841 101.804,229.363 98.657,230.732M111.142,230.351C105.011,231.537 106.864,242 113.206,242C119.075,242 120.268,232.598 114.669,230.469C113.406,229.989 113.069,229.978 111.142,230.351M124.25,230.577C123.7,230.9 123.085,231.409 122.883,231.707C122.659,232.038 122.512,231.908 122.508,231.375C122.503,230.831 122.115,230.5 121.484,230.5C120.514,230.5 120.474,230.757 120.609,236.125C120.789,243.315 122.146,244.558 122.398,237.764C122.564,233.305 123.269,232 125.516,232C127.535,232 127.941,232.866 128.103,237.519C128.227,241.071 128.388,241.765 129.125,241.906C129.908,242.056 130,241.578 130,237.342C130,231.193 127.735,228.529 124.25,230.577M137,230.355C136.588,230.506 135.856,230.974 135.375,231.393C134.587,232.079 134.5,232.073 134.5,231.327C134.5,230.872 134.162,230.5 133.75,230.5C133.127,230.5 133,231.472 133,236.25C133,241.028 133.127,242 133.75,242C134.347,242 134.502,241.261 134.507,238.375C134.517,233.765 135.209,232.304 137.489,232.086C139.966,231.848 140.5,232.869 140.5,237.846C140.5,241.205 140.644,242 141.25,242C142.06,242 142.387,232.852 141.617,231.7C140.738,230.383 138.609,229.763 137,230.355M147.657,230.732C143.686,232.459 143.402,239.656 147.236,241.403C150.253,242.777 154.5,241.265 154.5,238.817C154.5,237.808 153.438,238.062 152.112,239.388C150.129,241.371 146.5,240.151 146.5,237.5C146.5,236.578 146.833,236.5 150.75,236.5C155.478,236.5 155.595,236.391 154.268,233.216C153.153,230.547 150.433,229.525 147.657,230.732M159.191,230.774C154.262,233.261 156.059,242 161.5,242C163.717,242 166.5,239.934 166.5,238.288C166.5,237.02 165.278,237.379 164.079,239C161.905,241.94 158.387,240.35 158.3,236.387C158.216,232.547 162.335,230.148 164.116,233C164.747,234.011 166.5,234.399 166.5,233.528C166.5,231.197 161.836,229.44 159.191,230.774M178.157,230.732C174.235,232.438 173.991,239.696 177.798,241.431C180.719,242.762 185,241.296 185,238.964C185,237.769 184.225,237.908 182.708,239.375C180.695,241.322 177,240.096 177,237.481C177,236.583 177.361,236.5 181.25,236.5C185.978,236.5 186.095,236.391 184.768,233.216C183.653,230.547 180.933,229.525 178.157,230.732M269.5,230.228C269.5,230.532 263.136,235.568 261.313,236.706C259.56,237.802 259.885,237.188 262.951,233.612C264.247,232.101 265.863,230.785 266.732,230.532C268.504,230.016 269.5,229.907 269.5,230.228M51.5,236.287C51.5,241.286 51.607,242.051 52.287,241.912C53.543,241.654 53.629,230.5 52.375,230.5C51.592,230.5 51.5,231.109 51.5,236.287M56.309,233.842C57.018,235.716 57.976,238.261 58.438,239.496C59.519,242.387 60.761,242.694 61.755,240.316C64.7,233.268 65.479,230.433 64.427,230.593C63.633,230.714 63.14,231.572 62.255,234.372C60.403,240.228 60.552,240.19 58.824,235.25C57.534,231.561 57.049,230.721 56.135,230.592L55.02,230.433L56.309,233.842M67.5,236.25C67.5,241.028 67.627,242 68.25,242C68.873,242 69,241.028 69,236.25C69,231.472 68.873,230.5 68.25,230.5C67.627,230.5 67.5,231.472 67.5,236.25M78,230.756C78,230.896 78.98,233.45 80.178,236.431C82.521,242.258 82.467,244.5 79.984,244.5C79.333,244.5 79,244.839 79,245.5C79,246.762 80.507,246.827 81.913,245.625C83.67,244.123 88.65,230.407 87.369,230.597C86.559,230.717 86.032,231.657 84.928,234.949C84.153,237.258 83.426,239.241 83.312,239.355C83.198,239.469 82.375,237.523 81.484,235.031C80.23,231.524 79.653,230.5 78.932,230.5C78.419,230.5 78,230.615 78,230.756M218.5,230.612C218.5,230.712 219.486,233.246 220.691,236.243C223.14,242.336 223.143,244.5 220.701,244.5C219.354,244.5 219.023,245.848 220.254,246.321C221.794,246.911 223.393,245.09 225.019,240.891C229.234,230.014 229.093,230.5 228.037,230.5C227.284,230.5 226.796,231.371 225.729,234.625C223.914,240.156 223.897,240.159 222.16,235.137C220.947,231.628 220.428,230.718 219.571,230.59C218.982,230.502 218.5,230.512 218.5,230.612M27.586,232.827C29.352,234.426 28.735,235 25.25,235C21.778,235 21.568,234.839 22.778,233.111C23.723,231.763 26.245,231.614 27.586,232.827M115.511,233.375C117.574,235.991 115.846,240.5 112.782,240.5C109.986,240.5 108.397,236.008 110.212,233.239C111.383,231.45 114.048,231.519 115.511,233.375M152.222,233.111C153.432,234.839 153.222,235 149.75,235C146.307,235 145.82,234.581 147.327,232.914C148.516,231.601 151.24,231.71 152.222,233.111M182.722,233.111C183.932,234.839 183.722,235 180.25,235C176.778,235 176.568,234.839 177.778,233.111C178.322,232.335 179.067,232 180.25,232C181.433,232 182.178,232.335 182.722,233.111M194.605,232.875C197.424,236.118 194.838,241.468 191.036,240.261C188.88,239.577 188.079,234.847 189.797,232.948C190.885,231.746 193.588,231.705 194.605,232.875M214.464,233.317C215.902,235.146 215.82,237.726 214.273,239.273C211.837,241.709 208.5,239.83 208.5,236.023C208.5,232.245 212.274,230.533 214.464,233.317M38.488,239.61C36.561,241.171 34,240.497 34,238.43C34,237.324 34.484,237.037 37.117,236.582C39.708,236.134 40.533,237.955 38.488,239.61"/>
    </g>
</svg>
