<?xml version="1.0" encoding="UTF-8" standalone="no"?>
<!DOCTYPE svg PUBLIC "-//W3C//DTD SVG 1.1//EN" "http://www.w3.org/Graphics/SVG/1.1/DTD/svg11.dtd">
<svg width="100%" height="100%" viewBox="0 0 415 132" version="1.1" xmlns="http://www.w3.org/2000/svg" xmlns:xlink="http://www.w3.org/1999/xlink" xml:space="preserve" xmlns:serif="http://www.serif.com/" style="fill-rule:evenodd;clip-rule:evenodd;stroke-linejoin:round;stroke-miterlimit:2;">
    <g transform="matrix(1,0,0,1,0,-0.173996)">
        <path d="M146.621,13.002L146.621,13.813C146.621,16.198 144.318,12.822 144.318,19.312L144.318,34.591C144.318,41.76 140.235,45.501 134.123,45.501C127.699,45.501 123.811,41.944 123.811,34.912L123.811,17.059C123.811,13.313 121.632,15.796 121.632,13.813L121.632,13.002L130.078,13.002L130.078,13.813C130.078,15.796 127.896,13.313 127.896,17.059L127.896,35.312C127.896,40.362 130.199,43.339 134.721,43.339C141.583,43.339 142.14,36.757 142.14,34.322L142.14,19.312C142.14,12.822 139.717,16.198 139.717,13.813L139.717,13.002L146.621,13.002Z" style="fill-rule:nonzero;"/>
        <path d="M148.565,23.142L154.08,22.961L154.08,25.215C155.906,23.322 157.769,22.468 160.226,22.468C164.552,22.468 166.536,24.764 166.536,28.551L166.536,40.863C166.536,44.059 168.639,41.855 168.639,43.879L168.639,44.691L160.585,44.691L160.585,43.879C160.585,41.855 162.726,44.059 162.726,40.863L162.726,29.814C162.726,26.976 162.411,24.632 158.759,24.632C157.255,24.632 155.151,25.757 154.321,27.29L154.321,40.863C154.321,44.059 156.459,41.855 156.459,43.879L156.459,44.691L148.565,44.691L148.565,43.879C148.565,41.944 150.509,43.924 150.509,40.863L150.509,26.976C150.509,23.912 148.565,25.846 148.565,24.043L148.565,23.142Z" style="fill-rule:nonzero;"/>
        <path d="M177.367,17.059C177.367,18.543 176.256,19.805 174.945,19.805C173.638,19.805 172.525,18.543 172.525,17.059C172.525,15.567 173.638,14.304 174.945,14.304C176.256,14.304 177.367,15.567 177.367,17.059ZM177.164,40.863C177.164,43.924 179.072,41.944 179.072,43.879L179.072,44.691L171.415,44.691L171.415,43.879C171.415,41.944 173.357,43.924 173.357,40.863L173.357,26.976C173.357,23.912 171.415,25.894 171.415,23.953L171.415,23.142L177.164,22.961L177.164,40.863Z" style="fill-rule:nonzero;"/>
        <path d="M195.495,30.943C195.891,29.953 196.805,27.558 196.805,26.525C196.805,24.674 194.582,25.666 194.582,23.953L194.582,23.142L202.121,23.142L202.121,23.953C202.121,26.027 200.731,23.23 198.908,28.057L192.401,45.007L190.219,45.007L183.394,27.608C181.73,23.322 180.498,26.076 180.498,23.953L180.498,23.142L189.664,23.142L189.664,23.953C189.664,25.666 187.441,24.764 187.441,26.298C187.441,26.839 187.801,27.608 187.957,28.057L192.203,39.732L195.495,30.943Z" style="fill-rule:nonzero;"/>
        <path d="M216.715,31.035C216.916,27.739 215.766,24.362 212.393,24.362C209.061,24.362 207.552,27.649 207.312,31.035L216.715,31.035ZM207.197,33.199C206.959,38.108 209.261,43.204 214.1,43.204C216.596,43.204 218.382,41.584 219.931,39.462L221.282,40.633C219.255,43.743 216.756,45.368 213.308,45.368C207.397,45.368 203.11,40.407 203.11,33.69C203.11,27.338 206.918,22.468 212.628,22.468C218.067,22.468 221.082,27.338 220.922,33.199L207.197,33.199Z" style="fill-rule:nonzero;"/>
        <path d="M229.493,29.771L229.568,29.771C230.167,26.976 232.031,22.468 235.007,22.468C236.394,22.468 237.585,23.37 237.585,25.033C237.585,26.435 236.472,27.338 235.284,27.338C234.252,27.338 233.654,26.705 233.179,26.705C231.115,26.705 229.453,33.649 229.453,36.666L229.453,40.863C229.453,44.374 231.872,41.584 231.872,43.879L231.872,44.691L223.382,44.691L223.382,43.879C223.382,41.624 225.683,44.286 225.683,40.863L225.683,26.976C225.683,23.55 223.382,26.207 223.382,23.953L223.382,23.142L229.493,22.961L229.493,29.771Z" style="fill-rule:nonzero;"/>
        <path d="M239.367,41.042C239.367,39.596 240.479,38.649 241.709,38.649C242.702,38.649 244.051,39.37 244.051,40.679C244.051,41.042 243.85,41.489 243.85,41.855C243.85,43.383 245.675,43.473 246.628,43.473C248.612,43.473 251.11,42.394 251.11,39.821C251.11,34.14 240.28,36.666 240.28,29.051C240.28,24.583 244.759,22.468 248.133,22.468C250.116,22.468 253.969,23.23 253.969,26.255C253.969,27.699 252.854,28.461 251.704,28.461C250.712,28.461 249.488,27.83 249.488,26.477C249.488,26.166 249.565,25.846 249.565,25.535C249.565,24.494 248.175,24.362 247.5,24.362C245.952,24.362 243.889,25.485 243.889,27.519C243.889,32.837 254.918,30.493 254.918,38.243C254.918,43.068 250.475,45.368 246.744,45.368C244.604,45.368 239.367,44.42 239.367,41.042Z" style="fill-rule:nonzero;"/>
        <path d="M264.44,17.059C264.44,18.543 263.331,19.805 262.018,19.805C260.715,19.805 259.597,18.543 259.597,17.059C259.597,15.567 260.715,14.304 262.018,14.304C263.331,14.304 264.44,15.567 264.44,17.059ZM264.241,40.863C264.241,43.924 266.145,41.944 266.145,43.879L266.145,44.691L258.489,44.691L258.489,43.879C258.489,41.944 260.432,43.924 260.432,40.863L260.432,26.976C260.432,23.912 258.489,25.894 258.489,23.953L258.489,23.142L264.241,22.961L264.241,40.863Z" style="fill-rule:nonzero;"/>
        <path d="M268.368,24.542C268.368,22.599 271.143,24.362 271.143,21.116L271.143,18.141C271.143,16.968 271.54,16.83 272.411,16.79L274.952,16.608L274.952,23.142L279.634,23.142L279.634,25.576L274.952,25.576L274.952,38.97C274.952,41.083 275.349,42.932 277.569,42.932C278.481,42.932 278.919,42.797 279.71,42.301L279.987,42.125L280.743,43.52C279.554,44.645 277.491,45.368 275.905,45.368C271.977,45.368 271.143,42.301 271.143,40.05L271.143,25.576L268.368,25.576L268.368,24.542Z" style="fill-rule:nonzero;"/>
        <path d="M296.809,30.586C297.126,29.682 297.958,27.29 297.958,26.345C297.958,24.403 295.899,25.666 295.899,23.953L295.899,23.142L303.038,23.142L303.038,23.953C303.038,25.846 301.849,23.502 300.339,27.427L292.958,46.718C291.454,50.641 289.626,54.247 285.421,54.247C284.116,54.247 282.253,53.389 282.253,51.544C282.253,50.051 283.282,49.198 284.513,49.198C287.169,49.198 286.061,51.452 287.169,51.452C289.153,51.452 290.899,46.493 291.575,44.691L284.554,27.427C282.925,23.411 281.573,25.936 281.573,23.953L281.573,23.142L290.624,23.142L290.624,23.953C290.624,25.716 288.399,24.583 288.399,25.936C288.399,26.435 288.833,27.427 289.036,27.879L293.636,39.1L296.809,30.586Z" style="fill-rule:nonzero;"/>
        <path d="M318.468,33.69C318.468,37.927 319.421,43.699 324.104,43.699C328.585,43.699 329.575,38.108 329.575,34.14C329.575,29.902 328.704,24.132 323.944,24.132C319.54,24.132 318.468,29.721 318.468,33.69ZM333.979,33.74C333.979,40.092 329.895,45.368 324.143,45.368C318.507,45.368 314.067,40.633 314.067,34.099C314.067,27.739 318.153,22.468 323.903,22.468C329.54,22.468 333.979,27.199 333.979,33.74Z" style="fill-rule:nonzero;"/>
        <path d="M336.557,25.576L336.557,24.764C336.557,24.002 336.794,23.912 337.313,23.731C338.897,23.19 338.7,22.781 338.819,20.935C339.056,17.19 339.809,12.321 344.097,12.321C345.202,12.321 346.591,13.091 346.591,14.625C346.591,15.885 345.722,16.608 344.768,16.608C344.015,16.608 343.661,16.198 343.38,15.838C343.143,15.436 342.983,15.076 342.669,15.076C342.27,15.076 342.149,15.707 342.149,16.067C342.306,19.985 342.548,21.427 342.468,23.142L345.684,23.142L345.684,25.576L342.468,25.576L342.468,40.633C342.468,44.24 344.929,41.624 344.929,43.879L344.929,44.691L336.557,44.691L336.557,43.879C336.557,41.855 338.661,44.059 338.661,40.863L338.661,25.576L336.557,25.576Z" style="fill-rule:nonzero;"/>
        <path d="M124.148,105.988C124.148,102.815 127.637,106.783 127.637,100.795L127.637,63.079C127.637,57.092 124.211,61.059 124.211,57.883L124.211,56.585L137.664,56.585L137.664,57.883C137.664,61.059 134.176,57.092 134.176,63.079L134.176,104.041L144.457,104.041C154.996,104.041 150.807,94.52 154.676,94.52L156.138,94.52L156.138,107.289L124.148,107.289L124.148,105.988Z" style="fill-rule:nonzero;"/>
        <path d="M179.24,85.432C179.559,80.167 177.717,74.76 172.321,74.76C166.992,74.76 164.58,80.024 164.198,85.432L179.24,85.432ZM164.01,88.895C163.63,96.757 167.309,104.908 175.051,104.908C179.053,104.908 181.905,102.311 184.383,98.921L186.543,100.795C183.306,105.772 179.307,108.371 173.783,108.371C164.326,108.371 157.469,100.436 157.469,89.688C157.469,79.516 163.564,71.731 172.705,71.731C181.397,71.731 186.222,79.516 185.971,88.895L164.01,88.895Z" style="fill-rule:nonzero;"/>
        <path d="M186.855,75.046C186.855,71.948 191.3,74.76 191.3,69.567L191.3,64.807C191.3,62.932 191.936,62.716 193.329,62.645L197.393,62.354L197.393,72.813L204.885,72.813L204.885,76.704L197.393,76.704L197.393,98.128C197.393,101.518 198.028,104.473 201.583,104.473C203.041,104.473 203.743,104.258 205.01,103.465L205.454,103.176L206.659,105.412C204.757,107.217 201.453,108.371 198.915,108.371C192.633,108.371 191.3,103.465 191.3,99.86L191.3,76.704L186.855,76.704L186.855,75.046Z" style="fill-rule:nonzero;"/>
        <path d="M217.957,101.156C217.957,106.205 221.194,102.815 221.194,105.988L221.194,107.289L208.498,107.289L208.498,105.988C208.498,102.744 211.862,106.278 211.862,101.156L211.862,62.716C211.862,57.596 208.498,61.13 208.498,57.883L208.498,56.585L217.957,56.298L217.957,75.477C221.069,73.174 223.986,71.731 227.73,71.731C237.315,71.731 238.267,79.301 238.267,81.466L238.267,101.156C238.267,106.205 241.568,102.744 241.568,105.988L241.568,107.289L229.003,107.289L229.003,105.988C229.003,102.815 232.177,106.133 232.177,101.156L232.177,83.194C232.177,80.889 232.24,75.19 225.828,75.19C223.162,75.19 219.608,76.852 217.957,79.233L217.957,101.156Z" style="fill-rule:nonzero;"/>
        <path d="M253.755,102.238C255.533,104.041 258.135,105.125 260.48,105.125C268.161,105.125 270.132,96.757 270.132,89.616C270.132,82.403 267.845,74.975 260.48,74.975C258.135,74.975 255.533,76.055 253.755,77.858L253.755,102.238ZM253.755,74.612C256.42,72.671 259.528,71.731 262.702,71.731C271.653,71.731 277.175,79.805 277.175,89.833C277.175,99.86 271.653,108.371 262.259,108.371C259.022,108.371 255.278,106.854 252.676,104.692L248.932,108.371L247.662,108.371L247.662,62.716C247.662,57.596 244.297,61.13 244.297,57.883L244.297,56.585L253.755,56.298L253.755,74.612Z" style="fill-rule:nonzero;"/>
        <path d="M289.62,83.413L289.741,83.413C290.696,78.94 293.677,71.731 298.438,71.731C300.657,71.731 302.565,73.174 302.565,75.841C302.565,78.075 300.788,79.516 298.882,79.516C297.233,79.516 296.28,78.507 295.52,78.507C292.216,78.507 289.554,89.616 289.554,94.45L289.554,101.156C289.554,106.783 293.425,102.311 293.425,105.988L293.425,107.289L279.841,107.289L279.841,105.988C279.841,102.383 283.524,106.639 283.524,101.156L283.524,78.94C283.524,73.462 279.841,77.719 279.841,74.114L279.841,72.813L289.62,72.526L289.62,83.413Z" style="fill-rule:nonzero;"/>
        <path d="M313.798,63.079C313.798,65.458 312.02,67.479 309.925,67.479C307.833,67.479 306.054,65.458 306.054,63.079C306.054,60.7 307.833,58.676 309.925,58.676C312.02,58.676 313.798,60.7 313.798,63.079ZM313.483,101.156C313.483,106.061 316.528,102.887 316.528,105.988L316.528,107.289L304.278,107.289L304.278,105.988C304.278,102.887 307.386,106.061 307.386,101.156L307.386,78.94C307.386,74.04 304.278,77.208 304.278,74.114L304.278,72.813L313.483,72.526L313.483,101.156Z" style="fill-rule:nonzero;"/>
        <path d="M342.995,77.858C341.218,76.055 338.614,74.975 336.266,74.975C328.585,74.975 326.622,83.341 326.622,90.483C326.622,97.696 328.905,105.125 336.266,105.125C338.614,105.125 341.218,104.041 342.995,102.238L342.995,77.858ZM342.995,62.716C342.995,57.669 339.692,61.13 339.692,57.883L339.692,56.585L349.089,56.298L349.089,101.156C349.089,105.988 352.071,102.959 352.071,105.988L352.071,107.289L343.186,107.289L343.186,104.401C340.647,107.071 337.286,108.371 334.046,108.371C325.097,108.371 319.575,100.291 319.575,90.266C319.575,80.241 325.097,71.731 334.493,71.731C337.54,71.731 340.327,73.03 342.995,74.612L342.995,62.716Z" style="fill-rule:nonzero;"/>
        <path d="M369.018,94.592C373.905,94.592 375.556,88.536 375.556,83.991C375.556,79.372 373.843,74.04 369.083,74.04C363.938,74.04 362.29,79.733 362.29,84.567C362.29,89.401 364.128,94.592 369.018,94.592ZM361.208,102.024C363.686,101.446 366.222,100.94 368.765,100.94C381.204,100.94 383.616,107.791 383.616,111.112C383.616,119.768 374.542,122.578 368.321,122.578C364.638,122.578 354.86,121.281 354.86,115.295C354.86,112.916 356.515,111.399 358.606,111.399C360.128,111.399 362.036,112.553 362.036,114.574C362.036,115.44 361.653,116.233 361.653,116.883C361.653,119.477 367.243,119.551 368.765,119.551C372.063,119.551 378.159,117.965 378.159,113.201C378.159,107.576 370.352,106.854 366.8,106.854C361.462,106.854 356.768,108.371 356.071,108.371C355.559,108.371 355.559,107.865 355.69,107.576L361.208,94.667C357.975,92.501 355.878,88.966 355.878,84.712C355.878,76.559 362.413,71.731 369.206,71.731C371.811,71.731 374.032,72.596 376.319,73.895C376.759,71.083 378.542,68.846 381.204,68.846C383.044,68.846 384.821,70.071 384.821,72.38C384.821,74.114 383.616,75.339 382.03,75.339C379.938,75.339 379.806,73.678 379.237,73.678C378.727,73.678 378.474,74.329 378.474,74.829C378.474,76.421 381.966,78.723 381.966,83.846C381.966,91.85 375.876,96.899 369.083,96.899C367.304,96.899 365.464,96.757 363.813,95.964L361.208,102.024Z" style="fill-rule:nonzero;"/>
        <path d="M407.481,85.432C407.796,80.167 405.956,74.76 400.561,74.76C395.229,74.76 392.817,80.024 392.442,85.432L407.481,85.432ZM392.249,88.895C391.864,96.757 395.548,104.908 403.292,104.908C407.288,104.908 410.149,102.311 412.624,98.921L414.78,100.795C411.544,105.772 407.544,108.371 402.022,108.371C392.565,108.371 385.708,100.436 385.708,89.688C385.708,79.516 391.804,71.731 400.942,71.731C409.64,71.731 414.464,79.516 414.214,88.895L392.249,88.895Z" style="fill-rule:nonzero;"/>
        <path d="M84.674,60.544C84.674,60.74 84.672,60.998 84.667,61.298C84.579,66.377 83.343,85.583 67.342,95.079C49.577,105.614 47.27,108.326 47.27,108.326C47.27,108.326 44.788,105.457 27.2,95.079C11.175,85.622 9.955,66.381 9.869,61.298C9.864,60.998 9.863,60.74 9.863,60.544L9.863,10.961C10.879,10.627 11.916,10.305 12.974,9.998C22.942,7.102 34.689,5.429 47.268,5.429C59.847,5.429 71.593,7.102 81.56,9.998C82.619,10.305 83.657,10.627 84.674,10.961L84.674,60.544ZM85.925,5.256C74.689,2.034 61.448,0.174 47.268,0.174C33.088,0.174 19.848,2.034 8.611,5.256C7.418,5.598 6.249,5.955 5.103,6.327L5.103,61.487C5.103,61.705 5.105,61.994 5.11,62.326C5.208,67.98 6.582,89.386 24.645,99.906C44.473,111.453 47.27,114.645 47.27,114.645C47.27,114.645 49.871,111.628 69.896,99.906C87.933,89.343 89.326,67.976 89.426,62.326C89.431,61.994 89.433,61.706 89.433,61.487L89.433,6.327C88.287,5.955 87.118,5.598 85.925,5.256Z" style="fill-rule:nonzero;"/>
        <path d="M63.147,48.212C65.284,47.705 67.634,46.999 69.008,45.804C70.432,44.566 71.373,42.299 74.073,42.085C76.649,41.881 77.929,44.372 77.929,44.372C77.929,44.372 78.666,42.43 77.108,40.611C75.606,38.859 73.386,37.899 70.892,38.721C68.495,39.511 68.702,39.829 65.922,41.848C64.326,43.006 62.695,42.751 61.373,42.357L70.316,28.616L55.871,38.071C57.023,36.203 58.184,34.042 58.31,32.224C58.444,30.343 57.504,28.073 59.264,26.012C60.941,24.046 63.606,24.903 63.606,24.903C63.606,24.903 62.755,23.007 60.368,22.824C58.068,22.649 55.82,23.54 54.639,25.882C53.499,28.139 53.87,28.216 53.33,31.609C53.032,33.492 51.775,34.463 50.595,35.117L47.393,18.788L43.593,36.205C43.083,34.028 42.372,31.593 41.148,30.184C39.908,28.761 37.64,27.82 37.428,25.121C37.222,22.543 39.714,21.264 39.714,21.264C39.714,21.264 37.77,20.525 35.953,22.085C34.204,23.587 33.243,25.806 34.064,28.3C34.853,30.7 35.173,30.491 37.189,33.273C38.346,34.869 38.093,36.499 37.699,37.819L23.958,28.875L33.411,43.32C31.543,42.168 29.383,41.008 27.569,40.881C25.685,40.751 23.417,41.686 21.356,39.929C19.389,38.254 20.247,35.588 20.247,35.588C20.247,35.588 18.351,36.436 18.168,38.827C17.991,41.127 18.884,43.375 21.227,44.555C23.483,45.696 23.56,45.324 26.951,45.862C28.898,46.171 29.872,47.504 30.528,48.716L14.489,52.11L31.391,55.638C29.254,56.146 26.904,56.852 25.53,58.047C24.103,59.285 23.164,61.551 20.463,61.766C17.886,61.969 16.608,59.479 16.608,59.479C16.608,59.479 15.867,61.422 17.431,63.241C18.928,64.991 21.15,65.95 23.645,65.131C26.045,64.34 25.836,64.021 28.615,62.006C30.211,60.847 31.84,61.1 33.161,61.495L24.221,75.234L38.665,65.778C37.514,67.649 36.351,69.81 36.226,71.626C36.094,73.507 37.032,75.778 35.274,77.838C33.598,79.803 30.932,78.947 30.932,78.947C30.932,78.947 31.782,80.843 34.17,81.025C36.468,81.204 38.718,80.309 39.9,77.967C41.037,75.711 40.667,75.634 41.206,72.241C41.516,70.295 42.848,69.321 44.06,68.666L47.452,84.706L50.982,67.8C51.489,69.938 52.196,72.291 53.391,73.666C54.627,75.09 56.896,76.029 57.109,78.728C57.314,81.307 54.823,82.587 54.823,82.587C54.823,82.587 56.764,83.324 58.584,81.765C60.335,80.264 61.292,78.042 60.474,75.549C59.682,73.149 59.364,73.359 57.348,70.578C56.19,68.982 56.444,67.352 56.838,66.031L70.579,74.974L61.124,60.529C62.992,61.68 65.154,62.841 66.97,62.969C68.851,63.099 71.121,62.164 73.182,63.922C75.149,65.599 74.29,68.263 74.29,68.263C74.29,68.263 76.188,67.411 76.37,65.024C76.545,62.725 75.655,60.475 73.308,59.294C71.056,58.155 70.977,58.527 67.584,57.989C65.639,57.679 64.665,56.347 64.01,55.132L80.049,51.741L63.147,48.212Z" style="fill-rule:nonzero;"/>
        <path d="M75.398,107.883L75.548,107.883L76.293,107.904L80.908,114.81C85.244,112.874 89.841,111.697 94.613,111.297C93.066,110.135 90.253,108.184 87.554,107.184L86.874,106.933C86.874,106.933 91.011,100.163 91.996,98.549C85.205,99.275 78.684,101.149 72.602,104.157C69.275,105.805 66.167,107.769 63.31,109.99C69.578,107.841 74.621,107.873 74.862,107.871L75.398,107.883Z" style="fill-rule:nonzero;"/>
        <path d="M73.225,108.967C70.901,109.135 66.488,109.711 61.759,111.67C62.227,112.169 63.221,113.226 64.384,114.463C67.379,113.109 69.822,111.571 71.66,110.232C72.19,109.827 72.711,109.404 73.225,108.967Z" style="fill-rule:nonzero;"/>
        <path d="M19.015,107.755L19.436,107.762L19.75,107.755C19.992,107.757 25.035,107.725 31.301,109.875C28.445,107.653 25.337,105.689 22.01,104.041C15.927,101.032 9.406,99.159 2.617,98.434C3.601,100.047 7.738,106.817 7.738,106.817L7.058,107.069C4.359,108.068 1.546,110.019 0,111.181C4.749,111.58 9.327,112.747 13.645,114.666L18.319,107.788L19.015,107.755Z" style="fill-rule:nonzero;"/>
        <path d="M76.099,121.305L73.961,120.317L72.666,119.718L72.454,119.619L72.436,119.9L72.331,121.599L72.208,123.584L71.056,124.259L71.201,122.579L71.356,120.779L71.481,119.325L67.348,117.424L68.5,116.749L71.796,118.277L72.064,114.66L73.16,114.019L72.777,118.54L73.689,118.954L75.018,119.556L77.31,120.594L76.099,121.305ZM64.839,126.861C63.028,127.483 61.606,126.736 60.895,124.672L59.416,120.365L60.469,120.003L61.901,124.173C62.387,125.584 63.162,126.401 64.52,125.934C65.879,125.468 65.989,124.346 65.503,122.936L64.07,118.765L65.123,118.404L66.603,122.71C67.313,124.775 66.65,126.238 64.839,126.861ZM53.985,129.248L52.786,121.57L53.886,121.398L54.933,128.109L58.146,127.607L58.297,128.574L53.985,129.248ZM45.969,122.893L43.563,122.668L42.931,129.432L41.823,129.328L42.455,122.565L40.049,122.34L40.14,121.364L46.059,121.917L45.969,122.893ZM35.491,128.35L35.26,126.249L31.594,125.219L30.302,126.891L29.176,126.574L34.475,119.99L35.6,120.307L36.659,128.679L35.491,128.35ZM25.954,125.13L24.941,124.67L27.633,118.738L28.153,117.593L28.543,117.77L29.167,118.053L25.954,125.13ZM23.357,119.938L20.902,118.424L20.732,118.7L20.069,119.774L19.044,121.437L18.096,120.853L19.155,119.135L19.815,118.066L22.176,114.238L25.692,116.406L25.177,117.239L22.609,115.656L21.416,117.59L23.871,119.103L23.357,119.938ZM80.556,116.354C80.327,116.017 80.089,115.663 79.846,115.304C77.962,112.516 75.757,109.252 75.382,108.696C72.333,111.418 68.898,113.639 65.2,115.331C64.841,115.495 64.484,115.66 64.121,115.815C58.949,118.004 53.287,119.164 47.428,119.164C41.523,119.164 35.776,117.964 30.495,115.695C30.134,115.539 29.779,115.37 29.422,115.205C25.741,113.5 22.298,111.276 19.212,108.559C18.838,109.112 16.628,112.385 14.742,115.176C14.498,115.537 14.26,115.89 14.032,116.227C12.996,117.76 12.168,118.987 11.983,119.259C21.92,127.475 34.482,132 47.428,132C60.413,132 72.881,127.523 82.609,119.395C82.425,119.122 81.594,117.892 80.556,116.354ZM32.184,124.437L35.164,125.274L34.717,121.146L32.184,124.437Z" style="fill-rule:nonzero;"/>
        <path d="M30.228,114.347C31.392,113.11 32.385,112.053 32.853,111.555C27.976,109.58 23.606,109.006 21.304,108.844C23.205,110.399 26.225,112.536 30.228,114.347Z" style="fill-rule:nonzero;"/>
    </g>
</svg>
