<?xml version="1.0" encoding="UTF-8" standalone="no"?>
<!DOCTYPE svg PUBLIC "-//W3C//DTD SVG 1.1//EN" "http://www.w3.org/Graphics/SVG/1.1/DTD/svg11.dtd">
<svg width="100%" height="100%" viewBox="0 0 255 347" version="1.1" xmlns="http://www.w3.org/2000/svg" xmlns:xlink="http://www.w3.org/1999/xlink" xml:space="preserve" xmlns:serif="http://www.serif.com/" style="fill-rule:evenodd;clip-rule:evenodd;stroke-linejoin:round;stroke-miterlimit:2;">
    <g transform="matrix(1,0,0,1,0,-0.0369873)">
        <path d="M50.664,0.634L50.664,1.346C50.664,3.439 48.642,0.476 48.642,6.171L48.642,19.576C48.642,25.865 45.06,29.147 39.699,29.147C34.062,29.147 30.652,26.026 30.652,19.856L30.652,4.194C30.652,0.908 28.74,3.086 28.74,1.346L28.74,0.634L36.15,0.634L36.15,1.346C36.15,3.086 34.236,0.908 34.236,4.194L34.236,20.208C34.236,24.638 36.255,27.248 40.222,27.248C46.244,27.248 46.732,21.474 46.732,19.338L46.732,6.171C46.732,0.476 44.605,3.439 44.605,1.346L44.605,0.634L50.664,0.634Z" style="fill-rule:nonzero;"/>
        <path d="M52.369,9.53L57.207,9.371L57.207,11.349C58.808,9.688 60.443,8.94 62.599,8.94C66.394,8.94 68.134,10.954 68.134,14.276L68.134,25.077C68.134,27.881 69.98,25.947 69.98,27.723L69.98,28.435L62.914,28.435L62.914,27.723C62.914,25.947 64.793,27.881 64.793,25.077L64.793,15.383C64.793,12.895 64.515,10.838 61.312,10.838C59.992,10.838 58.146,11.824 57.418,13.168L57.418,25.077C57.418,27.881 59.295,25.947 59.295,27.723L59.295,28.435L52.369,28.435L52.369,27.723C52.369,26.026 54.074,27.763 54.074,25.077L54.074,12.895C54.074,10.205 52.369,11.903 52.369,10.321L52.369,9.53Z" style="fill-rule:nonzero;"/>
        <path d="M77.636,4.194C77.636,5.496 76.662,6.603 75.511,6.603C74.365,6.603 73.388,5.496 73.388,4.194C73.388,2.885 74.365,1.778 75.511,1.778C76.662,1.778 77.636,2.885 77.636,4.194ZM77.459,25.077C77.459,27.763 79.132,26.026 79.132,27.723L79.132,28.435L72.416,28.435L72.416,27.723C72.416,26.026 74.119,27.763 74.119,25.077L74.119,12.895C74.119,10.205 72.416,11.946 72.416,10.242L72.416,9.53L77.459,9.371L77.459,25.077Z" style="fill-rule:nonzero;"/>
        <path d="M93.541,16.375C93.888,15.505 94.689,13.406 94.689,12.499C94.689,10.874 92.74,11.745 92.74,10.242L92.74,9.53L99.353,9.53L99.353,10.242C99.353,12.061 98.134,9.609 96.535,13.844L90.826,28.712L88.912,28.712L82.925,13.449C81.464,9.688 80.384,12.104 80.384,10.242L80.384,9.53L88.425,9.53L88.425,10.242C88.425,11.745 86.474,10.954 86.474,12.298C86.474,12.773 86.791,13.449 86.927,13.844L90.652,24.084L93.541,16.375Z" style="fill-rule:nonzero;"/>
        <path d="M112.158,16.454C112.334,13.564 111.324,10.601 108.365,10.601C105.443,10.601 104.119,13.485 103.908,16.454L112.158,16.454ZM103.807,18.353C103.598,22.661 105.617,27.13 109.863,27.13C112.053,27.13 113.621,25.709 114.979,23.847L116.164,24.875C114.385,27.605 112.193,29.029 109.168,29.029C103.982,29.029 100.223,24.677 100.223,18.785C100.223,13.211 103.562,8.94 108.572,8.94C113.344,8.94 115.988,13.211 115.848,18.353L103.807,18.353Z" style="fill-rule:nonzero;"/>
        <path d="M123.367,15.347L123.434,15.347C123.959,12.895 125.594,8.94 128.205,8.94C129.422,8.94 130.466,9.731 130.466,11.191C130.466,12.42 129.49,13.211 128.447,13.211C127.543,13.211 127.018,12.658 126.602,12.658C124.791,12.658 123.332,18.748 123.332,21.395L123.332,25.077C123.332,28.158 125.455,25.709 125.455,27.723L125.455,28.435L118.006,28.435L118.006,27.723C118.006,25.746 120.025,28.079 120.025,25.077L120.025,12.895C120.025,9.889 118.006,12.219 118.006,10.242L118.006,9.53L123.367,9.371L123.367,15.347Z" style="fill-rule:nonzero;"/>
        <path d="M132.029,25.235C132.029,23.966 133.006,23.135 134.084,23.135C134.955,23.135 136.139,23.768 136.139,24.915C136.139,25.235 135.963,25.626 135.963,25.947C135.963,27.288 137.564,27.367 138.4,27.367C140.141,27.367 142.332,26.421 142.332,24.163C142.332,19.18 132.83,21.395 132.83,14.714C132.83,10.795 136.762,8.94 139.721,8.94C141.461,8.94 144.84,9.609 144.84,12.262C144.84,13.528 143.863,14.197 142.854,14.197C141.982,14.197 140.908,13.643 140.908,12.456C140.908,12.183 140.977,11.903 140.977,11.629C140.977,10.716 139.758,10.601 139.166,10.601C137.807,10.601 135.998,11.586 135.998,13.37C135.998,18.037 145.674,15.98 145.674,22.779C145.674,27.011 141.775,29.029 138.502,29.029C136.625,29.029 132.029,28.198 132.029,25.235Z" style="fill-rule:nonzero;"/>
        <path d="M154.027,4.194C154.027,5.496 153.053,6.603 151.902,6.603C150.758,6.603 149.779,5.496 149.779,4.194C149.779,2.885 150.758,1.778 151.902,1.778C153.053,1.778 154.027,2.885 154.027,4.194ZM153.852,25.077C153.852,27.763 155.523,26.026 155.523,27.723L155.523,28.435L148.807,28.435L148.807,27.723C148.807,26.026 150.512,27.763 150.512,25.077L150.512,12.895C150.512,10.205 148.807,11.946 148.807,10.242L148.807,9.53L153.852,9.371L153.852,25.077Z" style="fill-rule:nonzero;"/>
        <path d="M157.473,10.759C157.473,9.055 159.908,10.601 159.908,7.753L159.908,5.143C159.908,4.115 160.256,3.993 161.02,3.956L163.248,3.798L163.248,9.53L167.357,9.53L167.357,11.665L163.248,11.665L163.248,23.415C163.248,25.271 163.596,26.892 165.545,26.892C166.346,26.892 166.729,26.774 167.424,26.339L167.668,26.184L168.33,27.407C167.285,28.396 165.477,29.029 164.084,29.029C160.639,29.029 159.908,26.339 159.908,24.365L159.908,11.665L157.473,11.665L157.473,10.759Z" style="fill-rule:nonzero;"/>
        <path d="M182.426,16.059C182.703,15.268 183.432,13.168 183.432,12.341C183.432,10.637 181.625,11.745 181.625,10.242L181.625,9.53L187.889,9.53L187.889,10.242C187.889,11.903 186.846,9.846 185.521,13.29L179.047,30.214C177.727,33.656 176.123,36.82 172.434,36.82C171.289,36.82 169.654,36.066 169.654,34.447C169.654,33.139 170.557,32.39 171.637,32.39C173.967,32.39 172.994,34.368 173.967,34.368C175.707,34.368 177.24,30.017 177.832,28.435L171.672,13.29C170.244,9.767 169.059,11.982 169.059,10.242L169.059,9.53L176.998,9.53L176.998,10.242C176.998,11.787 175.047,10.795 175.047,11.982C175.047,12.42 175.428,13.29 175.605,13.686L179.641,23.531L182.426,16.059Z" style="fill-rule:nonzero;"/>
        <path d="M201.426,18.785C201.426,22.502 202.262,27.565 206.371,27.565C210.301,27.565 211.17,22.661 211.17,19.18C211.17,15.462 210.406,10.4 206.23,10.4C202.367,10.4 201.426,15.304 201.426,18.785ZM215.033,18.828C215.033,24.401 211.451,29.029 206.404,29.029C201.459,29.029 197.564,24.875 197.564,19.144C197.564,13.564 201.15,8.94 206.193,8.94C211.139,8.94 215.033,13.089 215.033,18.828Z" style="fill-rule:nonzero;"/>
        <path d="M217.297,11.665L217.297,10.954C217.297,10.285 217.504,10.205 217.959,10.047C219.35,9.573 219.176,9.213 219.279,7.595C219.488,4.309 220.148,0.037 223.91,0.037C224.881,0.037 226.1,0.713 226.1,2.058C226.1,3.165 225.336,3.798 224.5,3.798C223.838,3.798 223.527,3.439 223.281,3.122C223.074,2.77 222.934,2.454 222.656,2.454C222.309,2.454 222.203,3.007 222.203,3.324C222.34,6.761 222.551,8.027 222.482,9.53L225.303,9.53L225.303,11.665L222.482,11.665L222.482,24.875C222.482,28.039 224.639,25.746 224.639,27.723L224.639,28.435L217.297,28.435L217.297,27.723C217.297,25.947 219.143,27.881 219.143,25.077L219.143,11.665L217.297,11.665Z" style="fill-rule:nonzero;"/>
        <path d="M0,82.214C0,79.429 3.06,82.91 3.06,77.658L3.06,44.567C3.06,39.315 0.054,42.795 0.054,40.01L0.054,38.871L11.857,38.871L11.857,40.01C11.857,42.795 8.796,39.315 8.796,44.567L8.796,80.505L17.816,80.505C27.062,80.505 23.386,72.152 26.781,72.152L28.064,72.152L28.064,83.353L0,83.353L0,82.214Z" style="fill-rule:nonzero;"/>
        <path d="M48.332,64.179C48.611,59.559 46.996,54.816 42.261,54.816C37.586,54.816 35.47,59.433 35.134,64.179L48.332,64.179ZM34.97,67.216C34.636,74.114 37.865,81.265 44.656,81.265C48.168,81.265 50.67,78.986 52.843,76.012L54.738,77.658C51.898,82.023 48.39,84.303 43.545,84.303C35.248,84.303 29.232,77.341 29.232,67.912C29.232,58.99 34.58,52.159 42.599,52.159C50.224,52.159 54.457,58.99 54.236,67.216L34.97,67.216Z" style="fill-rule:nonzero;"/>
        <path d="M55.013,55.066C55.013,52.349 58.912,54.816 58.912,50.26L58.912,46.083C58.912,44.44 59.47,44.25 60.693,44.187L64.257,43.934L64.257,53.108L70.83,53.108L70.83,56.521L64.257,56.521L64.257,75.316C64.257,78.29 64.814,80.884 67.933,80.884C69.212,80.884 69.828,80.695 70.939,79.999L71.33,79.746L72.386,81.707C70.718,83.289 67.82,84.303 65.593,84.303C60.082,84.303 58.912,79.999 58.912,76.835L58.912,56.521L55.013,56.521L55.013,55.066Z" style="fill-rule:nonzero;"/>
        <path d="M82.298,77.974C82.298,82.404 85.138,79.429 85.138,82.214L85.138,83.353L74,83.353L74,82.214C74,79.367 76.951,82.467 76.951,77.974L76.951,44.25C76.951,39.757 74,42.858 74,40.01L74,38.871L82.298,38.618L82.298,55.446C85.029,53.424 87.587,52.159 90.873,52.159C99.281,52.159 100.117,58.8 100.117,60.699L100.117,77.974C100.117,82.404 103.012,79.367 103.012,82.214L103.012,83.353L91.99,83.353L91.99,82.214C91.99,79.429 94.773,82.34 94.773,77.974L94.773,62.216C94.773,60.192 94.828,55.193 89.205,55.193C86.865,55.193 83.746,56.652 82.298,58.74L82.298,77.974Z" style="fill-rule:nonzero;"/>
        <path d="M113.705,78.923C115.264,80.505 117.547,81.455 119.605,81.455C126.344,81.455 128.072,74.114 128.072,67.849C128.072,61.521 126.066,55.003 119.605,55.003C117.547,55.003 115.264,55.953 113.705,57.535L113.705,78.923ZM113.705,54.687C116.043,52.982 118.77,52.159 121.555,52.159C129.406,52.159 134.252,59.243 134.252,68.038C134.252,76.835 129.406,84.303 121.166,84.303C118.326,84.303 115.041,82.973 112.758,81.075L109.473,84.303L108.359,84.303L108.359,44.25C108.359,39.757 105.406,42.858 105.406,40.01L105.406,38.871L113.705,38.618L113.705,54.687Z" style="fill-rule:nonzero;"/>
        <path d="M145.168,62.407L145.275,62.407C146.113,58.484 148.729,52.159 152.904,52.159C154.854,52.159 156.525,53.424 156.525,55.762C156.525,57.724 154.967,58.99 153.295,58.99C151.848,58.99 151.012,58.103 150.346,58.103C147.447,58.103 145.111,67.849 145.111,72.089L145.111,77.974C145.111,82.91 148.508,78.986 148.508,82.214L148.508,83.353L136.59,83.353L136.59,82.214C136.59,79.05 139.82,82.783 139.82,77.974L139.82,58.484C139.82,53.677 136.59,57.412 136.59,54.247L136.59,53.108L145.168,52.855L145.168,62.407Z" style="fill-rule:nonzero;"/>
        <path d="M166.381,44.567C166.381,46.654 164.822,48.426 162.982,48.426C161.146,48.426 159.586,46.654 159.586,44.567C159.586,42.479 161.146,40.706 162.982,40.706C164.822,40.706 166.381,42.479 166.381,44.567ZM166.104,77.974C166.104,82.277 168.775,79.493 168.775,82.214L168.775,83.353L158.027,83.353L158.027,82.214C158.027,79.493 160.756,82.277 160.756,77.974L160.756,58.484C160.756,54.183 158.027,56.964 158.027,54.247L158.027,53.108L166.104,52.855L166.104,77.974Z" style="fill-rule:nonzero;"/>
        <path d="M191.996,57.535C190.436,55.953 188.152,55.003 186.092,55.003C179.354,55.003 177.631,62.343 177.631,68.609C177.631,74.937 179.635,81.455 186.092,81.455C188.152,81.455 190.436,80.505 191.996,78.923L191.996,57.535ZM191.996,44.25C191.996,39.821 189.098,42.858 189.098,40.01L189.098,38.871L197.342,38.618L197.342,77.974C197.342,82.214 199.959,79.556 199.959,82.214L199.959,83.353L192.164,83.353L192.164,80.822C189.936,83.163 186.986,84.303 184.145,84.303C176.293,84.303 171.449,77.214 171.449,68.418C171.449,59.622 176.293,52.159 184.535,52.159C187.209,52.159 189.654,53.298 191.996,54.687L191.996,44.25Z" style="fill-rule:nonzero;"/>
        <path d="M214.826,72.215C219.113,72.215 220.561,66.9 220.561,62.913C220.561,58.863 219.059,54.183 214.883,54.183C210.369,54.183 208.924,59.179 208.924,63.419C208.924,67.66 210.537,72.215 214.826,72.215ZM207.975,78.734C210.148,78.227 212.373,77.785 214.604,77.785C225.518,77.785 227.633,83.796 227.633,86.707C227.633,94.301 219.672,96.768 214.215,96.768C210.982,96.768 202.406,95.629 202.406,90.377C202.406,88.289 203.857,86.96 205.691,86.96C207.027,86.96 208.701,87.973 208.701,89.744C208.701,90.504 208.365,91.199 208.365,91.769C208.365,94.047 213.268,94.111 214.604,94.111C217.498,94.111 222.846,92.719 222.846,88.542C222.846,83.605 215.996,82.973 212.879,82.973C208.197,82.973 204.078,84.303 203.467,84.303C203.02,84.303 203.02,83.859 203.133,83.605L207.975,72.279C205.137,70.38 203.299,67.279 203.299,63.546C203.299,56.395 209.031,52.159 214.99,52.159C217.275,52.159 219.225,52.917 221.23,54.057C221.617,51.589 223.18,49.627 225.518,49.627C227.131,49.627 228.689,50.703 228.689,52.728C228.689,54.247 227.633,55.323 226.242,55.323C224.406,55.323 224.291,53.867 223.791,53.867C223.344,53.867 223.121,54.437 223.121,54.876C223.121,56.272 226.186,58.293 226.186,62.787C226.186,69.81 220.842,74.24 214.883,74.24C213.322,74.24 211.707,74.114 210.26,73.417L207.975,78.734Z" style="fill-rule:nonzero;"/>
        <path d="M248.57,64.179C248.846,59.559 247.232,54.816 242.5,54.816C237.822,54.816 235.705,59.433 235.375,64.179L248.57,64.179ZM235.207,67.216C234.869,74.114 238.1,81.265 244.895,81.265C248.4,81.265 250.91,78.986 253.082,76.012L254.973,77.658C252.135,82.023 248.625,84.303 243.781,84.303C235.484,84.303 229.469,77.341 229.469,67.912C229.469,58.99 234.816,52.159 242.832,52.159C250.463,52.159 254.697,58.99 254.475,67.216L235.207,67.216Z" style="fill-rule:nonzero;"/>
        <path d="M55.859,115.668L196.795,115.668L196.795,210.891C196.795,217.535 196.062,257.009 164.143,275.949C130.675,295.799 126.33,300.908 126.33,300.908C126.33,300.908 121.654,295.504 88.519,275.949C56.552,257.087 55.859,217.535 55.859,210.891L55.859,115.668ZM47.873,210.891C47.873,222.767 50.519,263.092 84.578,283.195C113.855,300.471 120.031,306.16 120.637,306.75L120.668,306.783C120.668,306.783 124.713,310.016 126.18,312.517C128.649,309.391 132.377,306.355 132.377,306.355L132.783,306.025C134.49,304.555 141.883,298.734 168.092,283.187C202.143,262.98 204.789,222.744 204.789,210.891L204.789,107.088L47.873,107.088L47.873,210.891Z" style="fill-rule:nonzero;"/>
        <path d="M81.084,222.664C85.605,221.174 85.211,220.574 90.447,216.777C93.453,214.596 96.521,215.072 99.011,215.816L82.168,241.699L109.381,223.885C107.211,227.408 105.021,231.48 104.785,234.9C104.537,238.445 106.303,242.723 102.992,246.603C99.834,250.307 94.81,248.693 94.81,248.693C94.81,248.693 96.412,252.266 100.912,252.607C105.24,252.945 109.48,251.26 111.707,246.848C113.848,242.596 113.152,242.453 114.168,236.06C114.75,232.392 117.26,230.558 119.545,229.324L125.934,259.544L132.584,227.695C133.539,231.721 134.871,236.152 137.121,238.744C139.451,241.426 143.725,243.195 144.127,248.281C144.514,253.141 139.82,255.549 139.82,255.549C139.82,255.549 143.477,256.94 146.904,254.002C150.203,251.176 152.008,246.988 150.465,242.293C148.973,237.771 148.375,238.166 144.576,232.926C142.396,229.92 142.873,226.849 143.615,224.359L169.502,241.209L151.689,213.994C155.209,216.164 159.283,218.351 162.703,218.594C166.248,218.838 170.523,217.074 174.406,220.387C178.111,223.547 176.494,228.566 176.494,228.566C176.494,228.566 180.068,226.961 180.412,222.463C180.742,218.133 179.064,213.894 174.645,211.668C170.4,209.523 170.252,210.224 163.859,209.211C160.195,208.627 158.361,206.117 157.127,203.83L187.342,197.439L155.502,190.791C159.527,189.836 163.955,188.506 166.543,186.256C169.225,183.924 170.998,179.652 176.084,179.248C180.937,178.863 183.348,183.557 183.348,183.557C183.348,183.557 184.738,179.898 181.803,176.473C178.973,173.172 174.791,171.363 170.092,172.912C165.576,174.4 165.967,175 160.729,178.803C157.723,180.982 154.65,180.504 152.16,179.762L169.006,153.875L141.795,171.687C143.965,168.168 146.152,164.098 146.389,160.674C146.641,157.129 144.871,152.853 148.186,148.971C151.346,145.265 156.367,146.881 156.367,146.881C156.367,146.881 154.764,143.308 150.266,142.965C145.934,142.634 141.697,144.312 139.473,148.724C137.326,152.978 138.023,153.121 137.008,159.514C136.445,163.06 134.078,164.889 131.855,166.121L125.824,135.362L118.664,168.172C117.703,164.07 116.363,159.484 114.057,156.83C111.721,154.148 107.449,152.377 107.049,147.291C106.66,142.434 111.355,140.026 111.355,140.026C111.355,140.026 107.695,138.633 104.27,141.573C100.975,144.4 99.166,148.582 100.713,153.281C102.199,157.801 102.803,157.408 106.6,162.648C108.779,165.654 108.303,168.724 107.561,171.213L81.673,154.363L99.482,181.576C95.962,179.406 91.894,177.223 88.476,176.98C84.927,176.734 80.654,178.498 76.771,175.187C73.066,172.031 74.683,167.008 74.683,167.008C74.683,167.008 71.111,168.607 70.765,173.111C70.431,177.443 72.115,181.68 76.529,183.904C80.779,186.051 80.923,185.349 87.312,186.365C90.98,186.947 92.814,189.457 94.05,191.742L63.834,198.135L95.675,204.783C91.65,205.738 87.224,207.068 84.634,209.318C81.947,211.652 80.177,215.922 75.089,216.326C70.234,216.709 67.826,212.017 67.826,212.017C67.826,212.017 66.431,215.678 69.377,219.103C72.197,222.4 76.384,224.209 81.084,222.664Z" style="fill-rule:nonzero;"/>
        <path d="M179.18,301.516L179.463,301.516L180.867,301.555L189.571,314.578C197.749,310.929 206.419,308.71 215.418,307.953C212.502,305.762 207.195,302.082 202.105,300.197L200.823,299.723C200.823,299.723 208.625,286.953 210.482,283.912C197.677,285.279 185.378,288.814 173.906,294.488C167.631,297.596 161.771,301.299 156.383,305.49C168.202,301.435 177.713,301.497 178.168,301.492L179.18,301.516Z" style="fill-rule:nonzero;"/>
        <path d="M175.082,303.558C170.698,303.877 162.375,304.963 153.456,308.658C154.34,309.599 156.213,311.592 158.406,313.925C164.056,311.37 168.663,308.471 172.129,305.944C173.13,305.182 174.112,304.383 175.082,303.558Z" style="fill-rule:nonzero;"/>
        <path d="M72.841,301.273L73.636,301.287L74.228,301.273C74.683,301.278 84.194,301.217 96.013,305.271C90.626,301.08 84.765,297.377 78.49,294.269C67.017,288.596 54.718,285.06 41.914,283.693C43.771,286.734 51.572,299.504 51.572,299.504L50.291,299.978C45.201,301.863 39.894,305.543 36.978,307.734C45.937,308.488 54.569,310.688 62.714,314.308L71.529,301.336L72.841,301.273Z" style="fill-rule:nonzero;"/>
        <path d="M180.502,326.828L176.47,324.965L174.027,323.835L173.627,323.65L173.594,324.179L173.396,327.383L173.164,331.127L170.99,332.4L171.264,329.232L171.557,325.836L171.793,323.096L163.996,319.51L166.17,318.236L172.387,321.117L172.893,314.297L174.959,313.088L174.236,321.615L175.956,322.394L178.463,323.53L182.785,325.488L180.502,326.828ZM159.266,337.307C155.85,338.48 153.168,337.07 151.828,333.18L149.037,325.057L151.023,324.373L153.725,332.238C154.641,334.898 156.104,336.439 158.664,335.558C161.227,334.68 161.434,332.564 160.518,329.904L157.814,322.039L159.801,321.357L162.592,329.478C163.932,333.373 162.682,336.133 159.266,337.307ZM138.795,341.81L136.533,327.328L138.607,327.004L140.584,339.66L146.643,338.713L146.928,340.539L138.795,341.81ZM123.676,329.824L119.139,329.4L117.947,342.156L115.857,341.959L117.049,329.205L112.512,328.781L112.684,326.941L123.848,327.984L123.676,329.824ZM103.914,340.115L103.479,336.154L96.564,334.211L94.129,337.363L92.005,336.767L101.998,324.35L104.121,324.947L106.117,340.734L103.914,340.115ZM85.929,334.043L84.017,333.176L89.095,321.987L90.076,319.828L90.812,320.162L91.988,320.695L85.929,334.043ZM81.031,324.25L76.4,321.394L76.079,321.916L74.83,323.941L72.896,327.078L71.107,325.976L73.105,322.736L74.35,320.719L78.802,313.5L85.433,317.59L84.462,319.162L79.619,316.176L77.371,319.822L82,322.676L81.031,324.25ZM188.906,317.491C188.476,316.855 188.026,316.189 187.568,315.511C184.016,310.252 179.856,304.097 179.148,303.047C173.398,308.182 166.921,312.371 159.945,315.562C159.27,315.872 158.596,316.183 157.911,316.474C148.156,320.603 137.478,322.791 126.428,322.791C115.292,322.791 104.452,320.527 94.491,316.247C93.811,315.954 93.141,315.637 92.469,315.325C85.526,312.109 79.034,307.914 73.212,302.789C72.508,303.833 68.339,310.005 64.781,315.27C64.323,315.95 63.873,316.615 63.443,317.251C61.49,320.143 59.927,322.456 59.58,322.971C78.32,338.465 102.012,347 126.428,347C150.918,347 174.432,338.555 192.779,323.226C192.433,322.713 190.865,320.391 188.906,317.491ZM97.677,332.734L103.299,334.314L102.455,326.529L97.677,332.734Z" style="fill-rule:nonzero;"/>
        <path d="M93.99,313.706C96.183,311.373 98.056,309.38 98.94,308.439C89.743,304.717 81.5,303.633 77.158,303.328C80.745,306.259 86.438,310.291 93.99,313.706Z" style="fill-rule:nonzero;"/>
    </g>
</svg>
